<svg width="1624pt" height="840" viewBox="0 0 1624 630" xmlns="http://www.w3.org/2000/svg"><g fill="#fff"><path d="M0 0h195.45C180.21 10.8 166 24.51 159.3 42.33c-7.07 20.1-5.02 41.77-5.31 62.67.56 26.01-1.32 51.99-1.04 78 .24 55-.24 110 .23 165 1.31 35.37 1.4 71.9 14.33 105.41 8.96 23.62 30.57 39.17 51.47 51.66 17.67 11.41 39.75 11.58 60.03 12.05 25.28 1.38 49.74-11.24 66.06-30.05 7.47-9.44 13.74-19.96 17.6-31.4 7.67-22.39 12.4-45.92 12.35-69.65C374.99 257.35 375 128.67 375 0h235.5c28.29 75.51 54.6 151.78 83.42 227.1 15.39 41.37 31.23 82.58 46.57 123.98 15.77-42.26 31.41-84.58 46.95-126.93 19.85-.25 39.71-.08 59.57-.2 64.26-1.94 128.55-.49 192.83-.98.47-43.44 4.64-87.23 17.31-128.94 5.47-17.56 12.4-35.23 24.55-49.32 13.25-15.65 28.91-30.21 48.27-37.8 9.57-3.39 19.63-5.26 29.63-6.91h58.89c15.35.81 30.73 1.23 46.12 1.2 27.93 70.78 56.74 141.21 84.95 211.88 28.82-70.55 57.09-141.33 85.67-211.98 41.59-.24 83.19-.05 124.78-.11-53.52 128.73-107.45 257.28-161.07 385.96-32.14 76.62-63.92 153.38-96.17 229.94-87.59.24-175.17.07-262.76.09-.06-97.32.05-194.63-.04-291.95-18.32-.12-36.63-.09-54.94.02-.11 96.64.04 193.28-.06 289.92-40.65.06-81.31.06-121.95 0-.2-91.09.28-182.19-.23-273.29-24.56 57.96-48.6 116.15-72.91 174.22-13.76 33.01-27.75 65.91-41.2 99.04-7.12-.06-14.23-.07-21.33-.05-67.36-159.23-135.39-318.18-203.05-477.28-.69 63.46-.11 126.93-.3 190.39.01 42.49 1.15 85.96-10.72 127.21-7.92 26.29-18.84 52.25-36.5 73.56-22.03 27.69-51.74 48.73-83.93 63.05-30.6 13.83-63.94 20.75-97.28 23.59-40.27 3.3-81.28 1.53-120.56-8.43-33.93-7.91-66.35-22.71-94.01-43.98-23.93-18.24-43.88-41.93-56.77-69.18-5.13-10.43-9.03-21.41-12.65-32.43-7.83-23.49-9-48.45-11.58-72.88V0m1173.05 117c-9.52 34.42-10.91 70.48-11.11 105.98 27.43.01 54.87.13 82.31-.07-18.12-43.44-37.36-86.4-55.85-129.68-8.24 5.28-13.09 14.47-15.35 23.77m-10.03 208.01c.16 95.79-.43 191.59.3 287.38 19.31-43.73 38.47-87.54 57.79-131.27 22.62-52.06 46.1-103.76 68.29-156.01-42.13-.26-84.26-.06-126.38-.1z"/><path d="M868.66 0h136.85c-4.01 8.1-6.96 16.67-10.57 24.95-27.48 65.88-55.06 131.72-82.53 197.61-15.13-11.03-29.05-23.6-43.56-35.42-17.2-14.58-34.86-28.61-51.96-43.31C834.2 95.91 851.38 47.93 868.66 0zm518.12 605.35c32.46-64.18 65.8-127.92 98.78-191.84.42 13.51.55 27.03 1.14 40.54.93 25.27-.55 50.59 1.02 75.85-23.22 18.14-47.1 35.43-70.57 53.24-10.21 7.28-19.71 15.59-30.37 22.21zm131.64-191.93c15.22 25.1 28.95 51.1 43.63 76.54 20.6 36.6 41.3 73.16 61.95 109.73v3.04c-7.63-6.06-16.05-11.05-23.86-16.83-27.16-18.52-53.62-38.03-81.03-56.16.65-38.79-2.1-77.55-.69-116.32zM1407.17 630c32.61-25.24 65.51-50.12 98.11-75.39 32.63 24.42 65.63 48.36 97.96 73.17-35.57 1.59-71.2.44-106.75 2.22h-89.32z"/></g></svg>