<svg xmlns="http://www.w3.org/2000/svg" role="img" viewBox="8.47 5.47 183.82 76.82"><title>3D Robotics logo</title><g fill="#fff"><path d="M12 9h1v1h-1zm1 0h1v1h-1zm1 0h13v1H14zm13 0h1v1h-1zm1 0h1v1h-1zm1 0h1v1h-1zm1 0h1v1h-1zm16 0h1v1h-1zm1 0h1v1h-1zm1 0h12v1H48zm12 0h1v1h-1zm1 0h1v1h-1zm1 0h1v1h-1zm13 0h1v1h-1zm1 0h17v1H76zm17 0h1v1h-1zm1 0h1v1h-1zm1 0h1v1h-1zm1 0h1v1h-1zm1 0h1v1h-1zm1 0h1v1h-1zm1 0h1v1h-1zm1 0h1v1h-1zm1 0h1v1h-1zm36 0h1v1h-1zm1 0h1v1h-1zm1 0h1v1h-1zm1 0h25v1h-25zm25 0h1v1h-1zm1 0h1v1h-1zm1 0h1v1h-1zm1 0h1v1h-1zm1 0h1v1h-1zm1 0h1v1h-1zM12 10h1v1h-1zm1 0h14v1H13zm14 0h1v1h-1zm1 0h1v1h-1zm1 0h1v1h-1zm16 0h1v1h-1zm1 0h14v1H46zm14 0h1v1h-1zm1 0h1v1h-1zm1 0h1v1h-1zm13 0h1v1h-1zm1 0h23v9H76zm23 0h1v10h-1zm1 0h1v1h-1zm1 0h1v1h-1zm1 0h1v1h-1zm1 0h1v1h-1zm1 0h1v1h-1zm33 0h1v1h-1zm1 0h1v1h-1zm1 0h30v9h-30zm30 0h1v10h-1zm1 0h1v1h-1zm1 0h1v1h-1zm1 0h1v1h-1zm1 0h1v1h-1zM12 11h1v12h-1zm1 0h13v1H13zm13 0h1v1h-1zm1 0h1v1h-1zm1 0h1v1h-1zm16 0h1v1h-1zm1 0h14v1H45zm14 0h1v1h-1zm1 0h1v1h-1zm1 0h1v1h-1zm14 0h1v7h-1zm25 0h3v9h-3zm3 0h1v10h-1zm1 0h1v1h-1zm1 0h1v1h-1zm1 0h1v1h-1zm1 0h1v1h-1zm30 0h1v7h-1zm1 0h1v7h-1zm32 0h2v10h-2zm2 0h1v11h-1zm1 0h1v1h-1zm1 0h1v1h-1zm1 0h1v1h-1zM13 12h12v1H13zm12 0h1v1h-1zm1 0h1v1h-1zm1 0h1v1h-1zm16 0h1v1h-1zm1 0h14v1H44zm14 0h1v1h-1zm1 0h1v1h-1zm1 0h1v1h-1zm44 0h2v10h-2zm2 0h1v11h-1zm1 0h1v1h-1zm1 0h1v1h-1zm1 0h1v1h-1zm64 0h1v11h-1zm1 0h1v12h-1zm1 0h1v1h-1zm1 0h1v1h-1zm1 0h1v1h-1zM13 13h11v1H13zm11 0h1v1h-1zm1 0h1v1h-1zm1 0h1v1h-1zm16 0h1v1h-1zm1 0h14v1H43zm14 0h1v1h-1zm1 0h1v1h-1zm1 0h1v1h-1zm48 0h1v10h-1zm1 0h1v11h-1zm1 0h1v1h-1zm1 0h1v1h-1zm1 0h1v1h-1zm64 0h1v12h-1zm1 0h1v14h-1zm1 0h1v1h-1zm1 0h1v1h-1zM13 14h10v1H13zm10 0h1v1h-1zm1 0h1v1h-1zm1 0h1v1h-1zm16 0h1v1h-1zm1 0h14v1H42zm14 0h1v1h-1zm1 0h1v1h-1zm1 0h1v1h-1zm51 0h1v11h-1zm1 0h1v12h-1zm1 0h1v1h-1zm1 0h1v1h-1zm1 0h1v1h-1zm64 0h1v36h-1zm1 0h1v36h-1zm1 0h1v1h-1zm1 0h1v1h-1zM13 15h9v1h-9zm9 0h1v1h-1zm1 0h1v1h-1zm1 0h1v1h-1zm16 0h1v1h-1zm1 0h14v1H41zm14 0h1v1h-1zm1 0h1v1h-1zm1 0h1v1h-1zm54 0h1v12h-1zm1 0h1v13h-1zm1 0h1v1h-1zm1 0h1v1h-1zm65 0h1v34h-1zm1 0h1v1h-1zm1 0h1v1h-1zM13 16h8v1h-8zm8 0h1v1h-1zm1 0h1v1h-1zm1 0h1v1h-1zm16 0h1v1h-1zm1 0h14v1H40zm14 0h1v1h-1zm1 0h1v1h-1zm1 0h1v1h-1zm57 0h1v13h-1zm1 0h1v1h-1zm1 0h1v1h-1zm65 0h1v32h-1zm1 0h1v1h-1zm1 0h1v1h-1zM13 17h7v1h-7zm7 0h1v1h-1zm1 0h1v1h-1zm1 0h1v1h-1zm16 0h1v1h-1zm1 0h14v1H39zm14 0h1v1h-1zm1 0h1v1h-1zm1 0h1v1h-1zm59 0h1v14h-1zm1 0h1v1h-1zm1 0h1v1h-1zm65 0h1v30h-1zm1 0h1v1h-1zM13 18h6v1h-6zm6 0h1v1h-1zm1 0h1v1h-1zm1 0h1v1h-1zm16 0h1v1h-1zm1 0h14v1H38zm14 0h1v1h-1zm1 0h1v1h-1zm1 0h1v1h-1zm21 0h1v1h-1zm40 0h1v15h-1zm1 0h1v17h-1zm1 0h1v1h-1zm20 0h1v1h-1zm1 0h1v1h-1zm44 0h1v28h-1zm1 0h1v1h-1zM13 19h5v1h-5zm5 0h1v1h-1zm1 0h1v1h-1zm1 0h1v1h-1zm16 0h1v1h-1zm1 0h14v1H37zm14 0h1v1h-1zm1 0h1v1h-1zm1 0h1v1h-1zm22 0h1v1h-1z"/><path d="M76 19h41v1H76zm41 0h1v20h-1zm1 0h1v1h-1zm19 0h1v1h-1zm1 0h1v1h-1zm1 0h43v1h-43zm44 0h1v1h-1zm1 0h1v1h-1zM13 20h4v1h-4zm4 0h1v1h-1zm1 0h1v1h-1zm1 0h1v1h-1zm16 0h1v1h-1zm1 0h14v1H36zm14 0h1v1h-1zm1 0h1v1h-1zm1 0h1v1h-1zm23 0h1v1h-1zm1 0h18v1H76zm18 0h1v1h-1zm1 0h1v1h-1zm1 0h1v1h-1z"/><path d="M97 20h21v1H97zm21 0h1v47h-1zm1 0h1v1h-1zm18 0h1v1h-1zm1 0h1v1h-1zm1 0h24v1h-24zm24 0h2v1h-2zm2 0h1v1h-1zm1 0h1v1h-1zm1 0h1v1h-1zm1 0h15v1h-15zm15 0h1v24h-1zm1 0h1v1h-1zm1 0h1v1h-1zM13 21h3v1h-3zm3 0h1v1h-1zm1 0h1v1h-1zm1 0h1v1h-1zm16 0h1v1h-1zm1 0h14v1H35zm14 0h1v1h-1zm1 0h1v1h-1zm1 0h1v1h-1zm24 0h1v1h-1zm1 0h18v1H76zm18 0h1v1h-1zm1 0h1v1h-1zm1 0h1v1h-1zm1 0h1v1h-1zm1 0h1v1h-1zm1 0h1v1h-1zm1 0h1v1h-1zm1 0h1v1h-1z"/><path d="M102 21h17v1h-17zm17 0h1v45h-1zm1 0h1v1h-1zm17 0h1v1h-1zm1 0h1v1h-1zm1 0h26v1h-26zm26 0h1v1h-1zm1 0h1v1h-1zm1 0h1v1h-1zm1 0h1v1h-1zm1 0h1v1h-1zm1 0h14v1h-14zm14 0h1v22h-1zm1 0h1v1h-1zM13 22h2v1h-2zm2 0h1v1h-1zm1 0h1v1h-1zm1 0h1v1h-1zm16 0h1v1h-1zm1 0h14v1H34zm14 0h1v1h-1zm1 0h1v1h-1zm1 0h1v1h-1zm50 0h1v1h-1zm1 0h1v1h-1zm1 0h1v1h-1zm1 0h1v1h-1zm1 0h15v1h-15zm16 0h1v1h-1zm1 0h1v1h-1zm49 0h1v1h-1zm1 0h1v1h-1zm1 0h12v1h-12zm13 0h1v1h-1zm1 0h1v1h-1zM12 23h1v1h-1zm1 0h1v1h-1zm1 0h1v1h-1zm1 0h1v1h-1zm1 0h1v1h-1zm16 0h1v1h-1zm1 0h14v1H33zm14 0h1v1h-1zm1 0h1v1h-1zm1 0h1v1h-1zm54 0h1v1h-1zm1 0h1v1h-1zm1 0h1v1h-1z"/><path d="M106 23h14v1h-14zm14 0h1v42h-1zm1 0h1v1h-1zm1 0h1v1h-1zm49 0h1v1h-1zm1 0h1v1h-1zm1 0h12v1h-12zm12 0h1v18h-1zm1 0h1v1h-1zM12 24h1v1h-1zm1 0h1v1h-1zm1 0h1v1h-1zm1 0h1v1h-1zm16 0h1v1h-1zm1 0h14v1H32zm14 0h1v1h-1zm1 0h1v1h-1zm1 0h1v1h-1zm57 0h1v1h-1zm1 0h1v1h-1zm1 0h1v1h-1z"/><path d="M108 24h13v1h-13zm13 0h1v39h-1zm1 0h1v1h-1zm1 0h1v1h-1zm49 0h1v1h-1zm1 0h1v1h-1zm1 0h11v1h-11zm12 0h1v1h-1zM12 25h1v1h-1zm1 0h1v1h-1zm1 0h1v1h-1zm16 0h1v1h-1zm1 0h14v1H31zm14 0h1v1h-1zm1 0h1v1h-1zm1 0h1v1h-1zm60 0h1v1h-1zm1 0h1v1h-1z"/><path d="M109 25h13v1h-13zm13 0h1v37h-1zm1 0h1v1h-1zm50 0h1v1h-1zm1 0h1v1h-1zm1 0h10v1h-10zm11 0h1v1h-1zm1 0h1v1h-1zM12 26h1v1h-1zm1 0h1v1h-1zm16 0h1v1h-1zm1 0h14v1H30zm14 0h1v1h-1zm1 0h1v1h-1zm1 0h1v1h-1zm62 0h1v1h-1zm1 0h1v1h-1zm1 0h12v1h-12zm13 0h1v1h-1zm1 0h1v1h-1zm50 0h1v1h-1zm1 0h1v1h-1zm11 0h1v12h-1zm1 0h1v1h-1zM12 27h1v1h-1zm16 0h1v1h-1zm1 0h14v1H29zm14 0h1v1h-1zm1 0h1v1h-1zm1 0h1v1h-1zm64 0h1v1h-1zm1 0h1v1h-1z"/><path d="M111 27h12v1h-12zm12 0h1v33h-1zm1 0h1v1h-1zm51 0h1v1h-1zm1 0h10v1h-10zm11 0h1v1h-1zM27 28h1v1h-1zm1 0h14v1H28zm14 0h1v1h-1zm1 0h1v1h-1zm1 0h1v1h-1zm66 0h1v1h-1zm1 0h1v1h-1zm1 0h11v1h-11zm12 0h1v1h-1zm1 0h1v1h-1zm50 0h1v1h-1zm1 0h1v1h-1zm11 0h1v1h-1zM26 29h1v1h-1zm1 0h14v1H27zm14 0h1v1h-1zm1 0h1v1h-1zm1 0h1v1h-1zm68 0h1v1h-1zm1 0h1v1h-1z"/><path d="M113 29h11v1h-11zm11 0h1v29h-1zm1 0h1v1h-1zm50 0h1v1h-1zm1 0h1v1h-1zm11 0h1v1h-1zm1 0h1v1h-1zM25 30h1v1h-1zm1 0h14v1H26zm14 0h1v1h-1zm1 0h1v1h-1zm1 0h1v1h-1zm70 0h1v1h-1zm1 0h1v1h-1zm12 0h1v1h-1zm1 0h1v1h-1zm50 0h1v1h-1zm11 0h1v1h-1zm1 0h1v1h-1zM24 31h1v1h-1zm1 0h14v11H25zm14 0h1v11h-1zm1 0h1v1h-1zm1 0h1v1h-1zm72 0h1v1h-1z"/><path d="M114 31h11v1h-11zm11 0h1v25h-1zm1 0h1v1h-1zm50 0h1v1h-1zm11 0h1v1h-1zm1 0h1v1h-1zM23 32h1v1h-1zm1 0h14v10H24zm16 0h1v1h-1zm1 0h1v1h-1zm1 0h1v1h-1zm1 0h1v1h-1zm1 0h1v1h-1zm69 0h1v1h-1zm1 0h1v1h-1zm12 0h1v1h-1zm1 0h1v1h-1zm49 0h1v1h-1zm11 0h1v1h-1zm1 0h1v1h-1zM22 33h1v1h-1z"/><path d="M23 33h20v9H23zm20 0h1v10h-1zm1 0h1v1h-1zm1 0h1v1h-1zm1 0h1v1h-1zm1 0h1v1h-1zm67 0h1v1h-1zm1 0h10v1h-10zm11 0h1v1h-1zm1 0h1v1h-1zm49 0h1v1h-1zm11 0h1v1h-1zm1 0h1v1h-1zM21 34h1v1h-1z"/><path d="M22 34h24v8H22zm24 0h1v11h-1zm1 0h1v1h-1zm1 0h1v1h-1zm1 0h1v1h-1zm65 0h1v1h-1zm1 0h1v1h-1zm11 0h1v19h-1zm1 0h1v1h-1zm49 0h1v1h-1zm11 0h1v1h-1zm1 0h1v1h-1zM20 35h1v1h-1z"/><path d="M21 35h27v7H21zm27 0h1v12h-1zm1 0h1v1h-1zm1 0h1v1h-1zm1 0h1v1h-1zm64 0h1v1h-1zm1 0h10v1h-10zm11 0h1v1h-1zm48 0h1v1h-1zm1 0h1v1h-1zm11 0h1v1h-1zm1 0h1v1h-1zM19 36h1v1h-1z"/><path d="M20 36h30v6H20zm30 0h1v14h-1zm1 0h1v1h-1zm1 0h1v1h-1zm63 0h1v1h-1zm1 0h1v1h-1zm11 0h1v1h-1zm1 0h1v1h-1zm47 0h1v1h-1zm1 0h1v1h-1zm11 0h1v1h-1zM18 37h1v1h-1z"/><path d="M19 37h33v5H19zm33 0h1v36h-1zm1 0h1v1h-1zm1 0h1v1h-1zm62 0h1v1h-1zm11 0h1v1h-1zm1 0h1v1h-1zm47 0h1v1h-1zm1 0h10v4h-10zm11 0h1v1h-1zM17 38h1v1h-1z"/><path d="M18 38h35v4H18zm35 0h1v34h-1zm1 0h1v1h-1zm1 0h1v1h-1zm61 0h1v1h-1zm11 0h1v11h-1zm1 0h1v1h-1zm46 0h1v1h-1zm1 0h1v1h-1zm11 0h1v1h-1zm1 0h1v1h-1zM16 39h1v1h-1z"/><path d="M17 39h37v3H17zm37 0h1v32h-1zm1 0h1v1h-1zm1 0h1v1h-1zm60 0h1v1h-1zm1 0h10v1h-10zm11 0h1v1h-1zm45 0h1v1h-1zm1 0h1v1h-1zm1 0h10v4h-10zm11 0h1v1h-1zm1 0h1v1h-1zM15 40h1v1h-1z"/><path d="M16 40h39v2H16zm39 0h1v30h-1zm1 0h1v1h-1zm1 0h1v1h-1zm59 0h1v1h-1zm1 0h1v1h-1zm11 0h1v1h-1zm44 0h1v1h-1zm1 0h1v1h-1zm1 0h11v3h-11zm12 0h1v1h-1zM14 41h1v1h-1z"/><path d="M15 41h41v1H15zm41 0h1v28h-1zm1 0h1v1h-1zm59 0h1v1h-1zm1 0h1v1h-1zm11 0h1v1h-1zm43 0h1v1h-1zm1 0h1v1h-1zm1 0h12v2h-12zm12 0h1v1h-1zm1 0h1v1h-1zM13 42h1v1h-1zm1 0h42v1H14zm43 0h1v1h-1zm1 0h1v1h-1zm58 0h1v1h-1zm1 0h1v1h-1zm11 0h1v1h-1zm41 0h1v1h-1zm1 0h1v1h-1zm1 0h1v1h-1z"/><path d="M172 42h12v2h-12zm13 0h1v1h-1zm1 0h1v1h-1zM12 43h1v1h-1zm1 0h1v1h-1zm1 0h1v1h-1zm1 0h22v1H15zm22 0h2v1h-2zm2 0h1v1h-1zm1 0h1v1h-1zm1 0h16v1H41zm16 0h1v25h-1zm1 0h1v1h-1zm1 0h1v1h-1zm58 0h1v1h-1zm11 0h1v1h-1zm9 0h1v1h-1zm1 0h1v1h-1zm1 0h1v1h-1zm1 0h24v1h-24zm24 0h1v1h-1zm1 0h1v1h-1zm1 0h1v1h-1zm1 0h1v1h-1zm1 0h1v1h-1zm1 0h1v1h-1z"/><path d="M170 43h14v1h-14zm14 0h1v1h-1zm1 0h1v1h-1zM12 44h1v1h-1zm1 0h1v1h-1zm1 0h24v1H14zm24 0h1v1h-1zm1 0h1v1h-1zm1 0h1v1h-1zm1 0h1v1h-1zm1 0h1v1h-1zm1 0h1v1h-1zm1 0h14v1H44zm14 0h1v22h-1zm1 0h1v1h-1zm14 0h1v1h-1zm1 0h1v1h-1zm1 0h1v1h-1zm1 0h7v1h-7zm7 0h1v1h-1zm1 0h1v1h-1zm1 0h1v1h-1zm32 0h1v1h-1zm11 0h1v1h-1zm9 0h1v1h-1zm1 0h1v1h-1zm1 0h1v1h-1zm1 0h1v1h-1zm1 0h23v1h-23zm23 0h1v1h-1zm1 0h1v1h-1zm1 0h1v1h-1zm1 0h16v2h-16zm16 0h1v1h-1zm1 0h1v1h-1zM43 45h1v1h-1zm1 0h1v1h-1zm1 0h1v1h-1zm1 0h12v1H46zm13 0h1v1h-1zm1 0h1v1h-1zm13 0h1v1h-1zm1 0h1v1h-1zm1 0h9v32h-9zm9 0h1v32h-1zm1 0h1v1h-1zm32 0h1v1h-1zm11 0h1v1h-1zm10 0h1v1h-1zm1 0h1v1h-1z"/><path d="M140 45h42v1h-42zm43 0h1v1h-1zm1 0h1v1h-1zM45 46h1v1h-1zm1 0h1v1h-1zm1 0h12v1H47zm12 0h1v18h-1zm1 0h1v1h-1zm13 0h1v30h-1zm1 0h1v30h-1zm11 0h1v18h-1zm31 0h1v1h-1zm1 0h1v1h-1zm11 0h1v1h-1zm12 0h1v1h-1zm1 0h41v1h-41zm41 0h1v1h-1zm1 0h1v1h-1zM47 47h1v1h-1zm1 0h11v1H48zm12 0h1v1h-1zm1 0h1v1h-1zm55 0h1v1h-1zm1 0h1v1h-1zm11 0h1v1h-1zm13 0h1v1h-1zm1 0h39v1h-39zm39 0h1v1h-1zm1 0h1v1h-1zM48 48h1v1h-1zm1 0h10v1H49zm11 0h1v1h-1zm1 0h1v1h-1zm55 0h1v1h-1zm1 0h10v5h-10zm11 0h1v1h-1zm14 0h1v1h-1zm1 0h37v1h-37zm37 0h1v1h-1zm1 0h1v1h-1zm1 0h1v1h-1zM48 49h1v1h-1zm1 0h1v1h-1z"/><path d="M51 49h9v15h-9zm9 0h1v12h-1zm1 0h1v1h-1zm55 0h1v1h-1zm11 0h1v1h-1zm1 0h1v1h-1zm15 0h1v1h-1zm1 0h35v1h-35zm35 0h1v1h-1zm1 0h1v1h-1zm1 0h1v1h-1zM49 50h1v1h-1z"/><path d="M50 50h10v1H50zm11 0h1v1h-1zm55 0h1v1h-1zm11 0h1v1h-1zm1 0h1v1h-1zm16 0h1v1h-1zm1 0h33v1h-33zm33 0h1v1h-1zm1 0h1v1h-1zM49 51h1v1h-1zm1 0h1v1h-1zm11 0h1v1h-1zm1 0h1v1h-1zm53 0h1v1h-1zm1 0h1v1h-1zm11 0h1v1h-1zm1 0h1v1h-1zm17 0h1v1h-1zm1 0h30v1h-30zm30 0h1v1h-1zm1 0h1v1h-1zm1 0h1v1h-1zM50 52h1v1h-1zm11 0h1v1h-1zm1 0h1v1h-1zm53 0h1v1h-1zm1 0h10v4h-10zm11 0h1v1h-1zm19 0h1v1h-1zm1 0h27v1h-27zm27 0h1v1h-1zm1 0h1v1h-1zm1 0h1v1h-1zm1 0h1v1h-1zM50 53h1v1h-1zm11 0h1v1h-1zm1 0h1v1h-1zm52 0h1v1h-1zm1 0h1v1h-1zm11 0h1v1h-1zm1 0h1v1h-1zm20 0h1v1h-1zm1 0h24v1h-24zm24 0h1v1h-1zm1 0h1v1h-1zm1 0h1v1h-1zm1 0h1v1h-1zM50 54h1v1h-1zm11 0h1v2h-1zm1 0h1v1h-1zm52 0h1v1h-1z"/><path d="M115 54h10v4h-10zm11 0h1v1h-1zm1 0h1v1h-1zm21 0h1v1h-1zm1 0h20v1h-20zm20 0h1v1h-1zm1 0h1v1h-1zm1 0h1v1h-1zm1 0h1v1h-1zm1 0h1v1h-1zM50 55h1v1h-1zm12 0h1v1h-1zm51 0h1v1h-1zm1 0h1v1h-1zm12 0h1v1h-1zm1 0h1v1h-1zm21 0h1v1h-1zm1 0h1v1h-1zm1 0h14v1h-14zm14 0h1v14h-1zm1 0h1v1h-1zm1 0h1v1h-1zm1 0h1v1h-1zm1 0h1v1h-1zm1 0h1v1h-1zm1 0h1v1h-1zM50 56h1v1h-1zm11 0h1v1h-1zm1 0h1v1h-1zm51 0h1v1h-1z"/><path d="M114 56h11v2h-11zm11 0h1v1h-1zm1 0h1v1h-1zm24 0h1v1h-1zm1 0h13v1h-13zm14 0h1v1h-1zm1 0h1v1h-1zM50 57h1v1h-1zm11 0h1v1h-1zm1 0h1v1h-1zm50 0h1v1h-1zm1 0h1v1h-1zm12 0h1v1h-1zm1 0h1v1h-1zm24 0h1v1h-1zm1 0h1v1h-1zm1 0h14v1h-14zm14 0h1v14h-1zm1 0h1v1h-1zm1 0h1v1h-1zM50 58h1v1h-1zm11 0h1v1h-1zm1 0h1v1h-1zm49 0h1v1h-1zm1 0h1v1h-1zm1 0h11v2h-11zm11 0h1v1h-1zm1 0h1v1h-1zm27 0h1v1h-1z"/><path d="M153 58h14v1h-14zm14 0h1v14h-1zm1 0h1v1h-1zm1 0h1v1h-1zM49 59h1v1h-1zm1 0h1v1h-1zm11 0h1v1h-1zm1 0h1v1h-1zm48 0h1v1h-1zm1 0h1v1h-1zm1 0h11v3h-11zm12 0h1v1h-1zm1 0h1v1h-1zm27 0h1v1h-1zm1 0h1v1h-1z"/><path d="M154 59h14v1h-14zm14 0h1v14h-1zm1 0h1v1h-1zm1 0h1v1h-1zM49 60h1v1h-1zm1 0h10v4H50zm11 0h1v1h-1zm48 0h1v1h-1zm1 0h1v1h-1zm1 0h12v2h-12zm12 0h1v1h-1zm1 0h1v1h-1zm13 0h1v1h-1zm1 0h1v1h-1zm15 0h1v1h-1zm1 0h1v1h-1z"/><path d="M155 60h14v1h-14zm14 0h1v14h-1zm1 0h1v1h-1zm1 0h1v1h-1zM48 61h1v1h-1zm1 0h1v1h-1zm11 0h1v1h-1zm1 0h1v1h-1zm47 0h1v1h-1zm1 0h1v1h-1zm1 0h12v2h-12zm13 0h1v1h-1zm1 0h1v1h-1zm13 0h1v1h-1zm1 0h1v1h-1zm1 0h1v1h-1zm15 0h1v1h-1zm1 0h1v1h-1z"/><path d="M156 61h14v1h-14zm14 0h1v14h-1zm1 0h1v1h-1zm1 0h1v1h-1zM48 62h1v1h-1zm1 0h10v4H49zm11 0h1v1h-1zm1 0h1v1h-1zm46 0h1v1h-1zm1 0h1v1h-1zm1 0h13v1h-13zm13 0h1v1h-1zm1 0h1v1h-1zm14 0h1v1h-1zm1 0h1v1h-1zm1 0h1v1h-1zm1 0h1v1h-1zm15 0h1v1h-1zm1 0h1v1h-1z"/><path d="M157 62h14v1h-14zm14 0h1v14h-1zm1 0h1v1h-1zm1 0h1v1h-1zM47 63h1v1h-1zm1 0h11v3H48zm12 0h1v1h-1zm1 0h1v1h-1zm44 0h1v1h-1zm1 0h1v1h-1zm1 0h1v1h-1zm1 0h13v2h-13zm13 0h1v1h-1zm1 0h1v1h-1zm1 0h1v1h-1zm14 0h1v13h-1zm1 0h1v1h-1zm1 0h1v14h-1zm1 0h1v1h-1zm1 0h1v1h-1zm15 0h1v1h-1zm1 0h1v1h-1z"/><path d="M158 63h14v1h-14zm14 0h1v14h-1zm1 0h1v1h-1zm1 0h1v1h-1zM45 64h1v1h-1zm1 0h1v1h-1zm1 0h12v2H47zm12 0h1v1h-1zm1 0h1v1h-1zm25 0h1v1h-1zm18 0h1v1h-1zm1 0h1v1h-1zm1 0h1v1h-1zm1 0h14v2h-14zm15 0h1v1h-1zm1 0h1v1h-1zm16 0h1v12h-1zm2 0h1v13h-1zm1 0h1v1h-1zm1 0h1v1h-1zm15 0h1v1h-1zm1 0h1v1h-1z"/><path d="M159 64h14v1h-14zm14 0h1v13h-1zm1 0h1v1h-1zm1 0h1v1h-1zM44 65h1v1h-1zm1 0h1v1h-1zm1 0h12v3H46zm13 0h1v1h-1zm1 0h1v1h-1zm25 0h1v1h-1zm16 0h1v1h-1zm1 0h1v1h-1zm1 0h1v1h-1zm1 0h16v1h-16zm16 0h1v1h-1zm1 0h1v1h-1zm20 0h1v12h-1zm1 0h1v1h-1zm1 0h1v1h-1zm15 0h1v1h-1zm1 0h1v1h-1z"/><path d="M160 65h14v1h-14zm14 0h1v12h-1zm1 0h1v1h-1zm1 0h1v1h-1zM12 66h25v1H12zm25 0h2v1h-2zm2 0h1v1h-1zm1 0h1v1h-1zm1 0h1v1h-1zm1 0h1v1h-1zm1 0h1v1h-1zm1 0h1v1h-1zm1 0h13v2H45zm13 0h1v1h-1zm1 0h1v1h-1zm26 0h1v1h-1zm2 0h7v1h-7zm7 0h1v1h-1zm1 0h1v1h-1zm1 0h1v1h-1zm1 0h1v1h-1zm1 0h1v1h-1zm1 0h1v1h-1zm1 0h1v1h-1zm1 0h1v1h-1zm1 0h17v1h-17zm17 0h1v1h-1zm1 0h1v1h-1zm22 0h1v11h-1zm1 0h1v1h-1zm1 0h1v1h-1zm15 0h1v1h-1zm1 0h1v1h-1z"/><path d="M161 66h14v1h-14zm14 0h1v11h-1zm1 0h1v1h-1zm1 0h1v1h-1zM12 67h1v1h-1zm1 0h25v1H13zm25 0h1v1h-1zm1 0h1v1h-1zm1 0h1v1h-1zm1 0h1v1h-1zm1 0h15v2H42zm16 0h1v1h-1zm1 0h1v1h-1zm26 0h1v1h-1zm1 0h1v1h-1zm1 0h7v1h-7zm7 0h1v1h-1zm1 0h1v1h-1zm1 0h1v1h-1zm1 0h1v1h-1zm1 0h20v1H98zm20 0h1v1h-1zm1 0h1v1h-1zm24 0h1v10h-1zm1 0h1v1h-1zm1 0h1v1h-1zm15 0h1v1h-1zm1 0h1v1h-1z"/><path d="M162 67h14v1h-14zm14 0h1v10h-1zm1 0h1v1h-1zm1 0h1v1h-1zM12 68h1v1h-1zm1 0h44v1H13zm44 0h1v1h-1zm1 0h1v1h-1zm27 0h32v1H85zm32 0h1v1h-1zm1 0h1v1h-1zm1 0h1v1h-1zm25 0h1v9h-1zm1 0h1v1h-1zm1 0h1v1h-1zm15 0h1v1h-1zm1 0h1v1h-1z"/><path d="M163 68h14v1h-14zm14 0h1v9h-1zm1 0h1v1h-1zm1 0h1v1h-1zM12 69h1v7h-1zm1 0h43v1H13zm43 0h1v1h-1zm1 0h1v1h-1zm28 0h31v1H85zm31 0h1v1h-1zm1 0h1v1h-1zm1 0h1v1h-1zm27 0h1v8h-1zm1 0h1v1h-1zm1 0h1v1h-1zm15 0h1v1h-1zm1 0h1v1h-1z"/><path d="M164 69h14v1h-14zm14 0h1v8h-1zm1 0h1v1h-1zm1 0h1v1h-1zM13 70h42v1H13zm42 0h1v1h-1zm1 0h1v1h-1zm1 0h1v1h-1zm28 0h30v1H85zm30 0h1v1h-1zm1 0h1v1h-1zm1 0h1v1h-1zm29 0h1v7h-1zm1 0h1v1h-1zm1 0h1v1h-1zm15 0h1v1h-1zm1 0h1v1h-1z"/><path d="M165 70h14v1h-14zm14 0h1v7h-1zm1 0h1v1h-1zm1 0h1v1h-1zM13 71h41v1H13zm41 0h1v1h-1zm1 0h1v1h-1zm1 0h1v1h-1zm29 0h28v1H85zm28 0h1v1h-1zm1 0h1v1h-1zm1 0h1v1h-1zm32 0h1v6h-1zm1 0h1v1h-1zm1 0h1v1h-1zm15 0h1v1h-1zm1 0h1v1h-1z"/><path d="M166 71h14v1h-14zm14 0h1v6h-1zm1 0h1v1h-1zm1 0h1v1h-1zM13 72h40v1H13zm40 0h1v1h-1zm1 0h1v1h-1zm1 0h1v1h-1zm30 0h27v1H85zm27 0h1v1h-1zm1 0h1v1h-1zm1 0h1v1h-1zm34 0h1v5h-1zm1 0h1v1h-1zm1 0h1v1h-1zm15 0h1v1h-1zm1 0h1v1h-1z"/><path d="M167 72h14v1h-14zm14 0h1v5h-1zm1 0h1v1h-1zm1 0h1v1h-1zM13 73h39v1H13zm39 0h1v1h-1zm1 0h1v1h-1zm1 0h1v1h-1zm31 0h25v1H85zm25 0h1v1h-1zm1 0h1v1h-1zm1 0h1v1h-1zm1 0h1v1h-1zm36 0h1v4h-1zm1 0h1v1h-1zm1 0h1v1h-1zm15 0h1v1h-1zm1 0h1v1h-1z"/><path d="M168 73h14v1h-14zm14 0h1v4h-1zm1 0h1v1h-1zm1 0h1v1h-1zM13 74h37v1H13zm37 0h1v1h-1zm1 0h1v1h-1zm1 0h1v1h-1zm1 0h1v1h-1zm32 0h23v1H85zm23 0h1v1h-1zm1 0h1v1h-1zm1 0h1v1h-1zm1 0h1v1h-1zm39 0h1v3h-1zm1 0h1v1h-1zm1 0h1v1h-1zm15 0h1v1h-1zm1 0h1v1h-1z"/><path d="M169 74h14v1h-14zm14 0h1v3h-1zm1 0h1v1h-1zM13 75h36v1H13zm36 0h1v1h-1zm1 0h1v1h-1zm1 0h1v1h-1zm34 0h21v1H85zm21 0h1v1h-1zm1 0h1v1h-1zm1 0h1v1h-1zm1 0h1v1h-1zm42 0h1v2h-1zm1 0h1v1h-1zm1 0h1v1h-1zm15 0h1v1h-1zm1 0h1v1h-1z"/><path d="M170 75h14v1h-14zm14 0h1v2h-1zm1 0h1v1h-1zM12 76h1v1h-1zm1 0h34v1H13zm34 0h1v1h-1zm1 0h1v1h-1zm1 0h1v1h-1zm24 0h1v1h-1zm1 0h1v1h-1zm11 0h19v1H85zm19 0h1v1h-1zm1 0h1v1h-1zm1 0h1v1h-1zm1 0h1v1h-1zm30 0h1v1h-1zm1 0h1v1h-1zm14 0h1v1h-1zm1 0h1v1h-1zm1 0h1v1h-1zm15 0h1v1h-1zm1 0h1v1h-1z"/><path d="M171 76h14v1h-14zm14 0h1v1h-1zm1 0h1v1h-1zM12 77h1v1h-1zm1 0h30v1H13zm30 0h1v1h-1zm1 0h1v1h-1zm1 0h1v1h-1zm1 0h1v1h-1zm1 0h1v1h-1zm26 0h1v1h-1zm1 0h25v1H74zm25 0h1v1h-1zm1 0h1v1h-1zm1 0h1v1h-1zm1 0h1v1h-1zm1 0h1v1h-1zm1 0h1v1h-1zm1 0h1v1h-1zm32 0h1v1h-1zm1 0h1v1h-1zm1 0h14v1h-14zm14 0h1v1h-1zm1 0h1v1h-1zm1 0h1v1h-1zm15 0h1v1h-1zm1 0h1v1h-1zm1 0h14v1h-14zm14 0h1v1h-1zm1 0h1v1h-1zm1 0h1v1h-1zM12 78h1v1h-1zm1 0h1v1h-1zm1 0h25v1H14zm25 0h1v1h-1zm1 0h1v1h-1zm1 0h1v1h-1zm1 0h1v1h-1zm1 0h1v1h-1zm1 0h1v1h-1zm1 0h1v1h-1zm28 0h1v1h-1zm1 0h1v1h-1zm1 0h1v1h-1zm1 0h19v1H76zm19 0h1v1h-1zm1 0h1v1h-1zm1 0h1v1h-1zm1 0h1v1h-1zm1 0h1v1h-1zm1 0h1v1h-1zm1 0h1v1h-1zm36 0h1v1h-1zm1 0h1v1h-1zm1 0h1v1h-1zm1 0h13v1h-13zm13 0h1v1h-1zm1 0h1v1h-1zm1 0h1v1h-1zm1 0h1v1h-1zm15 0h1v1h-1zm1 0h1v1h-1zm1 0h1v1h-1zm1 0h12v1h-12zm12 0h1v1h-1zm1 0h1v1h-1zm1 0h1v1h-1z"/></g></svg>