<svg xmlns="http://www.w3.org/2000/svg" role="img" viewBox="-12.67 -12.67 658.84 161.84"><title>DroneDeploy, Inc logo</title><style>svg {enable-background:new 0 0 633.8 136.8}</style><style>.st0{fill:#fff}</style><g id="Text"><path d="M193.5 94.4h-20.8v-53h17.8c7 0 12.6 1.3 16.7 3.8 2.5 1.5 4.6 3.6 6.4 6.1 3.2 4.5 4.8 10 4.8 16.4 0 8.1-2.3 14.5-6.8 19.4-4.6 4.9-10.6 7.3-18.1 7.3zm-7.3-41v29h5.8c8.6 0 13-4.8 13-14.3 0-4.7-1.1-8.3-3.3-10.9s-5.4-3.8-9.5-3.8h-6zm50.4 41h-11.9V54.6H236v4.2c2.1-3.7 5.3-5.6 9.6-5.6h.3v12c-3.4.1-5.8.6-7.2 1.7-1.4 1.1-2.1 2.9-2.1 5.5v22zm33.5 1.3c-6.2 0-11.3-2-15.4-6s-6.1-9-6.1-15c0-6.2 2-11.3 6.1-15.4s9.2-6.1 15.4-6.1c6.1 0 11.3 2 15.3 6 4.1 4 6.1 9.1 6.1 15.2s-2 11.2-6.1 15.2c-4.1 4.1-9.2 6.1-15.3 6.1zm0-31.4c-2.7 0-5 1-6.8 2.9-1.9 2-2.8 4.3-2.8 7.2 0 2.9.9 5.4 2.7 7.3 1.8 2 4.1 2.9 6.9 2.9 2.7 0 5-1 6.8-2.9 1.8-2 2.7-4.4 2.7-7.3 0-2.8-.9-5.2-2.7-7.2-1.9-1.9-4.1-2.9-6.8-2.9zm39.5 30.1h-11.9V54.6H309v4.2c2.6-3.7 6.2-5.6 10.9-5.6 4.3 0 7.9 1.4 10.7 4.1 1.5 1.5 2.6 3.1 3.1 4.8.6 1.7.8 4.1.8 7.4v24.9h-11.9V72.6c0-5.5-2.1-8.3-6.2-8.3-4.5 0-6.8 2.6-6.8 7.8v22.3zM368 82.5l.6-.6h12.1c-1.9 4.3-4.5 7.7-7.9 10.1-3.4 2.4-7.2 3.7-11.4 3.7-5.8 0-10.8-2.1-14.8-6.2s-6.1-9.1-6.1-15 2-11 6-15.1 8.9-6.2 14.6-6.2c5.9 0 10.9 2.1 14.9 6.2 4 4.2 6 9.3 6 15.5 0 1-.1 2-.3 3.3h-29.8c.3 2.2 1.2 4 2.8 5.4 1.6 1.4 3.6 2 5.9 2 2.7 0 5.1-1 7.4-3.1zm-15.8-12.2h17.9c-.4-2.1-1.5-3.7-3.1-5-1.6-1.3-3.6-1.9-5.9-1.9-4.9 0-7.9 2.3-8.9 6.9z" class="st0"/><path d="M406 94.4h-16.5v-53h18.8c7.3 0 13.2 2.4 17.8 7.1 5.1 5.3 7.7 11.9 7.7 19.7 0 7.5-2.2 13.6-6.7 18.5-4.6 5.1-11.7 7.7-21.1 7.7zm-8.8-45.9v38.8h6.3c7.1 0 12.5-1.5 16.1-4.5 4.3-3.5 6.4-8.4 6.4-14.7 0-5.7-1.9-10.4-5.6-14.3-3.5-3.5-8.1-5.3-13.7-5.3h-9.5zm73.6 33.4h7.5c-1.5 4.1-3.9 7.4-7.4 9.9-3.4 2.4-7.3 3.7-11.6 3.7-5.6 0-10.3-2.1-14.3-6.2s-6-9-6-14.8c0-5.8 2-10.8 6-14.9s8.8-6.2 14.5-6.2c5.5 0 10.2 2 14.2 6.1 3.9 4.1 5.9 8.9 5.9 14.6 0 .8-.1 2.1-.2 3.8h-32.8c.8 3.3 2.4 5.9 4.7 7.9 2.4 2 5.2 3 8.4 3 4.7-.2 8.5-2.4 11.1-6.9zm-21.3-17.5c-1.6 1.8-2.6 4.3-3.1 7.6h25.7c-.2-3.3-1.5-6.1-4-8.4-2.5-2.3-5.4-3.5-8.8-3.5-4 0-7.2 1.5-9.8 4.3zm44.5 43.3h-7.2v-53h6.9v6.1c3.2-4.8 7.9-7.2 14.1-7.2 5.8 0 10.7 2.1 14.6 6.2 3.9 4.1 5.9 9.2 5.9 15.3 0 5.8-1.9 10.6-5.8 14.5-3.9 3.9-8.6 5.9-14.3 5.9-6.6 0-11.3-2.3-14.2-6.8v19zm13.6-19c3.8 0 6.9-1.4 9.5-4.1 2.6-2.7 3.9-6 3.9-9.9 0-3.9-1.3-7.2-4-10s-5.9-4.2-9.7-4.2c-3.7 0-6.8 1.4-9.4 4.1-2.6 2.7-3.9 6-3.9 9.9 0 4 1.3 7.3 3.9 10.1 2.7 2.7 5.9 4.1 9.7 4.1zm28.1-47.3h7.4v53h-7.4v-53zm36.1 12.2c5.9 0 11 2 15.2 6 4.2 4 6.3 8.9 6.3 14.6 0 5.8-2.1 10.8-6.3 14.9-4.2 4.1-9.2 6.2-15.2 6.2-5.9 0-10.9-2.1-15.1-6.2-4.2-4.1-6.3-9.1-6.3-14.9 0-5.7 2.1-10.6 6.3-14.6 4.2-4 9.2-6 15.1-6zm0 35c3.9 0 7.2-1.4 9.9-4.1 2.7-2.8 4.1-6.1 4.1-10 0-3.8-1.4-7.1-4.1-9.9-2.7-2.7-6-4.1-9.9-4.1-3.9 0-7.2 1.4-9.9 4.1-2.7 2.7-4.1 6-4.1 9.9 0 3.9 1.4 7.2 4.1 10 2.7 2.7 6 4.1 9.9 4.1zm54-34h8l-21.9 53h-7.7l5.8-14.1-15.8-38.9h8l11.7 30.8 11.9-30.8z" class="st0"/></g><g id="Logo"><path fill="#fff" fill-rule="evenodd" d="M30.1 54.4S41.3 46 45 46.8l56.7-.4L73 95.3c-2.9 4.2-14 9.1-14 9.1l3.7-35.5-32.6-14.5z" clip-rule="evenodd"/><path d="M68.4 0c18.9 0 36 7.7 48.4 20 12.4 12.4 20 29.5 20 48.4h.1v.1h-.1c0 18.8-7.6 35.9-20 48.2-12.4 12.4-29.4 20.1-48.4 20.1v-10.9c15.8 0 30.2-6.5 40.6-16.8 10.4-10.4 16.9-24.8 16.9-40.5h-.1v-.1h.1c0-15.8-6.5-30.2-16.8-40.6-10.5-10.5-24.9-17-40.7-17V0zm0 136.8c-18.9 0-36-7.7-48.4-20.1C7.6 104.4 0 87.3 0 68.5v-.1c0-18.9 7.6-36 20-48.4C32.4 7.7 49.5 0 68.4 0v10.9c-15.8 0-30.2 6.4-40.6 16.8-10.4 10.5-16.9 24.9-16.9 40.7v.1c0 15.8 6.4 30.1 16.8 40.5 10.4 10.4 24.8 16.8 40.6 16.8v11z" class="st0"/></g></svg>