<svg xmlns="http://www.w3.org/2000/svg" role="img" viewBox="55.78 74.78 115.18 74.18"><title>FLARM Technology Ltd logo</title><g fill="#d8011a"><path d="M129 81h1v1h-1zm-2 2h1v1h-1zm0 1h1v1h-1zm6 1h2v1h-2zm2 0h1v1h-1zm-5 1h2v1h-2zm5 0h1v1h-1zm1 0h1v3h-1zm-6 1h1v1h-1zm8 0h1v1h-1zm0 1h1v1h-1zm1 0h1v1h-1zm1 1h1v2h-1zm1 0h1v1h-1zm-6 1h1v1h-1zm1 1h1v1h-1zm4 0h1v2h-1zm3 1h1v1h-1zm1 0h1v1h-1zm-6 1h2v1h-2zm2 0h1v1h-1zm3 0h1v4h-1zm1 0h1v2h-1z"/><path d="M141 95h3v1h-3zm3 0h1v3h-1zm3 1h1v1h-1zm-4 1h1v1h-1zm4 0h1v2h-1zm1 0h1v1h-1zm-4 1h1v1h-1zm-24 1h1v1h-1zm1 0h1v1h-1zm25 0h1v1h-1zm1 0h1v3h-1zm3 0h1v2h-1zm-31 1h3v1h-3zm3 0h1v2h-1zm23 0h1v2h-1zm6 0h1v2h-1zm-28 1h1v2h-1zm1 0h1v1h-1zm26 0h1v1h-1zm-28 1h1v1h-1zm3 0h1v1h-1zm20 0h2v1h-2zm2 0h1v1h-1zm4 0h1v1h-1zm1 0h1v1h-1zm-29 1h3v1h-3zm3 0h1v2h-1zm27 1h1v1h-1zm-27 1h1v1h-1zm3 0h1v3h-1zm20 0h2v1h-2zm2 0h1v3h-1zm-21 1h1v1h-1z"/><path d="M150 106h2v1h-2zm2 0h1v1h-1zm-22 1h1v1h-1zm20 0h1v1h-1zm3 0h2v1h-2zm2 0h1v3h-1zm-26 1h1v1h-1zm22 0h3v1h-3zm3 0h1v2h-1zm-21 1h1v2h-1z"/><path d="M153 109h2v1h-2zm-21 1h2v1h-2zm2 0h1v1h-1zm20 0h1v3h-1zm1 0h1v5h-1zm-3 1h1v1h-1zm4 0h1v1h-1zm1 0h1v2h-1zm-20 1h1v1h-1zm-1 1h1v4h-1zm17 0h2v1h-2zm4 0h1v3h-1zm-45 1h1v1h-1zm22 0h1v1h-1zm19 0h2v1h-2zm-40 1h1v1h-1zm1 0h1v1h-1z"/><path d="M135 115h2v1h-2zm2 0h1v2h-1zm18 0h2v1h-2zm2 1h1v1h-1zm1 0h1v1h-1zm-22 1h1v1h-1zm1 0h1v2h-1zm17 0h2v1h-2zm2 0h3v1h-3zm3 0h1v1h-1zm-20 1h1v1h-1zm16 0h1v1h-1zm1 0h1v1h-1zm3 0h1v1h-1zm-22 1h2v1h-2zm2 0h1v4h-1zm17 0h1v2h-1zm-37 1h1v1h-1zm37 1h1v1h-1zm3 0h1v1h-1zm-22 1h2v1h-2zm-15 1h1v1h-1zm1 0h1v1h-1zm16 0h1v3h-1zm19 0h2v1h-2zm2 0h1v1h-1zm-19 2h1v1h-1zm-2 1h2v1h-2zm2 0h1v1h-1zm-37 3h1v2h-1zm1 0h1v2h-1zm35 0h1v1h-1zm-37 2h3v1h-3zm3 0h1v1h-1zm-3 2h1v3h-1zm-2 1h1v3h-1z"/><path d="M102 135h4v1h-4zm4 0h1v1h-1zm3 0h1v5h-1zm-9 1h1v2h-1zm3 0h1v4h-1zm1 0h2v1h-2zm2 0h1v4h-1zm-5 1h1v1h-1z"/><path d="M107 137h3v1h-3zm3 0h1v1h-1zm-10 1h3v1h-3zm7 0h2v1h-2zm-9 1h1v1h-1zm4 0h1v1h-1zm6 0h1v1h-1zm3 0h1v1h-1zm-12 1h1v2h-1zm1 0h3v2h-3zm3 0h1v2h-1zm6 0h2v2h-2zm2 0h1v1h-1zm-14 1h2v1h-2zm0 1h13v1H97zm13 0h3v1h-3zm3 0h1v1h-1zm-17 1h1v1h-1zm1 0h1v1h-1z"/></g><path d="M135 83h1v1h-1zm-3 7h1v1h-1zm22 12h1v1h-1zm-8 2h1v1h-1zm9 0h1v1h-1zm-23 10h1v1h-1zm-13 3h1v1h-1z" fill="#e45e65"/><path d="M130 84h1v1h-1zm7 1h1v2h-1zm-8 1h1v1h-1zm2 1h1v1h-1zm4 0h2v1h-2zm2 0h1v1h-1zm0 4h2v1h-2zm2 0h1v1h-1zm-2 1h1v1h-1zm5 1h1v1h-1zm3 0h1v2h-1zm-5 1h1v1h-1zm6 0h1v1h-1zm-1 1h1v1h-1zm3 1h1v1h-1zm-3 2h1v1h-1zm1 0h1v1h-1zm-1 1h1v1h-1zm-19 3h1v1h-1zm24 0h1v1h-1zm-26 2h1v1h-1zm25 2h1v1h-1zm5 0h1v1h-1zm-26 1h1v1h-1zm2 1h1v1h-1zm1 0h1v1h-1zm20 1h1v1h-1zm1 0h1v1h-1zm1 1h1v1h-1zm0 1h1v1h-1zm5 2h1v2h-1zm0 2h1v1h-1zm-43 1h1v1h-1zm20 0h1v1h-1zm3 0h1v4h-1zm1 0h1v1h-1zm15 0h1v1h-1zm-37 2h1v1h-1zm21 2h1v2h-1zm22 1h1v1h-1zm-20 1h1v1h-1zm16 0h1v1h-1zm1 0h1v1h-1zm3 0h1v1h-1zm-39 1h1v1h-1zm19 0h1v1h-1zm-36 5h1v1h-1zm2 2h1v1h-1zm-4 1h1v1h-1zm5 0h1v1h-1zm-6 2h1v1h-1zm5 0h2v1h-2zm2 0h1v1h-1zm-6 1h1v1h-1zm-2 1h1v1h-1zm8 1h1v1h-1zm-6 1h1v1h-1zm3 1h1v1h-1zm5 0h1v1h-1zm-9 1h1v1h-1zm4 0h1v1h-1zm-9 1h1v1h-1z" fill="#e0011c"/><path d="M138 95h1v1h-1zm-17 29h1v1h-1zm22 1h1v1h-1zm13 0h1v1h-1zm-14 3h1v1h-1zm-3 8h1v2h-1zm0 2h1v1h-1zm-44 3h1v1h-1z" fill="#ea6e80"/><path d="M119 102h1v1h-1zm35 1h1v1h-1zm-22 3h1v1h-1zm19 6h1v1h-1zm-38 1h1v1h-1zm22 5h1v1h-1zm1 2h1v1h-1zm1 3h1v1h-1zm-42 22h19v1H95zm19 0h1v1h-1z" fill="#da232f"/><path d="M63 125h1v1h-1zm70 0h1v1h-1zm-54 1h1v1h-1zm43 0h1v1h-1zm22 0h1v1h-1zm-22 1h1v1h-1zm29 0h1v1h-1zm-30 6h1v1h-1zm5 0h1v1h-1zm10 0h1v1h-1zm-58 1h1v1h-1zm81 0h1v1h-1zm-13 1h1v1h-1zm-64 4h1v1h-1zm0 1h1v1h-1zm-22 3h1v1h-1zm69 1h1v1h-1zm9 0h1v1h-1z" fill="#2e2e2e"/><path d="M126 131h1v1h-1zm-57 2h3v1h-3zm3 0h1v1h-1zm76 0h1v1h-1zm16 4h1v1h-1zm-33 1h1v1h-1zm33 0h1v1h-1zm-40 5h1v1h-1zm26 1h1v1h-1zm-73 1h1v1h-1zm12 0h1v1h-1z" fill="#191919"/><path d="M64 125h13v3H64zm13 0h1v1h-1zm3 0h4v7h-4zm4 0h1v2h-1zm39 0h9v3h-9zm9 0h1v11h-1zm13 0h5v7h-5zm5 0h1v18h-1zm8 0h5v7h-5zm5 0h1v19h-1zm-30 1h1v10h-1zm1 0h1v9h-1z"/><path d="M63 127h13v1H63zm21 0h1v1h-1zm51 0h1v7h-1zm-72 1h13v1H63zm13 0h1v1h-1zm47 0h12v1h-12zm21 0h7v4h-7zm7 0h1v16h-1zm6 0h6v4h-6zm-94 1h5v1h-5zm5 0h1v1h-1zm8 0h1v1h-1zm3 0h4v8h-4zm43 0h4v8h-4zm4 0h1v1h-1z"/><path d="M130 129h6v1h-6zm6 0h1v3h-1zm20 0h7v3h-7zm-93 1h3v13h-3zm3 0h1v7h-1zm60 0h1v1h-1zm5 0h5v4h-5zm12 1h8v1h-8z"/><path d="M155 131h8v1h-8zm-93 1h4v11h-4zm21 0h1v1h-1zm53 0h1v1h-1zm7 0h8v1h-8zm12 0h8v1h-8zm-88 1h1v4h-1zm6 0h1v2h-1zm57 0h5v2h-5zm13 0h3v4h-3zm3 0h1v1h-1zm3 0h2v5h-2zm5 0h3v4h-3zm3 0h6v1h-6zm-89 1h5v3h-5z"/><path d="M126 134h9v1h-9zm9 0h1v1h-1zm7 0h4v3h-4zm4 0h1v1h-1zm6 0h5v3h-5zm5 0h1v1h-1zm3 0h3v10h-3zm-87 1h1v1h-1zm48 0h13v1h-13zm13 0h1v1h-1zm23 0h1v1h-1zm-79 1h4v8h-4zm43 0h12v1h-12zm12 0h1v1h-1zm-67 1h6v1h-6zm6 0h1v1h-1zm10 0h1v1h-1zm39 0h9v1h-9zm9 0h1v7h-1zm11 0h4v5h-4zm4 0h1v1h-1zm7 0h4v2h-4zm4 0h1v1h-1zm-35 1h3v6h-3zm3 0h1v4h-1zm3 0h3v1h-3z"/><path d="M149 138h6v1h-6zm-88 1h4v5h-4zm66 0h4v1h-4zm4 0h1v5h-1zm9 0h4v5h-4zm12 0h3v1h-3zm3 0h1v1h-1z"/><path d="M128 140h4v1h-4zm4 0h1v4h-1zm20 0h2v3h-2zm2 0h1v1h-1zm10 0h1v5h-1zm-82 1h1v3h-1zm8 0h1v2h-1zm30 0h4v3h-4zm8 0h4v1h-4z"/><path d="M77 142h13v2H77zm47 0h1v1h-1zm5 0h4v1h-4zm4 0h1v2h-1zm6 0h5v2h-5zm5 0h1v1h-1zm-79 1h1v1h-1zm25 0h1v1h-1z"/><path d="M129 143h5v1h-5zm5 0h1v1h-1zm16 0h3v1h-3zm3 0h1v1h-1zm-93 1h4v1h-4zm4 0h1v1h-1zm13 0h12v1H77zm12 0h1v1h-1zm31 0h3v1h-3zm3 0h1v1h-1zm7 0h4v1h-4zm4 0h1v1h-1zm5 0h4v1h-4zm4 0h1v1h-1zm8 0h1v1h-1zm1 0h1v1h-1zm8 0h4v1h-4zm-100 1h1v1h-1zm75 0h1v1h-1zm3 0h1v1h-1zm5 0h1v1h-1zm21 0h1v1h-1z"/><g fill="#f9fffe"><path d="M122 77h1v1h-1zm1 0h1v1h-1zm4 0h1v1h-1zm1 0h1v1h-1zm3 0h1v1h-1zm5 0h1v1h-1zm1 0h1v1h-1zm-15 1h1v4h-1zm3 0h1v1h-1zm6 0h1v1h-1zm6 0h1v1h-1zm1 0h2v1h-2zm-4 1h1v1h-1zm1 1h1v1h-1zm-12 1h1v1h-1zm-1 1h1v2h-1zm15 0h1v1h-1zm1 0h1v1h-1zm-14 1h1v1h-1zm-3 2h2v1h-2zm2 0h1v1h-1zm20 0h2v1h-2zm2 0h1v2h-1zm-4 1h1v1h-1zm5 0h1v1h-1zm-22 1h1v2h-1zm19 0h3v1h-3zm3 0h1v1h-1zm-22 2h1v1h-1zm6 1h1v1h-1zm-15 1h1v2h-1zm6 1h1v1h-1zm32 0h1v1h-1zm-38 1h1v1h-1zm1 0h1v1h-1zm6 0h1v1h-1zm1 0h1v1h-1zm31 0h1v1h-1zm-31 1h2v1h-2zm2 0h1v1h-1zm29 0h1v1h-1zm-37 1h2v1h-2zm2 0h1v1h-1zm15 1h1v1h-1zm19 0h1v1h-1zm1 1h1v2h-1zm-38 1h1v1h-1zm43 0h1v1h-1zm-33 1h1v1h-1zm5 0h1v1h-1zm23 0h1v1h-1zm-41 1h1v1h-1zm47 0h1v2h-1zm1 0h1v1h-1zm-48 1h1v1h-1zm1 0h1v1h-1zm41 0h1v1h-1zm-40 1h1v1h-1zm16 0h2v1h-2zm2 0h1v1h-1zm27 0h1v1h-1zm-45 1h1v1h-1zm44 0h1v2h-1zm-43 1h2v1h-2zm2 0h1v1h-1zm25 0h1v1h-1zm-22 1h1v2h-1zm38 0h1v1h-1zm-52 1h1v3h-1zm5 0h1v1h-1zm26 0h1v3h-1zm3 0h1v1h-1zm1 0h1v1h-1zm3 0h1v1h-1zm-25 1h1v1h-1zm1 0h1v1h-1z"/><path d="M137 107h2v1h-2zm2 0h1v1h-1zm3 0h1v1h-1zm4 0h1v1h-1zm-40 1h1v1h-1zm3 0h1v1h-1zm50 0h2v1h-2zm2 0h1v2h-1zm-56 1h2v1h-2zm2 0h1v1h-1zm31 0h1v1h-1zm-30 1h1v1h-1zm15 0h1v1h-1zm22 0h1v1h-1zm1 0h1v1h-1zm15 0h1v1h-1zm-41 1h1v1h-1zm26 0h1v2h-1zm3 0h1v1h-1zm-44 1h2v1h-2zm2 0h1v3h-1zm11 0h1v1h-1zm0 1h1v1h-1zm1 0h1v1h-1zm9 0h1v1h-1zm11 0h1v1h-1zm7 0h1v1h-1zm-22 1h1v1h-1zm-17 1h1v2h-1zm1 0h1v1h-1zm13 0h1v1h-1zm9 0h1v1h-1zm1 0h1v1h-1zm12 0h1v1h-1zm1 0h1v2h-1zm-23 1h1v1h-1zm10 0h1v1h-1zm19 0h1v1h-1zm-43 1h1v1h-1zm15 0h1v1h-1zm1 0h1v1h-1zm21 0h2v1h-2zm2 0h1v2h-1zm4 0h1v1h-1zm-37 1h1v1h-1zm-7 1h1v2h-1zm40 0h1v1h-1zm1 0h1v1h-1zm4 0h1v1h-1zm-44 1h1v1h-1zm1 0h1v1h-1zm-6 1h1v2h-1zm4 0h1v2h-1zm10 0h1v2h-1zm1 1h1v2h-1zm28 0h1v1h-1zm20 0h1v1h-1zm-64 1h5v1h-5zm5 0h1v1h-1zm12 0h1v1h-1zm16 0h1v1h-1zm17 0h1v1h-1zm14 0h1v1h-1zm-66 1h1v1h-1zm8 0h2v1h-2zm2 0h1v1h-1zm8 0h1v1h-1zm49 0h2v1h-2zm2 0h1v1h-1zm-66 1h1v1h-1zm5 0h2v1h-2zm2 0h1v1h-1zm28 3h1v1h-1zm-40 7h1v1h-1zm15 0h1v1h-1zm1 1h1v1h-1zm1 1h1v1h-1zm-21 1h1v1h-1zm21 0h2v1h-2zm2 0h1v1h-1zm-23 1h1v1h-1zm23 0h1v1h-1zm-22 1h1v1h-1zm21 0h1v1h-1zm-21 1h1v1h-1zm-1 5h1v1h-1z"/></g><path d="M125 85h1v1h-1zm9 6h1v1h-1zm7 6h1v1h-1zm1 1h1v1h-1zm-19 1h1v1h-1zm-6 1h1v1h-1zm4 3h1v1h-1zm8 0h1v1h-1zm2 2h1v1h-1zm7 9h1v1h-1zm-22 1h1v1h-1zm44 2h1v1h-1zm-39 3h1v1h-1zm40 1h1v1h-1zm-4 2h1v1h-1zm-1 1h1v1h-1zm-51 1h1v1h-1zm34 7h1v1h-1zm-39 1h1v1h-1zm9 0h1v1h-1zm-10 2h1v1h-1zm11 0h1v1h-1zm4 7h1v1h-1zm-20 3h1v1h-1z" fill="#dc0024"/><path d="M139 85h1v1h-1zm-10 4h1v1h-1zm16 1h1v1h-1zm1 1h1v1h-1zm-27 5h1v1h-1zm6 3h1v1h-1zm-8 3h1v1h-1zm12 0h1v1h-1zm15 0h1v1h-1zm-14 1h1v1h-1zm19 7h1v1h-1zm-38 1h1v1h-1zm51 9h1v1h-1zm-58 4h1v1h-1zm1 0h1v1h-1zm1 1h1v1h-1zm1 2h1v1h-1z" fill="#f4c4ca"/><path d="M143 100h1v1h-1zm-6 24h1v1h-1zm1 4h1v1h-1zm-44 15h1v1h-1z" fill="#e5576c"/><path d="M62 124h1v1h-1zm16 0h1v1h-1zm55 0h1v1h-1zm18 0h1v1h-1zm-73 1h1v1h-1zm57 0h1v1h-1zm1 1h1v1h-1zm-51 2h1v1h-1zm-24 1h1v1h-1zm24 0h1v1h-1zm80 2h1v4h-1zm-36 1h1v1h-1zm-52 1h1v1h-1zm7 2h1v1h-1zm52 0h1v1h-1zm29 0h1v1h-1zm-46 2h1v1h-1zm0 1h1v1h-1zm38 0h1v1h-1zm-24 1h1v1h-1zm-42 1h1v1h-1zm-32 1h1v1h-1zm89 0h1v1h-1zm-89 1h1v1h-1zm76 0h1v1h-1zm3 0h1v1h-1zm7 0h1v1h-1zm10 0h1v1h-1zm-80 2h1v1h-1zm61 0h1v1h-1zm-61 1h1v1h-1zm69 0h1v1h-1z" fill="#ebebeb"/><path d="M64 124h12v1H64zm12 0h1v1h-1zm5 0h2v1h-2zm2 0h1v1h-1zm41 0h4v1h-4zm4 0h1v1h-1zm17 0h4v1h-4zm4 0h1v1h-1zm-72 3h1v1h-1zm7 2h1v1h-1zm44 0h1v1h-1zm-7 2h1v1h-1zm43 0h1v1h-1zm-29 4h1v1h-1zm-15 3h1v1h-1zm5 2h1v1h-1zm-35 5h1v1h-1z" fill="#666766"/><path d="M85 124h1v1h-1zm36 3h1v1h-1zm-43 1h1v1h-1zm-1 1h1v1h-1zm-16 2h1v1h-1zm66 1h1v1h-1zm-43 1h1v1h-1zm-7 1h1v1h-1zm80 3h1v1h-1zm-97 1h1v1h-1zm59 1h1v1h-1zm-43 1h1v1h-1zm8 0h6v1h-6zm6 0h1v1h-1zm36 0h1v1h-1zm8 1h1v1h-1zm15 4h1v1h-1z" fill="#cacaca"/><path d="M144 125h1v1h-1zm-15 4h1v1h-1zm26 1h1v1h-1zm-77 2h1v1h-1zm86 0h1v2h-1zm0 2h1v1h-1zm-103 2h1v1h-1zm5 3h1v1h-1zm11 0h1v1h-1zm48 0h1v1h-1zm2 1h1v1h-1zm22 0h1v1h-1zm-10 1h1v1h-1zm-11 1h1v1h-1zm7 2h1v1h-1zm-16 1h1v1h-1zm40 0h1v1h-1z" fill="#565756"/><path d="M151 125h1v1h-1zm-89 2h1v1h-1zm74 0h1v1h-1zm-6 5h1v1h-1zm-3 1h1v1h-1zm9 1h1v1h-1zm-16 1h1v1h-1zm28 2h1v1h-1zm-65 3h1v1h-1zm44 1h1v1h-1zm18 0h1v1h-1zm-69 2h1v1h-1zm62 0h1v1h-1zm11 0h1v1h-1z" fill="#9f9d9d"/><path d="M130 81h1v1h-1zm-3 1h1v1h-1zm-1 2h1v1h-1zm7 6h1v1h-1zm15 5h1v1h-1zm-27 3h1v1h-1zm1 1h1v1h-1zm4 2h1v1h-1zm27 1h1v1h-1zm-26 5h1v1h-1zm9 4h1v1h-1zm22 1h1v1h-1zm-47 1h1v1h-1zm26 0h1v1h-1zm15 1h1v1h-1zm-40 1h1v1h-1zm43 7h1v1h-1zm-35 1h1v1h-1zm18 1h1v1h-1zm-32 4h1v1h-1zm33 0h2v1h-2zm2 0h1v1h-1zm-1 3h1v1h-1zm-28 8h1v1h-1zm2 4h1v1h-1z" fill="#da000b"/><path d="M138 86h1v1h-1zm7 6h1v1h-1zm-26 6h1v1h-1zm-1 3h1v1h-1zm4 2h1v1h-1zm7 6h1v1h-1zm23 4h1v1h-1zm-37 2h1v1h-1zm19 0h1v1h-1zm4 0h1v1h-1zm-2 4h1v1h-1zm25 3h1v1h-1zm-55 5h1v1h-1zm-6 7h1v1h-1zm-1 2h1v1h-1zm12 1h1v1h-1z" fill="#df0014"/><path d="M141 87h1v1h-1zm1 1h1v1h-1zm-12 1h1v1h-1zm19 6h1v1h-1zm-10 1h1v1h-1zm3 3h1v1h-1zm8 12h1v1h-1zm-32 5h1v1h-1zm43 2h1v1h-1zm-20 1h1v1h-1z" fill="#eb7b86"/><path d="M157 125h1v1h-1zm-14 3h1v1h-1z" fill="#76595d"/><path d="M85 126h1v1h-1zm-7 1h1v1h-1zm7 0h1v1h-1zm69 3h1v1h-1zm-85 2h1v1h-1zm5 0h1v1h-1zm84 3h1v1h-1zm-98 1h1v1h-1zm75 0h1v1h-1zm12 0h1v1h-1zm18 0h1v9h-1zm-89 3h1v1h-1zm80 1h1v1h-1zm-29 2h1v1h-1zm-68 1h1v2h-1zm59 1h1v1h-1zm-59 1h1v1h-1zm32 0h1v1h-1zm27 0h1v1h-1zm7 0h1v1h-1zm40 0h1v1h-1z" fill="#dfdfdf"/><path d="M129 79h1v1h-1zm-5 6h1v1h-1zm19 3h1v1h-1zm-11 3h1v1h-1zm16 2h1v1h-1zm-28 3h1v1h-1zm8 5h1v1h-1zm-19 14h1v1h-1zm11 2h1v1h-1zm21 0h1v1h-1zm2 5h1v1h-1zm-45 12h1v1h-1zm16 6h1v1h-1zm-20 2h1v1h-1z" fill="#fae1e0"/><path d="M131 80h1v1h-1zm7 4h1v1h-1zm4 3h1v1h-1zm8 8h1v1h-1zm-32 1h1v1h-1zm-1 2h1v1h-1zm7 0h1v1h-1zm-8 2h1v1h-1zm26 0h1v1h-1zm-22 4h1v1h-1zm27 3h1v1h-1zm11 1h1v1h-1zm-21 2h1v1h-1zm-25 1h1v1h-1zm48 2h1v1h-1zm-20 2h1v1h-1zm-19 3h1v1h-1zm21 1h1v1h-1zm20 0h1v1h-1zm-9 2h1v1h-1zm0 1h1v1h-1zm-33 4h1v1h-1zm17 0h1v1h-1zm-38 6h1v1h-1z" fill="#fae9e8"/><g fill="#dc011b"><path d="M128 82h2v2h-2zm2 0h1v1h-1zm0 1h2v1h-2zm2 0h2v1h-2zm2 0h1v1h-1zm-6 1h1v2h-1zm1 0h1v1h-1zm5 0h1v5h-1zm-7 1h1v1h-1zm3 0h2v1h-2zm2 0h1v3h-1zm-4 1h1v1h-1zm5 0h1v2h-1z"/><path d="M132 88h3v1h-3zm3 0h1v1h-1zm-1 1h1v1h-1zm1 0h2v1h-2zm2 0h2v1h-2zm2 0h1v1h-1zm-3 1h3v1h-3zm3 0h2v1h-2zm2 0h1v4h-1zm2 1h1v1h-1zm-5 1h1v1h-1z"/><path d="M139 92h3v1h-3zm3 0h1v1h-1zm-1 2h2v1h-2zm5 1h1v2h-1zm1 0h1v1h-1zm-5 1h1v1h-1zm3 1h1v1h-1zm1 0h1v1h-1zm3 0h1v4h-1zm-6 1h1v1h-1zm5 0h1v6h-1zm-29 1h1v1h-1zm1 2h1v1h-1zm29 0h1v2h-1zm-22 2h1v3h-1zm22 0h3v1h-3zm3 0h1v2h-1zm-24 1h1v1h-1zm20 0h3v1h-3zm3 0h1v1h-1zm-23 1h1v1h-1zm24 0h1v1h-1zm-25 1h2v1h-2zm26 0h1v1h-1zm-22 1h1v1h-1zm25 2h1v1h-1zm0 1h1v1h-1zm-24 1h3v1h-3zm3 0h1v3h-1zm18 1h1v1h-1zm-20 1h2v1h-2zm23 0h1v3h-1zm-21 1h1v1h-1zm20 2h1v1h-1zm1 0h1v1h-1zm-38 2h1v1h-1zm40 0h1v2h-1zm-40 1h1v1h-1zm37 0h1v1h-1zm4 0h1v1h-1zm-4 1h1v1h-1zm3 0h1v2h-1zm1 0h1v1h-1zm-19 1h1v1h-1zm18 1h1v1h-1zm-17 1h1v1h-1zm15 0h1v1h-1zm-16 1h1v2h-1zm1 0h1v1h-1zm-37 3h1v1h-1zm1 0h1v1h-1zm1 2h1v1h-1zm-2 4h1v1h-1zm1 0h1v1h-1zm0 1h1v3h-1zm1 0h2v1h-2zm2 0h1v1h-1zm-1 1h1v1h-1zm-8 2h1v2h-1zm5 0h1v2h-1zm1 0h1v1h-1zm-6 2h1v1h-1zm5 0h1v2h-1zm-7 1h1v1h-1zm1 0h1v2h-1zm7 0h2v1h-2zm2 0h1v1h-1zm-3 1h8v1h-8zm8 0h1v1h-1z"/></g><path d="M132 82h1v1h-1zm-6 4h1v1h-1zm15 2h1v1h-1zm2 2h1v1h-1zm1 1h1v1h-1zm3 3h1v1h-1zm2 2h1v1h-1zm-30 1h1v1h-1zm8 5h1v1h-1zm3 2h1v1h-1zm17 0h1v1h-1zm-23 1h1v1h-1zm33 4h1v1h-1zm-22 1h1v1h-1zm-3 3h1v1h-1zm1 1h1v1h-1zm21 5h1v1h-1zm-12 5h1v1h-1zm-4 2h1v1h-1zm3 3h1v1h-1zm-2 1h1v1h-1zm-43 11h1v1h-1zm-2 3h1v1h-1z" fill="#db0000"/><path d="M131 89h1v1h-1zm-5 18h1v1h-1zm7 0h1v1h-1zm16 1h1v1h-1zm3 7h1v1h-1zm-11 5h1v1h-1zm-23 1h1v1h-1zm-10 9h1v1h-1zm31 3h1v1h-1zm-27 5h1v1h-1zm1 2h1v1h-1z" fill="#dc002c"/><path fill="#202b29" d="M143 130h1v1h-1z"/><path d="M127 80h1v1h-1zm7 2h1v1h-1zm-1 9h1v1h-1zm-16 8h1v1h-1zm9 1h1v1h-1zm27 0h1v1h-1zm-37 1h1v1h-1zm-3 16h1v1h-1zm8 2h1v1h-1zm15 3h1v1h-1zm26 0h1v1h-1zm-63 11h1v1h-1zm12 2h1v1h-1z" fill="#eb939c"/><path d="M135 82h1v1h-1zm-8 6h1v1h-1zm17 1h1v1h-1zm5 5h1v1h-1zm7 10h1v1h-1zm1 2h1v1h-1zm-30 3h1v1h-1zm6 8h1v1h-1zm21 9h1v1h-1zm0 1h1v1h-1z" fill="#fbe2e5"/><path d="M126 85h1v1h-1zm5 3h1v1h-1zm8 7h1v1h-1zm1 0h1v1h-1zm1 1h1v1h-1zm1 1h1v1h-1zm-24 3h1v1h-1zm5 0h1v1h-1zm29 0h1v1h-1zm-27 1h1v1h-1zm27 0h1v1h-1zm-31 1h1v1h-1zm32 1h1v1h-1zm-24 1h1v1h-1zm1 1h1v1h-1zm1 1h1v1h-1zm1 1h1v1h-1zm19 3h1v1h-1zm6 0h1v1h-1zm-26 2h1v1h-1zm5 0h1v1h-1zm-23 2h1v1h-1zm24 0h1v1h-1zm-23 2h1v1h-1zm45 0h1v1h-1zm-19 2h1v2h-1zm20 0h1v1h-1zm-40 2h1v2h-1zm20 0h1v1h-1zm-2 3h1v1h-1zm3 4h1v1h-1zm-30 11h1v1h-1zm-15 6h2v1h-2zm2 0h1v1h-1zm17 1h1v1h-1z" fill="#df0017"/><path d="M127 101h1v1h-1zm1 8h1v1h-1zm-16 7h1v1h-1zm28 1h1v1h-1zm-24 2h1v1h-1zm45 0h1v1h-1zm-44 1h1v1h-1zm19 1h1v1h-1zm4 13h1v1h-1z" fill="#e65760"/><path d="M123 124h1v1h-1zm36 0h3v1h-3zm3 0h1v1h-1zm-22 14h1v1h-1z" fill="#6b7a78"/><path d="M126 82h1v1h-1zm0 5h1v1h-1zm24 9h1v1h-1zm-5 7h1v1h-1zm-24 1h1v1h-1zm10 0h1v1h-1zm1 1h1v1h-1zm24 0h1v1h-1zm-23 1h1v1h-1zm28 11h1v1h-1zm1 4h1v1h-1zm-43 2h1v1h-1zm2 2h1v1h-1zm16 0h1v1h-1zm-28 6h1v1h-1zm1 2h1v1h-1zm-12 2h1v1h-1zm15 4h1v1h-1z" fill="#ed9ca1"/><path d="M140 86h1v1h-1zm-22 11h1v1h-1zm3 0h1v1h-1zm2 1h1v1h-1zm1 8h1v1h-1zm7 7h1v1h-1zm-22 1h1v1h-1zm30 0h1v1h-1zm12 0h1v1h-1zm9 0h1v1h-1zm-19 4h1v1h-1zm2 8h1v1h-1zm-46 11h1v1h-1z" fill="#f0a7ab"/><path d="M130 124h1v1h-1zm1 0h1v1h-1zm-46 1h1v1h-1zm49 0h1v1h-1zm-72 1h1v1h-1zm102 0h1v1h-1zm-43 2h1v1h-1zm-43 1h1v1h-1zm49 1h1v1h-1zm-66 3h1v1h-1zm0 1h1v1h-1zm59 0h1v1h-1zm-43 1h1v1h-1zm6 2h1v1h-1zm49 1h1v1h-1zm-13 3h1v1h-1zm36 0h1v1h-1zm-79 1h1v1h-1zm43 0h1v1h-1zm6 1h1v1h-1zm19 1h1v1h-1zm5 0h1v1h-1zm-13 1h1v1h-1z" fill="#a8a7a7"/><path d="M151 126h1v1h-1zm-89 3h1v1h-1zm59 1h1v1h-1zm-43 1h1v1h-1zm74 0h1v1h-1zm-78 2h1v1h-1zm55 0h1v1h-1zm-46 2h1v1h-1zm58 0h1v1h-1zm-7 1h1v1h-1zm-14 1h1v1h-1zm26 0h1v1h-1zm10 1h1v1h-1zm-90 2h1v1h-1zm83 1h1v1h-1zm-73 3h1v1h-1zm53 1h1v1h-1z" fill="#6f6f6f"/><path d="M156 126h1v1h-1zm-14 3h1v1h-1zm-2 8h1v1h-1z" fill="#c27e85"/><path d="M155 128h1v1h-1zm-16 11h1v1h-1z" fill="#cfbdbd"/><path fill="#a3767a" d="M141 134h1v1h-1z"/><path d="M127 79h1v1h-1zm-1 2h1v1h-1zm7 0h1v1h-1zm-8 2h1v1h-1zm10 10h1v1h-1zm-13 4h1v1h-1zm30 1h1v1h-1zm-9 3h1v1h-1zm-21 4h1v1h-1zm24 0h1v1h-1zm-11 3h1v1h-1zm1 1h1v1h-1zm-8 1h1v1h-1zm31 1h1v1h-1zm-21 1h1v1h-1zm-23 1h1v1h-1zm17 2h1v1h-1zm-21 1h1v1h-1zm50 0h1v1h-1zm-46 3h1v1h-1zm1 1h1v1h-1zm37 0h1v1h-1zm-36 1h1v1h-1zm7 2h1v1h-1zm19 0h1v1h-1zm-24 1h1v1h-1zm35 0h1v1h-1zm0 1h1v1h-1zm-33 1h1v1h-1zm-10 8h1v1h-1zm1 2h1v1h-1zm-16 2h1v1h-1zm-1 2h1v1h-1zm20 2h1v1h-1zm-22 2h1v1h-1zm23 0h1v1h-1zm-23 1h1v1h-1zm23 0h1v1h-1z" fill="#f8d3d4"/><path d="M153 101h1v1h-1zm7 15h1v1h-1z" fill="#db2b35"/><path fill="#e28081" d="M162 123h1v1h-1z"/><path d="M144 124h1v1h-1zm-82 1h1v1h-1zm102 0h1v1h-1zm-9 4h1v1h-1zm-25 1h1v1h-1zm22 0h1v1h-1zm-68 1h1v1h-1zm43 0h1v1h-1zm-59 1h1v1h-1zm16 0h1v1h-1zm36 1h1v1h-1zm-37 5h1v1h-1zm63 0h2v1h-2zm2 0h1v1h-1zm-88 1h1v1h-1zm23 0h1v1h-1zm65 0h1v1h-1zm8 0h1v1h-1zm-37 1h1v1h-1zm-43 1h1v1h-1zm-10 1h1v1h-1zm25 0h1v1h-1zm0 1h1v1h-1zm44 0h1v1h-1zm-10 1h1v1h-1z" fill="#c2c1c0"/><path d="M79 125h1v1h-1zm78 1h1v1h-1zm-73 2h1v1h-1zm72 0h1v1h-1zm-29 1h1v1h-1zm-65 1h1v1h-1zm5 1h1v1h-1zm0 1h1v1h-1zm54 0h1v1h-1zm-38 2h1v1h-1zm76 1h1v9h-1zm5 0h1v1h-1zm-19 5h1v1h-1zm14 4h1v1h-1zm-35 1h1v1h-1zm26 0h1v1h-1z" fill="#494949"/><path d="M156 127h1v1h-1zm-14 4h1v1h-1z" fill="#8b6f72"/><g fill="#fffdfe"><path d="M125 77h1v1h-1zm13 0h2v1h-2zm2 0h1v2h-1zm-19 1h1v3h-1zm3 0h1v3h-1zm9 0h3v1h-3zm3 0h1v1h-1zm-13 1h1v1h-1zm9 0h1v1h-1zm4 0h2v2h-2zm2 0h2v1h-2zm2 0h1v1h-1zm-2 1h1v1h-1zm1 0h1v1h-1zm-18 1h1v3h-1zm3 0h1v1h-1zm12 0h1v1h-1zm1 0h1v1h-1zm-18 1h1v2h-1zm4 1h1v1h-1zm17 0h1v1h-1zm-21 1h2v1h-2zm2 0h2v1h-2zm2 0h1v1h-1zm-4 2h1v1h-1zm25 0h1v1h-1zm-25 1h2v1h-2zm2 0h2v1h-2zm2 0h1v1h-1zm24 0h1v1h-1zm-26 1h1v1h-1zm1 0h1v1h-1zm-9 3h1v1h-1zm7 0h2v1h-2zm2 0h1v1h-1zm-6 1h2v1h-2zm2 0h1v1h-1zm5 0h1v1h-1zm3 0h1v1h-1zm-14 1h1v3h-1zm5 0h1v1h-1zm1 0h1v1h-1zm6 0h2v1h-2zm2 0h1v2h-1zm27 0h1v1h-1zm-37 1h1v2h-1zm3 0h3v1h-3zm3 0h1v1h-1zm11 0h1v1h-1zm1 0h1v1h-1zm17 0h2v1h-2zm2 0h1v1h-1zm-39 1h2v1h-2zm7 0h1v1h-1zm4 0h1v2h-1zm1 0h1v1h-1zm8 0h1v1h-1zm1 0h1v1h-1zm-23 1h2v1h-2zm2 0h2v1h-2zm2 0h1v1h-1zm-2 1h1v2h-1zm3 0h1v1h-1zm8 0h2v1h-2zm2 0h1v1h-1zm5 0h1v1h-1zm21 0h1v1h-1zm-22 1h2v1h-2zm24 0h1v1h-1zm-41 1h1v1h-1zm16 0h1v2h-1zm1 1h1v1h-1zm26 0h2v1h-2zm2 0h1v1h-1zm0 1h2v1h-2zm2 0h1v1h-1zm-48 1h1v1h-1zm27 0h2v1h-2zm1 1h1v1h-1zm19 0h1v3h-1zm-55 2h1v1h-1zm9 0h1v1h-1zm29 0h1v1h-1zm14 0h1v1h-1zm-49 1h1v2h-1zm6 0h1v1h-1zm1 0h2v1h-2zm2 0h1v3h-1zm20 0h1v1h-1zm6 0h1v1h-1zm1 0h1v1h-1zm16 0h1v2h-1zm-54 1h1v1h-1zm9 0h1v1h-1z"/><path d="M116 107h2v1h-2zm42 0h1v1h-1zm-50 1h1v1h-1zm8 0h1v1h-1zm3 0h1v1h-1zm3 0h1v2h-1zm1 0h1v1h-1zm16 0h1v2h-1zm1 0h1v1h-1zm5 0h1v1h-1zm1 0h1v1h-1zm-34 1h2v1h-2zm9 0h1v1h-1zm20 0h1v1h-1zm5 0h1v1h-1zm1 0h1v1h-1zm-41 1h1v1h-1zm1 0h1v1h-1zm15 0h1v1h-1zm17 0h2v1h-2zm2 0h1v1h-1zm19 0h1v1h-1zm-37 1h1v1h-1zm1 0h1v1h-1zm19 0h2v2h-2zm2 0h1v1h-1zm-24 1h1v1h-1zm3 0h1v1h-1zm-18 1h1v2h-1zm15 0h1v1h-1zm1 0h1v2h-1zm4 0h1v1h-1zm14 0h1v1h-1zm3 0h1v1h-1zm1 0h1v1h-1zm3 0h1v1h-1zm-42 1h1v1h-1zm44 0h1v1h-1zm13 0h1v1h-1zm4 0h1v1h-1zm1 0h1v1h-1zm-62 1h1v2h-1zm1 0h1v1h-1zm16 0h1v1h-1zm1 0h1v1h-1zm6 0h1v1h-1zm13 0h1v1h-1zm20 0h1v1h-1zm-39 1h1v1h-1zm6 0h1v2h-1zm1 0h1v1h-1zm12 0h1v1h-1zm1 0h1v1h-1zm4 0h1v1h-1zm-42 1h1v1h-1zm3 0h1v1h-1z"/><path d="M128 117h2v1h-2zm2 0h1v1h-1zm13 0h1v1h-1zm4 0h2v1h-2zm2 0h1v1h-1zm-42 1h1v1h-1zm19 0h1v1h-1zm3 0h1v1h-1zm19 0h1v1h-1zm1 0h1v1h-1zm16 0h1v2h-1zm1 0h1v3h-1zm-87 1h1v1h-1zm1 0h1v1h-1zm18 0h1v1h-1zm1 0h2v1h-2zm2 0h1v2h-1zm8 0h1v3h-1zm14 0h2v1h-2zm2 0h1v1h-1zm7 0h1v2h-1zm20 0h1v1h-1zm16 0h1v1h-1zm-109 1h1v1h-1zm1 0h1v1h-1zm19 0h1v1h-1zm6 0h2v1h-2zm2 0h1v1h-1zm11 0h1v1h-1zm16 0h1v1h-1zm19 0h1v1h-1zm32 0h1v1h-1zm-107 1h1v1h-1zm1 0h3v1h-3zm3 0h1v1h-1zm23 0h1v2h-1zm16 0h1v1h-1zm11 0h1v1h-1zm1 0h1v1h-1zm15 0h2v1h-2zm2 0h2v1h-2zm2 0h1v1h-1zm14 0h1v1h-1zm1 0h1v1h-1zm19 0h1v2h-1zm-108 1h1v1h-1zm20 0h4v1h-4zm21 0h1v1h-1zm4 0h2v1h-2zm2 0h2v1h-2zm2 0h2v1h-2zm2 0h1v1h-1zm3 0h1v4h-1zm16 0h1v1h-1zm19 0h1v1h-1zm3 0h1v1h-1zm18 0h1v1h-1zm-90 1h1v1h-1zm1 0h1v1h-1zm5 0h1v1h-1zm1 0h1v1h-1zm4 0h1v2h-1zm1 0h1v1h-1zm9 0h1v1h-1zm8 0h1v1h-1zm1 0h2v1h-2zm45 0h1v1h-1zm13 0h1v1h-1zm1 0h1v4h-1zm-108 1h1v2h-1zm1 0h1v1h-1zm55 0h1v1h-1zm19 0h1v1h-1zm-48 1h1v1h-1zm-29 1h2v1h-2zm2 0h1v1h-1zm39 0h1v1h-1zm14 0h1v1h-1zm53 0h2v1h-2zm-108 1h1v5h-1zm1 0h2v1h-2zm52 0h1v1h-1zm-1 1h1v1h-1zm1 0h1v1h-1zm-23 1h1v1h-1zm1 0h1v1h-1zm10 0h1v1h-1zm-25 1h3v1h-3zm3 0h1v1h-1zm23 0h1v1h-1zm-42 2h1v1h-1zm1 0h1v1h-1zm32 0h1v1h-1zm1 0h1v1h-1zm-4 1h3v1h-3zm3 0h1v1h-1zm3 0h1v1h-1zm1 0h1v1h-1zm20 0h1v1h-1zm23 1h1v4h-1zm-80 1h1v1h-1zm59 0h1v2h-1zm1 0h1v1h-1zm50 0h1v1h-1zm-74 1h2v1h-2zm2 0h1v1h-1zm22 0h1v2h-1zm1 0h1v1h-1zm49 0h1v3h-1zm-74 1h2v1h-2zm2 0h1v1h-1zm21 0h1v1h-1zm18 0h3v1h-3zm-17 1h1v1h-1zm18 0h2v1h-2zm2 0h1v2h-1zm-68 1h1v1h-1zm1 0h2v1h-2zm2 0h2v1h-2zm2 0h1v2h-1zm61 0h1v1h-1zm32 0h1v1h-1zm-111 1h2v1h-2zm2 0h1v1h-1zm12 0h2v1h-2zm2 0h2v1h-2zm44 0h1v1h-1zm19 0h2v1h-2zm2 0h1v1h-1zm-81 1h1v1h-1zm12 0h1v1h-1zm49 0h1v1h-1zm19 0h1v1h-1zm-19 1h1v1h-1zm39 1h1v3h-1zm1 1h1v2h-1zm10 0h1v1h-1zm1 0h1v1h-1zm-101 1h1v2h-1zm1 0h1v2h-1zm77 0h1v1h-1zm1 0h1v1h-1zm10 1h1v1h-1zm1 0h1v1h-1zm-90 1h2v1h-2zm2 0h1v1h-1zm45 0h1v1h-1z"/></g><path d="M133 82h1v1h-1zm3 2h1v1h-1zm-8 18h1v1h-1zm6 6h1v1h-1zm23 0h1v1h-1zm-22 1h1v1h-1zm23 1h1v1h-1zm-25 5h1v1h-1zm21 6h1v1h-1zm-16 6h1v1h-1zm4 0h1v1h-1zm-3 7h1v1h-1zm-42 4h1v1h-1z" fill="#e01e3b"/><path d="M127 87h1v1h-1zm-25 41h1v1h-1zm-1 2h1v1h-1zm40 0h1v1h-1zm-32 2h1v1h-1z" fill="#de2b46"/><path d="M77 124h1v1h-1zm3 0h1v1h-1zm4 0h1v1h-1zm45 0h1v1h-1zm21 0h1v1h-1zm13 0h1v1h-1zm-28 2h1v1h-1zm7 6h1v1h-1zm6 3h1v1h-1zm9 1h1v1h-1zm-2 4h1v1h-1zm-95 2h1v1h-1zm94 0h1v1h-1zm-35 2h1v1h-1z" fill="#5d5f5e"/><path d="M123 80h1v1h-1zm9 0h1v1h-1zm-7 2h1v1h-1zm12 1h1v1h-1zm-13 1h1v1h-1zm-3 2h1v1h-1zm1 0h1v1h-1zm3 1h1v2h-1zm0 2h1v1h-1zm-1 1h1v1h-1zm-9 4h1v1h-1zm21 0h1v1h-1zm1 1h1v1h-1zm-16 1h1v1h-1zm14 0h1v1h-1zm16 0h1v1h-1zm-35 3h1v1h-1zm12 0h1v1h-1zm30 2h1v2h-1zm-44 1h1v1h-1zm45 0h1v1h-1zm-41 1h1v1h-1zm13 0h1v1h-1zm27 0h1v1h-1zm-18 3h1v1h-1zm6 0h1v1h-1zm-37 1h2v1h-2zm15 0h1v1h-1zm-14 1h1v1h-1zm27 0h1v1h-1zm3 1h1v1h-1zm19 0h1v1h-1zm-34 1h1v1h-1zm-16 2h1v1h-1zm38 0h1v1h-1zm-38 1h1v1h-1zm19 1h1v1h-1zm-10 1h1v1h-1zm-10 1h1v1h-1zm11 0h1v1h-1zm5 0h1v2h-1zm21 0h1v1h-1zm4 0h1v1h-1zm-42 3h1v1h-1zm15 0h1v1h-1zm7 0h1v1h-1zm21 0h1v1h-1zm-51 1h1v1h-1zm52 0h1v2h-1zm-36 1h1v1h-1zm8 0h2v1h-2zm2 0h1v1h-1zm-25 1h1v1h-1zm1 0h1v1h-1zm9 0h1v2h-1zm5 0h1v1h-1zm31 0h1v1h-1zm5 0h1v1h-1zm16 0h1v1h-1zm-67 1h1v2h-1zm36 0h1v1h-1zm14 0h1v1h-1zm13 0h1v1h-1zm-60 1h1v1h-1zm7 0h1v1h-1zm1 0h1v1h-1zm-11 1h1v1h-1zm68 0h1v1h-1zm-3 2h1v1h-1zm-107 1h1v1h-1zm50 0h1v1h-1zm57 0h1v2h-1zm-28 1h1v4h-1zm28 1h1v1h-1zm-78 2h1v1h-1zm50 1h1v1h-1zm-42 1h1v1h-1zm-35 1h1v1h-1zm34 0h1v2h-1zm-10 1h1v1h-1zm74 0h1v1h-1zm-44 3h1v1h-1zm22 0h1v1h-1zm-77 1h1v1h-1zm75 0h1v1h-1zm-19 1h1v1h-1zm23 0h1v1h-1zm-66 3h1v1h-1z" fill="#fdfcfa"/><path d="M132 124h1v1h-1zm32 0h1v1h-1zm-103 6h1v1h-1zm7 1h1v1h-1zm2 1h3v1h-3zm3 0h1v1h-1zm47 0h1v1h-1zm33 1h1v1h-1zm-69 1h1v1h-1zm-24 3h1v1h-1zm14 0h1v1h-1zm59 0h1v1h-1zm15 3h1v1h-1zm-82 3h1v1h-1zm25 1h1v1h-1zm37 0h1v1h-1z" fill="#d6d6d6"/><path fill="#392728" d="M122 125h1v1h-1z"/><path d="M121 129h1v1h-1zm-47 5h1v1h-1zm84 0h1v1h-1zm-97 1h1v1h-1zm86 0h1v1h-1zm1 1h1v1h-1zm-71 1h1v1h-1zm55 0h1v1h-1zm-55 1h1v1h-1zm49 1h1v1h-1zm7 1h1v1h-1zm-73 1h1v1h-1zm6 0h1v1h-1zm59 0h1v1h-1zm0 1h1v1h-1zm9 0h1v1h-1zm-15 1h1v1h-1zm-43 2h1v1h-1z" fill="#848282"/><path fill="#a16970" d="M142 130h1v1h-1z"/><path d="M141 133h1v1h-1zm-1 3h1v1h-1z" fill="#a75d65"/><path d="M130 80h1v1h-1zm16 12h1v1h-1zm7 26h1v1h-1zm-11 4h1v1h-1zm13 4h1v1h-1z" fill="#e53b56"/><path d="M131 81h1v1h-1zm-6 5h1v1h-1zm17 3h1v1h-1zm-5 4h1v1h-1zm14 6h1v1h-1zm-28 5h1v1h-1zm33 3h1v1h-1zm-28 1h1v1h-1zm-16 5h1v1h-1zm-2 1h1v1h-1zm1 1h1v1h-1zm7 2h1v1h-1zm-2 1h1v1h-1zm38 2h1v1h-1zm-12 3h1v1h-1zm13 0h1v1h-1zm-51 2h1v1h-1zm0 1h1v1h-1zm-2 3h1v1h-1zm6 2h1v1h-1zm31 0h1v1h-1zm-24 13h1v1h-1z" fill="#d60000"/><path d="M138 85h1v1h-1zm5 4h1v1h-1zm1 1h1v1h-1zm3 3h1v1h-1zm1 1h1v1h-1zm-28 9h1v1h-1zm14 14h1v1h-1z" fill="#e25962"/><path d="M137 94h1v1h-1zm15 5h1v1h-1zm-14 14h1v1h-1zm22 2h1v1h-1zm-6 7h1v1h-1zm-47 6h1v1h-1zm32 7h1v1h-1zm-24 8h1v1h-1z" fill="#e34f63"/><path d="M134 107h1v1h-1zm-1 9h1v1h-1z" fill="#ecb1b2"/><path d="M149 109h1v1h-1zm-29 9h1v1h-1zm22 3h1v1h-1zm-28 20h1v1h-1z" fill="#e8898b"/><path d="M78 133h1v1h-1zm68 3h1v1h-1zm-80 2h1v1h-1zm66 1h1v1h-1z" fill="#4c4948"/><path d="M134 81h1v1h-1zm-1 11h1v1h-1zm6 5h1v1h-1zm1 1h1v1h-1zm1 1h1v1h-1zm-14 1h1v1h-1zm28 2h1v1h-1zm-23 2h1v1h-1zm1 1h1v1h-1zm-10 1h1v1h-1zm11 0h1v1h-1zm25 4h1v1h-1zm-49 1h1v1h-1zm4 1h1v1h-1zm17 2h1v1h-1zm-19 3h1v1h-1zm40 0h1v1h-1zm-18 2h1v1h-1zm1 2h1v1h-1zm8 0h1v1h-1zm-37 3h1v1h-1zm-28 2h1v1h-1zm24 0h1v1h-1zm5 0h1v1h-1zm47 2h1v1h-1zm-2 1h1v1h-1zm-67 1h1v1h-1zm53 0h1v4h-1zm-28 2h1v1h-1zm28 2h1v4h-1zm0 4h1v1h-1zm-43 1h1v1h-1zm23 4h1v1h-1zm36 1h1v1h-1z" fill="#fdf4f4"/><path d="M147 92h1v1h-1zm7 9h1v1h-1zm-28 7h1v1h-1zm3 3h1v1h-1zm21 1h1v1h-1zm-8 8h1v1h-1zm-39 5h1v1h-1zm5 4h1v1h-1zm-11 7h1v1h-1zm16 2h1v1h-1z" fill="#f6cbcf"/><path d="M77 126h1v1h-1zm66 3h1v1h-1zm-81 2h1v1h-1zm64 1h1v1h-1zm26 0h2v1h-2zm2 0h1v1h-1zm-7 2h1v1h-1zm1 0h1v1h-1zm-87 3h1v1h-1zm59 2h1v1h-1zm-43 1h1v1h-1zm56 1h1v1h-1zm11 2h1v1h-1zm-54 1h1v1h-1zm63 0h1v1h-1zm-88 1h1v1h-1z" fill="#404242"/><path fill="#c8777b" d="M141 132h1v1h-1z"/><path d="M132 81h1v1h-1zm-7 3h1v1h-1zm12 0h1v1h-1zm-9 4h1v1h-1zm-5 17h1v1h-1zm-6 10h1v1h-1zm-21 24h1v1h-1z" fill="#ea808a"/><path d="M131 82h1v1h-1zm5 3h1v1h-1zm-7 2h1v1h-1zm11 1h1v1h-1zm-6 2h1v1h-1zm12 3h1v1h-1zm-7 1h1v1h-1zm11 3h1v1h-1zm-26 3h1v1h-1zm20 0h1v1h-1zm-25 1h1v1h-1zm1 1h1v1h-1zm13 6h1v1h-1zm17 0h1v1h-1zm1 3h1v1h-1zm-19 1h1v1h-1zm20 0h1v1h-1zm-41 2h1v1h-1zm42 1h1v1h-1zm-40 1h1v1h-1zm3 0h1v1h-1zm1 1h1v1h-1zm19 1h1v1h-1zm-17 1h1v1h-1zm1 0h1v1h-1zm17 1h1v1h-1zm23 0h1v1h-1zm-5 1h1v1h-1zm0 4h1v1h-1zm-16 2h1v1h-1zm1 3h1v1h-1zm-39 1h1v1h-1zm8 3h1v1h-1zm-11 4h1v1h-1zm14 2h1v1h-1zm-13 4h13v1H99zm13 0h2v1h-2zm2 0h1v1h-1z" fill="#d80015"/><path d="M124 86h1v1h-1zm7 4h1v1h-1zm24 13h1v1h-1zm-8 3h1v1h-1zm10 1h1v1h-1zm-41 7h1v1h-1zm19 6h1v1h-1zm-15 5h1v1h-1zm18 4h1v1h-1zm-38 2h1v1h-1zm12 6h1v1h-1z" fill="#f3abaf"/><path d="M122 98h1v1h-1zm-4 4h1v1h-1zm4 2h1v1h-1zm7 6h1v1h-1zm7 0h1v1h-1zm3 5h1v1h-1zm-19 9h1v1h-1zm-21 10h1v1h-1zm12 2h1v1h-1z" fill="#e14b56"/><path d="M79 127h1v1h-1zm57 1h1v1h-1zm-67 1h1v1h-1zm-2 1h1v1h-1zm16 3h1v1h-1zm69 0h1v1h-1zm-74 2h1v1h-1zm86 1h1v1h-1zm-19 3h1v1h-1zm-25 1h1v1h-1zm-43 1h1v1h-1zm47 3h1v1h-1zm-63 1h2v1h-2zm2 0h1v1h-1zm15 0h10v1H78zm10 0h1v1h-1zm33 0h1v1h-1zm1 0h1v1h-1zm9 0h3v1h-3zm3 0h1v1h-1zm5 0h3v1h-3zm3 0h1v1h-1zm19 0h2v1h-2zm2 0h1v1h-1z" fill="#232323"/><path d="M128 81h1v1h-1zm-1 5h1v1h-1zm12 1h1v1h-1zm-9 1h1v1h-1zm5 3h1v1h-1zm-15 7h1v1h-1zm30 0h1v1h-1zm-7 1h1v1h-1zm-15 4h1v1h-1zm18 0h1v1h-1zm2 2h1v1h-1zm7 0h1v1h-1zm-29 1h1v1h-1zm29 0h1v1h-1zm1 2h1v1h-1zm-22 1h1v1h-1zm-4 1h1v1h-1zm1 1h1v1h-1zm28 2h1v2h-1zm-45 1h1v1h-1zm45 1h1v1h-1zm-42 1h1v1h-1zm17 0h1v1h-1zm-19 1h1v1h-1zm20 0h1v1h-1zm4 0h1v1h-1zm15 1h1v1h-1zm6 1h1v1h-1zm-41 2h2v1h-2zm2 0h1v1h-1zm16 0h1v1h-1zm4 1h1v1h-1zm20 1h1v1h-1zm-56 3h1v1h-1zm-2 1h1v1h-1zm0 1h1v1h-1zm-1 2h1v1h-1zm5 0h1v1h-1zm-6 2h1v1h-1zm7 0h1v1h-1zm2 4h1v1h-1zm-15 8h1v1h-1z" fill="#d80010"/><path d="M138 81h1v1h-1zm-17 27h1v1h-1zm2 1h1v1h-1zm22 0h1v1h-1zm-23 2h1v1h-1zm1 2h1v1h-1zm-1 3h1v1h-1zm8 2h1v1h-1zm37 2h1v1h-1zm-60 1h1v1h-1zm1 0h1v1h-1zm9 18h1v1h-1z" fill="#f8fffe"/><path d="M139 86h1v1h-1zm-10 2h1v1h-1zm16 3h1v1h-1zm-10 1h1v1h-1zm1 1h1v1h-1zm15 5h1v1h-1zm-26 2h1v1h-1zm19 1h1v1h-1zm3 4h1v1h-1zm-20 3h1v1h-1zm23 2h1v1h-1zm-20 1h1v1h-1zm-16 6h1v1h-1zm8 4h1v1h-1zm18 12h1v1h-1z" fill="#e22f3f"/><path d="M124 99h1v1h-1zm24 8h1v1h-1zm-36 5h1v1h-1zm47 0h1v1h-1zm-45 1h1v1h-1zm37 0h1v1h-1zm-16 6h1v1h-1zm-32 7h1v1h-1zm3 0h1v1h-1zm35 5h1v1h-1zm-1 4h1v1h-1z" fill="#e4696f"/><path d="M63 124h1v1h-1zm59 0h1v1h-1zm42 3h1v3h-1zm-102 1h1v1h-1zm15 0h1v1h-1zm1 2h1v1h-1zm6 0h1v1h-1zm80 0h1v1h-1zm-90 5h1v1h-1zm3 1h1v1h-1zm6 0h1v1h-1zm37 0h1v1h-1zm29 6h1v1h-1zm-21 1h1v1h-1zm26 0h1v1h-1zm-1 2h1v1h-1z" fill="#929090"/><path d="M144 127h1v1h-1zm-2 6h1v1h-1zm-1 3h1v1h-1z" fill="#1a2826"/><g fill="#fff"><path d="M0 0h224v76H0zm224 0h1v224h-1zM0 76h224v1H0zm0 1h119v9H0zm119 0h2v4h-2zm2 0h1v1h-1zm8 0h1v1h-1zm1 0h1v2h-1zm5 0h1v1h-1zm6 0h83v6h-83zm-12 1h1v1h-1zm3 0h1v1h-1zm-2 1h1v1h-1zm1 0h1v1h-1zm-5 1h1v1h-1zm7 0h1v1h-1zm-14 1h1v1h-1zm1 0h1v1h-1zm3 1h1v1h-1zm13 0h1v1h-1zm5 1h83v1h-83zm2 1h3v1h-3zm3 0h78v1h-78zm-27 1h1v1h-1zm1 0h1v1h-1zm26 0h78v1h-78zM0 86h118v4H0zm118 0h1v4h-1zm29 0h77v1h-77zm1 1h76v3h-76zm-28 1h1v1h-1zm3 0h1v1h-1zm21 0h2v1h-2z"/><path d="M146 88h78v1h-78zm-23 1h1v2h-1zm4 0h1v2h-1zm1 0h1v1h-1zm17 0h1v1h-1zm1 0h78v1h-78zM0 90h119v1H0zm119 0h1v2h-1zm29 0h76v1h-76zM0 91h112v2H0zm112 0h1v1h-1zm4 0h1v1h-1zm1 0h1v1h-1zm6 0h1v1h-1zm3 0h1v1h-1zm1 0h2v4h-2zm2 0h2v2h-2zm2 0h1v6h-1zm20 0h73v1h-73zm-38 1h1v1h-1zm6 0h1v1h-1zm3 0h1v1h-1zm10 0h1v2h-1zm22 0h70v1h-70zM0 93h111v11H0zm111 0h1v2h-1z"/><path d="M129 93h3v4h-3zm20 0h1v1h-1zm1 0h2v1h-2zm2 0h1v1h-1zm3 0h69v4h-69zm-23 1h1v2h-1zm3 0h1v1h-1zm15 0h1v1h-1zm-39 1h1v9h-1zm11 0h1v1h-1zm1 0h1v2h-1z"/><path d="M127 95h4v1h-4zm6 0h1v1h-1zm3 0h1v1h-1zm15 0h73v1h-73zm-29 1h1v1h-1zm4 0h1v2h-1zm1 0h5v1h-5zm5 0h1v1h-1zm20 0h1v1h-1zm-37 1h1v2h-1zm8 0h1v1h-1zm5 0h3v1h-3zm3 0h1v1h-1zm21 0h1v1h-1zm3 0h69v1h-69zm-43 1h1v1h-1zm13 0h2v1h-2zm2 0h3v1h-3zm3 0h1v1h-1zm4 0h1v6h-1zm1 0h2v6h-2zm2 0h2v6h-2zm2 0h1v8h-1zm17 0h1v1h-1zm1 0h1v1h-1zm3 0h64v1h-64zm-45 1h1v1h-1zm14 0h1v2h-1zm24 0h1v1h-1zm9 0h62v13h-62zm-48 1h1v1h-1zm14 0h1v1h-1z"/><path d="M132 100h7v1h-7zm9 0h1v1h-1zm13 0h1v1h-1zm-25 1h2v1h-2zm2 0h8v1h-8zm-15 1h1v1h-1zm14 0h1v1h-1zm13 0h1v1h-1zm-11 1h8v1h-8zm8 0h1v1h-1zm17 0h1v1h-1zm4 0h63v1h-63zM0 104h112v1H0zm133 0h7v1h-7zm7 0h1v1h-1zm4 0h1v1h-1zm13 0h1v1h-1zm4 0h63v2h-63zM0 105h104v13H0zm104 0h1v9h-1zm3 0h1v1h-1zm1 0h2v1h-2zm2 0h1v1h-1zm3 0h1v3h-1zm6 0h1v1h-1zm17 0h1v3h-1zm1 0h2v1h-2zm-19 1h1v3h-1zm1 0h1v1h-1zm16 0h1v1h-1zm4 0h1v1h-1zm19 0h1v1h-1zm3 0h63v1h-63zm-56 1h1v1h-1zm9 0h1v1h-1zm9 0h1v1h-1zm17 0h1v1h-1zm1 0h1v1h-1zm18 0h1v1h-1zm-54 1h1v1h-1zm8 0h2v2h-2zm2 0h1v1h-1zm9 0h1v2h-1zm12 0h1v1h-1zm6 0h2v2h-2zm2 0h1v2h-1zm-35 1h2v1h-2zm6 0h1v1h-1zm1 0h3v2h-3zm3 0h1v1h-1zm18 0h1v1h-1zm23 0h64v1h-64zm-51 1h1v1h-1zm3 0h2v1h-2z"/><path d="M114 110h3v1h-3zm5 0h1v2h-1zm5 0h1v1h-1zm18 0h2v1h-2zm2 0h1v1h-1zm3 0h1v1h-1zm-42 1h1v1h-1zm9 0h4v1h-4zm4 0h1v1h-1zm7 0h1v3h-1zm13 0h1v1h-1zm4 0h1v3h-1zm18 0h64v1h-64zm-52 1h1v2h-1zm7 0h1v1h-1zm4 0h1v1h-1zm1 0h1v1h-1zm25 0h1v3h-1zm15 0h64v1h-64zm-33 1h1v1h-1zm22 0h1v1h-1zm12 0h1v2h-1zm1 0h62v1h-62zm-58 1h1v4h-1zm4 0h1v1h-1zm9 0h1v1h-1zm1 0h1v1h-1zm7 0h1v1h-1zm1 0h1v1h-1zm3 0h1v1h-1zm1 0h1v1h-1z"/><path d="M142 114h4v1h-4zm4 0h1v2h-1zm4 0h1v1h-1zm13 0h2v4h-2zm2 0h1v3h-1zm3 0h56v2h-56zm-49 1h1v1h-1zm1 0h1v1h-1z"/><path d="M145 115h2v1h-2zm2 0h1v1h-1zm3 0h1v1h-1zm1 0h1v2h-1zm10 0h1v1h-1zm5 0h58v1h-58zm-57 1h1v2h-1zm32 0h1v1h-1zm5 0h1v1h-1zm16 0h62v1h-62zm-31 1h1v1h-1zm11 0h1v1h-1zm9 0h1v1h-1zm11 0h5v1h-5zm5 0h57v1h-57zM0 118h105v1H0zm105 0h1v1h-1zm3 0h1v1h-1zm1 0h3v1h-3zm3 0h1v1h-1zm19 0h1v1h-1zm1 0h1v1h-1zm15 0h1v1h-1zm15 0h2v1h-2zm2 0h1v1h-1zm3 0h57v1h-57zM0 119h58v2H0zm58 0h2v1h-2zm2 0h16v1H60zm16 0h2v2h-2zm2 0h1v2h-1zm3 0h1v2h-1zm1 0h2v1h-2zm2 0h2v1h-2zm2 0h11v1H86zm11 0h1v14h-1zm5 0h1v1h-1zm1 0h1v1h-1zm5 0h1v1h-1zm6 0h1v1h-1zm55 0h55v105h-55zm-111 1h1v1h-1zm3 0h15v1H61z"/><path d="M80 120h4v1h-4zm4 0h1v2h-1zm4 0h9v1h-9zm15 0h1v1h-1zm7 0h1v1h-1zm3 0h1v1h-1zm21 0h1v1h-1zm18 0h1v2h-1zM0 121h57v12H0zm57 0h1v2h-1zm6 0h15v2H63zm15 0h4v1h-4zm4 0h1v2h-1zm4 0h1v3h-1zm1 0h2v4h-2zm2 0h11v1H89zm11 0h1v1h-1zm4 0h1v1h-1zm22 0h1v2h-1zm1 0h1v2h-1zm6 0h1v2h-1zm1 0h1v1h-1zm16 0h2v1h-2zm15 0h1v1h-1zm-106 1h2v1h-2z"/><path d="M61 122h15v1H61zm22 0h1v1h-1zm1 0h3v1h-3zm5 0h9v1h-9zm9 0h1v1h-1zm26 0h1v1h-1zm5 0h1v1h-1zm1 0h3v1h-3zm14 0h1v1h-1zm5 0h1v1h-1zm3 0h1v3h-1zm12 0h1v1h-1zm-107 1h1v2h-1zm1 0h19v1H58zm19 0h1v1h-1zm4 0h2v1h-2zm2 0h1v1h-1zm8 0h7v5h-7zm7 0h1v2h-1zm13 0h1v1h-1zm4 0h2v1h-2zm10 0h6v1h-6zm6 0h2v1h-2zm2 0h1v1h-1zm11 0h3v1h-3zm3 0h2v1h-2zm2 0h1v1h-1zm19 0h56v1h-56zm-110 1h1v2h-1zm28 0h2v1h-2z"/><path d="M90 124h7v1h-7zm11 0h1v4h-1zm1 0h1v1h-1zm14 0h1v8h-1zm19 0h1v1h-1zm1 0h1v1h-1zm17 0h1v1h-1zm12 0h1v1h-1zm-108 1h4v1h-4zm4 0h1v3h-1zm26 0h1v1h-1zm1 0h10v2H88zm10 0h1v1h-1zm16 0h1v7h-1zm1 0h1v8h-1zm37 0h1v3h-1zm13 0h1v1h-1zm-105 1h1v8h-1z"/><path d="M86 126h3v1h-3zm13 0h2v1h-2zm9 0h1v1h-1zm5 0h4v6h-4zm4 0h1v6h-1zm-31 1h11v1H86zm22 0h1v1h-1zm10 0h2v1h-2zm2 0h1v4h-1zm33 0h1v4h-1zm13 0h58v1h-58zm-107 1h2v1h-2zm2 0h1v1h-1zm26 0h2v1h-2zm2 0h10v1H89zm12 0h1v1h-1zm17 0h2v6h-2zm34 0h1v1h-1zm14 0h58v1h-58zm-108 1h2v2h-2zm28 0h1v1h-1zm3 0h1v1h-1zm1 0h7v1h-7zm19 0h1v1h-1zm45 0h1v1h-1zm12 0h58v1h-58zm-97 1h1v1h-1zm1 0h2v1h-2zm2 0h1v1h-1zm5 0h1v2h-1zm9 0h1v9h-1zm1 0h10v1H87zm13 0h1v1h-1zm9 0h1v1h-1z"/><path d="M112 130h8v2h-8zm16 0h1v2h-1zm1 0h1v1h-1zm37 0h58v3h-58zm-108 1h2v1h-2zm11 0h2v1h-2zm2 0h3v1h-3zm3 0h3v1h-3zm11 0h3v1h-3zm3 0h1v8h-1zm3 0h6v1h-6zm8 0h1v1h-1zm21 0h1v1h-1zm9 0h1v1h-1zm1 0h1v1h-1zm23 0h1v1h-1zm-94 1h1v7h-1zm16 0h2v6h-2zm2 0h1v1h-1zm8 0h1v7h-1zm4 0h1v7h-1zm3 0h6v1h-6zm6 0h1v1h-1zm14 0h7v1h-7zm16 0h1v1h-1zM0 133h58v1H0z"/><path d="M58 133h2v1h-2zm33 0h1v2h-1zm6 0h1v1h-1zm18 0h1v1h-1zm51 0h58v1h-58zM0 134h55v90H0zm55 0h5v1h-5zm5 0h1v1h-1zm27 0h4v5h-4zm31 0h1v1h-1zm1 0h1v2h-1zm47 0h1v7h-1zm1 0h57v1h-57zm-112 1h1v89h-1zm1 0h1v1h-1zm35 0h1v4h-1zm1 0h1v2h-1zm76 0h56v2h-56zm-112 1h1v3h-1zm1 0h2v1h-2zm62 0h1v1h-1zm-62 1h2v2h-2z"/><path d="M84 137h8v2h-8zm8 0h1v2h-1zm21 0h1v1h-1zm34 0h1v6h-1zm11 0h1v87h-1zm10 0h56v3h-56zm-101 1h9v1h-9zm9 0h1v1h-1zm18 0h1v1h-1zm1 0h1v1h-1zm23 0h1v3h-1zm15 0h1v1h-1zm-77 1h3v1h-3zm3 0h1v1h-1zm8 0h1v5h-1zm1 0h1v1h-1zm7 0h1v4h-1zm9 0h8v1h-8zm8 0h1v1h-1zm23 0h1v1h-1zm19 0h1v1h-1zm4 0h1v1h-1zm19 0h1v1h-1zm-88 1h1v1h-1zm24 0h1v1h-1zm53 0h1v4h-1zm11 0h1v1h-1zm10 0h57v1h-57zm-110 1h1v83h-1zm12 0h1v4h-1zm1 0h3v1h-3zm3 0h2v1h-2zm20 0h1v1h-1zm25 0h1v1h-1zm8 0h1v4h-1zm9 0h1v1h-1zm21 0h2v1h-2zm10 0h1v4h-1zm1 0h57v2h-57zm-109 1h1v2h-1zm10 0h1v1h-1zm3 0h1v3h-1zm1 0h3v1h-3zm20 0h1v2h-1zm44 0h1v1h-1zm1 0h1v82h-1zm11 0h1v3h-1zm8 0h2v1h-2z"/><path d="M56 143h2v1h-2zm12 0h2v1h-2zm2 0h2v2h-2zm2 0h3v1h-3zm3 0h1v1h-1zm52 0h1v2h-1zm9 0h1v1h-1zm9 0h3v1h-3zm10 0h1v1h-1zm12 0h57v1h-57zm-111 1h2v80h-2zm2 0h1v80h-1zm8 0h1v80h-1zm1 0h2v1h-2zm6 0h1v1h-1zm1 0h1v1h-1zm18 0h1v1h-1zm53 0h1v1h-1zm1 0h2v1h-2zm9 0h1v80h-1zm-86 1h2v1h-2zm2 0h3v79h-3zm3 0h1v79h-1zm52 0h2v79h-2zm2 0h1v79h-1zm19 0h1v79h-1zm1 0h1v79h-1zm6 0h1v79h-1zm12 0h58v1h-58zm-106 1h6v78h-6zm10 0h1v78h-1zm5 0h16v78H75zm16 0h1v78h-1zm3 0h18v78H94zm18 0h1v78h-1zm3 0h10v78h-10zm10 0h1v78h-1zm4 0h15v78h-15zm15 0h2v78h-2zm2 0h1v78h-1z"/><path d="M149 146h6v78h-6zm10 0h6v78h-6zm6 0h59v78h-59zm-106 1h7v77h-7zm97 0h3v77h-3z"/><path d="M67 148h157v76H67zM0 224h224v1H0zm224 0h1v1h-1z"/></g><path d="M124 77h1v1h-1zm11 2h1v1h-1zm-1 1h1v1h-1zm6 0h1v2h-1zm-1 2h1v1h-1zm1 0h1v1h-1zm-1 1h1v1h-1zm-16 3h1v1h-1zm20 0h1v1h-1zm-17 3h1v1h-1zm-6 1h1v1h-1zm5 0h1v1h-1zm1 0h1v1h-1zm23 1h1v1h-1zm1 0h1v1h-1zm-33 3h1v1h-1zm-5 3h1v1h-1zm1 0h1v1h-1zm19 2h1v1h-1zm25 2h1v1h-1zm4 1h1v1h-1zm-47 1h1v1h-1zm29 0h1v1h-1zm-2 1h1v1h-1zm4 0h1v1h-1zm-29 1h2v1h-2zm2 0h1v1h-1zm17 0h1v1h-1zm5 0h1v1h-1zm4 0h1v1h-1zm-24 1h1v1h-1zm39 0h1v1h-1zm-47 1h1v1h-1zm31 0h2v1h-2zm2 0h1v1h-1zm-4 1h1v1h-1zm7 1h1v1h-1zm-43 1h1v1h-1zm16 0h1v1h-1zm-5 2h1v1h-1zm32 0h1v2h-1zm-7 1h1v1h-1zm-18 1h1v1h-1zm24 0h1v1h-1zm1 0h1v2h-1zm-24 1h1v1h-1zm4 0h1v1h-1zm-18 1h1v1h-1zm15 0h1v1h-1zm23 0h1v1h-1zm-38 1h1v1h-1zm16 0h1v1h-1zm1 0h1v3h-1zm1 1h1v1h-1zm24 0h1v1h-1zm-24 1h1v1h-1zm3 0h1v1h-1zm-27 1h2v1h-2zm8 0h1v1h-1zm12 0h1v1h-1zm1 0h2v1h-2zm2 0h2v1h-2zm2 0h3v1h-3zm18 0h1v1h-1zm3 0h1v1h-1zm-67 1h1v1h-1zm20 0h1v1h-1zm7 0h1v1h-1zm4 0h1v2h-1zm30 0h1v1h-1zm20 0h1v1h-1zm3 0h1v1h-1zm-54 1h1v1h-1zm35 0h1v1h-1zm-34 1h1v1h-1zm-15 2h1v1h-1zm11 0h1v1h-1zm8 1h1v1h-1zm50 0h1v1h-1zm-70 1h1v1h-1zm-12 1h1v1h-1zm12 2h1v1h-1zm-9 1h1v1h-1zm1 0h1v1h-1zm8 0h1v1h-1zm-3 2h1v1h-1zm1 0h1v1h-1zm0 1h1v1h-1zm-38 1h1v1h-1zm35 0h1v1h-1zm43 1h1v1h-1zm-18 1h1v1h-1zm16 1h1v1h-1zm12 1h1v1h-1zm-78 1h1v1h-1zm-10 1h1v1h-1zm79 0h1v1h-1zm-81 1h1v1h-1zm14 0h1v1h-1zm48 0h1v1h-1zm39 1h1v1h-1zm-98 3h1v1h-1zm10 0h1v1h-1zm23 1h1v1h-1zm1 0h1v1h-1zm20 0h1v1h-1z" fill="#fefdfb"/><g fill="#fdffff"><path d="M126 77h1v2h-1zm6 0h2v1h-2zm2 0h1v1h-1zm-11 1h1v1h-1zm4 0h1v1h-1zm1 0h1v1h-1zm-3 1h1v2h-1zm1 0h1v1h-1zm7 0h1v1h-1zm-8 2h1v1h-1zm10 0h1v1h-1zm4 0h1v1h-1zm-19 1h1v1h-1zm4 0h1v1h-1zm-4 1h2v1h-2zm18 0h1v1h-1zm1 1h3v1h-3zm3 0h1v2h-1zm-2 1h1v1h-1zm1 0h1v1h-1zm-21 1h1v1h-1zm22 0h1v1h-1zm-23 2h1v1h-1zm7 0h1v1h-1zm-7 1h1v1h-1zm1 0h2v1h-2zm2 0h1v1h-1zm-1 1h1v1h-1zm1 0h1v1h-1zm6 0h1v1h-1zm1 0h1v1h-1zm17 0h1v1h-1zm1 0h1v1h-1zm-33 1h1v3h-1zm4 0h1v1h-1zm6 0h1v1h-1zm1 0h1v1h-1zm22 0h1v1h-1zm1 0h1v1h-1zm-36 1h1v1h-1zm8 0h1v1h-1zm4 0h1v1h-1zm1 0h1v1h-1zm23 0h1v1h-1zm1 0h3v1h-3zm3 0h1v1h-1zm-39 1h1v3h-1zm6 0h2v1h-2zm2 0h1v1h-1zm12 0h1v1h-1zm1 0h1v1h-1zm-20 1h1v1h-1zm4 0h1v1h-1zm2 1h1v1h-1zm4 0h1v2h-1zm-7 1h1v1h-1zm16 0h1v1h-1zm3 0h2v1h-2zm2 0h1v2h-1zm16 0h1v1h-1zm-38 1h1v1h-1zm8 0h1v1h-1zm9 0h1v2h-1zm1 0h2v1h-2zm2 0h2v1h-2zm-23 1h1v1h-1zm40 0h1v1h-1zm5 0h1v1h-1zm-46 1h1v2h-1zm1 0h1v1h-1zm14 0h1v1h-1zm6 0h1v1h-1zm7 0h1v2h-1zm15 0h4v1h-4zm4 0h2v1h-2zm2 0h1v1h-1zm-46 1h1v1h-1zm40 0h1v1h-1zm1 0h1v3h-1zm-44 1h1v2h-1zm3 0h1v1h-1zm25 0h2v1h-2zm2 0h1v4h-1zm15 1h1v1h-1zm-45 1h1v2h-1zm1 0h1v1h-1zm3 0h1v1h-1zm1 0h1v1h-1zm27 0h1v1h-1zm12 0h1v1h-1zm-43 1h2v1h-2zm2 0h1v1h-1zm4 0h1v1h-1zm39 0h1v1h-1zm-52 1h1v1h-1zm5 0h1v1h-1zm1 0h1v1h-1zm3 0h1v1h-1zm5 0h1v1h-1zm14 0h1v1h-1zm7 0h1v1h-1zm1 0h1v1h-1zm3 0h1v1h-1zm13 0h1v1h-1zm-53 1h1v1h-1zm1 0h1v1h-1zm3 0h2v1h-2zm2 0h1v2h-1zm11 0h1v1h-1zm-3 1h1v1h-1zm3 0h1v1h-1zm13 0h1v1h-1zm26 0h1v1h-1zm-50 1h1v2h-1zm1 0h1v1h-1zm8 0h1v2h-1zm5 0h1v1h-1zm22 0h1v1h-1zm-39 1h1v1h-1zm17 0h1v1h-1zm1 0h1v3h-1zm-16 1h1v1h-1zm1 0h1v1h-1zm9 0h1v1h-1zm7 0h1v2h-1zm11 0h1v1h-1zm10 0h1v1h-1zm-42 1h1v1h-1zm1 0h2v1h-2zm2 0h1v1h-1zm4 0h1v1h-1zm8 0h1v1h-1zm7 0h1v1h-1zm11 0h2v1h-2zm2 0h1v1h-1zm6 0h1v1h-1zm1 0h1v1h-1zm-31 1h1v1h-1zm5 0h1v1h-1zm1 0h1v1h-1zm3 0h3v1h-3zm3 0h1v1h-1zm10 0h3v1h-3zm10 0h1v1h-1zm-44 1h1v1h-1zm11 0h1v1h-1zm1 0h1v1h-1zm3 0h1v1h-1zm4 0h1v1h-1zm5 0h1v1h-1zm1 0h1v1h-1zm20 0h1v1h-1zm-31 1h2v1h-2zm2 0h1v1h-1zm6 0h1v2h-1zm13 0h1v1h-1zm1 0h1v1h-1zm-16 1h2v1h-2zm16 0h1v1h-1zm8 0h1v1h-1zm-43 1h1v2h-1zm14 0h1v1h-1zm6 0h2v1h-2zm2 0h1v1h-1zm4 0h1v1h-1zm-21 1h1v5h-1zm10 0h1v1h-1zm4 0h1v1h-1zm7 0h1v1h-1zm-26 1h1v1h-1zm16 0h1v1h-1zm1 0h2v1h-2zm2 0h1v1h-1zm8 0h1v1h-1zm9 0h2v1h-2zm2 0h2v1h-2zm6 0h1v1h-1zm1 0h1v1h-1zm-47 1h1v1h-1zm1 0h1v2h-1z"/><path d="M110 119h3v1h-3zm3 0h1v1h-1zm13 0h1v1h-1zm4 0h1v1h-1zm3 0h1v1h-1zm10 0h2v1h-2zm2 0h1v2h-1zm3 0h1v2h-1zm1 0h1v2h-1zm14 0h1v1h-1zm1 0h1v1h-1zm3 0h1v1h-1zm-67 1h2v1h-2zm2 0h1v1h-1zm13 0h1v1h-1zm8 0h1v1h-1z"/><path d="M143 120h3v1h-3zm3 0h1v1h-1zm17 0h1v2h-1zm1 0h1v1h-1zm4 0h1v1h-1zm-63 1h1v1h-1zm40 0h1v1h-1zm3 0h1v1h-1zm1 0h1v1h-1zm19 0h1v1h-1zm-57 1h1v1h-1zm14 0h1v1h-1zm9 0h1v1h-1zm1 0h1v1h-1zm28 0h1v1h-1zm-83 1h1v1h-1zm33 0h1v2h-1zm22 0h1v1h-1zm29 0h1v1h-1zm-103 1h1v1h-1zm53 0h1v1h-1zm4 0h1v1h-1zm-7 1h2v1h-2zm2 0h1v1h-1zm4 0h2v1h-2zm2 0h1v1h-1zm17 0h1v1h-1zm17 0h1v1h-1zm13 0h1v1h-1zm-57 1h2v1h-2zm2 0h1v5h-1zm8 0h1v1h-1zm34 0h1v1h-1zm-54 1h1v2h-1zm1 0h1v2h-1zm9 0h1v1h-1zm3 0h1v2h-1zm25 0h1v1h-1zm-38 2h1v1h-1zm1 0h1v1h-1z"/><path d="M110 129h2v2h-2zm2 0h1v1h-1zm-2 2h1v1h-1zm1 0h1v2h-1zm-19 2h1v1h-1zm6 0h1v1h-1zm13 0h2v1h-2zm2 0h1v2h-1zm3 0h1v1h-1zm1 0h1v1h-1zm-25 1h2v1h-2zm2 0h1v1h-1zm3 0h1v1h-1z"/><path d="M112 134h2v1h-2zm2 0h3v1h-3zm3 0h1v1h-1zm-22 1h1v1h-1zm1 0h1v2h-1zm17 0h2v1h-2zm2 0h1v2h-1zm3 0h1v1h-1zm-4 1h1v1h-1zm-18 1h1v1h-1zm19 0h1v1h-1zm-21 2h1v1h-1zm-2 1h1v1h-1zm25 0h1v1h-1zm21 0h1v1h-1zm-46 1h1v1h-1zm24 0h1v2h-1zm-23 1h1v1h-1zm0 1h1v1h-1zm23 0h1v1h-1zm1 0h1v2h-1zm-25 2h1v1h-1zm25 0h1v1h-1zm-25 1h1v1h-1zm21 0h1v1h-1zm1 0h1v1h-1z"/></g><path d="M127 81h1v1h-1zm-1 2h1v1h-1zm-6 14h1v1h-1zm-2 1h1v1h-1zm38 8h1v1h-1zm-46 7h1v1h-1zm5 5h1v1h-1zm-5 16h1v1h-1zm-12 2h1v1h-1z" fill="#e54652"/><path fill="#ac8c8f" d="M143 127h1v1h-1z"/><path d="M157 127h1v1h-1zm-35 1h1v1h-1zm-54 5h1v1h-1zm79 0h1v1h-1zm-74 4h1v1h-1zm58 0h1v1h-1zm-70 1h1v1h-1zm21 0h1v1h-1zm43 0h1v1h-1zm1 0h1v1h-1zm19 0h1v1h-1zm-62 3h6v1h-6zm6 0h1v1h-1zm65 0h1v1h-1zm-89 3h1v1h-1z" fill="#141414"/><path d="M128 79h1v1h-1zm12 18h1v1h-1zm1 1h1v1h-1zm-4 13h1v1h-1zm3 5h1v1h-1zm12 0h1v1h-1zm1 3h1v1h-1zm2 8h1v1h-1z" fill="#ee8995"/><path d="M136 83h1v1h-1zm-2 9h1v1h-1zm17 5h1v1h-1zm-32 6h1v1h-1zm6 4h1v1h-1zm23 1h1v1h-1zm-38 4h1v1h-1zm3 0h1v1h-1zm17 0h1v1h-1zm-16 6h1v1h-1zm20 0h1v1h-1zm-12 2h1v1h-1zm-4 2h1v1h-1zm-16 5h1v1h-1zm-1 2h1v1h-1z" fill="#f2b6ba"/><path d="M135 84h1v1h-1zm-3 5h1v1h-1zm4 3h1v1h-1zm2 2h1v1h-1zm-20 5h1v1h-1zm36 5h1v1h-1zm-4 5h1v1h-1zm-32 11h1v1h-1zm24 5h1v1h-1zm0 1h1v1h-1zm-2 6h1v1h-1zm-27 9h1v1h-1zm-18 1h1v1h-1zm0 1h1v1h-1z" fill="#d90009"/><path d="M158 109h1v1h-1zm-4 14h1v1h-1zm-11 1h1v1h-1z" fill="#ef9ea0"/><g fill="#e33c45"><path d="M115 114h1v1h-1zm46 6h1v1h-1zm-61 12h1v1h-1z"/></g><g fill="#eb7787"><path d="M110 115h1v1h-1zm13 7h1v1h-1z"/></g><path fill="#c39ca0" d="M157 124h1v1h-1z"/><g fill="#d00"><path d="M128 80h1v1h-1zm1 0h1v1h-1zm-12 21h1v1h-1zm32 6h1v1h-1zm9 4h1v1h-1zm-5 5h1v1h-1zm0 1h1v1h-1zm-36 2h1v1h-1zm24 2h1v1h-1zm-19 1h1v1h-1zm33 2h1v1h-1zm-17 1h1v1h-1zm-31 4h1v1h-1zm32 0h1v1h-1zm-41 8h1v1h-1zm-1 2h1v1h-1z"/></g><g fill="#de011c"><path d="M131 84h2v1h-2zm2 0h1v1h-1zm-4 1h1v1h-1zm-1 2h1v1h-1zm12 0h1v1h-1zm-3 1h1v1h-1zm-4 1h1v1h-1zm9 1h1v1h-1zm0 1h1v1h-1zm-2 5h1v1h-1zm5 0h1v1h-1zm-1 3h1v1h-1zm2 1h1v1h-1zm-25 1h1v1h-1zm25 0h1v1h-1zm-22 1h1v1h-1zm23 1h1v1h-1zm-22 1h1v2h-1zm28 1h1v1h-1zm1 0h1v1h-1zm-29 1h1v1h-1zm23 0h1v1h-1zm4 1h1v1h-1zm-20 1h1v1h-1zm-2 1h2v1h-2zm2 0h1v1h-1zm-1 1h1v1h-1zm21 0h1v1h-1zm-41 2h1v1h-1zm22 0h1v1h-1zm1 0h1v1h-1zm22 0h1v1h-1zm-2 3h1v1h-1zm-38 2h1v1h-1zm3 1h1v1h-1zm38 0h1v3h-1zm0 3h1v1h-1zm-38 1h2v1h-2zm2 0h1v1h-1zm38 0h1v1h-1zm-19 5h1v1h-1zm-35 1h1v1h-1zm-2 1h1v1h-1zm0 1h1v1h-1zm-1 2h2v1h-2zm2 0h3v1h-3zm3 0h1v1h-1zm-5 1h1v1h-1zm2 1h1v1h-1zm4 1h1v1h-1zm-6 1h1v1h-1zm5 0h1v1h-1zm-7 3h1v1h-1zm7 0h1v1h-1zm3 0h1v1h-1zm-2 1h1v1h-1zm-12 2h1v1h-1zm2 1h15v1H98zm15 0h1v1h-1z"/></g><g fill="#b9afab"><path d="M79 124h1v1h-1zm-11 6h1v1h-1zm86 1h1v1h-1zm-93 1h1v1h-1zm67 1h1v1h-1zm-54 3h1v1h-1zm-14 4h1v1h-1zm79 0h1v1h-1zm-48 1h1v1h-1z"/></g><path fill="#768886" d="M158 124h1v1h-1z"/><g fill="#1e1e1e"><path d="M63 126h1v1h-1zm16 2h1v1h-1zm-9 1h5v1h-5zm5 0h1v1h-1zm46 5h1v1h-1zm-48 2h1v1h-1zm76 3h1v1h-1zm15 0h1v1h-1zm-100 6h1v1h-1zm56 0h1v1h-1zm3 0h1v1h-1zm7 0h1v1h-1zm21 0h1v1h-1zm1 0h1v1h-1zm8 0h1v1h-1z"/></g></svg>