<svg xmlns="http://www.w3.org/2000/svg" role="img" viewBox="-5.91 -5.91 307.58 181.58"><title>Freefly Systems logo</title><path d="M119 13h1v1h-1zm0 3h1v1h-1zm-12 2h1v1h-1zm164 0h1v1h-1zm11 0h1v1h-1zm-5 2h1v1h-1zm-5 2h1v1h-1zM50 25h1v1h-1zm-19 8h1v1h-1zm83 1h1v1h-1zm93 1h1v1h-1zm-92 7h1v1h-1zm-45 4h1v1h-1zm22 2h1v1h-1zm24 0h1v1h-1zm91 3h1v1h-1zm-90 1h1v1h-1zm3 11h1v1h-1zm78 1h1v1h-1zm3 2h1v1h-1zm-77 8h1v1h-1zm-7 3h1v1h-1zm-6 10h1v1h-1zm8 3h1v1h-1zm10 5h1v1h-1zm36 2h1v1h-1zm-11 10h1v1h-1zm3 21h1v1h-1zm-33 10h1v1h-1zm-38 24h1v1h-1zm135 2h1v1h-1zm-112 5h1v1h-1z" fill="#4e4e4e"/><path d="M119 1h1v1h-1zm1 3h1v1h-1zm59 2h1v1h-1zm116 3h1v1h-1zM10 12h1v1h-1zm104 2h1v1h-1zm73 1h1v1h-1zm-80 6h1v1h-1zm75 0h1v1h-1zM39 22h1v1h-1zm234 0h1v1h-1zM25 23h1v1h-1zm18 0h1v1h-1zm227 0h1v1h-1zm-3 1h1v1h-1zm-24 1h1v1h-1zm-5 1h1v1h-1zM63 27h1v1h-1zm-42 2h1v1h-1zm55 0h1v1h-1zm199 0h1v1h-1zm-93 1h1v1h-1zm62 0h1v1h-1zm25 1h1v1h-1zm-59 1h1v1h-1zm-103 1h1v1h-1zm81 1h1v1h-1zm6 2h1v1h-1zM51 38h1v1h-1zm63 0h1v1h-1zm130 0h1v1h-1zm-63 2h1v1h-1zm53 0h1v1h-1zm-61 1h1v1h-1zm20 0h1v1h-1zm16 0h1v1h-1zM74 42h1v1h-1zm13 0h1v1h-1zm134 0h1v1h-1zm-35 3h1v1h-1zm46 0h1v1h-1zm-52 1h1v1h-1zm18 1h1v1h-1zM87 49h1v1h-1zm37 0h1v1h-1zm61 0h1v1h-1zm-60 4h1v1h-1zm45 1h1v1h-1zm19 0h1v1h-1zm-2 5h1v1h-1zm-68 2h1v1h-1zm49 0h1v1h-1zm7 4h1v1h-1zm-1 3h1v1h-1zm9 0h1v1h-1zm-61 2h1v1h-1zm68 0h1v1h-1zm-72 1h1v1h-1zm-3 3h1v1h-1zm-7 1h1v1h-1zm16 0h1v1h-1zm-19 1h1v1h-1zm81 1h1v1h-1zm-16 1h1v1h-1zm8 0h1v1h-1zm-17 2h1v1h-1zm-33 4h1v1h-1zm8 0h1v1h-1zm-15 1h1v1h-1zm8 1h1v1h-1zm44 1h1v1h-1zm-61 1h1v1h-1zm18 0h1v1h-1zm27 1h1v1h-1zm20 3h1v1h-1zm-9 3h1v1h-1zm-7 1h1v1h-1zm3 2h2v1h-2zm2 0h1v1h-1zm-30 1h1v1h-1zm3 5h1v1h-1zm-4 1h1v1h-1zm35 5h1v1h-1zm-17 6h1v1h-1zm23 8h1v1h-1zm-54 1h1v1h-1zm7 7h1v1h-1zm40 2h1v1h-1zm-45 1h1v1h-1zm4 2h1v1h-1zm-22 16h1v1h-1zm-59 1h1v1h-1zm23 2h1v1h-1zm155 1h1v1h-1zm16 1h1v1h-1zm-13 3h1v1h-1zm-11 4h1v1h-1zm-102 1h15v1h-15zm15 0h1v1h-1zm17 0h16v1h-16zm16 0h1v1h-1zm-63 2h1v1h-1z" fill="#adadad"/><path d="M178 5h1v1h-1zm1 2h1v1h-1zM6 14h1v1H6zm182 3h1v1h-1zm-69 1h1v1h-1zm149 1h1v1h-1zm-10 3h1v1h-1zm-82 1h1v1h-1zM45 24h1v1h-1zm206 4h1v1h-1zM73 29h1v1h-1zm3 5h1v1h-1zm143 0h1v1h-1zM37 35h1v1h-1zm84 1h1v1h-1zm-86 1h1v1h-1zm219 2h1v1h-1zM48 41h1v1h-1zm16 0h1v1h-1zm-12 1h1v1h-1zm70 0h1v1h-1zm102 0h1v1h-1zm-120 4h1v1h-1zm19 1h1v1h-1zm-35 4h1v1h-1zm12 2h1v1h-1zm-9 2h1v1h-1zm103 0h1v1h-1zm8 3h1v1h-1zm5 0h1v1h-1zM92 63h1v1h-1zm101 1h1v1h-1zm-80 5h1v1h-1zm65 8h1v1h-1zm9 5h1v1h-1zm-65 4h1v1h-1zm8 1h1v1h-1zm-14 1h2v1h-2zm2 0h1v1h-1zm7 3h1v1h-1zm-5 1h1v1h-1zm30 12h1v1h-1zm-3 3h1v1h-1zm-5 1h1v1h-1zm-19 9h1v1h-1zm26 1h1v1h-1zm3 4h1v1h-1zm23 0h1v1h-1zm-55 1h1v1h-1zm-1 4h1v1h-1zm55 1h1v1h-1zm-47 6h1v1h-1zm-5 1h1v1h-1zm1 3h1v1h-1zm49 0h1v1h-1zm-97 15h1v1h-1zm-5 2h1v1h-1zm173 1h1v1h-1zm-16 3h1v1h-1zm-113 3h1v1h-1zm11 0h1v1h-1zm105 1h1v1h-1zm-140 2h1v1h-1zm55 1h1v1h-1z" fill="#3c3c3c"/><path d="M175 2h1v1h-1zm110 10h1v1h-1zM20 16h1v1h-1zm162 4h1v1h-1zM22 22h1v1h-1zm234 0h1v1h-1zm-4 1h1v1h-1zM28 24h1v1h-1zm92 1h1v1h-1zm112 2h1v1h-1zm-57 1h1v1h-1zm44 1h1v1h-1zm55 0h1v1h-1zM51 30h1v1h-1zm30 0h1v1h-1zm-25 1h1v1h-1zm126 0h1v1h-1zm57 0h1v1h-1zM29 32h1v1h-1zm32 0h1v1h-1zm173 0h1v1h-1zm32 0h1v1h-1zM32 33h1v1h-1zm35 0h1v1h-1zm161 0h1v1h-1zm35 0h1v1h-1zM80 36h1v1h-1zm124 2h1v1h-1zM56 39h1v1h-1zm28 0h1v1h-1zm38 0h1v1h-1zm117 0h1v1h-1zm-52 1h1v1h-1zm23 0h1v1h-1zM50 42h1v1h-1zm25 0h1v1h-1zm19 0h1v1h-1zm126 0h1v1h-1zm25 0h1v1h-1zm-4 1h1v1h-1zM82 44h1v1h-1zm-19 1h1v1h-1zm52 0h1v1h-1zm77 0h1v1h-1zm13 1h1v1h-1zm-101 2h1v1h-1zm67 2h1v1h-1zm-66 1h1v1h-1zm-5 1h1v1h-1zm105 1h1v1h-1zm-88 1h1v1h-1zm77 0h1v1h-1zm-16 1h1v1h-1zm21 0h1v1h-1zm11 0h1v1h-1zM86 56h1v1h-1zm12 2h1v1h-1zm-3 2h1v1h-1zm32 0h1v1h-1zm79 0h1v1h-1zm-92 1h1v1h-1zm62 1h1v1h-1zm-79 1h1v1h-1zm4 0h1v1h-1zm27 0h1v1h-1zm39 1h1v1h-1zm36 0h1v1h-1zm-87 2h1v1h-1zm68 0h1v1h-1zm-18 1h1v1h-1zm29 1h1v1h-1zm5 0h1v1h-1zm-70 1h1v1h-1zm-17 1h1v1h-1zm-11 1h1v1h-1zm-4 1h1v1h-1zm16 0h1v1h-1zm49 3h1v1h-1zm-47 1h1v1h-1zm58 2h1v1h-1zm18 1h1v1h-1zm-70 1h1v1h-1zm-14 1h1v1h-1zm4 1h1v1h-1zm74 1h1v1h-1zm3 0h1v1h-1zm-7 1h1v1h-1zm-51 6h1v1h-1zm-11 1h1v1h-1zm54 2h1v1h-1zm1 2h1v1h-1zm-45 1h1v1h-1zm21 5h1v1h-1zm-17 2h1v1h-1zm16 0h1v1h-1zm10 2h1v1h-1zm11 9h1v1h-1zm-47 1h1v1h-1zm-3 3h1v1h-1zm17 4h1v1h-1zm20 1h1v1h-1zm15 1h1v1h-1zm-54 1h1v1h-1zm15 2h1v1h-1zm43 2h1v1h-1zm-54 6h1v1h-1zm-47 19h1v1h-1zm82 6h1v2h-1zm0 2h1v1h-1zm-70 2h1v1h-1zm4 3h1v1h-1z" fill="#b9b9b9"/><path d="M178 4h1v1h-1zm-63 6h1v1h-1zm-98 5h1v1h-1zm84 5h1v1h-1zm177 0h1v1h-1zM35 21h1v1h-1zm147 1h1v1h-1zm66 2h1v1h-1zm12 2h1v1h-1zm-12 3h1v1h-1zM23 32h1v1h-1zm39 0h1v1h-1zm23 0h1v1h-1zm148 0h1v1h-1zM74 34h1v1h-1zm147 0h1v1h-1zm32 2h1v1h-1zm11 0h1v1h-1zM83 38h1v1h-1zm19 2h1v1h-1zm20 0h1v1h-1zm130 0h1v1h-1zM67 41h1v1h-1zm161 0h1v1h-1zm-113 3h1v1h-1zm-6 1h1v1h-1zm-41 1h1v1h-1zm104 0h1v1h-1zm55 0h1v1h-1zM73 47h1v1h-1zm118 1h1v1h-1zm18 0h1v1h-1zm-93 1h1v1h-1zm74 2h1v1h-1zM90 53h1v1h-1zm5 0h1v1h-1zm102 5h1v1h-1zm-88 3h1v1h-1zm85 2h1v1h-1zm-74 1h1v1h-1zm-27 1h1v1h-1zm28 2h1v1h-1zm-21 1h1v1h-1zm80 6h1v1h-1zm-71 9h1v1h-1zm-2 1h1v1h-1zm17 6h1v1h-1zm34 11h1v1h-1zm-15 14h1v1h-1zm7 5h1v1h-1zm27 11h1v1h-1zm0 1h1v1h-1zm-14 2h1v1h-1zm8 1h1v1h-1zM48 155h1v14h-1zm29 0h1v13h-1zm-22 1h14v1H55zm14 0h1v1h-1zm15 0h11v1H84zm11 0h1v1h-1zm20 0h15v1h-15zm15 0h1v1h-1zm17 0h16v1h-16zm16 0h1v1h-1zm15 0h14v1h-14zm14 0h1v1h-1zm-139 1h1v1h-1zm29 1h1v11h-1zm153 2h4v1h-4zm4 0h1v1h-1zm-147 1h2v1h-2zm2 0h1v1h-1zm-17 7h1v1h-1zm-29 1h1v1h-1zm5 0h1v1h-1zm29 0h1v1h-1z" fill="#9e9e9e"/><path d="M116 6h1v1h-1zM0 7h1v1H0zm13 6h1v1h-1zm101 0h1v1h-1zm68 4h1v1h-1zm87 1h1v1h-1zm-156 2h1v1h-1zm-77 1h1v1h-1zm152 1h1v1h-1zm-88 2h1v1h-1zm-66 2h1v1h-1zm25 0h1v1h-1zm177 0h1v1h-1zm-136 4h1v1h-1zm7 1h1v1h-1zm6 0h1v1h-1zm82 0h1v1h-1zM60 32h1v1h-1zm-27 1h1v1h-1zm196 0h1v1h-1zm42 0h1v1h-1zM36 34h1v1h-1zm72 4h1v1h-1zm-45 2h1v1h-1zm190 0h1v1h-1zm-46 10h1v1h-1zm-91 1h1v1h-1zm-22 1h1v1h-1zm85 0h1v1h-1zm-72 5h1v1h-1zm91 0h1v1h-1zm-99 3h1v1h-1zm69 0h1v1h-1zm-63 1h1v1h-1zm14 1h1v1h-1zm67 0h1v1h-1zm-84 3h1v1h-1zm6 2h1v1h-1zm9 1h1v1h-1zm-8 1h1v1h-1zm-12 2h1v1h-1zm9 1h1v1h-1zm66 2h1v1h-1zm16 0h1v1h-1zm-76 1h1v1h-1zm50 2h1v1h-1zm-37 1h1v1h-1zm-18 1h1v1h-1zm12 3h1v1h-1zm53 0h1v1h-1zm-56 1h1v1h-1zm59 1h1v1h-1zm-8 1h1v1h-1zm11 0h1v1h-1zm6 1h1v1h-1zm2 1h1v1h-1zm-76 1h1v1h-1zm16 0h1v1h-1zm39 1h1v1h-1zm18 1h1v1h-1zm-16 2h1v1h-1zm-8 8h1v1h-1zm-26 1h1v1h-1zm28 4h1v1h-1zm-21 1h1v1h-1zm31 4h1v1h-1zm-19 1h1v1h-1zm-8 2h1v1h-1zm27 2h1v1h-1zm-29 1h1v1h-1zm14 4h1v1h-1zm17 5h1v1h-1zm-51 2h1v1h-1zm17 1h1v1h-1zm-8 2h1v1h-1zm3 3h1v1h-1zm-89 20h1v1h-1zm125 1h1v1h-1zm54 2h1v1h-1zm3 4h1v1h-1zm-113 4h1v1h-1zm117 0h1v1h-1zm1 0h1v1h-1zm9 0h1v1h-1zm1 0h1v1h-1zm-128 1h1v1h-1z" fill="#dedede"/><path d="M176 7h1v1h-1zm117 4h1v1h-1zm-7 1h1v1h-1zm-167 2h1v1h-1zm0 1h1v1h-1zm62 0h1v1h-1zm98 0h1v1h-1zm-165 2h1v1h-1zm79 1h1v1h-1zM18 20h1v1h-1zm176 1h1v1h-1zm-18 1h1v1h-1zm69 3h1v1h-1zM61 27h1v1h-1zm194 0h1v1h-1zM25 31h1v1h-1zm200 2h1v1h-1zm39 0h1v1h-1zM34 34h1v1h-1zm174 0h1v1h-1zM45 37h1v1h-1zm143 0h1v1h-1zM49 38h1v1h-1zm144 1h1v1h-1zm48 0h1v1h-1zm-68 4h1v1h-1zm66 0h1v1h-1zm-33 1h1v1h-1zm8 0h1v1h-1zm21 0h1v1h-1zM84 46h1v1h-1zm5 6h1v1h-1zm100 1h1v1h-1zm6 0h1v1h-1zm9 2h1v1h-1zm-86 1h1v1h-1zm59 1h1v1h-1zm6 0h1v1h-1zm-95 1h1v1h-1zm99 0h1v1h-1zm-18 1h1v1h-1zm-1 3h1v1h-1zm36 0h1v1h-1zm-102 2h1v1h-1zm73 0h1v1h-1zm-63 3h1v1h-1zm84 0h1v1h-1zm-74 2h1v1h-1zm-16 2h1v1h-1zm-2 4h1v1h-1zm89 2h1v1h-1zm-71 4h1v1h-1zm5 0h1v1h-1zm-3 4h1v1h-1zm13 2h1v1h-1zm35 1h1v1h-1zm-16 4h1v1h-1zm19 0h1v1h-1zm-42 1h1v1h-1zm22 1h1v1h-1zm-33 3h1v1h-1zm15 3h1v1h-1zm15 0h1v1h-1zm-18 4h1v1h-1zm27 0h1v1h-1zm-15 1h1v1h-1zm8 13h1v1h-1zm6 8h1v1h-1zm14 3h1v1h-1zm-3 9h1v1h-1zm74 15h1v1h-1zm-100 4h1v2h-1zm0 2h1v1h-1zm0 4h1v2h-1zm74 1h1v1h-1zm1 0h1v1h-1zm-75 1h1v1h-1zm72 1h1v1h-1z" fill="#525252"/><path d="M119 11h1v1h-1zm173 1h1v1h-1zm-173 5h1v1h-1zm-95 1h1v1h-1zm20 10h1v1h-1zm22 0h1v1h-1zm163 0h1v1h-1zm-109 2h1v1h-1zm154 0h1v1h-1zm-37 1h1v1h-1zm-62 1h1v1h-1zm-89 1h1v1h-1zm172 2h1v1h-1zm-77 1h1v1h-1zM41 39h1v1h-1zm18 1h1v1h-1zm22 4h1v1h-1zm118 2h1v1h-1zm-27 2h1v1h-1zm-90 3h1v1h-1zm17 0h1v1h-1zm86 0h1v1h-1zm-1 3h1v1h-1zm12 5h1v1h-1zm-82 12h1v1h-1zm1 2h1v1h-1zm-6 3h1v1h-1zm24 2h1v1h-1zm57 3h1v1h-1zm-62 2h1v1h-1zm8 2h1v1h-1zm-5 4h1v1h-1zm26 1h1v1h-1zm15 26h1v1h-1zm2 17h1v1h-1zm-4 2h1v1h-1zm-41 1h1v1h-1zm-59 18h1v1h-1zm130 0h1v1h-1zm-91 1h1v13h-1zm115 0h1v1h-1zm-109 7h9v1h-9zm9 0h1v1h-1zm22 0h10v1h-10zm10 0h1v1h-1zm-47 6h1v1h-1z" fill="#434343"/><path d="M187 14h1v1h-1zM17 20h1v1h-1zm171 0h1v1h-1zM52 25h1v1h-1zm174 3h1v1h-1zM26 31h1v1h-1zm95 3h1v1h-1zm-90 2h1v1h-1zm184 0h1v1h-1zm-4 3h1v1h-1zM43 40h1v1h-1zm18 0h1v1h-1zm122 16h1v1h-1zm10 0h1v1h-1zm-1 2h1v1h-1zm-12 6h1v1h-1zm-15 6h1v1h-1zm32 2h1v1h-1zm-96 4h1v1h-1zm32 1h1v1h-1zm-12 1h1v1h-1zm-6 9h1v1h-1zm17 15h1v1h-1zm23 4h1v1h-1zm-31 5h1v1h-1zm27 2h1v1h-1zm22 2h1v1h-1zm-18 4h1v1h-1zm9 11h1v1h-1zm13 0h1v1h-1zm0 3h1v1h-1zm-58 3h1v1h-1zm12 30h1v1h-1zm15 0h1v1h-1z" fill="#a7a7a7"/><path d="M175 1h1v1h-1zM3 9h1v1H3zm173 2h1v1h-1zm115 2h1v1h-1zM7 15h1v1H7zm107 0h1v1h-1zm-89 3h1v1h-1zm151 0h1v1h-1zm18 2h1v1h-1zm50 5h1v1h-1zm-124 2h1v1h-1zm113 0h1v1h-1zm23 0h1v1h-1zM68 28h1v1h-1zm184 0h1v1h-1zM52 30h1v1h-1zm191 0h1v1h-1zM57 31h1v1h-1zm-19 4h1v1h-1zm-4 2h1v1h-1zm171 0h1v1h-1zM50 38h1v1h-1zm143 2h1v1h-1zm55 1h1v1h-1zm-4 1h1v1h-1zM55 43h1v1h-1zm185 0h1v1h-1zm-28 2h1v1h-1zM86 48h1v1h-1zm130 1h1v1h-1zm-30 12h1v1h-1zm16 4h1v1h-1zm-95 8h1v1h-1zm57 0h1v1h-1zm-39 4h1v1h-1zm43 5h1v1h-1zm12 0h1v1h-1zm-60 1h1v1h-1zm68 1h1v1h-1zm-74 1h1v1h-1zm55 4h1v1h-1zm2 1h1v1h-1zm-32 1h1v1h-1zm24 1h1v1h-1zm-28 5h1v1h-1zm-5 2h1v1h-1zm14 2h1v1h-1zm4 6h1v1h-1zm-23 3h1v1h-1zm18 0h1v1h-1zm31 8h1v1h-1zm-4 20h1v1h-1zm-1 15h1v1h-1zm-61 1h1v1h-1zm6 2h1v1h-1zm134 0h1v1h-1zm-5 7h1v1h-1zm-147 1h4v1h-4zm4 0h1v1h-1zm1 5h1v1h-1zm138 0h1v1h-1z" fill="#868686"/><path d="M176 1h1v1h-1zm-56 1h1v1h-1zm-3 3h1v1h-1zm173 5h1v1h-1zm-109 4h1v1h-1zm100 0h1v1h-1zM9 16h1v1H9zm267 0h1v1h-1zm-169 3h1v1h-1zm69 1h1v1h-1zm99 1h1v1h-1zM42 23h1v1h-1zm221 2h1v1h-1zM56 26h1v1h-1zm64 2h1v1h-1zm-46 1h1v1h-1zm141 1h1v1h-1zM63 32h1v1h-1zm169 0h1v1h-1zM25 33h1v1h-1zm4 2h1v1h-1zm159 1h1v1h-1zm-98 1h1v1h-1zm91 1h1v1h-1zm77 0h1v1h-1zm-156 1h1v1h-1zm-42 1h1v1h-1zm156 3h1v1h-1zM95 44h1v1h-1zm-12 1h1v1h-1zm21 2h1v1h-1zm68 0h1v1h-1zm-1 4h1v1h-1zm35 1h1v1h-1zm-36 3h1v1h-1zm-78 1h1v1h-1zm-1 6h1v1h-1zm14 0h1v1h-1zm6 3h1v1h-1zm-3 3h1v1h-1zm58 0h1v1h-1zm7 2h1v1h-1zm15 3h1v1h-1zm-17 2h1v1h-1zm-57 5h1v1h-1zm59 1h1v1h-1zm-13 2h1v1h-1zm15 0h1v1h-1zm-65 2h1v1h-1zm13 3h1v1h-1zm42 0h1v1h-1zm-39 1h1v1h-1zm-3 8h1v1h-1zm36 2h1v1h-1zm6 0h1v1h-1zm-3 3h1v1h-1zm-29 1h1v1h-1zm38 8h1v1h-1zm-23 6h1v1h-1zm24 0h1v1h-1zm-17 9h1v1h-1zm19 5h1v1h-1zm-42 3h1v1h-1zm34 2h1v1h-1zm63 19h1v1h-1zm-103 5h1v1h-1zm119 0h1v1h-1zm-6 4h1v1h-1zm-17 2h1v2h-1zm0 2h1v1h-1z" fill="#6e6e6e"/><path d="M175 8h1v1h-1zm6 2h1v1h-1zm-67 1h1v1h-1zm172 0h1v1h-1zM2 12h1v1H2zm106 1h1v1h-1zm79 0h1v1h-1zm-83 1h1v1h-1zm170 2h1v1h-1zm-161 1h1v1h-1zm-86 1h1v1h-1zm167 0h1v1h-1zm74 0h1v1h-1zm16 0h1v1h-1zm-109 3h1v1h-1zm94 3h1v1h-1zM54 25h1v1h-1zm6 1h1v1h-1zm175 0h1v1h-1zm24 1h1v1h-1zM22 29h1v1h-1zm3 1h1v1h-1zm24 0h1v1h-1zm197 0h1v1h-1zm-4 1h1v1h-1zM59 32h1v1h-1zm214 0h1v1h-1zm-78 1h1v1h-1zm35 0h1v1h-1zm-117 1h1v1h-1zm-37 1h1v1h-1zm179 0h1v1h-1zM90 36h1v1h-1zm97 1h1v1h-1zM41 40h1v1h-1zm24 0h1v1h-1zm137 0h1v1h-1zm52 0h1v1h-1zM70 41h1v1h-1zm155 0h1v1h-1zm-111 1h1v1h-1zm9 0h1v1h-1zm49 1h1v1h-1zM56 44h1v1h-1zm32 0h1v1h-1zm93 0h1v1h-1zM66 46h1v1h-1zm144 0h1v1h-1zm-25 1h1v1h-1zm-94 1h1v1h-1zm100 2h1v1h-1zm-12 3h1v1h-1zm15 0h1v1h-1zm-99 1h1v1h-1zm11 1h1v1h-1zm20 0h1v1h-1zm67 0h1v1h-1zm10 0h1v1h-1zm-34 1h1v1h-1zm-82 2h1v1h-1zm40 0h1v1h-1zm74 0h1v1h-1zm-33 1h1v1h-1zm31 2h1v1h-1zm-98 3h1v1h-1zm84 1h1v1h-1zm-65 1h1v1h-1zm-3 1h1v1h-1zm67 0h1v1h-1zm-10 2h1v1h-1zm-71 3h1v1h-1zm-4 2h1v1h-1zm63 2h1v1h-1zm25 0h1v1h-1zm-81 1h1v1h-1zm10 0h1v1h-1zm18 1h1v1h-1zm-8 3h1v1h-1zm65 0h1v1h-1zm-82 1h1v1h-1zm18 1h1v1h-1zm58 1h1v1h-1zm-77 2h1v1h-1zm66 0h1v1h-1zm8 3h1v1h-1zm-62 1h1v1h-1zm36 0h1v1h-1zm-1 2h1v1h-1zm19 0h1v1h-1zm-52 2h1v1h-1zm9 3h1v1h-1zm43 0h1v1h-1zm-51 2h1v1h-1zm13 1h1v1h-1zm-1 4h1v1h-1zm4 1h1v1h-1zm-15 5h1v1h-1zm29 0h1v1h-1zm-10 1h1v1h-1zm14 10h1v1h-1zm15 0h1v1h-1zm4 1h1v1h-1zm-57 1h1v1h-1zm36 4h1v1h-1zm22 0h1v1h-1zm-21 1h1v1h-1zm5 5h1v1h-1zm-28 1h1v1h-1zm40 0h1v1h-1zm-54 3h1v1h-1zm8 1h1v1h-1zm44 1h1v1h-1zm-70 13h1v1h-1zm31 0h1v1h-1zm62 0h1v1h-1zm3 0h1v1h-1zm23 0h1v1h-1zm-174 2h1v1h-1zm100 3h1v2h-1zm0 2h1v1h-1zm-91 5h9v1h-9zm9 0h1v1h-1zm114 0h10v1h-10zm10 0h1v1h-1zm55 0h1v1h-1zm-97 1h1v1h-1zm-44 4h1v1h-1z" fill="#fafafa"/><path d="M6 10h1v1H6zm281 1h1v1h-1zm-7 3h1v1h-1zM10 17h1v1h-1zm13 0h1v1h-1zm-11 1h1v1h-1zm170 0h1v1h-1zm84 1h1v1h-1zm15 0h1v1h-1zM19 21h1v1h-1zm94 1h1v2h-1zm-69 1h1v1h-1zm4 1h1v1h-1zm65 0h1v1h-1zm7 0h1v1h-1zm75 0h1v1h-1zM53 25h1v1h-1zm47 1h1v2h-1zm-62 1h1v1h-1zm75 0h1v2h-1zm62 0h1v1h-1zm-75 1h1v1h-1zm13 1h1v1h-1zm82 0h1v1h-1zm-13 4h1v1h-1zM26 34h1v1h-1zm47 0h1v1h-1zm101 0h1v1h-1zm-97 1h1v1h-1zm141 0h1v1h-1zm49 0h1v1h-1zm-19 2h1v1h-1zm14 0h1v1h-1zM57 39h1v1h-1zm57 0h1v1h-1zm124 0h1v1h-1zm-65 1h1v1h-1zm60 0h1v1h-1zm-52 1h1v1h-1zM76 42h1v1h-1zm-14 3h1v1h-1zm171 0h1v1h-1zM67 46h1v1h-1zm23 0h1v1h-1zm-18 1h1v1h-1zm8 3h1v1h-1zm8 0h1v1h-1zm3 4h1v1h-1zm5 1h1v1h-1zm16 0h1v1h-1zm76 2h1v1h-1zm14 0h1v1h-1zm-25 2h1v1h-1zm-88 1h1v1h-1zm109 3h1v1h-1zM92 64h1v1h-1zm72 8h1v1h-1zm25 0h1v1h-1zm-70 1h1v1h-1zm4 0h1v1h-1zm62 6h1v1h-1zm-12 1h1v1h-1zm14 1h1v1h-1zm-11 1h1v1h-1zm-59 3h1v1h-1zm-6 1h1v1h-1zm55 1h1v1h-1zm-50 2h1v1h-1zm9 3h1v1h-1zm8 2h1v1h-1zm38 4h1v1h-1zm-7 3h1v1h-1zm-17 17h1v1h-1zm28 2h1v1h-1zm-23 3h1v1h-1zm-33 1h1v1h-1zm40 0h1v1h-1zm-23 7h1v1h-1zm-6 5h1v1h-1zm37 1h1v1h-1zm27 16h1v2h-1zm34 0h1v1h-1zm-89 1h1v1h-1zm55 1h1v1h-1zm49 0h1v1h-1zm-43 1h1v13h-1zm31 1h1v1h-1zm-177 3h1v1h-1zm134 0h1v1h-1zm45 4h1v1h-1zm-101 5h1v1h-1zm68 0h1v1h-1z" fill="#d0d0d0"/><path d="M294 10h1v1h-1zM2 11h1v1H2zm286 0h1v1h-1zm-174 5h1v1h-1zM11 17h1v1h-1zm91 1h1v1h-1zm-71 2h1v1h-1zm70 1h1v1h-1zm-75 2h1v1h-1zm10 3h1v1h-1zm192 2h1v1h-1zM48 29h1v1h-1zm219 3h1v1h-1zM75 34h1v1h-1zm138 3h1v1h-1zM44 40h1v1h-1zm64 1h1v1h-1zm115 1h1v1h-1zM79 43h1v1h-1zm10 1h1v1h-1zm122 2h1v1h-1zM85 47h1v1h-1zm133 1h1v1h-1zm-94 2h1v1h-1zm-30 9h1v1h-1zm80 8h1v1h-1zm22 6h1v1h-1zm-5 2h1v1h-1zm-89 2h1v1h-1zm79 8h1v1h-1zm6 0h1v1h-1zm-21 1h1v1h-1zm18 1h1v1h-1zm-8 3h2v1h-2zm2 0h1v1h-1zm-59 3h1v1h-1zm37 11h1v1h-1zm15 9h1v1h-1zm-47 1h1v1h-1zm-1 4h1v1h-1zm13 7h1v1h-1zm40 0h1v1h-1zm-2 5h1v1h-1zm68 27h1v1h-1zm-13 5h1v1h-1zm-24 3h1v1h-1zm17 0h1v1h-1zm-127 4h1v1h-1z" fill="#696969"/><path d="M106 14h1v1h-1zm183 0h1v1h-1zm-15 3h1v1h-1zm-160 2h1v1h-1zm-81 2h1v1h-1zm232 3h1v1h-1zM55 26h1v1h-1zm-14 1h1v1h-1zm175 3h1v1h-1zM59 31h1v1h-1zm23 0h1v1h-1zm149 1h1v1h-1zm-56 1h1v1h-1zm6 2h1v1h-1zm-92 1h1v1h-1zm-45 1h1v1h-1zm130 1h1v1h-1zm63 2h1v1h-1zm-129 2h1v1h-1zm-30 1h1v1h-1zm16 0h1v1h-1zm-33 1h1v1h-1zm169 1h1v1h-1zm-16 5h1v1h-1zm-104 1h1v1h-1zm102 1h1v1h-1zm-111 3h1v1h-1zm8 5h1v1h-1zm79 7h1v1h-1zm-59 1h1v1h-1zm56 5h1v1h-1zm-77 1h1v1h-1zm8 1h1v1h-1zm45 6h1v1h-1zm-2 5h1v1h-1zm-27 5h1v1h-1zm4 7h1v1h-1zm35 14h1v1h-1zm-24 5h1v1h-1zm-25 5h1v1h-1zm50 33h1v13h-1zm59 3h1v1h-1zm-43 3h1v1h-1zm0 1h1v1h-1zm46 2h1v4h-1zm-62 4h1v1h-1zm62 0h1v1h-1z" fill="#2a2a2a"/><path d="M27 19h1v1h-1zm92 0h1v1h-1zm-98 2h1v1h-1zm241 0h1v1h-1zM37 22h1v1h-1zm64 1h1v1h-1zm-71 1h1v1h-1zm211 6h1v1h-1zm-121 1h1v1h-1zm-6 1h1v1h-1zm110 1h1v1h-1zM81 36h1v1h-1zm170 1h1v1h-1zm-149 1h1v1h-1zm-57 2h1v1h-1zm135 3h1v1h-1zm37 0h1v1h-1zm3 4h1v1h-1zm-22 1h1v1h-1zm15 3h1v1h-1zm-102 3h1v1h-1zm1 3h1v1h-1zm-23 2h1v1h-1zm24 1h1v1h-1zm78 1h1v1h-1zm-96 6h1v1h-1zm22 3h1v1h-1zm64 1h1v1h-1zm-50 2h1v1h-1zm31 6h1v1h-1zm20 4h1v1h-1zm4 3h1v1h-1zm-68 5h1v1h-1zm42 6h1v1h-1zm-29 3h1v1h-1zm25 21h1v1h-1zm-23 12h1v1h-1zm116 21h1v1h-1zm-104 2h1v1h-1zm60 10h1v1h-1z" fill="#2d2d2d"/><path d="M175 3h1v1h-1zm-58 1h1v1h-1zm-2 5h1v1h-1zm174 1h1v1h-1zm-108 2h1v1h-1zm-74 1h1v1h-1zm81 0h1v1h-1zm-1 3h1v1h-1zm100 0h1v1h-1zm-185 1h1v1h-1zm170 0h1v1h-1zM26 18h1v1h-1zm-12 1h1v1h-1zm180 0h1v1h-1zm-81 2h1v1h-1zm-6 2h1v1h-1zm88 0h1v1h-1zm56 0h1v1h-1zm-4 1h1v1h-1zm-147 1h1v1h-1zm142 0h1v1h-1zm19 1h1v1h-1zM64 27h1v1h-1zm167 0h1v1h-1zm-131 2h1v1h-1zm-76 1h1v1h-1zm89 0h1v1h-1zm82 0h1v1h-1zm76 0h1v1h-1zM55 31h1v1h-1zm185 0h1v1h-1zm-119 1h1v1h-1zm114 0h1v1h-1zm-53 2h1v1h-1zM28 35h1v1h-1zm5 2h1v1h-1zm161 0h1v1h-1zm-7 2h1v1h-1zm16 0h1v1h-1zm16 3h1v1h-1zm-33 2h1v1h-1zm-14 1h1v1h-1zm27 0h1v1h-1zm-19 2h1v1h-1zm-70 1h1v1h-1zm14 0h1v1h-1zm47 1h1v1h-1zm32 0h1v1h-1zm-7 1h1v1h-1zm18 1h1v1h-1zm-89 1h1v1h-1zm59 0h1v1h-1zm-14 1h1v1h-1zm-86 1h1v1h-1zm42 2h1v1h-1zm43 1h1v1h-1zm-56 1h1v1h-1zm2 5h1v1h-1zm-5 1h1v1h-1zm1 2h1v1h-1zm85 0h1v1h-1zm-4 1h1v1h-1zm9 0h1v1h-1zm-100 2h1v1h-1zm10 4h1v1h-1zm-7 1h1v1h-1zm28 0h1v1h-1zm-32 1h1v1h-1zm14 4h1v1h-1zm4 1h1v1h-1zm-3 1h1v1h-1zm9 3h1v1h-1zm1 2h1v1h-1zm52 1h1v1h-1zm-39 1h1v1h-1zm-27 1h1v1h-1zm61 0h1v1h-1zm4 0h1v1h-1zm-49 1h1v1h-1zm26 7h1v1h-1zm-16 4h1v1h-1zm9 3h1v1h-1zm24 7h1v1h-1zm-45 1h1v1h-1zm19 0h1v1h-1zm28 0h1v1h-1zm-50 3h1v1h-1zm2 1h1v1h-1zm50 1h1v1h-1zm-34 2h1v1h-1zm32 0h1v1h-1zm4 4h1v1h-1zm1 5h1v1h-1zm-59 3h1v1h-1zm0 1h1v1h-1zm17 0h1v1h-1zm34 6h1v1h-1zm78 20h1v1h-1zm-70 2h1v1h-1z" fill="#d8d8d8"/><path d="M1 8h1v2H1zm0 2h1v1H1zm175 0h1v1h-1zm-73 6h1v1h-1zm170 1h1v1h-1zm-85 2h1v1h-1zm92 0h1v1h-1zm-23 3h1v1h-1zM51 25h1v1h-1zm11 2h1v1h-1zm21 4h1v1h-1zm155 0h1v1h-1zm-44 4h1v1h-1zM82 37h1v1h-1zm179 0h1v1h-1zM37 38h1v1h-1zm29 3h1v1h-1zm163 0h1v1h-1zm-114 2h1v1h-1zm92 0h1v1h-1zM64 45h1v1h-1zm122 1h1v1h-1zm18 1h1v1h-1zm6 0h1v1h-1zm-13 2h1v1h-1zm-80 4h1v1h-1zm-20 3h1v1h-1zm-10 1h1v1h-1zm26 2h1v1h-1zm88 0h1v1h-1zm-97 1h1v1h-1zm-4 1h1v1h-1zm105 0h1v1h-1zm-6 1h1v1h-1zm-89 1h1v1h-1zm-4 1h1v1h-1zm22 0h1v1h-1zm-25 2h1v1h-1zm26 1h1v1h-1zm-12 2h1v1h-1zm82 0h1v1h-1zm-90 1h1v1h-1zm-10 3h1v1h-1zm33 2h1v1h-1zm30 3h1v1h-1zm26 2h1v1h-1zm3 0h1v1h-1zm-19 3h1v1h-1zm-64 2h1v1h-1zm51 0h1v1h-1zm-42 5h1v1h-1zm51 1h1v1h-1zm-42 2h1v1h-1zm48 3h1v1h-1zm-36 6h1v1h-1zm7 1h1v1h-1zm27 10h1v1h-1zm-15 9h1v1h-1zm16 0h1v1h-1zm-54 4h1v1h-1zm47 6h1v1h-1zm-70 25h1v1h-1zm-43 3h1v1h-1zm43 0h1v1h-1zm137 0h1v1h-1zm-107 2h1v1h-1zm-30 3h1v1h-1zm143 0h1v3h-1zm0 3h1v1h-1z" fill="#7e7e7e"/><path d="M119 2h1v5h-1zm57 0h1v2h-1zm-58 2h1v51h-1zm58 0h1v1h-1zm1 0h1v52h-1zm1 2h1v45h-1z"/><path d="M117 7h2v43h-2zm2 0h1v1h-1zm60 1h1v40h-1zM2 9h1v1H2z"/><path d="M116 9h2v38h-2zm177 0h1v1h-1zm1 0h1v1h-1zM2 10h2v1H2zm2 0h1v2H4zm287 0h2v1h-2zm2 0h1v1h-1z"/><path d="M3 11h3v1H3zm3 0h1v2H6zm174 0h1v31h-1zm109 0h3v1h-3zm3 0h1v1h-1z"/><path d="M4 12h4v1H4zm4 0h1v3H8zm279 0h4v1h-4zm4 0h1v1h-1z"/><path d="M5 13h6v1H5zm6 0h1v3h-1zm104 0h3v27h-3zm170 0h5v1h-5zm5 0h1v1h-1z"/><path d="M7 14h5v1H7zm5 0h1v3h-1zm95 0h1v2h-1zm81 0h1v2h-1zm95 0h5v1h-5zm5 0h1v1h-1z"/><path d="M8 15h7v1H8zm7 0h1v3h-1zm90 0h2v33h-2zm84 0h1v9h-1zm1 0h1v34h-1zm90 0h7v1h-7zm7 0h1v1h-1z"/><path d="M10 16h8v1h-8zm8 0h1v3h-1zm86 0h3v29h-3zm3 0h1v1h-1zm81 0h3v1h-3zm3 0h1v29h-1zm86 0h8v1h-8zm8 0h1v1h-1z"/><path d="M12 17h8v1h-8zm8 0h1v3h-1zm83 0h3v25h-3zm89 0h1v25h-1zm83 0h8v1h-8zm8 0h1v1h-1z"/><path d="M14 18h9v1h-9zm9 0h1v3h-1zm158 0h1v15h-1zm91 0h9v1h-9zm9 0h1v1h-1z"/><path d="M16 19h10v1H16zm10 0h1v3h-1zm76 0h4v18h-4zm91 0h1v19h-1zm76 0h10v1h-10zm10 0h1v1h-1z"/><path d="M19 20h10v1H19zm10 0h1v3h-1zm237 0h10v1h-10zm10 0h1v1h-1z"/><path d="M22 21h10v1H22zm10 0h1v3h-1zm82 0h5v8h-5zm5 0h1v38h-1zm144 0h10v1h-10zm10 0h1v1h-1z"/><path d="M24 22h12v1H24zm12 0h1v3h-1zm223 0h12v1h-12zm12 0h1v1h-1z"/><path d="M28 23h13v1H28zm13 0h1v3h-1zm214 0h13v1h-13zm13 0h1v1h-1z"/><path d="M31 24h13v1H31zm13 0h1v3h-1zm145 0h5v1h-5zm5 0h1v6h-1zm58 0h12v1h-12zm12 0h1v1h-1z"/><path d="M34 25h14v1H34zm14 0h1v3h-1zm53 0h5v3h-5zm75 0h5v17h-5zm71 0h15v1h-15zm15 0h1v1h-1z"/><path d="M38 26h16v1H38zm16 0h1v3h-1zm187 0h17v1h-17zm17 0h1v1h-1z"/><path d="M42 27h16v1H42zm16 0h1v3h-1zm179 0h16v1h-16zm16 0h1v1h-1z"/><path d="M45 28h19v1H45zm19 0h1v3h-1zm37 0h5v1h-5zm130 0h19v1h-19zm19 0h1v1h-1z"/><path d="M50 29h22v1H50zm22 0h1v4h-1zm42 0h5v1h-5zm109 0h22v1h-22zm22 0h1v1h-1zM22 30h1v1h-1z"/><path d="M55 30h22v1H55zm22 0h1v4h-1zm112 0h5v8h-5zm5 0h1v1h-1zm24 0h22v1h-22zm22 0h1v1h-1zM23 31h1v1h-1zm1 0h1v1h-1z"/><path d="M61 31h20v1H61zm20 0h1v4h-1zm133 0h20v1h-20zm20 0h1v1h-1zm37 0h1v1h-1zm1 0h1v1h-1zM24 32h3v1h-3zm3 0h1v1h-1z"/><path d="M65 32h19v1H65zm19 0h1v6h-1zm36 0h1v29h-1zm92 0h18v1h-18zm18 0h1v1h-1zm38 0h3v1h-3zm3 0h1v1h-1zM26 33h4v1h-4zm4 0h1v2h-1z"/><path d="M72 33h13v1H72zm13 0h1v6h-1zm96 0h1v1h-1zm29 0h13v1h-13zm13 0h1v1h-1zm42 0h4v1h-4zm4 0h1v1h-1zM28 34h4v1h-4zm4 0h1v1h-1z"/><path d="M77 34h9v1h-9zm9 0h1v5h-1zm89 0h5v14h-5zm34 0h9v1h-9zm9 0h1v1h-1zm45 0h4v1h-4zm4 0h1v1h-1zM30 35h6v1h-6zm6 0h1v2h-1z"/><path d="M80 35h7v1h-7zm7 0h1v6h-1zm121 0h8v1h-8zm8 0h1v1h-1zm43 0h6v1h-6zm6 0h1v1h-1zM33 36h7v1h-7zm7 0h1v2h-1z"/><path d="M82 36h6v1h-6zm6 0h1v6h-1zm119 0h6v1h-6zm6 0h1v1h-1zm42 0h7v1h-7zm7 0h1v1h-1zM36 37h7v1h-7zm7 0h1v2h-1z"/><path d="M83 37h6v1h-6zm6 0h1v6h-1zm13 0h4v1h-4zm19 0h1v28h-1zm85 0h6v1h-6zm6 0h1v1h-1zm40 0h7v1h-7zm7 0h1v1h-1zM39 38h8v1h-8zm8 0h1v2h-1z"/><path d="M84 38h6v1h-6zm6 0h1v7h-1zm99 0h4v4h-4zm4 0h1v1h-1zm12 0h6v1h-6zm6 0h1v1h-1zm37 0h9v1h-9zm9 0h1v1h-1zM42 39h11v1H42zm11 0h1v3h-1z"/><path d="M85 39h6v1h-6zm6 0h1v7h-1zm16 0h1v15h-1zm67 0h6v9h-6zm14 0h4v6h-4zm16 0h6v1h-6zm6 0h1v1h-1zm32 0h11v1h-11zm11 0h1v1h-1zM46 40h11v1H46zm11 0h1v2h-1zm58 0h6v1h-6zm89 0h5v1h-5zm5 0h1v1h-1zm29 0h11v1h-11zm11 0h1v1h-1z"/><path d="M49 41h14v1H49zm14 0h1v3h-1zm24 0h5v1h-5zm5 0h1v6h-1zm111 0h5v1h-5zm5 0h1v1h-1zm25 0h13v1h-13zm13 0h1v1h-1z"/><path d="M53 42h17v1H53zm17 0h1v3h-1zm18 0h5v1h-5zm5 0h1v7h-1zm10 0h4v1h-4zm77 0h1v1h-1zm12 0h1v1h-1zm10 0h5v1h-5zm5 0h1v1h-1zm18 0h17v1h-17zm17 0h1v1h-1z"/><path d="M58 43h18v1H58zm18 0h1v4h-1zm13 0h4v1h-4zm19 0h1v14h-1zm14 0h1v25h-1zm80 0h4v2h-4zm4 0h1v1h-1zm13 0h18v1h-18zm18 0h1v1h-1z"/><path d="M62 44h18v1H62zm18 0h1v5h-1zm14 0h1v6h-1zm79 0h6v7h-6zm14 0h4v5h-4zm14 0h4v2h-4zm14 0h18v1h-18zm18 0h1v1h-1z"/><path d="M66 45h16v1H66zm16 0h1v5h-1zm8 0h5v1h-5zm5 0h1v6h-1zm9 0h4v1h-4zm87 0h1v1h-1zm9 0h5v1h-5zm5 0h1v1h-1zm8 0h16v1h-16zm16 0h1v1h-1z"/><path d="M71 46h12v1H71zm12 0h1v5h-1zm8 0h4v1h-4zm109 0h4v1h-4zm4 0h1v1h-1zm8 0h12v1h-12zm12 0h1v1h-1z"/><path d="M76 47h8v1h-8zm8 0h1v5h-1zm8 0h4v1h-4zm4 0h1v6h-1zm20 0h6v1h-6zm83 0h4v2h-4zm4 0h1v1h-1zm8 0h8v1h-8zm8 0h1v1h-1z"/><path d="M78 48h7v1h-7zm7 0h1v5h-1zm20 0h4v1h-4zm4 0h1v11h-1zm14 0h1v22h-1zm56 0h1v1h-1zm7 0h4v4h-4zm24 0h7v1h-7zm7 0h1v1h-1z"/><path d="M80 49h6v1h-6zm6 0h1v6h-1zm7 0h4v1h-4zm4 0h1v6h-1zm9 0h3v3h-3zm66 0h6v7h-6zm18 0h1v1h-1zm8 0h4v1h-4zm4 0h1v1h-1zm7 0h6v1h-6zm6 0h1v1h-1z"/><path d="M82 50h5v1h-5zm5 0h1v6h-1zm7 0h4v1h-4zm4 0h1v6h-1zm19 0h6v1h-6zm80 0h4v2h-4zm4 0h1v1h-1zm8 0h4v1h-4zm4 0h1v1h-1zM83 51h4v1h-4zm12 0h3v1h-3zm83 0h1v1h-1zm30 0h4v1h-4zm4 0h1v1h-1z"/><path d="M84 52h4v1h-4zm4 0h1v5h-1zm11 0h1v6h-1zm7 0h4v1h-4zm4 0h1v9h-1zm14 0h1v21h-1zm61 0h4v2h-4zm4 0h1v1h-1zm7 0h4v1h-4zm4 0h1v1h-1zm7 0h4v1h-4zm4 0h1v1h-1z"/><path d="M85 53h4v1h-4zm4 0h1v5h-1zm7 0h3v1h-3zm75 0h6v7h-6zm25 0h3v2h-3zm3 0h1v1h-1zm7 0h4v2h-4zm4 0h1v1h-1zM90 54h1v6h-1zm10 0h1v6h-1zm7 0h3v1h-3zm78 0h3v3h-3zm3 0h1v1h-1z"/><path d="M195 54h3v2h-3zM86 55h4v1h-4zm11 0h3v1h-3zm14 0h1v9h-1zm7 0h6v1h-6zm80 0h1v1h-1zm7 0h4v1h-4zm4 0h1v1h-1zM87 56h4v1h-4zm4 0h1v5h-1zm7 0h3v1h-3zm3 0h1v5h-1zm24 0h1v20h-1zm52 0h1v1h-1zm7 0h3v4h-3zm10 0h3v2h-3zm3 0h1v1h-1zm7 0h4v1h-4zm4 0h1v1h-1z"/><path d="M88 57h4v1h-4zm4 0h1v5h-1zm10 0h1v6h-1zm6 0h3v1h-3zm62 0h6v5h-6zm17 0h1v1h-1zm16 0h4v1h-4zm4 0h1v1h-1zM89 58h3v1h-3zm10 0h3v1h-3zm13 0h1v8h-1zm71 0h3v4h-3zm10 0h3v2h-3zm3 0h1v1h-1zm7 0h3v2h-3zm3 0h1v1h-1zM93 59h1v5h-1zm10 0h1v6h-1zm6 0h3v1h-3zm10 0h6v1h-6z"/><path d="M202 59h3v2h-3zM90 60h4v1h-4zm4 0h1v5h-1zm6 0h3v1h-3zm26 0h1v18h-1zm50 0h1v1h-1zm10 0h1v1h-1zm6 0h3v1h-3zm3 0h1v1h-1z"/><path d="M201 60h4v1h-4zm4 0h1v1h-1zM91 61h3v1h-3zm10 0h2v1h-2zm9 0h3v1h-3zm3 0h1v7h-1zm7 0h6v1h-6zm49 0h6v4h-6zm13 0h3v3h-3zm10 0h2v2h-2zm2 0h1v1h-1zm7 0h3v1h-3zm3 0h1v1h-1zM92 62h3v1h-3zm3 0h1v4h-1zm9 0h1v4h-1zm71 0h1v1h-1zm10 0h1v1h-1z"/><path d="M191 62h2v3h-2zm9 0h3v2h-3zm3 0h1v1h-1zM96 63h1v5h-1zm6 0h3v1h-3zm3 0h1v5h-1zm9 0h1v7h-1zm13 0h1v17h-1z"/><path d="M190 63h3v2h-3zm3 0h1v1h-1zm6 0h3v2h-3zM93 64h3v1h-3zm18 0h3v1h-3zm57 0h6v5h-6zm13 0h3v2h-3zm3 0h1v1h-1zm18 0h1v1h-1zM94 65h3v1h-3zm3 0h1v4h-1zm6 0h3v1h-3zm3 0h1v5h-1zm9 0h1v7h-1zm6 0h7v1h-7zm7 0h1v17h-1zm46 0h1v1h-1zm15 0h3v1h-3zm3 0h1v1h-1zm6 0h3v1h-3zm3 0h1v1h-1z"/><path d="M95 66h3v1h-3zm3 0h1v4h-1zm6 0h2v1h-2zm8 0h3v1h-3zm55 0h6v5h-6zm13 0h3v2h-3zm3 0h1v1h-1zm6 0h2v2h-2zm2 0h1v1h-1zm6 0h3v2h-3zm3 0h1v1h-1z"/><path d="M96 68h3v1h-3zm3 0h1v4h-1zm6 0h2v1h-2zm2 0h1v3h-1zm6 0h3v1h-3zm3 0h1v6h-1zm6 0h6v1h-6zm58 0h2v2h-2zm2 0h1v1h-1zm6 0h2v2h-2zm2 0h1v1h-1zm6 0h3v1h-3zm3 0h1v1h-1z"/><path d="M97 69h3v1h-3zm3 0h1v4h-1zm8 0h1v4h-1zm21 0h1v15h-1zm44 0h1v1h-1zm6 0h2v3h-2zm8 0h2v3h-2zm9 0h2v2h-2zm2 0h1v1h-1zM98 70h2v1h-2zm8 0h2v1h-2zm8 0h2v1h-2zm9 0h6v1h-6zm43 0h6v4h-6zm15 0h1v1h-1zm8 0h1v1h-1z"/><path d="M195 70h2v2h-2zm-94 1h1v4h-1zm6 0h2v1h-2zm2 0h1v4h-1zm8 0h1v5h-1zm55 0h1v1h-1zm6 0h2v4h-2zm8 0h2v2h-2z"/><path d="M194 71h3v1h-3zm3 0h1v1h-1zm-98 1h3v1h-3zm3 0h1v4h-1zm13 0h2v1h-2zm15 0h1v14h-1zm35 0h6v4h-6zm15 0h1v1h-1zm8 0h1v1h-1zm6 0h2v2h-2zm2 0h1v1h-1zm-96 1h2v1h-2zm8 0h1v1h-1zm10 0h1v5h-1zm6 0h6v1h-6zm53 0h2v3h-2zm9 0h1v2h-1zm1 0h1v1h-1z"/><path d="M193 73h2v2h-2zm-90 1h1v4h-1zm7 0h1v3h-1zm6 0h2v1h-2zm15 0h1v14h-1zm33 0h7v2h-7zm7 0h1v1h-1zm14 0h1v3h-1zm10 0h1v1h-1zm-94 1h2v1h-2z"/><path d="M109 75h2v1h-2zm2 0h1v3h-1zm8 0h1v5h-1zm60 0h1v1h-1zm7 0h1v1h-1zm6 0h2v1h-2zm2 0h1v1h-1zm-92 1h2v1h-2zm2 0h1v3h-1zm13 0h2v1h-2zm8 0h6v1h-6zm39 0h6v2h-6zm6 0h1v1h-1zm6 0h2v2h-2zm2 0h1v1h-1zm6 0h1v3h-1zm7 0h2v2h-2zm2 0h1v1h-1z"/><path d="M110 77h2v1h-2zm2 0h1v3h-1zm20 0h1v13h-1zm31 0h6v3h-6zm20 0h2v2h-2zm2 0h1v1h-1zm-82 1h2v1h-2zm2 0h1v2h-1zm6 0h1v1h-1zm7 0h2v1h-2zm2 0h1v3h-1zm6 0h6v1h-6zm43 0h1v1h-1zm6 0h2v2h-2zm2 0h1v1h-1zm13 0h2v1h-2zm2 0h1v1h-1z"/><path d="M104 79h2v1h-2zm2 0h1v2h-1zm7 0h1v3h-1zm20 0h1v13h-1zm50 0h1v2h-1zm1 0h1v1h-1zm5 0h2v1h-2zm2 0h1v1h-1zm-86 1h1v1h-1zm7 0h1v1h-1zm7 0h2v1h-2zm2 0h1v3h-1zm6 0h6v1h-6zm35 0h6v3h-6zm6 0h1v1h-1zm6 0h2v2h-2zm2 0h1v1h-1zm6 0h1v2h-1zm7 0h1v2h-1zm1 0h1v1h-1zm-84 1h1v1h-1zm1 0h1v2h-1zm7 0h1v3h-1zm6 0h1v1h-1zm14 0h1v13h-1zm49 0h1v1h-1zm5 0h1v2h-1zm-75 1h1v1h-1zm9 0h1v3h-1z"/><path d="M128 82h6v1h-6zm33 0h6v3h-6zm12 0h2v2h-2zm2 0h1v1h-1zm6 0h1v2h-1zm1 0h1v1h-1zm7 0h1v1h-1zm-82 1h1v1h-1zm1 0h1v1h-1zm7 0h1v2h-1zm6 0h1v1h-1zm46 0h1v1h-1zm13 0h1v3h-1zm7 0h1v1h-1zm1 0h1v1h-1zm-80 1h1v1h-1zm1 0h1v1h-1zm5 0h1v1h-1zm9 0h1v3h-1zm6 0h6v1h-6zm6 0h1v12h-1z"/><path d="M160 84h6v3h-6zm13 0h1v1h-1zm1 0h1v1h-1zm7 0h1v1h-1zm6 0h1v1h-1zm-78 1h1v1h-1zm6 0h1v1h-1zm1 0h1v2h-1zm6 0h1v1h-1zm44 0h1v1h-1zm6 0h1v2h-1zm1 0h1v1h-1zm6 0h1v2h-1zm7 0h1v1h-1zm-76 1h1v1h-1zm14 0h1v2h-1zm6 0h6v1h-6zm6 0h1v11h-1zm35 0h1v3h-1zm9 0h1v1h-1zm-64 1h1v1h-1zm1 0h1v2h-1zm6 0h1v1h-1zm36 0h6v2h-6zm6 0h1v1h-1zm7 0h1v1h-1zm7 0h1v1h-1zm6 0h1v1h-1zm-74 1h1v1h-1zm13 0h1v1h-1zm1 0h1v2h-1z"/><path d="M131 88h6v1h-6zm6 0h1v11h-1zm33 0h1v2h-1zm8 0h1v1h-1zm-61 1h1v1h-1zm1 0h1v1h-1zm40 0h6v2h-6zm6 0h1v1h-1zm7 0h1v1h-1zm6 0h1v1h-1zm1 0h1v1h-1zm-60 1h1v1h-1zm7 0h1v1h-1zm1 0h1v2h-1z"/><path d="M132 90h6v1h-6zm6 0h1v11h-1zm32 0h1v1h-1zm-51 1h1v1h-1zm38 0h6v1h-6zm6 0h1v1h-1zm6 0h1v1h-1zm7 0h1v1h-1zm-57 1h1v1h-1zm7 0h1v1h-1zm1 0h1v1h-1zm6 0h5v1h-5zm24 0h5v2h-5zm5 0h1v1h-1zm6 0h1v1h-1zm1 0h1v1h-1zm7 0h1v1h-1zm-56 1h1v1h-1zm7 0h1v1h-1zm12 0h1v9h-1z"/><path d="M156 93h5v3h-5zm12 0h1v1h-1zm7 0h1v1h-1zm-54 1h1v1h-1zm7 0h1v1h-1zm6 0h5v1h-5zm27 0h1v1h-1zm6 0h1v1h-1zm8 0h1v1h-1zm-54 1h1v1h-1zm7 0h1v1h-1zm12 0h1v9h-1z"/><path d="M155 95h5v3h-5zm12 0h1v1h-1zm7 0h1v1h-1zm-52 1h1v1h-1zm7 0h1v1h-1zm6 0h6v1h-6zm6 0h1v10h-1zm19 0h1v1h-1zm6 0h1v1h-1zm7 0h1v1h-1zm-44 1h1v1h-1zm7 0h5v1h-5z"/><path d="M154 97h5v2h-5zm12 0h1v1h-1zm-36 1h1v1h-1zm29 0h1v1h-1zm-28 1h1v1h-1zm6 0h5v1h-5zm5 0h1v8h-1zm11 0h5v2h-5zm5 0h1v1h-1zm6 0h1v1h-1zm0 1h1v1h-1zm-32 1h1v1h-1z"/><path d="M138 101h5v1h-5zm5 0h1v8h-1zm9 0h5v2h-5zm5 0h1v1h-1zm6 0h1v1h-1z"/><path d="M139 102h5v1h-5zm5 0h1v8h-1zm7 1h5v1h-5zm5 0h1v1h-1z"/><path d="M140 104h5v1h-5zm5 0h1v15h-1zm6 0h4v2h-4zm4 0h1v1h-1z"/><path d="M150 105h4v3h-4zm-9 1h5v1h-5zm5 0h1v12h-1zm8 0h1v1h-1zm-12 1h4v1h-4z"/><path d="M149 107h4v2h-4z"/><path d="M147 108h6v1h-6zm6 0h1v1h-1zm-10 1h9v1h-9zm9 0h1v1h-1zm-8 1h7v1h-7zm7 0h1v1h-1zm-4 1h4v5h-4zm4 0h1v1h-1zm0 3h1v6h-1zm21 0h1v1h-1zm-49 1h1v1h-1z"/><path d="M144 115h7v1h-7zm28 0h1v1h-1zm-49 1h1v1h-1zm21 0h8v1h-8zm8 0h1v5h-1zm-30 1h1v4h-1zm21 0h3v2h-3z"/><path d="M149 117h4v1h-4zm4 0h1v6h-1zm20 0h1v3h-1zm-31 1h4v1h-4zm4 0h1v1h-1zm4 0h3v1h-3zm-9 1h4v1h-4zm4 0h1v1h-1z"/><path d="M150 119h4v1h-4zm4 0h1v5h-1zm-13 1h3v2h-3zm3 0h1v1h-1zm7 0h3v1h-3zm22 0h1v1h-1zm1 0h1v6h-1zm-53 1h1v8h-1zm1 0h1v1h-1z"/><path d="M140 121h3v2h-3zm12 0h3v1h-3zm3 0h1v4h-1z"/><path d="M139 122h4v1h-4zm4 0h1v1h-1zm13 0h1v4h-1zm-18 1h4v1h-4zm4 0h1v1h-1z"/><path d="M153 123h4v1h-4zm4 0h1v4h-1zm-19 1h3v1h-3zm3 0h1v1h-1z"/><path d="M154 124h4v1h-4zm4 0h1v4h-1zm17 0h1v12h-1zm-55 1h1v11h-1zm17 0h3v1h-3zm3 0h1v1h-1zm15 0h3v1h-3zm-19 1h3v1h-3zm3 0h1v1h-1z"/><path d="M156 126h3v1h-3zm3 0h1v3h-1zm15 0h1v1h-1zm-39 1h3v2h-3zm3 0h1v1h-1z"/><path d="M157 127h3v1h-3zm3 0h1v3h-1zm16 0h1v8h-1zm-57 1h2v6h-2zm15 0h3v2h-3z"/><path d="M158 128h3v1h-3zm3 0h1v3h-1zm-40 1h1v1h-1zm16 0h1v1h-1z"/><path d="M159 129h3v1h-3zm3 0h1v3h-1zm-30 1h4v1h-4zm4 0h1v1h-1z"/><path d="M160 130h3v1h-3zm3 0h1v3h-1zm-32 1h3v1h-3zm3 0h1v1h-1z"/><path d="M161 131h3v1h-3zm3 0h1v3h-1zm-43 1h1v5h-1zm10 0h2v1h-2zm2 0h1v1h-1z"/><path d="M162 132h3v1h-3zm3 0h1v2h-1zm-36 1h3v1h-3zm3 0h1v1h-1z"/><path d="M163 133h3v1h-3zm3 0h1v2h-1zm-47 1h2v1h-2zm9 0h3v1h-3zm3 0h1v1h-1z"/><path d="M164 134h4v1h-4zm4 0h1v2h-1zm6 0h2v2h-2zm-48 1h3v1h-3zm3 0h1v1h-1z"/><path d="M166 135h3v1h-3zm3 0h1v2h-1zm7 0h1v1h-1zm-56 1h8v1h-8zm8 0h1v1h-1z"/><path d="M167 136h8v1h-8zm8 0h1v1h-1zm-54 1h5v1h-5zm5 0h1v1h-1zm43 0h5v1h-5zm5 0h1v1h-1zM47 153h22v1H47zm22 0h1v2h-1zm7 0h24v1H76zm24 0h1v10h-1zm7 0h24v1h-24zm24 0h1v2h-1zm8 0h24v1h-24zm24 0h1v2h-1zm7 0h23v1h-23zm23 0h1v2h-1zm6 0h5v1h-5zm5 0h1v15h-1zm18 0h5v1h-5zm5 0h1v5h-1zm19 0h3v2h-3zm3 0h1v1h-1zm-200 1h20v1H49zm29 0h22v1H78zm31 0h22v1h-22zm32 0h22v1h-22zm31 0h21v1h-21zm29 0h3v14h-3zm23 0h3v1h-3z"/><path d="M245 154h3v2h-3zm-196 1h20v1H49zm20 0h1v1h-1zm9 0h22v1H78zm32 0h21v1h-21zm21 0h1v1h-1zm10 0h22v1h-22zm22 0h1v1h-1zm10 0h20v1h-20zm20 0h1v1h-1zm32 0h3v1h-3zm3 0h1v5h-1z"/><path d="M244 155h4v1h-4zm4 0h1v1h-1zm-199 1h3v12h-3zm3 0h1v13h-1zm26 0h3v12h-3zm3 0h1v13h-1zm16 0h3v7h-3zm13 0h3v12h-3zm3 0h1v12h-1zm28 0h3v12h-3zm3 0h1v12h-1zm29 0h3v12h-3zm3 0h1v13h-1zm49 0h4v1h-4zm4 0h1v5h-1zm15 0h3v1h-3zm3 0h1v1h-1z"/><path d="M226 157h4v1h-4zm4 0h1v5h-1zm13 0h3v2h-3zm3 0h1v1h-1zm-19 1h3v1h-3z"/><path d="M242 158h3v2h-3zm-11 1h1v4h-1z"/><path d="M241 159h4v1h-4zm4 0h1v1h-1zm-100 1h1v1h-1zm12 0h1v1h-1zm71 0h4v1h-4zm4 0h1v3h-1zm9 0h3v2h-3zm3 0h1v1h-1zm-191 1h11v2H53zm11 0h1v2h-1zm50 0h11v1h-11zm11 0h1v1h-1zm20 0h12v1h-12zm12 0h1v1h-1zm20 0h10v2h-10zm10 0h1v2h-1z"/><path d="M229 161h14v1h-14zm-142 1h13v1H87zm143 0h13v1h-13zm13 0h1v1h-1zm-190 1h11v1H53zm11 0h1v1h-1zm24 0h12v1H88zm12 0h1v1h-1zm77 0h10v1h-10zm10 0h1v1h-1zm44 0h11v1h-11zm11 0h1v1h-1zm-152 1h4v1h-4zm4 0h1v3h-1zm141 0h3v4h-3zm3 0h1v5h-1z"/><path d="M91 165h4v1h-4zm4 0h1v3h-1zm123 0h3v3h-3zm3 0h1v4h-1z"/><path d="M92 166h4v1h-4zm4 0h1v3h-1z"/><path d="M93 167h4v1h-4zm4 0h1v1h-1zm17 0h17v1h-17zm17 0h1v2h-1zm14 0h18v1h-18zm18 0h1v1h-1zm42 0h16v1h-16zm-156 1h3v1h-3zm29 0h3v1h-3zm17 0h4v1h-4zm4 0h1v1h-1zm11 0h21v1h-21zm31 0h22v1h-22zm22 0h1v1h-1zm10 0h3v1h-3zm28 0h20v1h-20zm34 0h3v1h-3zm-186 1h1v1h-1zm3 0h1v1h-1zm26 0h1v1h-1zm3 0h1v1h-1zm15 0h1v1h-1zm4 0h1v1h-1zm10 0h1v1h-1zm21 0h1v1h-1zm10 0h1v1h-1zm32 0h1v1h-1zm3 0h1v1h-1zm25 0h1v1h-1zm20 0h1v1h-1zm14 0h1v1h-1zm3 0h1v1h-1z"/><g fill="#efefef"><path d="M175 5h1v1h-1zm-55 2h1v1h-1zm0 1h1v1h-1zm174 3h1v1h-1zm-105 2h1v1h-1zM18 15h1v1h-1zm271 0h1v1h-1zm-102 2h1v1h-1zm-74 1h1v1h-1zm7 2h1v2h-1zm0 2h1v1h-1zm68 1h1v1h-1zm-13 1h1v1h-1zm-68 1h1v1h-1zm68 0h1v1h-1zM66 27h1v1h-1zm5 1h1v1h-1zm153 0h1v1h-1zm26 1h1v1h-1zM27 31h1v1h-1zm161 0h1v1h-1zm86 0h1v1h-1zM30 32h1v1h-1zm57 1h1v1h-1zm26 0h1v1h-1zm-42 1h1v1h-1zm18 1h1v1h-1zm176 1h1v1h-1zM81 37h1v1h-1zm27 0h1v1h-1zm86 1h1v1h-1zm66 0h1v1h-1zM64 40h1v1h-1zm167 0h1v1h-1zM77 42h1v1h-1zm104 0h1v1h-1zm37 0h1v1h-1zm-109 1h1v1h-1zm14 0h1v1h-1zm119 0h1v1h-1zm-118 4h1v1h-1zm-49 1h1v1h-1zm110 0h1v1h-1zm12 0h1v1h-1zm-93 1h1v1h-1zm113 0h1v1h-1zM89 51h1v1h-1zm101 1h1v1h-1zM83 53h1v1h-1zm19 2h1v1h-1zm87 0h1v1h-1zm-7 3h1v1h-1zm-94 1h1v1h-1zm103 0h1v1h-1zm-95 2h1v1h-1zm94 0h1v1h-1zm-81 1h1v1h-1zm19 0h1v1h-1zm-30 2h1v1h-1zm90 1h1v1h-1zm-67 3h1v1h-1zm9 0h1v1h-1zm56 1h1v1h-1zm-68 1h1v1h-1zm4 1h1v1h-1zm60 0h1v1h-1zm14 3h1v1h-1zm-21 1h1v1h-1zm8 0h1v1h-1zm-62 2h1v1h-1zm72 1h1v1h-1zm-14 5h1v1h-1zm-69 1h1v1h-1zm4 2h1v1h-1zm55 2h1v1h-1zm-50 6h1v1h-1zm7 0h1v1h-1zm-2 5h1v1h-1zm38 5h1v1h-1zm-14 2h1v1h-1zm12 0h1v1h-1zm13 8h1v1h-1zm-49 3h1v1h-1zm51 2h1v1h-1zm-55 1h1v1h-1zm3 1h1v1h-1zm37 4h1v1h-1zm12 14h1v1h-1zm1 0h1v1h-1zm-67 13h1v1h-1zm99 0h1v1h-1zm22 0h1v1h-1zm-120 2h1v1h-1zm122 0h1v1h-1zm21 0h1v1h-1zm-24 5h1v1h-1zm-141 3h1v1h-1zm16 2h1v1h-1zm31 2h1v1h-1zm-38 3h1v1h-1z"/></g><g fill="#131313"><path d="M176 5h1v1h-1zm-59 1h1v1h-1zM13 14h1v1h-1zm101 6h1v1h-1zm80 3h1v1h-1zm60 0h1v1h-1zM33 25h1v1h-1zm213 0h1v1h-1zM37 26h1v1h-1zm28 2h1v1h-1zm36 1h1v1h-1zm110 3h1v1h-1zM79 35h1v1h-1zm36 6h1v1h-1zm-18 7h1v1h-1zm108 6h1v1h-1zm1 5h1v1h-1zm-96 3h1v1h-1zm-12 9h1v1h-1zm34 5h1v1h-1zm-12 6h1v1h-1zm52 2h1v1h-1zm-29 32h1v1h-1zm33 10h1v1h-1zm-2 1h1v1h-1zm-36 1h1v1h-1zm-5 1h1v1h-1zm-12 2h1v1h-1zm13 1h1v1h-1zm11 30h1v1h-1z"/></g><g fill="#e4e4e4"><path d="M120 6h1v1h-1zm175 1h1v1h-1zM2 8h1v1H2zm178 0h1v1h-1zM4 9h1v1H4zm278 4h1v1h-1zM8 16h1v1H8zm100 1h1v1h-1zm-7 2h1v1h-1zm12 0h1v1h-1zm-80 1h1v1h-1zm226 1h1v1h-1zM40 22h1v1h-1zm60 1h1v1h-1zm20 0h1v1h-1zm-13 1h1v1h-1zm68 2h1v1h-1zM65 27h1v1h-1zm165 0h1v1h-1zM41 28h1v1h-1zm213 0h1v1h-1zM78 29h1v1h-1zm139 0h1v1h-1zm28 1h1v1h-1zm-124 1h1v1h-1zm-8 1h1v1h-1zm75 0h1v1h-1zM66 33h1v1h-1zm108 0h1v1h-1zm88 0h1v1h-1zM72 34h1v1h-1zm16 0h1v1h-1zm135 0h1v1h-1zm36 0h1v1h-1zm-77 1h1v1h-1zm32 2h1v1h-1zM52 38h1v1h-1zm191 0h1v1h-1zM42 40h1v1h-1zm190 0h1v1h-1zM69 41h1v1h-1zm181 0h1v1h-1zm-4 1h1v1h-1zM95 43h1v1h-1zm143 1h1v1h-1zm-46 2h1v1h-1zm-94 2h1v1h-1zm93 1h1v1h-1zM81 51h1v1h-1zm131 2h1v1h-1zm-8 1h1v1h-1zm-21 1h1v1h-1zm-79 4h1v1h-1zm23 0h1v1h-1zm80 0h1v1h-1zm-101 4h1v1h-1zm70 0h1v1h-1zm4 0h1v1h-1zm24 0h1v1h-1zm-97 2h1v1h-1zm13 0h1v1h-1zm-26 2h1v1h-1zm71 2h1v1h-1zm-34 2h1v1h-1zm45 2h1v1h-1zm-56 2h1v1h-1zm-10 4h1v1h-1zm71 0h1v1h-1zm-12 2h1v1h-1zm-1 2h1v1h-1zm3 1h1v1h-1zm10 2h1v1h-1zm-58 3h1v1h-1zm45 1h1v1h-1zm-28 2h1v1h-1zm23 1h1v1h-1zm3 1h1v1h-1zm3 0h1v1h-1zm7 0h1v1h-1zm-45 7h1v1h-1zm23 7h1v1h-1zm-2 6h1v1h-1zm-15 9h1v1h-1zm3 4h1v1h-1zm-22 3h1v1h-1zm57 8h1v1h-1zM46 152h1v1h-1zm29 0h1v1h-1zm56 0h1v1h-1zm7 0h1v1h-1zm60 0h1v1h-1zm23 0h1v1h-1zm29 0h1v1h-1zm-149 1h1v10h-1zm70 2h1v14h-1zm-57 2h1v2h-1zm0 2h1v1h-1zm-29 2h1v1h-1zm16 2h1v1h-1zm13 0h1v1h-1zm126 1h1v1h-1zm-151 1h1v1h-1zm82 4h1v1h-1z"/></g><g fill="#3f3f3f"><path d="M295 8h1v1h-1zM114 18h1v1h-1zm136 6h1v1h-1zm-28 5h1v1h-1zm-108 4h1v1h-1zm-27 1h1v1h-1zm167 2h1v1h-1zm9 0h1v1h-1zm-156 1h1v1h-1zm124 4h1v1h-1zm-128 2h1v1h-1zm98 0h1v1h-1zm-22 6h1v1h-1zm-96 3h1v1h-1zm13 2h1v1h-1zm82 16h1v1h-1zm-4 9h1v1h-1zm2 2h1v1h-1zm-32 30h1v1h-1zm-7 13h1v1h-1zm-18 11h1v1h-1zm54 3h1v1h-1zm74 19h1v1h-1zm-7 3h1v1h-1z"/></g><g fill="#232323"><path d="M119 9h1v1h-1zm70 5h1v1h-1zM21 17h1v1h-1zm86 0h1v1h-1zm158 3h1v1h-1zm9 1h1v1h-1zm-85 6h1v1h-1zm65 0h1v1h-1zm-65 1h1v1h-1zM49 29h1v1h-1zm30 1h1v1h-1zm22 0h1v1h-1zm135 1h1v1h-1zm26 3h1v1h-1zm-48 2h1v1h-1zM58 40h1v1h-1zm192 0h1v1h-1zM57 43h1v1h-1zm177 1h1v1h-1zM96 46h1v1h-1zm95 0h1v1h-1zm-74 5h1v1h-1zm7 0h1v1h-1zm47 1h1v1h-1zm40 1h1v1h-1zM85 54h1v1h-1zm103 1h1v1h-1zm4 4h1v1h-1zm-17 4h1v1h-1zm28 0h1v1h-1zm-23 2h1v1h-1zm-76 2h1v1h-1zm91 2h1v1h-1zm-77 3h1v1h-1zm62 1h1v1h-1zm-80 1h1v1h-1zm86 2h1v1h-1zm-78 6h1v1h-1zm27 1h1v1h-1zm-14 1h1v1h-1zm65 0h1v1h-1zm-57 1h1v1h-1zm-5 4h1v1h-1zm38 4h1v1h-1zm12 1h1v1h-1zm-19 11h1v1h-1zm-6 1h1v1h-1zm-28 14h1v1h-1zm18 7h1v1h-1zm-91 27h1v1h-1zm29 0h1v1h-1zm167 7h1v1h-1zm-56 2h1v1h-1z"/></g><g fill="#5d5d5d"><path d="M5 10h1v1H5zm175 0h1v1h-1zM7 11h1v1H7zm-4 1h1v1H3zm283 4h1v1h-1zm-2 1h1v1h-1zM13 18h1v1h-1zm21 3h1v1h-1zm-11 1h1v1h-1zm243 2h1v1h-1zm-7 2h1v1h-1zM40 27h1v1h-1zm194 0h1v1h-1zm-114 2h1v1h-1zm-99 1h1v1h-1zm221 0h1v1h-1zM22 31h1v1h-1zm153 0h1v1h-1zm95 0h1v1h-1zM28 32h1v1h-1zm42 1h1v1h-1zm31 0h1v1h-1zm108 0h1v1h-1zm52 1h1v1h-1zm7 0h1v1h-1zm-154 1h1v1h-1zm152 0h1v1h-1zm-159 1h1v1h-1zm74 1h1v1h-1zm69 0h1v1h-1zm-4 1h1v1h-1zM65 41h1v1h-1zm-9 2h1v1h-1zm4 1h1v1h-1zm49 2h1v1h-1zm-35 1h1v1h-1zm117 0h1v1h-1zm30 0h1v1h-1zM98 49h1v1h-1zm92 1h1v1h-1zm-64 8h1v1h-1zm-27 1h1v1h-1zm20 1h1v1h-1zm57 1h1v1h-1zm8 4h1v1h-1zm-63 1h1v1h-1zm71 0h1v1h-1zm-91 4h1v1h-1zm4 11h1v1h-1zm12 5h1v1h-1zm60 2h1v1h-1zm-50 3h1v1h-1zm1 2h1v1h-1zm26 3h1v1h-1zm13 0h1v1h-1zm-14 2h1v1h-1zm19 0h1v1h-1zm-39 4h1v1h-1zm29 1h1v1h-1zm-22 2h1v1h-1zm12 10h1v1h-1zm-7 5h1v1h-1zm-4 5h1v1h-1zm15 2h1v1h-1zm11 6h1v1h-1zm-42 2h1v1h-1zm51 1h1v1h-1zm-56 1h1v1h-1zm48 0h1v1h-1zm30 16h1v1h-1zm7 0h1v1h-1zm16 0h1v1h-1zm-81 1h1v1h-1zm31 0h1v1h-1zm-118 2h1v1h-1z"/></g><g fill="#fff"><path d="M0 0h119v1H0zm119 0h1v1h-1zm3 0h52v37h-52zm52 0h1v31h-1zm3 0h118v1H177zm118 0h1v6h-1zM0 1h118v2H0zm118 0h1v1h-1z"/><path d="M121 1h53v28h-53zm56 0h118v1H177zm1 1h117v1H178zM0 3h117v2H0zm117 0h1v1h-1zm62 0h116v1H179zm0 1h116v1H179zM0 5h116v1H0zm116 0h1v1h-1zm64 0h115v2H180zM0 6h115v1H0zm115 0h1v2h-1zm180 0h1v1h-1zM1 7h114v1H1zm179 0h114v1H180zm114 0h1v1h-1zM3 8h112v1H3zm112 0h1v1h-1zm66 0h111v1H181zm111 0h1v1h-1zM5 9h109v1H5zm109 0h1v1h-1zm61 0h1v11h-1zm6 0h109v1H181zm109 0h1v1h-1zM0 10h1v159H0zm7 0h107v1H7zm107 0h1v1h-1zm68 0h106v1H182zm106 0h1v1h-1zm7 0h1v159h-1zM10 11h103v1H10zm103 0h1v5h-1zm69 0h103v1H182zm103 0h1v1h-1zM1 12h1v157H1zm10 0h102v1H11zm171 0h102v1H182zm102 0h1v1h-1zm10 0h1v157h-1zM2 13h1v156H2zm1 0h1v156H3zm11 0h91v1H14zm91 0h1v1h-1zm4 0h4v29h-4zm73 0h4v2h-4zm4 0h1v30h-1zm4 0h91v1h-91zm91 0h1v1h-1z"/><path d="M292 13h3v156h-3zM4 14h1v155H4zm13 0h86v1H17zm86 0h1v1h-1zm89 0h86v1h-86zm86 0h1v1h-1z"/><path d="M291 14h4v155h-4zM5 15h1v154H5zm14 0h84v1H19zm84 0h1v1h-1zm79 0h4v1h-4zm11 0h83v1h-83zm83 0h1v1h-1z"/><path d="M290 15h5v154h-5zM6 16h1v153H6zm1 0h1v153H7zm15 0h80v1H22zm80 0h1v1h-1zm11 0h1v1h-1zm70 0h3v30h-3zm10 0h80v1h-80zm80 0h1v1h-1z"/><path d="M288 16h7v153h-7zM8 17h1v152H8zm1 0h1v152H9zm16 0h76v1H25zm76 0h1v1h-1zm93 0h76v1h-76zm76 0h1v1h-1z"/><path d="M286 17h9v152h-9zM10 18h1v151h-1zm1 0h1v151h-1zm17 0h73v1H28zm73 0h1v1h-1zm86 0h1v18h-1zm8 0h72v1h-72zm72 0h1v1h-1z"/><path d="M285 18h10v151h-10zM12 19h1v150h-1zm1 0h1v150h-1zm17 0h70v1H30zm70 0h1v2h-1zm8 0h4v17h-4zm87 0h70v1h-70zm70 0h1v1h-1z"/><path d="M282 19h13v150h-13zM14 20h1v149h-1zm1 0h1v149h-1zm19 0h66v1H34zm141 0h1v1h-1zm20 0h66v1h-66zm66 0h1v1h-1z"/><path d="M280 20h15v149h-15zM16 21h1v148h-1zm1 0h1v148h-1zm21 0h62v1H38zm62 0h1v1h-1zm95 0h62v1h-62zm62 0h1v1h-1z"/><path d="M278 21h17v148h-17zM18 22h2v147h-2zm2 0h1v6h-1zm21 0h58v1H41zm58 0h1v27h-1zm97 0h58v1h-58zm58 0h1v1h-1z"/><path d="M275 22h20v6h-20zM21 23h2v5h-2zm2 0h1v6h-1zm23 0h53v1H46zm150 0h53v1h-53zm53 0h1v1h-1z"/><path d="M272 23h23v5h-23zM24 24h2v5h-2zm2 0h1v6h-1zm25 0h48v1H51zm145 0h48v1h-48zm48 0h1v1h-1z"/><path d="M270 24h25v4h-25zM27 25h2v5h-2zm2 0h1v6h-1zm26 0h44v1H55zm141 0h45v1h-45zm45 0h1v1h-1z"/><path d="M266 25h29v3h-29zM30 26h3v5h-3zm3 0h1v6h-1zm28 0h38v1H61zm135 0h38v1h-38zm38 0h1v1h-1z"/><path d="M262 26h33v2h-33zM34 27h2v6h-2zm2 0h1v6h-1zm31 0h32v1H67zm129 0h32v1h-32zm32 0h1v1h-1z"/><path d="M260 27h35v1h-35zM20 28h20v1H20zm20 0h1v6h-1zm32 0h27v1H72zm124 0h27v1h-27zm27 0h1v1h-1zm32 0h40v1h-40z"/><path d="M23 29h21v1H23zm21 0h1v6h-1zm35 0h20v1H79zm42 0h53v1h-53zm75 0h20v1h-20zm20 0h1v1h-1zm35 0h22v1h-22zm22 0h1v1h-1zm3 0h19v140h-19z"/><path d="M26 30h22v1H26zm22 0h1v6h-1zm35 0h16v1H83zm113 0h16v1h-16zm16 0h1v1h-1zm35 0h23v1h-23zm23 0h1v1h-1zM20 31h1v138h-1z"/><path d="M28 31h25v1H28zm25 0h1v7h-1zm32 0h14v1H85zm89 0h1v1h-1zm22 0h14v1h-14zm14 0h1v1h-1zm33 0h24v1h-24zm24 0h1v1h-1zm8 0h20v138h-20zM21 32h1v137h-1zm1 0h1v137h-1z"/><path d="M31 32h27v1H31zm27 0h1v6h-1zm28 0h13v1H86zm110 0h13v1h-13zm13 0h1v1h-1zm28 0h27v1h-27zm27 0h1v1h-1zm10 0h21v137h-21zM23 33h1v136h-1z"/><path d="M34 33h31v1H34zm31 0h1v6h-1zm23 0h12v1H88zm12 0h1v18h-1zm96 0h11v1h-11zm11 0h1v1h-1zm24 0h30v1h-30zm30 0h1v1h-1zm11 0h23v136h-23zM24 34h1v135h-1zm1 0h1v135h-1z"/><path d="M38 34h31v1H38zm31 0h1v6h-1zm20 0h11v1H89zm106 0h11v2h-11zm11 0h1v1h-1zm20 0h31v1h-31zm31 0h1v1h-1zm13 0h25v135h-25zM26 35h1v134h-1zm1 0h1v134h-1z"/><path d="M41 35h34v1H41zm34 0h1v6h-1zm15 0h10v1H90zm23 0h1v22h-1zm107 0h34v1h-34zm34 0h1v1h-1zm14 0h27v134h-27zM28 36h1v133h-1zm1 0h1v133h-1z"/><path d="M45 36h34v1H45zm34 0h1v6h-1zm12 0h9v1h-9zm17 0h5v1h-5zm79 0h1v1h-1zm8 0h10v1h-10zm10 0h1v1h-1zm11 0h34v1h-34zm34 0h1v1h-1zm16 0h29v133h-29zM30 37h1v132h-1zm1 0h1v132h-1z"/><path d="M50 37h30v1H50zm30 0h1v5h-1zm11 0h9v1h-9zm31 0h51v1h-51zm51 0h1v1h-1zm9 0h4v9h-4zm13 0h9v1h-9zm9 0h1v1h-1zm11 0h30v1h-30zm30 0h1v1h-1zm19 0h31v132h-31zM32 38h2v131h-2zm2 0h1v131h-1z"/><path d="M53 38h29v1H53zm29 0h1v5h-1zm10 0h8v1h-8zm31 0h50v3h-50zm50 0h1v1h-1zm22 0h8v1h-8zm8 0h1v1h-1zm10 0h29v1h-29zm29 0h1v1h-1zm19 0h34v131h-34zM35 39h3v130h-3zm3 0h1v130h-1z"/><path d="M59 39h24v1H59zm24 0h1v5h-1zm10 0h8v1h-8zm8 0h1v13h-1zm94 0h7v2h-7zm7 0h1v1h-1zm10 0h24v1h-24zm24 0h1v1h-1zm21 0h38v130h-38zM39 40h1v129h-1zm1 0h1v129h-1z"/><path d="M66 40h18v1H66zm18 0h1v5h-1zm10 0h7v1h-7zm100 0h7v2h-7zm17 0h19v1h-19zm19 0h1v1h-1zm25 0h40v129h-40zM41 41h3v128h-3zm3 0h1v128h-1z"/><path d="M71 41h14v1H71zm14 0h1v4h-1zm9 0h7v1h-7zm29 0h49v1h-49zm49 0h1v1h-1zm29 0h1v1h-1zm9 0h14v1h-14zm14 0h1v1h-1zm27 0h44v128h-44zM45 42h3v109h-3zm3 0h1v109h-1z"/><path d="M78 42h8v1h-8zm8 0h1v5h-1zm9 0h7v1h-7zm7 0h1v12h-1zm7 0h4v1h-4zm15 0h48v4h-48zm48 0h1v1h-1zm22 0h6v2h-6zm6 0h1v1h-1zm9 0h8v1h-8zm8 0h1v1h-1zm30 0h48v109h-48zM49 43h3v108h-3zm3 0h1v108h-1z"/><path d="M82 43h5v1h-5zm5 0h1v5h-1zm9 0h6v1h-6zm14 0h4v3h-4zm4 0h1v16h-1zm72 0h1v1h-1zm7 0h6v3h-6zm15 0h5v1h-5zm5 0h1v1h-1zm30 0h52v108h-52zM53 44h2v107h-2zm2 0h1v107h-1zm28 0h4v1h-4zm13 0h6v1h-6zm103 0h1v1h-1zm9 0h4v1h-4zm4 0h1v1h-1z"/><path d="M240 44h55v107h-55zM56 45h4v106h-4zm4 0h1v106h-1zm24 0h4v1h-4zm4 0h1v4h-1zm9 0h5v1h-5zm84 0h4v5h-4zm26 0h4v1h-4zm4 0h1v1h-1z"/><path d="M235 45h60v106h-60zM61 46h4v105h-4zm4 0h1v105h-1zm24 0h1v4h-1zm9 0h4v1h-4zm12 0h4v1h-4zm14 0h47v1h-47zm47 0h1v1h-1zm14 0h1v1h-1zm8 0h5v1h-5zm5 0h1v1h-1zm8 0h3v2h-3zm3 0h1v1h-1z"/><path d="M230 46h65v105h-65zM66 47h3v104h-3zm3 0h1v104h-1zm17 0h4v1h-4zm4 0h1v5h-1zm8 0h5v1h-5zm5 0h1v9h-1zm8 0h4v3h-4zm4 0h1v15h-1zm10 0h46v4h-46zm46 0h1v1h-1zm21 0h5v2h-5zm5 0h1v1h-1zm8 0h4v1h-4zm4 0h1v1h-1z"/><path d="M226 47h69v104h-69zM70 48h4v103h-4zm4 0h1v103h-1zm13 0h3v1h-3zm93 0h4v6h-4zm25 0h3v1h-3zm3 0h1v1h-1z"/><path d="M221 48h74v103h-74zM75 49h2v102h-2zm2 0h1v102h-1zm11 0h3v1h-3zm3 0h1v4h-1zm8 0h4v1h-4zm93 0h4v2h-4zm4 0h1v1h-1zm8 0h3v1h-3zm3 0h1v1h-1z"/><path d="M218 49h77v102h-77zM78 50h1v101h-1zm1 0h1v101h-1zm10 0h3v1h-3zm3 0h1v4h-1zm12 0h1v8h-1zm7 0h4v1h-4zm73 0h1v1h-1zm19 0h3v2h-3zm3 0h1v1h-1z"/><path d="M216 50h79v101h-79zM80 51h1v100h-1zm13 0h1v5h-1zm7 0h4v1h-4zm12 0h3v3h-3zm13 0h45v1h-45zm45 0h1v1h-1zm21 0h4v1h-4zm4 0h1v1h-1z"/><path d="M215 51h80v100h-80zM81 52h1v99h-1zm9 0h3v1h-3zm11 0h4v1h-4zm4 0h1v8h-1zm11 0h1v13h-1zm10 0h44v2h-44zm44 0h1v1h-1zm21 0h3v2h-3zm3 0h1v1h-1zm8 0h3v1h-3zm3 0h1v1h-1z"/><path d="M214 52h81v99h-81zM82 53h1v98h-1zm9 0h3v1h-3zm3 0h1v4h-1zm96 0h3v4h-3zm11 0h3v1h-3zm3 0h1v1h-1z"/><path d="M213 53h82v98h-82zM83 54h1v97h-1zm9 0h2v1h-2zm10 0h3v1h-3zm10 0h4v1h-4zm14 0h43v1h-43zm43 0h1v1h-1zm10 0h4v3h-4zm4 0h1v1h-1zm10 0h1v1h-1zm8 0h2v2h-2zm2 0h1v1h-1z"/><path d="M212 54h83v97h-83zM84 55h1v96h-1zm11 0h1v4h-1zm32 0h42v2h-42zm42 0h1v1h-1zm31 0h2v2h-2z"/><path d="M211 55h84v96h-84zM85 56h1v95h-1zm8 0h3v1h-3zm3 0h1v4h-1zm7 0h3v1h-3zm3 0h1v6h-1zm83 0h3v2h-3zm10 0h3v1h-3zm3 0h1v1h-1z"/><path d="M210 56h85v95h-85zM86 57h1v94h-1zm8 0h2v1h-2zm19 0h4v1h-4zm4 0h1v9h-1zm10 0h41v1h-41zm41 0h1v1h-1zm11 0h3v2h-3zm3 0h1v1h-1zm10 0h1v1h-1zm7 0h2v2h-2zm2 0h1v1h-1z"/><path d="M209 57h86v94h-86zM97 58h1v4h-1zm7 0h3v1h-3zm3 0h1v6h-1zm21 0h40v3h-40zm40 0h1v1h-1zm10 0h3v4h-3zm11 0h2v2h-2zm2 0h1v1h-1zm7 0h2v2h-2zM87 59h1v92h-1z"/><path d="M95 59h3v1h-3zm3 0h1v4h-1zm16 0h4v1h-4zm4 0h1v10h-1zm63 0h1v1h-1zm7 0h2v3h-2zm9 0h3v1h-3zm3 0h1v1h-1zm8 0h87v92h-87zM88 60h1v91h-1zm8 0h2v1h-2zm9 0h3v1h-3zm3 0h1v6h-1zm69 0h3v5h-3zm13 0h1v1h-1zm7 0h2v2h-2zm2 0h1v1h-1z"/><path d="M207 60h88v91h-88zM89 61h1v90h-1zm10 0h1v4h-1zm29 0h39v1h-39zm39 0h1v1h-1zm20 0h2v3h-2zm9 0h2v2h-2z"/><path d="M206 61h89v90h-89zM90 62h1v89h-1zm7 0h2v1h-2zm9 0h2v1h-2zm9 0h3v1h-3zm14 0h38v3h-38zm38 0h1v1h-1zm13 0h1v1h-1zm9 0h1v1h-1zm9 0h1v1h-1z"/><path d="M205 62h90v89h-90zM98 63h2v1h-2zm2 0h1v4h-1zm9 0h1v5h-1zm10 0h1v9h-1zm67 0h2v3h-2zm9 0h2v2h-2zm2 0h1v1h-1zM91 64h1v87h-1zm16 0h2v1h-2zm69 0h3v3h-3zm12 0h1v1h-1z"/><path d="M204 64h91v87h-91zM92 65h1v86h-1zm7 0h2v1h-2zm2 0h1v3h-1zm9 0h1v5h-1zm6 0h3v1h-3zm13 0h37v1h-37zm37 0h1v1h-1zm13 0h1v1h-1zm15 0h2v2h-2zm2 0h1v1h-1z"/><path d="M203 65h92v86h-92zM93 66h1v85h-1zm9 0h1v4h-1zm6 0h2v1h-2zm9 0h2v1h-2zm13 0h35v1h-35zm35 0h1v2h-1zm20 0h2v2h-2zm2 0h1v1h-1zm6 0h2v2h-2z"/><path d="M202 66h93v85h-93zm-102 1h2v1h-2zm11 0h1v5h-1zm9 0h1v7h-1zm10 0h35v1h-35zm45 0h3v2h-3zm3 0h1v1h-1zm17 0h1v1h-1zM94 68h1v83h-1zm7 0h2v1h-2zm2 0h1v3h-1zm6 0h2v1h-2zm22 0h34v2h-34zm34 0h1v1h-1zm19 0h2v2h-2zm2 0h1v1h-1zm6 0h2v2h-2zm2 0h1v1h-1z"/><path d="M201 68h94v83h-94zM95 69h1v82h-1zm17 0h1v5h-1zm6 0h3v1h-3zm3 0h1v7h-1zm54 0h2v3h-2zm2 0h1v1h-1zm6 0h2v3h-2z"/><path d="M200 69h95v82h-95zM96 70h1v81h-1zm6 0h2v1h-2zm2 0h1v3h-1zm6 0h2v1h-2zm21 0h33v1h-33zm33 0h1v1h-1zm10 0h2v4h-2zm11 0h1v1h-1zm6 0h2v2h-2zm2 0h1v1h-1z"/><path d="M103 71h2v1h-2zm2 0h1v4h-1zm27 0h32v2h-32zm32 0h1v1h-1zm26 0h2v2h-2zm9 0h96v80h-96zM97 72h1v79h-1zm14 0h2v1h-2zm2 0h1v4h-1zm6 0h3v1h-3zm3 0h1v7h-1zm51 0h3v2h-3zm3 0h1v1h-1zm6 0h2v2h-2zm2 0h1v1h-1zm8 0h1v1h-1z"/><path d="M198 72h97v79h-97zM98 73h1v78h-1zm6 0h2v1h-2zm2 0h1v3h-1zm26 0h31v1h-31zm31 0h1v1h-1zm26 0h2v2h-2zm2 0h1v1h-1z"/><path d="M197 73h98v78h-98zm-85 1h2v1h-2zm2 0h1v4h-1zm6 0h2v1h-2zm13 0h30v1h-30zm30 0h1v1h-1zm10 0h2v2h-2zm2 0h1v1h-1zm6 0h2v2h-2zm2 0h1v1h-1zm-84 1h1v76h-1zm6 0h2v1h-2zm2 0h1v3h-1zm8 0h1v5h-1zm8 0h1v6h-1zm10 0h29v1h-29zm29 0h1v1h-1z"/><path d="M172 75h2v4h-2zm8 0h2v3h-2zm8 0h2v2h-2zm2 0h1v1h-1zm6 0h99v76h-99zm-96 1h1v75h-1zm6 0h2v1h-2zm2 0h1v4h-1zm5 0h2v1h-2zm8 0h2v1h-2zm13 0h27v1h-27zm27 0h1v2h-1zm13 0h1v1h-1zm8 0h1v1h-1z"/><path d="M195 76h100v75H195zm-94 1h1v74h-1zm23 0h1v6h-1zm10 0h27v1h-27zm37 0h2v4h-2zm16 0h2v1h-2zm2 0h1v1h-1zm-82 1h2v1h-2zm2 0h1v3h-1zm5 0h2v1h-2zm2 0h1v4h-1zm19 0h26v2h-26zm26 0h1v1h-1zm18 0h2v2h-2zm2 0h1v1h-1zm5 0h2v2h-2zm2 0h1v1h-1z"/><path d="M194 78h101v73H194zm-92 1h1v89h-1zm15 0h1v5h-1zm5 0h3v1h-3zm3 0h1v6h-1zm48 0h1v1h-1z"/><path d="M193 79h102v72H193zm-90 1h1v89h-1zm5 0h2v1h-2zm2 0h1v3h-1zm5 0h2v1h-2zm20 0h25v1h-25zm25 0h1v1h-1zm10 0h2v3h-2zm8 0h2v2h-2zm2 0h1v1h-1zm5 0h2v2h-2zm2 0h1v1h-1z"/><path d="M192 80h103v71H192zm-88 1h1v88h-1zm5 0h1v1h-1zm9 0h1v5h-1zm5 0h2v1h-2zm13 0h24v1h-24zm24 0h1v1h-1zm12 0h1v1h-1zm5 0h2v3h-2zm-66 1h1v3h-1zm5 0h2v1h-2zm10 0h1v5h-1zm10 0h23v1h-23zm23 0h1v1h-1zm10 0h2v3h-2zm10 0h1v1h-1zm5 0h2v1h-2zm2 0h1v1h-1z"/><path d="M191 82h104v69H191zm-86 1h1v86h-1zm5 0h2v1h-2zm2 0h1v4h-1zm7 0h1v5h-1zm5 0h2v1h-2zm13 0h22v1h-22zm22 0h1v1h-1zm12 0h1v1h-1zm5 0h2v3h-2zm7 0h2v2h-2zm2 0h1v1h-1z"/><path d="M190 83h105v68H190zm-84 1h1v67h-1zm11 0h2v1h-2zm10 0h1v5h-1zm10 0h21v1h-21zm21 0h1v1h-1zm10 0h2v3h-2zm10 0h1v1h-1z"/><path d="M189 84h106v67H189zm-82 1h1v66h-1zm4 0h2v1h-2zm2 0h1v3h-1zm7 0h1v4h-1zm5 0h3v1h-3zm3 0h1v6h-1zm10 0h20v2h-20zm20 0h1v1h-1zm12 0h1v1h-1zm5 0h2v3h-2zm7 0h2v2h-2zm2 0h1v1h-1z"/><path d="M188 85h107v66H188zm-70 1h3v1h-3zm3 0h1v5h-1zm46 0h2v3h-2zm10 0h1v1h-1zm-69 1h1v64h-1zm4 0h2v1h-2zm2 0h1v64h-1zm12 0h2v1h-2zm12 0h19v1h-19zm19 0h1v1h-1zm12 0h1v1h-1zm5 0h2v3h-2zm7 0h2v1h-2zm2 0h1v1h-1z"/><path d="M187 87h108v64H187zm-78 1h1v63h-1zm4 0h2v1h-2zm2 0h1v63h-1zm4 0h3v1h-3zm3 0h1v5h-1zm7 0h1v5h-1zm10 0h18v1h-18zm18 0h1v1h-1zm9 0h2v3h-2zm7 0h3v2h-3zm3 0h1v1h-1zm4 0h2v63h-2zm2 0h1v1h-1z"/><path d="M186 88h109v63H186zm-76 1h1v62h-1zm10 0h2v1h-2zm7 0h2v1h-2zm12 0h17v1h-17zm17 0h1v1h-1zm12 0h1v1h-1z"/><path d="M185 89h110v62H185zm-74 1h1v61h-1zm5 0h1v61h-1zm7 0h1v5h-1zm7 0h1v4h-1zm10 0h15v1h-15zm15 0h1v1h-1zm10 0h2v3h-2zm7 0h3v1h-3zm3 0h1v1h-1zm4 0h2v61h-2z"/><path d="M184 90h111v61H184zm-72 1h4v60h-4zm9 0h3v1h-3zm3 0h1v6h-1zm4 0h3v1h-3zm3 0h1v5h-1zm9 0h15v1h-15zm15 0h1v1h-1zm12 0h1v1h-1zm5 0h2v3h-2zm2 0h1v1h-1z"/><path d="M182 91h113v60H182zm-65 1h1v59h-1zm24 0h13v1h-13zm13 0h1v2h-1zm10 0h2v3h-2zm7 0h2v3h-2z"/><path d="M178 92h117v59H178zm-60 1h1v35h-1zm4 0h3v1h-3zm3 0h1v15h-1zm4 0h3v1h-3zm3 0h1v5h-1zm9 0h13v1h-13zm25 0h1v1h-1zm4 0h3v2h-3z"/><path d="M177 93h118v33H177zm-47 1h2v1h-2zm12 0h12v1h-12zm12 0h1v1h-1zm9 0h2v3h-2zm10 0h1v1h-1zm-54 1h1v27h-1zm4 0h3v1h-3zm3 0h1v38h-1zm7 0h1v5h-1zm9 0h11v1h-11zm11 0h1v1h-1zm12 0h1v1h-1zm4 0h3v2h-3zm3 0h1v1h-1z"/><path d="M176 95h119v26H176zm-56 1h1v23h-1zm7 0h1v37h-1zm4 0h2v1h-2zm12 0h10v1h-10zm10 0h1v1h-1zm9 0h2v3h-2zm6 0h3v12h-3z"/><path d="M175 96h120v22H175zm-54 1h1v20h-1zm3 0h3v1h-3zm10 0h1v5h-1zm9 0h9v1h-9zm9 0h1v1h-1zm9 0h3v2h-3zm3 0h1v1h-1zm7 0h1v1h-1zm-49 1h1v16h-1zm6 0h1v34h-1zm4 0h2v1h-2zm12 0h8v1h-8zm8 0h1v1h-1zm15 0h3v34h-3z"/><path d="M174 98h121v18H174zm-45 1h1v32h-1zm6 0h1v4h-1zm9 0h7v1h-7zm7 0h1v1h-1zm9 0h3v1h-3zm3 0h1v1h-1zm3 0h4v32h-4z"/><path d="M173 99h122v14H173zm-50 1h6v8h-6zm10 0h2v1h-2zm12 0h6v1h-6zm6 0h1v1h-1zm9 0h2v2h-2zm2 0h1v1h-1z"/><path d="M171 100h124v9H171zm-41 1h1v29h-1zm6 0h1v22h-1zm9 0h5v1h-5zm5 0h1v1h-1zm9 0h2v3h-2z"/><path d="M165 101h130v7H165zm-34 1h1v27h-1zm3 0h3v1h-3zm3 0h1v20h-1zm9 0h4v1h-4zm4 0h1v1h-1zm8 0h3v2h-3zm3 0h1v1h-1z"/><path d="M164 102h131v6H164zm-32 1h1v25h-1zm3 0h2v1h-2zm11 0h3v1h-3zm3 0h1v1h-1z"/><path d="M163 103h132v5H163zm-25 1h1v17h-1zm9 0h1v1h-1zm1 0h1v1h-1zm9 0h3v16h-3zm3 0h1v1h-1zm-27 1h1v22h-1zm14 0h1v1h-1zm1 0h1v1h-1z"/><path d="M162 105h133v3H162zm-28 1h5v15h-5zm5 0h1v13h-1zm17 0h3v13h-3z"/><path d="M161 106h134v2H161zm-21 1h1v11h-1z"/><path d="M155 107h140v1H155zm-32 1h18v1h-18zm18 0h1v9h-1zm14 0h140v1H155zm-32 1h1v2h-1zm1 0h17v1h-17zm30 0h15v7h-15zm17 0h124v1H171zm-29 1h1v5h-1zm30 0h123v1H172zm-49 1h1v1h-1z"/><path d="M153 111h16v4h-16zm19 0h123v1H172zm-29 1h1v2h-1z"/><path d="M152 112h18v1h-18zm18 0h1v22h-1zm-45 1h18v2h-18zm27 0h18v1h-18zm21 0h122v1H173zm-51 1h1v1h-1zm21 0h1v1h-1zm-18 1h17v2h-17zm17 0h1v1h-1zm11 0h17v1h-17zm1 1h16v1h-16zm20 0h121v1H174zm-53 1h1v1h-1zm4 0h16v1h-16zm16 0h1v1h-1z"/><path d="M155 117h16v1h-16zm16 0h1v17h-1zm-47 1h16v1h-16zm16 0h1v1h-1zm15 0h16v1h-16zm20 0h120v1H175zm-55 1h1v1h-1zm4 0h15v2h-15zm15 0h1v1h-1zm8 0h1v32h-1zm1 0h1v32h-1zm8 0h15v1h-15z"/><path d="M146 120h3v31h-3zm3 0h1v31h-1zm8 0h14v1h-14zm-33 1h14v1h-14zm14 0h1v1h-1zm12 0h1v30h-1zm8 0h13v1h-13zm18 0h119v1H176zm-57 1h1v1h-1zm5 0h13v1h-13zm13 0h1v1h-1z"/><path d="M145 122h5v29h-5zm13 0h14v1h-14zm14 0h1v12h-1zm-49 1h13v2h-13zm13 0h1v1h-1z"/><path d="M144 123h7v28h-7zm7 0h1v28h-1zm8 0h13v1h-13z"/><path d="M143 124h9v27h-9zm9 0h1v27h-1zm8 0h12v1h-12zm-37 1h12v1h-12zm12 0h1v1h-1z"/><path d="M142 125h11v26h-11zm11 0h1v26h-1zm8 0h11v1h-11zm-38 1h11v1h-11zm11 0h1v1h-1zm20 0h1v25h-1zm7 0h11v1h-11zm16 0h118v1H177zm-54 1h10v1h-10zm10 0h1v1h-1z"/><path d="M141 127h13v24h-13zm21 0h11v1h-11zm11 0h1v6h-1zm-55 1h1v1h-1zm5 0h9v1h-9zm9 0h1v1h-1z"/><path d="M140 128h15v23h-15zm15 0h1v23h-1zm8 0h10v1h-10zm-41 1h9v1h-9zm9 0h1v1h-1z"/><path d="M139 129h17v22h-17zm17 0h1v22h-1zm8 0h9v1h-9zm-42 1h8v1h-8zm8 0h1v1h-1z"/><path d="M138 130h19v21h-19zm19 0h1v21h-1zm8 0h8v1h-8zm-43 1h7v1h-7zm7 0h1v1h-1z"/><path d="M137 131h21v20h-21zm21 0h1v20h-1zm8 0h7v1h-7zm-44 1h6v1h-6zm6 0h1v1h-1z"/><path d="M136 132h23v19h-23zm23 0h1v19h-1zm8 0h6v1h-6zm-44 1h4v1h-4zm4 0h1v1h-1z"/><path d="M135 133h25v18h-25zm25 0h1v18h-1zm9 0h4v1h-4zm4 0h1v1h-1zm-55 1h1v17h-1zm5 0h2v1h-2zm2 0h1v1h-1z"/><path d="M134 134h28v17h-28zm28 0h1v17h-1zm8 0h2v1h-2zm2 0h1v1h-1z"/><path d="M132 135h31v16h-31zm31 0h1v16h-1z"/><path d="M131 136h33v15h-33zm33 0h1v33h-1zm13 0h118v15H177z"/><path d="M129 137h37v14h-37zm37 0h1v32h-1zm-47 1h1v13h-1z"/><path d="M128 138h40v13h-40zm40 0h1v31h-1zm8 0h119v13H176zm-56 1h1v12h-1zm1 0h1v12h-1z"/><path d="M125 139h45v12h-45zm45 0h1v12h-1zm4 0h121v12H174z"/><path d="M122 140h173v11H122zm-77 11h250v1H45zm26 1h2v17h-2zm2 0h1v17h-1zm60 0h4v17h-4zm4 0h1v17h-1zm28 0h3v17h-3zm30 0h1v17h-1zm1 0h1v17h-1zm10 0h13v11h-13zm13 0h1v11h-1zm9 0h16v1h-16zm16 0h1v1h-1zm-15 1h15v1h-15zm15 0h1v1h-1zm-199 1h1v15h-1zm29 0h1v15h-1zm1 0h1v15h-1zm31 0h1v15h-1zm32 0h1v15h-1zm31 0h1v15h-1zm28 0h1v15h-1zm1 0h1v15h-1zm22 0h1v9h-1zm1 0h1v9h-1zm9 0h13v1h-13zm13 0h1v1h-1zm-197 1h1v14h-1zm1 0h1v14h-1zm29 0h1v14h-1zm31 0h1v14h-1zm1 0h1v14h-1zm31 0h1v14h-1zm31 0h1v14h-1zm29 0h1v14h-1zm23 0h1v8h-1zm8 0h12v1h-12zm12 0h1v1h-1zm8 0h45v14h-45zm-27 1h1v13h-1zm8 0h10v1h-10zm10 0h1v1h-1z"/><path d="M249 156h46v13h-46zm-195 1h22v2H54zm29 0h12v3H83zm12 0h1v3h-1zm20 0h24v2h-24zm32 0h23v2h-23zm30 0h22v2h-22zm47 0h1v12h-1zm8 0h9v1h-9zm9 0h1v1h-1z"/><path d="M248 157h47v12h-47zm-23 1h1v11h-1zm8 0h7v1h-7zm7 0h1v1h-1zm-186 1h22v1H54zm61 0h24v1h-24zm32 0h23v1h-23zm30 0h22v1h-22zm56 0h6v1h-6zm6 0h1v1h-1z"/><path d="M247 159h48v10h-48zm-181 1h10v9H66zm17 0h12v1H83zm12 0h1v1h-1zm32 0h12v5h-12zm32 0h11v5h-11zm30 0h10v1h-10zm37 0h1v9h-1z"/><path d="M246 160h49v9h-49zm-163 1h1v8h-1zm1 0h1v8h-1zm106 0h9v8h-9zm37 0h1v8h-1zm1 1h1v7h-1z"/><path d="M245 162h50v7h-50zm-160 1h1v6h-1zm1 0h1v6h-1zm29 0h24v2h-24zm31 0h24v1h-24zm60 0h22v1h-22z"/><path d="M244 163h51v6h-51zm-190 1h1v5h-1zm11 0h11v5H65zm22 0h1v5h-1zm60 0h23v1h-23zm30 0h1v5h-1zm12 0h10v5h-10zm17 0h10v1h-10zm10 0h1v1h-1zm13 0h1v5h-1z"/><path d="M55 165h21v4H55zm33 0h1v4h-1zm9 0h11v1H97zm18 0h24v1h-24zm32 0h23v1h-23zm31 0h21v4h-21zm28 0h10v1h-10zm10 0h1v1h-1zm14 0h2v4h-2zm2 0h1v4h-1zm8 0h55v4h-55zm-151 1h1v3h-1zm10 0h9v1h-9zm-9 1h1v2h-1zm1 0h1v2h-1zm9 0h8v1h-8zm-8 1h1v1h-1zm9 0h7v1h-7zM0 169h47v1H0zm47 0h1v1h-1zm7 0h22v1H54zm22 0h1v1h-1zm7 0h10v1H83zm10 0h1v1h-1zm10 0h5v1h-5zm5 0h1v1h-1zm25 0h6v1h-6zm6 0h1v1h-1zm25 0h6v1h-6zm6 0h1v1h-1zm7 0h22v1h-22zm22 0h1v1h-1zm24 0h9v1h-9zm9 0h1v1h-1zm8 0h55v1h-55zm55 0h1v1h-1z"/></g><g fill="#f3f3f3"><path d="M176 0h1v1h-1zm3 5h1v1h-1zm-4 1h1v1h-1zm-55 3h1v1h-1zm0 1h1v1h-1zm61 1h1v1h-1zm112 1h1v1h-1zm-187 1h1v1h-1zM6 15h1v1H6zm271 0h1v1h-1zM21 16h1v1h-1zm3 1h1v1h-1zm96 2h1v1h-1zm159 1h1v1h-1zM21 22h1v1h-1zm24 1h1v1h-1zm130 0h1v1h-1zm96 0h1v1h-1zm-83 1h1v2h-1zm-81 2h1v3h-1zm81 0h1v1h-1zM37 27h1v1h-1zm192 0h1v1h-1zm29 0h1v1h-1zm-151 2h1v1h-1zm81 0h1v1h-1zM20 30h1v1h-1zm168 0h1v1h-1zM21 31h1v1h-1zm190 0h1v1h-1zm57 0h1v1h-1zm-3 1h1v1h-1zm-83 4h1v1h-1zM35 38h1v1h-1zm66 0h1v1h-1zm-43 1h1v1h-1zm35 1h1v1h-1zm21 1h1v1h-1zm-61 2h1v1h-1zm28 0h1v1h-1zm119 0h1v1h-1zm7 1h1v1h-1zm27 1h1v1h-1zM85 46h1v1h-1zm140 1h1v1h-1zm-54 1h1v1h-1zm33 0h1v1h-1zm-20 3h1v1h-1zm-83 2h1v1h-1zm99 1h1v1h-1zm-97 3h1v1h-1zm-9 1h1v1h-1zm87 2h1v1h-1zm-81 2h1v1h-1zm89 1h1v1h-1zm2 6h1v1h-1zm-10 4h1v1h-1zm-2 4h1v1h-1zm-43 6h1v1h-1zm-7 4h1v1h-1zm-16 2h1v1h-1zm69 1h1v1h-1zm-65 1h1v1h-1zm4 1h1v1h-1zm20 2h1v1h-1zm21 1h1v1h-1zm10 1h1v1h-1zm-37 2h1v1h-1zm36 1h1v1h-1zm-1 10h1v1h-1zm1 7h1v1h-1zm1 4h1v1h-1zm-21 2h1v1h-1zm-10 4h1v1h-1zm-19 2h1v1h-1zm35 1h1v1h-1zm2 2h1v1h-1zm9 2h1v1h-1zm-48 5h1v1h-1zm77 15h1v1h-1zm-8 8h1v2h-1zm56 0h1v1h-1zm-56 2h1v1h-1zm40 0h1v1h-1zm1 1h1v1h-1zm3 2h1v2h-1zm0 2h1v1h-1z"/></g><g fill="#1c1c1c"><path d="M116 8h1v1h-1zm-1 4h1v1h-1zm167 2h1v1h-1zm-101 3h1v1h-1zM30 20h1v1h-1zm89 0h1v1h-1zm-18 4h1v1h-1zm75 0h1v1h-1zm13 2h1v1h-1zM59 27h1v1h-1zm177 0h1v1h-1zm-6 1h1v1h-1zm-41 1h1v1h-1zm57 0h1v1h-1zm27 1h1v1h-1zm-159 1h1v1h-1zm80 0h1v1h-1zM33 34h1v1h-1zm74 4h1v1h-1zm140 0h1v1h-1zM92 40h1v1h-1zm146 3h1v1h-1zm-133 6h1v1h-1zm103 1h1v1h-1zm-30 2h1v1h-1zm21 2h1v1h-1zm-2 3h1v1h-1zM93 58h1v1h-1zm2 3h1v1h-1zm9 0h1v1h-1zm16 1h1v1h-1zm7 0h1v1h-1zm67 0h1v1h-1zm-26 1h1v1h-1zm13 0h1v1h-1zm19 4h1v1h-1zm-18 2h1v1h-1zm-59 2h1v1h-1zm7 0h1v1h-1zm63 1h1v1h-1zm-82 7h1v1h-1zm10 0h1v1h-1zm48 0h1v1h-1zm13 0h1v1h-1zm-70 2h1v1h-1zm56 0h1v1h-1zm13 0h1v1h-1zm-75 1h1v1h-1zm9 4h1v1h-1zm58 0h1v1h-1zm6 2h1v1h-1zm-10 2h1v1h-1zm1 1h1v1h-1zm-31 1h1v1h-1zm-19 2h1v1h-1zm48 0h1v1h-1zm-26 4h1v1h-1zm1 2h1v1h-1zm-4 3h1v1h-1zm5 18h1v1h-1zm31 16h1v1h-1zm53 17h1v1h-1zm-114 6h10v1h-10zm10 0h1v1h-1zm22 0h10v1h-10zm10 0h1v1h-1zm-67 4h1v1h-1zm6 0h1v1h-1z"/></g><g fill="#111"><path d="M119 8h1v1h-1zm165 5h1v1h-1zM27 23h1v1h-1zm224 1h1v1h-1zM49 25h1v1h-1zm140 0h1v1h-1zM78 30h1v1h-1zm36 0h1v1h-1zm103 0h1v1h-1zM60 31h1v1h-1zm175 0h1v1h-1zm-54 3h1v1h-1zM38 38h1v1h-1zm10 0h1v1h-1zm38 2h1v1h-1zm146 1h1v1h-1zM77 43h1v1h-1zm110 0h1v1h-1zm5 0h1v1h-1zm26 0h1v1h-1zm-109 4h1v1h-1zm-14 5h1v1h-1zm115 2h1v1h-1zm-85 1h1v1h-1zm59 0h1v1h-1zm-14 1h1v1h-1zm23 1h1v1h-1zm-67 2h1v1h-1zm43 1h1v1h-1zm5 6h1v1h-1zm-67 1h1v1h-1zm84 0h1v1h-1zm-12 1h1v1h-1zm-13 1h1v1h-1zm-59 3h1v1h-1zm3 1h1v1h-1zm77 1h1v1h-1zm5 0h1v1h-1zm-16 1h1v1h-1zm8 0h1v1h-1zm-79 2h1v1h-1zm80 9h1v1h-1zm-75 1h1v1h-1zm68 0h1v1h-1zm-20 1h1v1h-1zm19 3h1v1h-1zm-37 3h1v1h-1zm18 6h1v1h-1zm-34 13h1v1h-1zm31 7h1v1h-1zm20 3h1v1h-1zm-55 1h1v1h-1zm1 6h1v1h-1zm14 1h1v1h-1zm-5 1h1v1h-1zm0 3h1v1h-1zm-84 18h1v1h-1zm200 5h1v1h-1zm-121 2h1v1h-1zm-27 7h1v2h-1zm-48 2h1v1h-1zm1 0h1v1h-1zm28 0h1v1h-1zm1 0h1v1h-1zm17 0h2v1h-2zm2 0h1v1h-1zm12 0h19v1h-19zm19 0h1v1h-1zm12 0h21v1h-21zm21 0h1v1h-1zm11 0h1v1h-1zm1 0h1v1h-1zm27 0h18v1h-18zm18 0h1v1h-1zm16 0h1v1h-1zm1 0h1v1h-1z"/></g><g fill="#646464"><path d="M176 8h1v1h-1zm-61 3h1v1h-1zM14 14h1v1h-1zm177 1h1v1h-1zM19 16h1v1h-1zm173 0h1v1h-1zm-4 2h1v1h-1zm-12 3h1v1h-1zm85 0h1v1h-1zm8 2h1v1h-1zM29 24h1v1h-1zm17 0h1v1h-1zm203 0h1v1h-1zM67 28h1v1h-1zm180 1h1v1h-1zM53 30h1v1h-1zm27 0h1v1h-1zm190 3h1v1h-1zM27 34h1v1h-1zm167 0h1v1h-1zm26 0h1v1h-1zm-46 3h1v1h-1zm77 3h1v1h-1zm-21 1h1v1h-1zM72 42h1v1h-1zm108 2h1v1h-1zm-57 2h1v1h-1zm-13 4h1v1h-1zm86 1h1v1h-1zm2 5h1v1h-1zm10 1h1v1h-1zm-100 1h1v1h-1zm19 3h1v1h-1zm68 0h1v1h-1zm-99 1h1v1h-1zm85 0h1v1h-1zm4 1h1v1h-1zm-18 2h1v1h-1zm-73 1h1v1h-1zm22 1h1v1h-1zm14 3h1v1h-1zm33 6h1v1h-1zm-53 2h1v1h-1zm8 1h1v1h-1zm8 0h1v1h-1zm-19 1h1v1h-1zm27 0h1v1h-1zm-15 1h1v1h-1zm-4 1h1v1h-1zm8 1h1v1h-1zm46 10h1v1h-1zm-3 2h1v1h-1zm-43 3h1v1h-1zm28 23h1v1h-1zm-29 2h1v1h-1zm52 9h1v1h-1zm-12 1h1v1h-1zm11 2h1v1h-1zm-35 18h1v1h-1zm67 1h1v10h-1zm-123 2h1v1h-1zm44 5h1v1h-1zm79 3h1v1h-1z"/></g><g fill="#989898"><path d="M120 0h1v1h-1zm55 0h1v1h-1zm-59 7h1v1h-1zM4 13h1v1H4zm177 0h1v1h-1zm102 0h1v1h-1zm-93 1h1v1h-1zm77 5h1v1h-1zM47 24h1v1h-1zm135 4h1v1h-1zM75 29h1v1h-1zm100 0h1v1h-1zm45 0h1v1h-1zm52 1h1v1h-1zM68 33h1v1h-1zm159 0h1v1h-1zM35 34h1v1h-1zm72 0h1v1h-1zm-29 1h1v1h-1zm23 0h1v1h-1zm-59 1h1v1h-1zm132 0h1v1h-1zm75 1h1v1h-1zM40 39h1v1h-1zm200 0h1v1h-1zm-32 3h1v1h-1zM88 43h1v1h-1zm-29 1h1v1h-1zm44 0h1v1h-1zm20 1h1v1h-1zm-32 2h1v1h-1zm6 0h1v1h-1zm125 0h1v1h-1zM79 49h1v1h-1zm31 0h1v1h-1zm74 4h1v1h-1zm-77 3h1v1h-1zm5 0h1v1h-1zm14 1h1v1h-1zm56 2h1v1h-1zm9 1h1v1h-1zM90 61h1v1h-1zm99 3h1v1h-1zm-93 5h1v1h-1zm82 0h1v1h-1zm8 1h1v1h-1zm-14 3h1v1h-1zm12 1h1v1h-1zm3 1h1v1h-1zm-83 5h1v1h-1zm70 5h1v1h-1zm-12 9h1v1h-1zm-21 1h1v1h-1zm-20 1h1v1h-1zm21 1h1v1h-1zm-11 1h1v1h-1zm18 7h1v1h-1zm4 4h1v1h-1zm-12 9h1v1h-1zm-18 1h1v1h-1zm23 0h1v1h-1zm8 6h1v1h-1zm9 4h1v1h-1zm2 2h1v1h-1zm-34 4h1v1h-1zm-10 3h1v1h-1zm123 16h1v1h-1zm-113 2h1v1h-1zm15 0h1v1h-1zm47 0h1v1h-1zm-140 2h1v1h-1zm0 1h1v1h-1zm33 2h1v1h-1zm-21 2h1v1h-1zm-12 1h1v4h-1zm61 2h1v1h-1zm-61 2h1v1h-1z"/></g><g fill="#8c8c8c"><path d="M120 3h1v1h-1zm174 5h1v1h-1zm-2 1h1v1h-1zm-116 3h1v5h-1zM12 13h1v1h-1zm96 1h1v1h-1zm0 1h1v1h-1zm68 2h1v1h-1zm94 1h1v1h-1zM15 19h1v1h-1zm13 0h1v1h-1zm79 1h1v1h-1zm75 3h1v4h-1zM39 27h1v1h-1zm143 0h1v1h-1zM43 28h1v1h-1zm184 0h1v1h-1zM23 30h1v1h-1zm189 1h1v1h-1zm60 1h1v1h-1zm-84 3h1v1h-1zm29 0h1v1h-1zm40 0h1v1h-1zM46 37h1v1h-1zm68 0h1v1h-1zm98 1h1v1h-1zm33 0h1v1h-1zM55 39h1v1h-1zm126 0h1v1h-1zm74 0h1v1h-1zM47 41h1v1h-1zm140 0h1v1h-1zm15 0h1v1h-1zM51 42h1v1h-1zm22 0h1v1h-1zm100 0h1v1h-1zm49 0h1v1h-1zm-22 2h1v1h-1zm36 0h1v1h-1zm-56 1h1v1h-1zm-1 5h1v1h-1zm23 0h1v1h-1zm-2 3h1v1h-1zm-98 3h1v1h-1zm101 0h1v1h-1zm-85 1h1v1h-1zm-15 1h1v1h-1zm66 0h1v1h-1zm8 0h1v1h-1zm13 4h1v1h-1zm-75 2h1v1h-1zm82 1h1v1h-1zm-9 1h1v1h-1zm-1 2h1v1h-1zm4 0h1v1h-1zm-6 4h1v1h-1zm-82 1h1v1h-1zm73 1h1v1h-1zm-56 2h1v1h-1zm63 0h1v1h-1zm11 0h1v1h-1zm-88 2h1v1h-1zm76 0h1v1h-1zm-71 2h1v1h-1zm58 0h1v1h-1zm12 0h1v1h-1zm-46 2h1v1h-1zm44 2h1v1h-1zm6 1h1v1h-1zm-15 2h1v1h-1zm10 0h1v1h-1zm-40 6h1v1h-1zm-18 2h1v1h-1zm50 2h1v1h-1zm-29 2h1v1h-1zm-11 1h1v1h-1zm31 2h1v1h-1zm-22 5h1v1h-1zm-19 9h1v1h-1zm0 8h1v1h-1zm20 0h1v1h-1zm-7 2h1v1h-1zm27 2h1v1h-1zm-34 5h1v1h-1zm-63 28h1v1h-1zm0 1h1v1h-1zm22 1h1v1h-1zm135 1h1v1h-1z"/></g><g fill="#777"><path d="M118 3h1v1h-1zm58 6h1v1h-1zm-72 6h1v1h-1zm184 0h1v1h-1zM22 17h1v1h-1zm154 2h1v1h-1zm88 1h1v1h-1zM20 21h1v1h-1zm18 1h1v1h-1zm215 1h1v1h-1zM32 25h1v1h-1zm207 1h1v1h-1zm-18 3h1v1h-1zm-46 1h1v1h-1zM69 33h1v1h-1zm157 0h1v1h-1zm-125 1h1v1h-1zm6 1h1v1h-1zm14 0h1v1h-1zm-7 1h1v1h-1zm121 4h1v1h-1zM93 41h1v1h-1zm29 0h1v1h-1zm70 3h1v1h-1zm39 1h1v1h-1zM69 46h1v1h-1zm157 0h1v1h-1zM77 48h1v1h-1zm28 2h1v1h-1zm80 0h1v1h-1zm-79 3h1v1h-1zm5 0h1v1h-1zm14 1h1v1h-1zm53 0h1v1h-1zm10 2h1v1h-1zm-90 9h1v1h-1zm9 1h1v1h-1zm72 1h1v1h-1zm15 3h1v1h-1zm-84 2h1v1h-1zm13 0h1v1h-1zm-12 2h1v1h-1zm8 0h1v1h-1zm-7 2h1v1h-1zm1 2h1v1h-1zm71 2h1v1h-1zm-68 4h1v1h-1zm51 0h1v1h-1zm4 1h1v1h-1zm7 1h1v1h-1zm-53 1h1v1h-1zm13 2h1v1h-1zm26 1h1v1h-1zm3 3h1v1h-1zm-33 2h1v1h-1zm-6 1h1v1h-1zm-7 23h1v1h-1zm18 2h1v1h-1zm36 0h1v1h-1zm-55 1h1v1h-1zm41 5h1v1h-1zm-36 11h1v1h-1zm49 0h1v1h-1zm-78 20h1v1h-1zm130 0h1v1h-1zm-130 1h1v1h-1zm136 0h1v1h-1zm-141 7h1v1h-1zm115 0h10v1h-10zm10 0h1v1h-1zm6 3h1v1h-1z"/></g><g fill="#f8f8f8"><path d="M175 7h1v1h-1zM9 11h1v1H9zm111 2h1v3h-1zm159 1h1v1h-1zm-87 1h1v1h-1zm-72 1h1v1h-1zm-12 2h1v1h-1zm-90 3h1v1h-1zm82 1h1v1h-1zm75 0h1v1h-1zM24 23h1v1h-1zm226 0h1v1h-1zm-5 1h1v1h-1zm-145 8h1v1h-1zm74 0h1v1h-1zM70 34h1v1h-1zm155 0h1v1h-1zm33 0h1v1h-1zm-39 1h1v1h-1zM32 37h1v1h-1zm17 0h1v1h-1zm197 0h1v1h-1zm-73 2h1v1h-1zm21 0h1v1h-1zm20 4h1v1h-1zm25 1h1v1h-1zM97 46h1v1h-1zm132 0h1v1h-1zm-119 1h1v1h-1zm-32 2h1v1h-1zm124 2h1v1h-1zm4 0h1v1h-1zm-89 5h1v1h-1zm61 1h1v1h-1zm10 1h1v1h-1zm-1 2h1v1h-1zm-21 6h1v1h-1zm-62 3h1v1h-1zm73 1h1v1h-1zm22 0h1v1h-1zm-86 1h1v1h-1zm1 2h1v1h-1zm60 4h1v1h-1zm20 0h1v1h-1zm-92 1h1v1h-1zm68 1h1v1h-1zm8 0h1v1h-1zm-41 6h1v1h-1zm-7 4h1v1h-1zm41 2h1v1h-1zm-41 4h1v1h-1zm3 9h1v1h-1zm6 16h1v1h-1zm6 1h1v1h-1zm-22 1h1v1h-1zm50 4h1v1h-1zm-55 3h1v1h-1zm4 4h1v1h-1zm55 2h1v1h-1zm68 17h1v1h-1zM90 166h1v1h-1z"/></g><g fill="#c4c4c4"><path d="M0 9h1v1H0zm8 2h1v1H8zm7 3h1v1h-1zm275 0h1v1h-1zm-15 2h1v1h-1zm-82 1h1v1h-1zm92 0h1v1h-1zM32 20h1v1h-1zm231 0h1v1h-1zm-75 1h1v1h-1zm-81 1h1v1h-1zm-76 3h1v1h-1zm233 0h1v1h-1zM58 26h1v1h-1zm179 0h1v1h-1zM70 28h1v1h-1zm183 0h1v1h-1zM20 29h1v1h-1zm57 0h1v1h-1zm172 0h1v1h-1zm-35 1h1v1h-1zm-93 3h1v1h-1zm148 1h1v1h-1zM39 35h1v1h-1zm135 0h1v1h-1zm82 0h1v1h-1zM43 36h1v1h-1zm-7 2h1v1h-1zm223 0h1v1h-1zM92 39h1v1h-1zm164 0h1v1h-1zM68 41h1v1h-1zm18 0h1v1h-1zm16 0h1v1h-1zm147 0h1v1h-1zM54 43h1v1h-1zm26 0h1v1h-1zm135 0h1v1h-1zm-106 1h1v1h-1zm104 0h1v1h-1zM96 45h1v1h-1zm123 3h1v1h-1zm-11 1h1v1h-1zM99 50h1v1h-1zm17 0h1v1h-1zm63 1h1v1h-1zm-68 1h1v1h-1zm-5 2h1v1h-1zm-13 3h1v1h-1zm25 1h1v1h-1zm-10 1h1v1h-1zm92 1h1v1h-1zM99 66h1v1h-1zm30 0h1v1h-1zm-17 2h1v1h-1zm-7 2h1v1h-1zm68 1h1v1h-1zm4 0h1v1h-1zm18 4h1v1h-1zm-5 1h1v1h-1zm-81 1h1v1h-1zm8 1h1v1h-1zm17 1h1v1h-1zm43 1h1v1h-1zm-50 2h1v1h-1zm33 0h1v1h-1zm-54 1h1v1h-1zm31 3h1v1h-1zm-15 1h1v1h-1zm-3 2h1v1h-1zm60 0h1v1h-1zm-23 2h1v1h-1zm-38 1h1v1h-1zm14 0h1v1h-1zm38 0h1v1h-1zm-50 3h1v1h-1zm7 0h1v1h-1zm27 0h1v1h-1zm-30 3h1v1h-1zm5 0h1v1h-1zm28 5h1v1h-1zm-10 3h1v1h-1zm-24 7h1v1h-1zm0 7h1v1h-1zm-3 1h1v1h-1zm33 3h1v1h-1zm-31 2h1v1h-1zm11 2h1v1h-1zm4 2h1v1h-1zm-7 1h1v1h-1zm-8 3h1v1h-1zm55 0h1v1h-1zm-13 1h1v1h-1zm8 0h1v1h-1zm-46 3h1v1h-1zm96 16h1v1h-1zm27 1h1v1h-1zm-5 7h1v1h-1zm-27 2h1v1h-1zm-118 3h1v1h-1zm33 0h1v1h-1z"/></g><g fill="#4a4a4a"><path d="M120 1h1v1h-1zM0 8h1v1H0zm9 4h1v1H9zm110 0h1v1h-1zM16 15h1v1h-1zm85 7h1v1h-1zm-43 9h1v1h-1zm215 0h1v1h-1zm-172 1h1v1h-1zm93 1h1v1h-1zM32 36h1v1h-1zm174 0h1v1h-1zM54 39h1v1h-1zm182 1h1v1h-1zm-49 2h1v1h-1zm38 4h1v1h-1zM94 51h1v1h-1zm84 2h1v1h-1zm4 7h1v1h-1zm-68 2h1v1h-1zm-9 7h1v1h-1zm-8 1h1v1h-1zm68 1h1v1h-1zm12 1h1v1h-1zm-2 5h1v1h-1zm10 1h1v1h-1zm-8 1h1v1h-1zm-64 4h1v1h-1zm-4 3h1v1h-1zm74 3h1v1h-1zm-7 4h1v1h-1zm-24 17h1v1h-1zm-28 2h1v1h-1zm-1 2h1v1h-1zm21 0h1v1h-1zm-2 3h1v1h-1zm-2 3h1v1h-1zm33 1h1v1h-1zm-13 10h1v1h-1zm1 1h1v1h-1zm-39 6h1v1h-1zm128 15h1v1h-1zm-27 1h1v1h-1zm-127 2h1v1h-1zm0 5h1v1h-1zm122 3h1v1h-1zm-121 2h1v1h-1z"/></g><g fill="#ccc"><path d="M177 2h1v1h-1zm-57 3h1v1h-1zM5 14h1v1H5zm103 2h1v1h-1zm175 2h1v1h-1zM29 19h1v1h-1zm153 0h1v1h-1zm94 2h1v1h-1zm-163 4h1v1h-1zm82 0h1v3h-1zm-82 1h1v1h-1zm144 1h1v1h-1zM42 28h1v1h-1zm153 0h1v1h-1zm30 0h1v1h-1zM46 29h1v1h-1zm172 0h1v1h-1zm-111 3h1v1h-1zm75 0h1v1h-1zm6 1h1v1h-1zm34 1h1v1h-1zm-121 2h1v1h-1zm151 0h1v1h-1zM47 37h1v1h-1zm-8 2h1v1h-1zm69 0h1v1h-1zm-46 1h1v1h-1zm23 0h1v1h-1zm-39 1h1v1h-1zm181 0h1v1h-1zm-26 1h1v1h-1zM58 44h1v1h-1zm65 0h1v1h-1zm114 0h1v1h-1zm-134 1h1v1h-1zm125 1h1v1h-1zm-5 1h1v1h-1zM76 48h1v1h-1zm139 2h1v1h-1zm-20 2h1v1h-1zm6 0h1v1h-1zm10 2h1v1h-1zM85 55h1v1h-1zm111 5h1v1h-1zm-15 1h1v1h-1zm4 3h1v1h-1zm8 1h1v1h-1zm-14 1h1v1h-1zm-84 2h1v1h-1zm98 3h1v1h-1zm5 0h1v1h-1zm-27 5h1v1h-1zm-68 3h1v1h-1zm23 1h1v1h-1zm-3 2h1v1h-1zm-10 2h1v1h-1zm5 3h1v1h-1zm65 1h2v1h-2zm2 0h1v1h-1zm-1 1h1v1h-1zm-9 2h1v1h-1zm-47 1h1v1h-1zm27 1h1v1h-1zm-26 1h1v1h-1zm36 2h1v1h-1zm-5 2h1v1h-1zm-8 1h1v1h-1zm9 4h1v1h-1zm-19 6h1v1h-1zm7 10h1v1h-1zm-5 3h1v1h-1zm-12 7h1v1h-1zm6 0h1v1h-1zm-12 5h1v1h-1zm6 19h1v2h-1zm67 1h1v1h-1zm-67 1h1v1h-1zm68 0h1v1h-1zm-145 5h9v1h-9zm9 0h1v1h-1zm114 0h9v1h-9zm9 0h1v1h-1zm-94 8h1v1h-1zm39 0h1v1h-1z"/></g><g fill="#343434"><path d="M177 3h1v1h-1zm-1 3h1v1h-1zm-57 4h1v1h-1zm62 6h1v1h-1zm13 6h1v1h-1zm46 4h1v1h-1zM60 27h1v1h-1zm175 0h1v1h-1zM54 30h1v1h-1zm47 1h1v1h-1zm112 0h1v1h-1zM64 32h1v1h-1zm130 0h1v1h-1zM71 33h1v1h-1zm17 2h1v1h-1zm-47 1h1v1h-1zm219 1h1v1h-1zm-72 1h1v1h-1zm15 2h1v1h-1zm44 1h1v1h-1zM71 42h1v1h-1zm172 0h1v1h-1zM65 45h1v1h-1zm10 2h1v1h-1zm111 0h1v1h-1zm17 1h1v1h-1zM81 50h1v1h-1zm120 1h1v1h-1zM84 53h1v1h-1zm23 2h1v1h-1zm-9 2h1v1h-1zm102 4h1v1h-1zm-99 1h1v1h-1zm-4 2h1v1h-1zm2 3h1v1h-1zm84 0h1v1h-1zm7 2h1v1h-1zm8 1h1v1h-1zm-9 1h1v1h-1zm-17 1h1v1h-1zm-52 5h1v1h-1zm50 0h1v1h-1zm20 0h1v1h-1zm-78 12h1v1h-1zm15 5h1v1h-1zm34 1h1v1h-1zm-31 2h1v1h-1zm43 0h1v1h-1zm-22 5h1v1h-1zm6 0h1v1h-1zm16 14h1v1h-1zm1 3h1v1h-1zm-15 6h1v1h-1zm-19 1h1v1h-1zm18 3h1v1h-1zm1 1h1v1h-1zm6 5h1v1h-1zm-38 2h1v1h-1zm-57 16h1v1h-1zm87 9h1v1h-1zm-63 6h1v1h-1zm78 1h1v1h-1zm62 0h1v1h-1z"/></g><g fill="#a3a3a3"><path d="M180 9h1v1h-1zm-75 5h1v1h-1zm173 1h1v1h-1zm-18 6h1v1h-1zM35 26h1v1h-1zm22 0h1v1h-1zm63 0h1v1h-1zm-51 2h1v1h-1zm-22 1h1v1h-1zm135 0h1v1h-1zm78 5h1v1h-1zM91 38h1v1h-1zm17 2h1v1h-1zM93 50h1v1h-1zm8 4h1v1h-1zm108 2h1v1h-1zM104 68h1v1h-1zm78 2h1v1h-1zm-51 2h1v1h-1zm50 0h1v1h-1zm11 1h1v1h-1zm-17 3h1v1h-1zm4 0h1v1h-1zm10 2h1v1h-1zm-6 4h1v1h-1zm-25 5h1v1h-1zm-37 6h1v1h-1zm52 2h1v1h-1zm-10 5h1v1h-1zm-38 11h1v1h-1zm26 1h1v1h-1zm21 6h1v1h-1zm-29 5h1v1h-1zm30 0h1v1h-1zM54 156h1v1h-1zm29 0h1v1h-1zm94 0h1v1h-1zm53 0h1v1h-1zm-148 1h1v1h-1zm164 2h1v1h-1zm-12 1h1v1h-1zm-147 1h4v1h-4zm4 0h1v1h-1zm4 0h1v1h-1zm-18 8h1v1h-1z"/></g><g fill="#e8e8e8"><path d="M121 0h1v1h-1zm54 4h1v1h-1zm118 4h1v1h-1zm-2 1h1v1h-1zm-109 7h1v1h-1zm80 4h1v1h-1zm-67 2h1v1h-1zm60 0h1v1h-1zm19 0h1v1h-1zM27 24h1v1h-1zm22 0h1v1h-1zm197 0h1v1h-1zm22 0h1v1h-1zM30 25h1v1h-1zm235 0h1v1h-1zM50 30h1v1h-1zm32 0h1v1h-1zm25 0h1v1h-1zm106 0h1v1h-1zm62 0h1v1h-1zM54 31h1v1h-1zm30 0h1v1h-1zm16 0h1v1h-1zm141 0h1v1h-1zm-46 1h1v1h-1zM24 33h1v1h-1zm183 1h1v1h-1zm17 0h1v1h-1zM44 36h1v1h-1zm207 0h1v1h-1zM48 37h1v1h-1zm53 0h1v1h-1zm146 0h1v1h-1zm-125 1h1v1h-1zm65 0h1v1h-1zm-73 2h1v1h-1zm-69 1h1v1h-1zm181 0h1v1h-1zM49 42h1v1h-1zm144 0h1v1h-1zM57 44h1v1h-1zm149 1h1v1h-1zm-91 1h1v1h-1zm-44 1h1v1h-1zm153 0h1v1h-1zm-4 1h1v1h-1zM92 49h1v1h-1zm19 2h1v1h-1zm102 1h1v1h-1zm-96 3h1v1h-1zm61 1h1v1h-1zm-81 1h1v1h-1zm17 3h1v1h-1zm81 2h1v1h-1zM91 63h1v1h-1zm76 0h1v1h-1zm8 3h1v1h-1zm-72 1h1v1h-1zm84 0h1v1h-1zm-9 1h1v1h-1zm16 1h1v1h-1zm-84 2h1v1h-1zm74 2h1v1h-1zm-77 1h1v1h-1zm84 0h1v1h-1zm-58 2h1v1h-1zm-20 1h1v1h-1zm48 2h1v1h-1zm27 0h1v1h-1zm-53 2h1v1h-1zm45 0h1v1h-1zm4 0h1v1h-1zm6 1h1v1h-1zm-70 2h1v1h-1zm39 0h1v1h-1zm-1 2h1v1h-1zm12 0h1v1h-1zm-61 1h1v1h-1zm3 3h1v1h-1zm1 0h1v1h-1zm26 0h1v1h-1zm25 1h1v1h-1zm14 0h1v1h-1zm-55 5h1v1h-1zm11 0h1v1h-1zm33 1h1v1h-1zm-24 1h1v1h-1zm1 2h1v1h-1zm21 0h1v1h-1zm-3 1h1v1h-1zm-17 1h1v1h-1zm-7 1h1v1h-1zm-4 2h1v1h-1zm22 0h1v1h-1zm-2 12h1v1h-1zm4 13h1v1h-1zm-40 3h1v1h-1zm47 3h1v1h-1zm11 1h1v1h-1zM47 152h23v1H47zm23 0h1v1h-1zm6 0h24v1H76zm24 0h1v1h-1zm7 0h23v1h-23zm23 0h1v1h-1zm9 0h24v1h-24zm24 0h1v1h-1zm6 0h24v1h-24zm24 0h1v1h-1zm6 0h5v1h-5zm5 0h1v1h-1zm18 0h4v1h-4zm4 0h1v1h-1zm20 0h3v1h-3zm3 0h1v1h-1zm-175 1h1v1h-1zm66 2h1v14h-1zm83 0h1v1h-1zm-91 1h1v1h-1zm62 0h1v1h-1zm46 3h1v1h-1zm-175 1h1v1h-1zm33 6h1v1h-1zm42 3h1v1h-1z"/></g><g fill="#f5f5f5"><path d="M118 2h1v1h-1zm60 1h1v1h-1zM1 11h1v1H1zm119 0h1v1h-1zm-6 1h1v1h-1zm6 0h1v1h-1zM16 14h1v1h-1zm175 0h1v1h-1zm-71 3h1v1h-1zm151 0h1v1h-1zm-151 1h1v1h-1zM16 20h1v1h-1zm21 1h1v1h-1zm221 0h1v1h-1zm19 0h1v1h-1zM50 24h1v1h-1zm138 3h1v1h-1zm0 1h1v1h-1zM45 29h1v1h-1zm76 1h1v1h-1zm115 2h1v1h-1zm-28 1h1v1h-1zM37 34h1v1h-1zm3 1h1v1h-1zm166 0h1v1h-1zM30 36h1v1h-1zm233 1h1v1h-1zm-26 2h1v1h-1zm-56 4h1v1h-1zm-9 1h1v1h-1zM61 45h1v1h-1zm28 0h1v1h-1zm14 1h1v1h-1zm-33 1h1v1h-1zm12 5h1v1h-1zm10 3h1v1h-1zm116 3h1v1h-1zm-14 6h1v1h-1zm3 0h1v1h-1zm-12 7h1v1h-1zm-62 3h1v1h-1zm1 2h1v1h-1zm58 1h1v1h-1zm-71 4h1v1h-1zm-6 1h1v1h-1zm82 4h1v1h-1zm-45 10h1v1h-1zm-14 1h1v1h-1zm45 1h1v1h-1zm-41 1h1v1h-1zm40 0h1v1h-1zm-42 1h1v1h-1zm19 4h1v1h-1zm-26 8h1v1h-1zm25 6h1v1h-1zm-12 6h1v1h-1zm24 8h1v1h-1zm-38 7h2v1h-2zm2 0h1v1h-1zm-79 13h1v1h-1zm29 0h1v1h-1zm146 1h1v1h-1zm22 3h1v1h-1zm-10 2h1v1h-1zm-86 6h1v1h-1zm87 1h1v1h-1zm0 4h1v1h-1z"/></g></svg>