<svg xmlns="http://www.w3.org/2000/svg" role="img" viewBox="-5.91 -1.91 359.58 50.58"><title>Gumstix, Inc. logo</title><path fill="#1f6926" d="M139 19h1v1h-1z"/><path fill="#8b8b8b" d="M134 20h1v1h-1z"/><path fill="#97a297" d="M143 23h1v1h-1z"/><path fill="#aaaca7" d="M143 24h1v1h-1z"/><path fill="#afb0ac" d="M150 33h1v1h-1z"/><path fill="#8a8c87" d="M147 37h1v1h-1z"/><path d="M137 16h1v1h-1zm1 1h1v1h-1z" fill="#34a13e"/><path fill="#020202" d="M131 19h1v1h-1z"/><path fill="#5c5d5a" d="M150 26h1v1h-1z"/><path fill="#b0b3ad" d="M153 33h1v1h-1z"/><path fill="#2e2e2e" d="M133 15h1v1h-1z"/><path fill="#202020" d="M133 20h1v1h-1z"/><path fill="#999a98" d="M144 25h1v1h-1z"/><path fill="#9b9d99" d="M145 27h1v1h-1z"/><path fill="#969795" d="M152 32h1v1h-1z"/><path fill="#2e302f" d="M155 33h1v1h-1z"/><path fill="#b7b4b7" d="M141 12h1v1h-1z"/><path d="M134 15h1v1h-1zm1 5h1v1h-1z" fill="#e3e3e3"/><path fill="#8c8c8c" d="M145 14h1v1h-1z"/><path fill="#e0dce0" d="M139 20h1v1h-1z"/><path fill="#b0b2ac" d="M142 24h1v1h-1z"/><path fill="#8a9c8c" d="M141 13h1v1h-1z"/><path d="M173 13h1v1h-1zm1 0h1v1h-1zm-1 1h1v18h-1zm1 0h1v18h-1zm-1 18h1v1h-1zm1 0h1v1h-1zm-1 1h1v1h-1zm1 0h1v1h-1zm-29 1h1v1h-1z" fill="#1b1b1b"/><path fill="#5c5c5c" d="M145 15h1v1h-1z"/><path fill="#1d5e23" d="M136 16h1v1h-1z"/><path fill="#878985" d="M147 22h1v1h-1z"/><path fill="#9d9e9a" d="M148 32h1v1h-1z"/><path fill="#797b78" d="M153 34h1v1h-1z"/><path fill="#3f3f3e" d="M150 36h1v1h-1z"/><path fill="#f4f4f4" d="M145 12h1v1h-1z"/><path fill="#217228" d="M141 15h1v1h-1z"/><path fill="#c0babf" d="M143 20h1v1h-1z"/><path fill="#70706e" d="M144 21h1v1h-1z"/><path fill="#545653" d="M139 23h1v1h-1z"/><path fill="#9b9c9b" d="M151 33h1v1h-1z"/><path fill="#35a33f" d="M139 11h1v1h-1z"/><path d="M145 16h1v1h-1zm-13 1h1v1h-1z" fill="#232323"/><path fill="#acacac" d="M133 16h1v1h-1z"/><path fill="#2f9f3a" d="M141 16h1v1h-1z"/><path fill="#1f6626" d="M138 18h1v1h-1z"/><path fill="#a3a4a2" d="M145 26h1v1h-1z"/><path fill="#adaeab" d="M147 29h1v1h-1z"/><path fill="#696b67" d="M143 30h1v1h-1z"/><path fill="#3b7540" d="M141 14h1v1h-1z"/><path fill="#16421a" d="M135 15h1v1h-1z"/><path fill="#191817" d="M153 30h1v1h-1z"/><path fill="#8e8f8c" d="M154 32h1v1h-1z"/><path fill="#9e9f9d" d="M148 35h1v1h-1z"/><path fill="#969696" d="M132 18h1v1h-1z"/><path fill="#525252" d="M136 21h1v1h-1z"/><path fill="#a4a6a1" d="M143 29h1v1h-1z"/><path fill="#939490" d="M149 36h1v1h-1z"/><path fill="#206527" d="M134 13h1v1h-1z"/><path fill="#fefefe" d="M134 16h1v1h-1z"/><path d="M137 18h1v1h-1zm1 1h1v1h-1z" fill="#e2dee1"/><path fill="#090908" d="M141 27h1v1h-1z"/><path fill="#9e9e9d" d="M153 32h1v1h-1z"/><path fill="#e5e5e5" d="M144 11h1v1h-1z"/><path fill="#f7f5f7" d="M142 15h1v1h-1z"/><path fill="#a3a4a1" d="M152 33h1v1h-1z"/><path fill="#34a43e" d="M142 21h1v1h-1z"/><path fill="#acadab" d="M149 33h1v1h-1z"/><path d="M146 21h1v1h-1zm2 3h1v1h-1z" fill="#abaca8"/><path fill="#abaca9" d="M144 24h1v1h-1z"/><path fill="#b4b5b2" d="M146 27h1v1h-1z"/><path fill="#9fa19c" d="M148 34h1v1h-1z"/><path fill="#2a8e34" d="M140 12h1v1h-1z"/><path fill="#fafafa" d="M138 21h1v1h-1z"/><path fill="#dadada" d="M144 18h1v1h-1z"/><path fill="#7f817d" d="M145 19h1v1h-1z"/><path fill="#70726f" d="M144 22h1v1h-1z"/><path fill="#8a8c88" d="M149 25h1v1h-1z"/><path fill="#848682" d="M145 33h1v1h-1z"/><path fill="#0f0f0f" d="M141 10h1v1h-1z"/><path fill="#dfdbde" d="M140 21h1v1h-1z"/><path fill="#16431a" d="M134 12h1v1h-1z"/><path fill="#35a23e" d="M135 12h1v1h-1z"/><path fill="#c1c1c1" d="M145 13h1v1h-1z"/><path fill="#888787" d="M144 20h1v1h-1z"/><path fill="#090909" d="M138 22h1v1h-1z"/><path fill="#676767" d="M139 22h1v1h-1z"/><path d="M139 10h1v1h-1zm-3 1h1v1h-1z" fill="#226a29"/><path fill="#35a43f" d="M137 11h1v1h-1z"/><path fill="#777874" d="M142 28h1v1h-1z"/><path fill="#9d9d9b" d="M149 34h1v1h-1z"/><path d="M147 28h1v1h-1zm-2 4h1v1h-1z" fill="#b2b4af"/><path fill="#acaea8" d="M151 34h1v1h-1z"/><path fill="#babbba" d="M146 36h1v1h-1z"/><path fill="#e3e0e3" d="M135 16h1v1h-1z"/><path fill="#339f3d" d="M141 18h1v1h-1z"/><path fill="#bbbdb9" d="M148 30h1v1h-1z"/><path fill="#adb0aa" d="M151 32h1v1h-1z"/><path fill="#060708" d="M152 35h1v1h-1z"/><path fill="#555754" d="M146 20h1v1h-1z"/><path fill="#9fa5a0" d="M143 21h1v1h-1z"/><path d="M140 23h1v1h-1zm6 3h1v1h-1zm6 4h1v1h-1z" fill="#abada8"/><path fill="#585957" d="M148 23h1v1h-1z"/><path fill="#9b9c9a" d="M146 28h1v1h-1z"/><path fill="#b1b2b0" d="M150 34h1v1h-1z"/><path fill="#1e6124" d="M137 17h1v1h-1z"/><path fill="#216d28" d="M141 21h1v1h-1z"/><path fill="#787678" d="M142 23h1v1h-1z"/><path fill="#abada7" d="M149 31h1v1h-1z"/><path fill="#464745" d="M144 32h1v1h-1z"/><path fill="#b4afb4" d="M142 16h1v1h-1z"/><path fill="#a0a0a0" d="M137 21h1v1h-1z"/><path fill="#427547" d="M142 18h1v1h-1z"/><path fill="#236c2a" d="M142 19h1v1h-1z"/><path d="M145 21h1v1h-1zm-1 5h1v1h-1zm5 0h1v1h-1zm2 3h1v1h-1zm-4 2h1v1h-1zm3 4h1v1h-1z" fill="#b0b2ad"/><path fill="#646561" d="M152 29h1v1h-1z"/><path fill="#000100" d="M139 9h1v1h-1z"/><g fill="#fff"><path d="M141 11h2v1h-2zm2 0h1v7h-1z"/><path d="M142 12h2v2h-2zm2 0h1v5h-1zm-2 2h2v1h-2zm-9 3h2v2h-2zm2 0h1v2h-1zm9 0h1v1h-1zm-8 1h1v2h-1zm7 0h1v1h-1z"/><path d="M133 19h4v1h-4zm4 0h1v1h-1zm-1 1h2v1h-2zm2 0h1v1h-1zm1 1h1v1h-1z"/></g><path fill="#2d2f2d" d="M140 25h1v1h-1z"/><path fill="#b9bab6" d="M145 25h1v1h-1z"/><path fill="#a7a8a4" d="M147 36h1v1h-1z"/><path fill="#0b200d" d="M140 11h1v1h-1z"/><path fill="#8c978d" d="M142 17h1v1h-1z"/><path fill="#0b0b0c" d="M149 24h1v1h-1z"/><path d="M142 27h1v1h-1zm3 1h1v1h-1zm-1 2h1v1h-1zm4 3h1v1h-1z" fill="#afb1ac"/><path fill="#969893" d="M144 31h1v1h-1z"/><path fill="#a9aaa8" d="M148 31h1v1h-1z"/><path fill="#a4a5a1" d="M149 35h1v1h-1z"/><path fill="#0a200c" d="M137 10h1v1h-1z"/><path fill="#2d9a37" d="M142 20h1v1h-1z"/><path d="M147 23h1v1h-1zm-1 11h1v1h-1z" fill="#b1b3ae"/><path fill="#8c8d89" d="M140 24h1v1h-1z"/><path fill="#7f807c" d="M141 26h1v1h-1z"/><path d="M143 28h1v1h-1zm9 3h1v1h-1zm-5 3h1v1h-1z" fill="#aeb0ab"/><path fill="#9a9b98" d="M147 30h1v1h-1z"/><g fill="#339e3d"><path d="M138 11h1v5h-1z"/><path d="M136 12h3v2h-3zm3 0h1v5h-1z"/><path d="M135 13h4v1h-4zm1 1h4v1h-4zm4 0h1v4h-1zm-3 1h3v1h-3zm1 1h2v1h-2zm1 1h1v1h-1zm1 1h1v1h-1zm1 1h1v1h-1z"/></g><path fill="#b4b6b1" d="M144 23h1v1h-1z"/><path fill="#e6e2e6" d="M141 22h1v1h-1z"/><path fill="#b3b5b0" d="M141 25h1v1h-1z"/><path fill="#626360" d="M146 35h1v1h-1z"/><path d="M140 13h1v1h-1zm1 4h1v1h-1z" fill="#34a23e"/><path fill="#fefdfe" d="M143 19h1v1h-1z"/><path fill="#b2b5af" d="M148 36h1v1h-1z"/><path fill="#646662" d="M148 37h1v1h-1z"/><path fill="#5f8e63" d="M143 22h1v1h-1z"/><path fill="#101110" d="M151 27h1v1h-1z"/><path d="M198 16h1v1h-1zm1 0h1v1h-1zm51 0h1v1h-1zm1 0h1v1h-1zm19 0h1v1h-1zm35 0h1v1h-1zm1 0h1v1h-1zm12 0h1v1h-1zm1 0h1v1h-1zm2 0h1v1h-1zm-123 1h1v2h-1zm1 0h1v9h-1zm51 0h1v1h-1zm1 0h1v3h-1zm20 0h1v1h-1zm1 0h1v1h-1zm33 0h1v1h-1zm1 0h1v3h-1zm12 0h1v9h-1zm1 0h1v9h-1zm3 0h1v1h-1zm1 0h1v1h-1zm-73 1h1v1h-1zm21 0h1v1h-1zm1 0h1v1h-1zm33 0h1v1h-1zm17 0h1v1h-1zm1 0h1v1h-1zm-125 1h1v7h-1zm3 0h1v1h-1zm5 0h1v1h-1zm44 0h1v1h-1zm20 0h1v1h-1zm13 0h1v1h-1zm22 0h1v1h-1zm16 0h1v1h-1zm6 0h1v1h-1zm-133 1h1v1h-1zm1 0h1v1h-1zm1 0h1v1h-1zm1 0h1v1h-1zm5 0h1v7h-1zm1 0h1v1h-1zm1 0h1v1h-1zm1 0h1v1h-1zm3 0h1v1h-1zm1 0h1v1h-1zm1 0h1v1h-1zm1 0h1v1h-1zm1 0h1v1h-1zm4 0h1v1h-1zm1 0h1v1h-1zm1 0h1v1h-1zm1 0h1v1h-1zm1 0h1v1h-1zm4 0h1v1h-1zm1 0h1v1h-1zm1 0h1v1h-1zm1 0h1v1h-1zm1 0h1v1h-1zm1 0h1v1h-1zm2 0h1v1h-1zm1 0h1v1h-1zm1 0h1v1h-1zm1 0h1v1h-1zm12 0h1v1h-1zm1 0h1v1h-1zm1 0h1v1h-1zm1 0h1v1h-1zm1 0h1v1h-1zm1 0h1v5h-1zm4 0h1v1h-1zm1 0h1v1h-1zm1 0h1v1h-1zm1 0h1v1h-1zm1 0h1v1h-1zm4 0h1v1h-1zm1 0h1v1h-1zm1 0h1v1h-1zm1 0h1v1h-1zm1 0h1v1h-1zm4 0h1v1h-1zm1 0h1v1h-1zm4 0h1v1h-1zm1 0h1v1h-1zm1 0h1v1h-1zm1 0h1v1h-1zm1 0h1v1h-1zm1 0h1v1h-1zm3 0h1v1h-1zm1 0h1v1h-1zm1 0h1v1h-1zm1 0h1v1h-1zm1 0h1v1h-1zm13 0h1v1h-1zm1 0h1v1h-1zm1 0h1v1h-1zm1 0h1v1h-1zm1 0h1v1h-1zm1 0h1v5h-1zm4 0h1v1h-1zm1 0h1v1h-1zm1 0h1v1h-1zm1 0h1v1h-1zm1 0h1v1h-1zm8 0h1v1h-1zm1 0h1v1h-1zm2 0h1v1h-1zm1 0h1v1h-1zm4 0h1v1h-1zm1 0h1v1h-1zm4 0h1v1h-1zm1 0h1v1h-1zm1 0h1v1h-1zm1 0h1v1h-1zm1 0h1v1h-1zm3 0h1v1h-1zm1 0h1v1h-1zm1 0h1v1h-1zm1 0h1v1h-1zm1 0h1v1h-1zm-153 1h1v1h-1zm1 0h1v1h-1zm1 0h1v1h-1zm2 0h1v1h-1zm6 0h1v1h-1zm1 0h1v1h-1zm4 0h1v1h-1zm1 0h1v1h-1zm3 0h1v1h-1zm1 0h1v1h-1zm3 0h1v1h-1zm1 0h1v1h-1zm3 0h1v1h-1zm1 0h1v1h-1zm3 0h1v5h-1zm1 0h1v1h-1zm1 0h1v1h-1zm3 0h1v1h-1zm1 0h1v1h-1zm1 0h1v1h-1zm2 0h1v1h-1zm1 0h1v1h-1zm1 0h1v1h-1zm10 0h1v1h-1zm1 0h1v1h-1zm1 0h1v1h-1zm3 0h1v1h-1zm5 0h1v1h-1zm1 0h1v1h-1zm3 0h1v1h-1zm1 0h1v1h-1zm3 0h1v1h-1zm1 0h1v1h-1zm2 0h1v1h-1zm1 0h1v1h-1zm1 0h1v1h-1zm3 0h1v5h-1zm1 0h1v5h-1zm3 0h1v1h-1zm1 0h1v1h-1zm1 0h1v1h-1zm2 0h1v1h-1zm1 0h1v1h-1zm1 0h1v6h-1zm3 0h1v5h-1zm1 0h1v1h-1zm1 0h1v1h-1zm2 0h1v1h-1zm1 0h1v6h-1zm11 0h1v1h-1zm1 0h1v1h-1zm1 0h1v1h-1zm3 0h1v1h-1zm5 0h1v1h-1zm1 0h1v1h-1zm3 0h1v1h-1zm1 0h1v1h-1zm7 0h1v5h-1zm1 0h1v5h-1zm3 0h1v1h-1zm1 0h1v1h-1zm3 0h1v1h-1zm1 0h1v1h-1zm3 0h1v1h-1zm1 0h1v1h-1zm1 0h1v1h-1zm2 0h1v1h-1zm1 0h1v1h-1zm3 0h1v5h-1zm1 0h1v1h-1zm1 0h1v1h-1zm1 0h1v1h-1zm-152 1h1v3h-1zm1 0h1v1h-1zm9 0h1v1h-1zm4 0h1v1h-1zm1 0h1v1h-1zm4 0h1v1h-1zm1 0h1v1h-1zm7 0h1v1h-1zm1 0h1v5h-1zm4 0h1v1h-1zm4 0h1v1h-1zm1 0h1v1h-1zm4 0h1v1h-1zm1 0h1v1h-1zm10 0h1v1h-1zm1 0h1v1h-1zm4 0h1v1h-1zm4 0h1v1h-1zm1 0h1v1h-1zm4 0h1v1h-1zm1 0h1v1h-1zm3 0h1v1h-1zm4 0h1v1h-1zm1 0h1v1h-1zm7 0h1v3h-1zm1 0h1v1h-1zm4 0h1v1h-1zm5 0h1v1h-1zm5 0h1v1h-1zm10 0h1v1h-1zm1 0h1v1h-1zm4 0h1v1h-1zm4 0h1v1h-1zm1 0h1v1h-1zm4 0h1v1h-1zm1 0h1v1h-1zm11 0h1v1h-1zm1 0h1v1h-1zm3 0h1v1h-1zm1 0h1v1h-1zm3 0h1v3h-1zm1 0h1v1h-1zm4 0h1v1h-1zm4 0h1v1h-1zm-140 1h1v3h-1zm4 0h1v1h-1zm1 0h1v1h-1zm1 0h1v1h-1zm1 0h1v1h-1zm1 0h1v1h-1zm1 0h1v1h-1zm1 0h1v1h-1zm3 0h1v1h-1zm1 0h1v1h-1zm1 0h3v1h-3zm7 0h1v3h-1zm4 0h1v3h-1zm1 0h1v3h-1zm4 0h1v3h-1zm1 0h1v3h-1zm10 0h1v1h-1zm1 0h1v1h-1zm4 0h1v1h-1zm4 0h1v1h-1zm1 0h1v1h-1zm1 0h1v1h-1zm1 0h1v1h-1zm1 0h1v1h-1zm1 0h1v1h-1zm1 0h1v1h-1zm3 0h1v1h-1zm1 0h1v1h-1zm1 0h1v1h-1zm1 0h1v1h-1zm14 0h1v1h-1zm5 0h1v3h-1zm5 0h1v3h-1zm10 0h1v1h-1zm1 0h1v1h-1zm4 0h1v1h-1zm4 0h1v1h-1zm1 0h1v1h-1zm1 0h1v1h-1zm1 0h1v1h-1zm1 0h1v1h-1zm1 0h1v1h-1zm1 0h1v1h-1zm11 0h1v1h-1zm1 0h1v1h-1zm2 0h1v1h-1zm1 0h1v1h-1zm5 0h1v1h-1zm1 0h1v1h-1zm1 0h1v1h-1zm1 0h1v1h-1zm1 0h1v1h-1zm1 0h1v1h-1zm3 0h1v3h-1zm-136 1h1v1h-1zm1 0h1v1h-1zm1 0h1v1h-1zm1 0h2v1h-2zm2 0h1v1h-1zm1 0h1v1h-1zm3 0h1v2h-1zm1 0h1v1h-1zm3 0h1v1h-1zm25 0h1v1h-1zm1 0h1v1h-1zm4 0h1v1h-1zm4 0h1v1h-1zm1 0h1v1h-1zm1 0h1v1h-1zm1 0h2v1h-2zm2 0h1v1h-1zm1 0h1v1h-1zm5 0h1v1h-1zm1 0h1v1h-1zm1 0h1v1h-1zm1 0h1v1h-1zm12 0h1v1h-1zm20 0h1v1h-1zm1 0h1v1h-1zm4 0h1v1h-1zm4 0h1v1h-1zm1 0h1v1h-1zm1 0h1v1h-1zm1 0h2v1h-2zm2 0h1v1h-1zm1 0h1v1h-1zm12 0h1v1h-1zm1 0h1v1h-1zm1 0h1v1h-1zm1 0h1v1h-1zm3 0h1v1h-1zm2 0h1v1h-1zm1 0h2v1h-2zm2 0h1v1h-1zm1 0h1v1h-1zm1 0h1v1h-1zm-147 1h1v1h-1zm1 0h1v1h-1zm13 0h1v1h-1zm1 0h1v1h-1zm12 0h1v1h-1zm25 0h1v1h-1zm1 0h1v1h-1zm4 0h1v1h-1zm1 0h1v1h-1zm3 0h1v1h-1zm1 0h1v1h-1zm7 0h1v1h-1zm1 0h1v1h-1zm4 0h1v1h-1zm1 0h1v1h-1zm7 0h1v1h-1zm1 0h1v1h-1zm4 0h1v1h-1zm20 0h1v1h-1zm1 0h1v1h-1zm4 0h1v1h-1zm1 0h1v1h-1zm3 0h1v1h-1zm1 0h1v1h-1zm17 0h1v1h-1zm1 0h1v1h-1zm1 0h1v1h-1zm5 0h1v1h-1zm1 0h1v1h-1zm-142 1h1v1h-1zm1 0h1v1h-1zm1 0h1v1h-1zm2 0h1v1h-1zm1 0h1v1h-1zm1 0h1v1h-1zm4 0h1v1h-1zm4 0h1v1h-1zm1 0h1v1h-1zm1 0h1v1h-1zm3 0h1v1h-1zm1 0h1v1h-1zm3 0h1v1h-1zm1 0h1v1h-1zm2 0h1v1h-1zm1 0h1v1h-1zm4 0h1v1h-1zm1 0h1v1h-1zm4 0h1v1h-1zm1 0h1v1h-1zm4 0h1v1h-1zm1 0h1v1h-1zm3 0h1v1h-1zm1 0h1v1h-1zm6 0h1v1h-1zm1 0h1v1h-1zm1 0h1v1h-1zm2 0h1v1h-1zm1 0h1v1h-1zm1 0h1v1h-1zm3 0h1v1h-1zm1 0h1v1h-1zm1 0h1v1h-1zm3 0h1v1h-1zm1 0h1v1h-1zm3 0h1v1h-1zm1 0h1v1h-1zm2 0h1v1h-1zm1 0h1v1h-1zm1 0h1v1h-1zm3 0h1v1h-1zm1 0h1v1h-1zm3 0h1v1h-1zm1 0h1v1h-1zm1 0h1v1h-1zm2 0h1v1h-1zm1 0h1v2h-1zm4 0h1v1h-1zm1 0h1v1h-1zm5 0h1v1h-1zm3 0h1v1h-1zm1 0h1v1h-1zm6 0h1v1h-1zm1 0h1v1h-1zm1 0h1v1h-1zm2 0h1v1h-1zm1 0h1v1h-1zm1 0h1v1h-1zm3 0h1v1h-1zm1 0h1v1h-1zm1 0h1v1h-1zm3 0h1v1h-1zm1 0h1v1h-1zm3 0h1v1h-1zm1 0h1v1h-1zm3 0h1v1h-1zm1 0h1v1h-1zm4 0h1v1h-1zm1 0h1v1h-1zm1 0h1v1h-1zm5 0h1v1h-1zm1 0h1v1h-1zm1 0h1v1h-1zm3 0h1v1h-1zm3 0h1v1h-1zm1 0h1v1h-1zm-149 1h1v1h-1zm1 0h1v1h-1zm1 0h1v1h-1zm1 0h1v1h-1zm1 0h1v1h-1zm1 0h1v1h-1zm3 0h1v1h-1zm1 0h1v1h-1zm5 0h1v1h-1zm1 0h1v1h-1zm1 0h1v1h-1zm1 0h1v1h-1zm1 0h1v1h-1zm4 0h1v1h-1zm1 0h1v1h-1zm1 0h1v1h-1zm1 0h1v1h-1zm1 0h1v1h-1zm1 0h1v1h-1zm3 0h1v1h-1zm1 0h1v1h-1zm4 0h1v1h-1zm1 0h1v1h-1zm4 0h1v1h-1zm1 0h1v1h-1zm3 0h1v1h-1zm8 0h1v1h-1zm1 0h1v1h-1zm1 0h1v1h-1zm1 0h1v1h-1zm1 0h1v1h-1zm1 0h1v1h-1zm4 0h1v1h-1zm1 0h1v1h-1zm1 0h1v1h-1zm1 0h1v1h-1zm1 0h1v1h-1zm4 0h1v1h-1zm1 0h1v1h-1zm1 0h1v1h-1zm1 0h1v1h-1zm1 0h1v1h-1zm4 0h1v1h-1zm1 0h1v1h-1zm4 0h1v1h-1zm1 0h1v1h-1zm1 0h1v1h-1zm1 0h1v1h-1zm2 0h1v1h-1zm3 0h1v1h-1zm1 0h1v1h-1zm4 0h1v1h-1zm1 0h1v1h-1zm3 0h1v1h-1zm8 0h1v1h-1zm1 0h1v1h-1zm1 0h1v1h-1zm1 0h1v1h-1zm1 0h1v1h-1zm1 0h1v1h-1zm4 0h1v1h-1zm1 0h1v1h-1zm1 0h1v1h-1zm1 0h1v1h-1zm1 0h1v1h-1zm4 0h1v1h-1zm1 0h1v1h-1zm3 0h1v1h-1zm1 0h1v1h-1zm5 0h1v1h-1zm1 0h1v1h-1zm6 0h1v1h-1zm1 0h1v1h-1zm1 0h1v1h-1zm1 0h1v1h-1zm1 0h1v1h-1zm3 0h1v1h-1zm1 0h1v1h-1zm-142 1h1v1h-1zm25 0h1v1h-1zm7 0h1v1h-1zm4 0h1v1h-1zm1 0h1v1h-1zm14 0h1v1h-1zm18 0h1v1h-1zm10 0h1v1h-1zm1 0h1v1h-1zm2 0h1v1h-1zm5 0h1v1h-1zm4 0h1v1h-1zm1 0h1v1h-1zm14 0h1v1h-1zm10 0h1v1h-1zm4 0h1v1h-1zm6 0h1v1h-1zm17 0h1v1h-1zm-107 1h1v1h-1zm38 0h1v1h-1zm1 0h1v1h-1zm3 0h1v1h-1zm1 0h1v1h-1zm12 0h1v1h-1zm-16 1h1v1h-1zm1 0h1v1h-1zm1 0h1v1h-1zm1 0h1v1h-1zm1 0h1v1h-1z" fill="#010101"/><path fill="#7c7e7a" d="M153 31h1v1h-1z"/><path d="M146 29h1v1h-1zm6 5h1v1h-1z" fill="#a8aaa5"/><path fill="#9fa09e" d="M147 35h1v1h-1z"/><path d="M139 18h1v1h-1zm1 1h1v1h-1zm1 1h1v1h-1z" fill="#34a03e"/><path fill="#216b27" d="M140 20h1v1h-1z"/><path d="M145 24h1v1h-1zm3 5h1v1h-1z" fill="#acaea9"/><path fill="#acada8" d="M150 27h1v1h-1z"/><path fill="#030403" d="M147 21h1v1h-1z"/><path fill="#b0b0b0" d="M140 22h1v1h-1z"/><path fill="#6e6f6c" d="M141 23h1v1h-1z"/><path fill="#868884" d="M151 35h1v1h-1z"/><path d="M120 5h1v1h-1zm1 0h7v1h-7zm7 0h1v1h-1zm1 0h1v1h-1zm-9 1h1v2h-1zm1 0h7v2h-7zm7 0h1v2h-1zm1 0h1v2h-1zm-22 1h1v1h-1zm1 0h6v1h-6zm6 0h1v1h-1zm1 0h1v1h-1zm1 0h1v1h-1zm-9 1h8v3h-8zm8 0h1v3h-1zm1 0h1v1h-1zm4 0h1v1h-1zm1 0h7v1h-7zm7 0h1v1h-1zm1 0h1v1h-1zm-13 1h1v1h-1zm4 0h1v1h-1zm1 0h7v1h-7zm7 0h1v1h-1zm1 0h1v1h-1zm9 0h1v1h-1zM6 10h1v1H6zm1 0h1v1H7zm1 0h1v1H8zm1 0h1v1H9zm53 0h1v1h-1zm1 0h1v1h-1zm1 0h1v1h-1zm1 0h1v1h-1zm9 0h1v1h-1zm1 0h1v1h-1zm1 0h1v1h-1zm1 0h1v1h-1zm14 0h1v1h-1zm1 0h1v1h-1zm1 0h1v1h-1zm1 0h1v1h-1zm1 0h1v1h-1zm1 0h1v1h-1zm20 0h1v1h-1zm14 0h1v1h-1zm6 0h1v1h-1zm4 0h1v1h-1zm2 0h1v1h-1zm1 0h1v1h-1zm1 0h1v1h-1zm1 0h1v1h-1zm1 0h1v1h-1zm1 0h1v1h-1zm1 0h1v1h-1zm1 0h5v1h-5zm5 0h1v1h-1zm1 0h1v1h-1zM3 11h1v1H3zm1 0h1v1H4zm1 0h4v21H5zm4 0h1v22H9zm1 0h1v1h-1zm1 0h1v1h-1zm2 0h1v1h-1zm1 0h1v1h-1zm1 0h5v1h-5zm5 0h1v1h-1zm1 0h1v1h-1zm1 0h1v1h-1zm3 0h1v1h-1zm1 0h7v1h-7zm7 0h1v1h-1zm1 0h1v1h-1zm3 0h1v1h-1zm1 0h6v1h-6zm6 0h1v1h-1zm1 0h1v1h-1zm1 0h1v1h-1zm3 0h1v1h-1zm1 0h1v1h-1zm1 0h6v1h-6zm6 0h1v1h-1zm1 0h1v1h-1zm2 0h1v1h-1zm1 0h1v1h-1zm1 0h3v25h-3zm3 0h1v25h-1zm1 0h1v1h-1zm1 0h1v1h-1zm5 0h1v1h-1zm1 0h4v25h-4zm4 0h1v25h-1zm1 0h1v1h-1zm1 0h1v1h-1zm8 0h1v1h-1zm1 0h1v1h-1zm1 0h1v1h-1zm1 0h6v3h-6zm6 0h1v7h-1zm1 0h1v1h-1zm1 0h1v1h-1zm1 0h1v1h-1zm6 0h1v1h-1zm1 0h1v1h-1zm1 0h8v20h-8zm8 0h1v25h-1zm1 0h1v1h-1zm1 0h1v1h-1zm1 0h1v1h-1zm2 0h1v1h-1zm1 0h7v1h-7zm7 0h1v1h-1zm1 0h1v1h-1zm5 0h1v1h-1zm1 0h1v1h-1zm11 0h1v1h-1zm1 0h1v1h-1zm1 0h6v2h-6zm6 0h1v1h-1zm1 0h1v1h-1zM2 12h1v1H2z"/><path d="M3 12h8v3H3zm8 0h1v2h-1zm1 0h1v1h-1zm1 0h1v1h-1zm1 0h7v25h-7zm7 0h1v24h-1zm1 0h1v18h-1zm3 0h1v16h-1zm1 0h7v21h-7zm7 0h1v24h-1zm1 0h1v16h-1zm3 0h1v15h-1zm1 0h7v24h-7zm7 0h1v24h-1zm1 0h1v23h-1zm3 0h1v23h-1zm1 0h7v24h-7zm7 0h1v24h-1zm1 0h1v1h-1zm1 0h1v1h-1zm1 0h7v2h-7zm7 0h1v24h-1zm1 0h1v1h-1zm1 0h1v1h-1zm1 0h1v1h-1zm1 0h1v1h-1zm1 0h7v2h-7zm7 0h1v24h-1zm1 0h1v1h-1zm6 0h1v1h-1zm1 0h12v2H87zm12 0h1v6h-1zm1 0h1v1h-1zm1 0h1v1h-1zm4 0h1v1h-1zm1 0h8v2h-8zm10 0h1v2h-1zm1 0h1v2h-1zm1 0h1v1h-1zm2 0h1v23h-1zm1 0h7v24h-7zm7 0h1v24h-1zm1 0h1v23h-1zm4 0h1v1h-1zm13 0h1v1h-1zm1 0h6v3h-6zm7 0h1v1h-1zM2 13h1v1H2z"/><path d="M12 13h9v1h-9zm46 0h1v1h-1zm1 0h9v1h-9zm9 0h1v23h-1zm1 0h1v1h-1zm1 0h1v1h-1zm1 0h9v1h-9zm9 0h1v23h-1zm1 0h1v1h-1zm4 0h1v1h-1zm1 0h15v1H86zm15 0h1v5h-1zm1 0h1v1h-1zm3 0h1v1h-1zm13 0h1v1h-1zm15 0h1v1h-1zm13 0h7v2h-7zm7 0h1v1h-1zm1 0h1v1h-1zM1 14h1v1H1zm1 0h19v1H2z"/><path d="M58 14h22v1H58zm23 0h1v1h-1zm3 0h1v1h-1zm1 0h16v1H85zm17 0h1v1h-1zm3 0h1v1h-1zm1 0h11v1h-11zm11 0h1v1h-1zm1 0h1v1h-1zm16 0h1v1h-1zm19 0h1v1h-1zM1 15h1v1H1zm1 0h8v15H2zm8 0h1v1h-1zm1 0h1v1h-1zm1 0h1v1h-1zm1 0h8v1h-8zm45 0h1v1h-1zm1 0h1v1h-1zm1 0h1v1h-1zm1 0h8v1h-8zm8 0h1v21h-1zm1 0h1v1h-1zm1 0h1v1h-1zm1 0h1v1h-1zm6 0h2v21h-2zm3 0h1v1h-1zm3 0h1v1h-1zm1 0h6v6h-6zm6 0h1v10h-1zm1 0h1v1h-1zm1 0h1v1h-1zm1 0h1v1h-1zm1 0h1v1h-1zm2 0h5v3h-5zm5 0h1v3h-1zm1 0h1v1h-1zm2 0h1v1h-1zm1 0h1v1h-1zm10 0h1v1h-1zm1 0h1v1h-1zm1 0h1v1h-1zm28 0h6v2h-6zm6 0h1v1h-1zm1 0h1v1h-1zM1 16h1v1H1zm9 0h1v1h-1zm3 0h1v1h-1zm45 0h1v1h-1zm3 0h1v1h-1zm5 0h3v20h-3zm4 0h1v1h-1zm2 0h1v1h-1zm9 0h1v1h-1zm3 0h1v1h-1zm8 0h1v1h-1zm3 0h1v1h-1zm8 0h1v1h-1zm1 0h1v1h-1zm28 0h1v1h-1zm20 0h1v1h-1zM1 17h1v1H1zm9 0h1v1h-1zm3 0h1v1h-1zm45 0h1v1h-1zm3 0h1v1h-1zm9 0h1v1h-1zm11 0h1v1h-1zm3 0h1v1h-1zm8 0h1v1h-1zm3 0h1v1h-1zm8 0h1v1h-1zm13 0h1v12h-1zm29 0h1v1h-1zm1 0h5v1h-5zm5 0h1v1h-1zm1 0h1v1h-1zM1 18h1v8H1zm9 0h1v8h-1zm3 0h1v7h-1zm45 0h1v1h-1zm3 0h1v1h-1zm9 0h1v1h-1zm11 0h1v1h-1zm3 0h1v1h-1zm8 0h1v1h-1zm3 0h1v1h-1zm1 0h6v1h-6zm6 0h1v1h-1zm1 0h1v1h-1zm28 0h1v1h-1zm14 0h1v1h-1zm1 0h4v1h-4zm4 0h1v1h-1zm1 0h1v1h-1zm-93 1h1v16h-1zm3 0h1v1h-1zm9 0h1v1h-1zm11 0h1v16h-1zm3 0h1v1h-1zm8 0h1v6h-1zm1 0h1v1h-1zm2 0h1v1h-1zm1 0h5v1h-5zm5 0h1v1h-1zm1 0h1v1h-1zm1 0h1v1h-1zm43 0h1v1h-1zm1 0h2v1h-2zm2 0h1v1h-1zm1 0h1v1h-1zm-89 1h1v1h-1zm9 0h1v1h-1zm14 0h1v1h-1zm9 0h1v6h-1zm1 0h1v1h-1zm1 0h1v1h-1zm37 0h1v1h-1zm15 0h1v1h-1zm1 0h1v1h-1zm1 0h1v1h-1zm1 0h1v1h-1zm43 0h1v1h-1zm28 0h1v1h-1zm9 0h1v1h-1zm45 0h1v1h-1zm14 0h1v1h-1zM61 21h1v14h-1zm9 0h1v15h-1zm14 0h1v1h-1z"/><path d="M85 21h10v1H85zm10 0h1v6h-1zm1 0h1v1h-1zm1 0h1v1h-1zm38 0h1v1h-1zm13 0h1v1h-1zm1 0h1v1h-1zm47 0h1v1h-1zm9 0h1v1h-1zm2 0h1v1h-1zm3 0h1v1h-1zm1 0h1v1h-1zm7 0h1v1h-1zm1 0h1v1h-1zm8 0h1v1h-1zm1 0h1v1h-1zm4 0h1v1h-1zm16 0h1v1h-1zm1 0h1v1h-1zm5 0h1v1h-1zm3 0h1v1h-1zm1 0h1v1h-1zm7 0h1v1h-1zm13 0h1v1h-1zm9 0h1v1h-1zm3 0h1v1h-1zm13 0h1v1h-1zm1 0h1v1h-1zm5 0h1v1h-1zm3 0h1v1h-1zm1 0h1v1h-1zm12 0h1v1h-1zm12 0h1v1h-1zm9 0h1v1h-1zM85 22h1v1h-1z"/><path d="M86 22h11v1H86zm11 0h1v14h-1zm1 0h1v1h-1zm1 0h1v1h-1zm49 0h1v1h-1zm1 0h1v1h-1zm43 0h1v1h-1zm23 0h1v1h-1zm1 0h1v1h-1zm46 0h1v1h-1zm2 0h1v1h-1zm10 0h1v1h-1zm55 0h1v1h-1zm4 0h1v1h-1zm5 0h1v1h-1zm2 0h1v1h-1zM86 23h1v1h-1z"/><path d="M87 23h12v1H87zm12 0h1v12h-1zm1 0h1v1h-1zm1 0h1v1h-1zm91 0h1v1h-1zm2 0h1v1h-1zm73 0h1v1h-1zm7 0h1v1h-1zm2 0h1v1h-1zm57 0h1v1h-1zM87 24h1v1h-1zm1 0h1v1h-1z"/><path d="M89 24h12v1H89zm12 0h1v10h-1zm1 0h1v1h-1zm37 0h1v1h-1zm53 0h1v1h-1zm2 0h1v1h-1zm21 0h1v1h-1zm49 0h1v1h-1zm10 0h1v1h-1zm2 0h1v1h-1zM13 25h1v1h-1zm76 0h1v1h-1zm1 0h1v1h-1z"/><path d="M91 25h11v1H91zm11 0h1v8h-1zm1 0h1v1h-1zm35 0h1v1h-1zm1 0h1v11h-1zm11 0h1v1h-1zm42 0h1v1h-1zm23 0h1v1h-1zm2 0h1v1h-1zm57 0h1v1h-1zm56 0h1v1h-1zm3 0h1v1h-1zM1 26h1v1H1zm9 0h1v1h-1zm3 0h1v1h-1zm78 0h1v1h-1zm1 0h1v1h-1zm1 0h9v1h-9zm10 0h1v1h-1zm34 0h1v1h-1zm1 0h1v1h-1zm2 0h1v1h-1zm56 0h1v1h-1zm14 0h1v1h-1zm1 0h1v1h-1zm4 0h1v1h-1zm3 0h1v1h-1zm19 0h1v1h-1zm11 0h1v1h-1zm9 0h1v1h-1zm1 0h1v1h-1zm4 0h1v1h-1zm3 0h1v1h-1zm13 0h1v1h-1zm14 0h1v1h-1zm11 0h1v1h-1zm9 0h1v1h-1zm1 0h1v1h-1zm24 0h1v1h-1zm1 0h1v1h-1zm2 0h1v1h-1zM1 27h1v1H1zm9 0h1v1h-1zm3 0h1v1h-1zm24 0h1v1h-1zm56 0h1v1h-1zm1 0h1v1h-1zm1 0h7v1h-7zm8 0h1v1h-1zm34 0h1v1h-1z"/><path d="M138 27h2v9h-2zm2 0h1v9h-1zm73 0h1v1h-1zm9 0h1v1h-1zm15 0h1v1h-1zm2 0h1v1h-1zm21 0h1v1h-1zm8 0h1v1h-1zm24 0h1v1h-1zm2 0h1v1h-1zm21 0h1v1h-1zM1 28h1v1H1zm9 0h1v1h-1zm3 0h8v3h-8zm12 0h1v1h-1zm9 0h1v1h-1zm3 0h1v1h-1zm47 0h1v1h-1zm1 0h6v4h-6zm6 0h1v8h-1zm1 0h1v1h-1zm3 0h1v1h-1zm1 0h7v5h-7zm7 0h1v3h-1zm1 0h1v1h-1zm32 0h1v1h-1z"/><path d="M137 28h3v8h-3zm4 0h1v1h-1zm11 0h1v1h-1zm123 0h1v1h-1zM1 29h1v1H1zm9 0h1v3h-1zm1 0h1v1h-1zm1 0h1v1h-1zm13 0h1v1h-1zm9 0h1v1h-1zm3 0h1v1h-1zm47 0h1v1h-1zm8 0h1v1h-1zm3 0h1v1h-1zm9 0h1v1h-1zm12 0h1v1h-1zm20 0h1v1h-1zm5 0h1v5h-1zm1 0h1v1h-1zm96 0h1v1h-1zm39 0h1v1h-1zm1 0h1v1h-1zm15 0h1v1h-1zM1 30h1v1H1z"/><path d="M2 30h19v1H2zm20 0h1v1h-1zm3 0h1v1h-1zm9 0h1v1h-1zm3 0h1v1h-1zm47 0h1v1h-1zm8 0h1v1h-1zm3 0h1v1h-1zm9 0h1v1h-1zm12 0h1v1h-1zm19 0h1v1h-1zm1 0h5v6h-5zm6 0h1v1h-1zm133 0h1v1h-1zM2 31h1v1H2zm1 0h18v1H3zm19 0h1v1h-1zm3 0h1v1h-1zm9 0h1v1h-1zm3 0h1v1h-1zm47 0h1v1h-1zm8 0h1v1h-1zm3 0h1v1h-1zm8 0h1v1h-1zm4 0h8v1h-8zm9 0h1v1h-1zm18 0h1v1h-1z"/><path d="M135 31h7v3h-7zm7 0h1v1h-1zm1 0h1v1h-1zM3 32h1v1H3zm1 0h7v1H4zm7 0h1v1h-1zm1 0h1v1h-1zm1 0h1v1h-1zm9 0h1v1h-1zm3 0h1v1h-1zm9 0h1v1h-1zm1 0h1v1h-1zm1 0h1v1h-1zm1 0h8v2h-8zm47 0h1v1h-1zm1 0h6v1h-6zm7 0h1v1h-1zm1 0h1v1h-1zm1 0h1v1h-1zm1 0h1v1h-1zm8 0h1v1h-1zm4 0h1v1h-1zm1 0h7v2h-7zm8 0h1v1h-1zm1 0h1v1h-1zm1 0h1v1h-1zm16 0h1v1h-1zm8 0h1v1h-1zm1 0h1v1h-1zm12 0h1v1h-1zM4 33h1v1H4zm1 0h1v1H5zm1 0h3v1H6zm3 0h1v1H9zm1 0h1v1h-1zm1 0h1v1h-1zm2 0h1v1h-1zm9 0h1v1h-1zm3 0h1v1h-1z"/><path d="M26 33h19v1H26zm59 0h1v1h-1zm1 0h16v1H86zm16 0h1v1h-1zm1 0h1v1h-1zm4 0h1v1h-1zm9 0h1v3h-1zm1 0h1v3h-1zm1 0h1v1h-1zm15 0h1v1h-1zm1 0h7v3h-7zm8 0h1v1h-1zM13 34h1v1h-1zm9 0h1v1h-1zm4 0h1v1h-1zm1 0h18v1H27zm58 0h1v1h-1zm1 0h15v1H86zm15 0h1v1h-1zm1 0h1v1h-1zm5 0h1v1h-1z"/><path d="M108 34h9v1h-9zm10 0h1v1h-1zm15 0h1v1h-1zm8 0h1v1h-1zm1 0h1v1h-1zm12 0h1v1h-1zM1 35h1v1H1zm1 0h6v1H2zm6 0h1v1H8zm1 0h1v1H9zm1 0h1v1h-1zm3 0h1v1h-1zm9 0h1v1h-1zm4 0h1v1h-1zm1 0h8v1h-8zm8 0h1v1h-1zm1 0h1v1h-1zm1 0h1v1h-1zm9 0h1v1h-1zm3 0h1v1h-1zm9 0h1v1h-1zm3 0h1v1h-1zm20 0h1v1h-1zm5 0h1v1h-1zm1 0h1v1h-1zm1 0h12v1H88zm12 0h1v1h-1zm1 0h1v1h-1zm1 0h1v1h-1zm6 0h1v1h-1zm1 0h8v1h-8zm9 0h1v1h-1zm2 0h1v1h-1zm9 0h1v1h-1zm3 0h1v1h-1zm1 0h7v1h-7zm8 0h1v1h-1zM1 36h1v1H1zm1 0h7v1H2zm7 0h1v4H9zm1 0h1v1h-1zm1 0h1v1h-1zm1 0h1v1h-1zm1 0h1v1h-1zm8 0h1v1h-1zm6 0h1v1h-1zm1 0h1v1h-1zm1 0h5v1h-5zm5 0h1v1h-1zm1 0h1v1h-1zm2 0h1v1h-1zm1 0h7v1h-7zm7 0h1v1h-1zm1 0h1v1h-1zm3 0h1v1h-1zm1 0h7v1h-7zm7 0h1v1h-1zm1 0h1v1h-1zm3 0h1v1h-1zm1 0h7v1h-7zm7 0h1v1h-1zm1 0h1v1h-1zm3 0h7v1h-7zm7 0h1v1h-1zm1 0h1v1h-1zm7 0h1v1h-1zm1 0h1v1h-1zm1 0h8v1h-8zm8 0h1v1h-1zm1 0h1v1h-1zm1 0h1v1h-1zm9 0h1v1h-1zm1 0h1v1h-1zm1 0h1v1h-1zm1 0h6v1h-6zm6 0h1v1h-1zm2 0h1v1h-1zm1 0h7v1h-7zm7 0h1v1h-1zm1 0h1v1h-1zm2 0h1v1h-1zm1 0h8v1h-8zm8 0h1v1h-1zm1 0h1v1h-1zM1 37h1v1H1z"/><path d="M2 37h18v1H2zm18 0h1v1h-1zm1 0h1v1h-1zm8 0h1v1h-1zm1 0h1v1h-1zm1 0h1v1h-1zm1 0h1v1h-1zm1 0h1v1h-1zm57 0h1v1h-1zm1 0h1v1h-1zm1 0h1v1h-1zm1 0h1v1h-1zm1 0h1v1h-1zm1 0h1v1h-1zm1 0h1v1h-1zm1 0h1v1h-1zm1 0h1v1h-1zm33 0h1v1h-1zm1 0h1v1h-1zm1 0h1v1h-1zm1 0h5v1h-5zm5 0h1v1h-1zm1 0h1v1h-1zm6 0h1v1h-1zM2 38h1v1H2zm1 0h16v1H3zm16 0h1v1h-1zm1 0h1v1h-1zM2 39h1v1H2zm1 0h1v1H3zm1 0h14v1H4zm14 0h1v1h-1zm1 0h1v1h-1zM4 40h1v1H4zm1 0h1v1H5zm1 0h9v1H6zm9 0h1v1h-1zm1 0h1v1h-1zm1 0h1v1h-1zm1 0h1v1h-1zM7 41h1v1H7zm1 0h1v1H8zm1 0h1v1H9zm1 0h1v1h-1zm1 0h1v1h-1zm1 0h1v1h-1zm1 0h1v1h-1zm1 0h1v1h-1zm1 0h1v1h-1z"/><path fill="#c8c8c8" d="M145 11h1v1h-1z"/><path fill="#9c9b9c" d="M144 19h1v1h-1z"/><path fill="#8d8e8b" d="M151 28h1v1h-1z"/><path fill="#2f9038" d="M138 10h1v1h-1z"/><path fill="#e2dfe2" d="M136 17h1v1h-1z"/><path fill="#b8bab5" d="M145 20h1v1h-1z"/><path fill="#23702a" d="M142 22h1v1h-1z"/><g fill="#adafaa"><path d="M145 22h1v1h-1zm1 0h1v3h-1zm-1 1h1v1h-1zm-4 1h1v1h-1zm6 0h1v3h-1zm-5 1h1v1h-1zm1 0h1v2h-1z"/><path d="M146 25h2v1h-2zm2 0h1v3h-1zm-6 1h1v1h-1zm1 1h1v1h-1zm1 0h1v2h-1z"/><path d="M147 27h2v1h-2zm2 0h1v3h-1z"/><path d="M148 28h2v1h-2zm2 0h1v4h-1zm-6 1h1v1h-1zm1 0h1v2h-1zm1 1h1v3h-1z"/><path d="M149 30h2v1h-2zm2 0h1v1h-1zm-6 1h1v1h-1zm6 0h1v1h-1zm-4 1h1v1h-1zm3 0h1v1h-1zm-4 1h1v1h-1zm1 0h1v1h-1z"/></g><path fill="#bcbeba" d="M149 32h1v1h-1z"/><path fill="#a0a29d" d="M154 33h1v1h-1z"/><g fill="#34a23f"><path d="M135 14h1v1h-1zm1 1h1v1h-1z"/></g><path fill="#bfbfbf" d="M132 19h1v1h-1z"/></svg>