<svg xmlns="http://www.w3.org/2000/svg" role="img" viewBox="-7.20 -7.20 374.14 98.14"><title>Wingtra AG logo</title><path d="M45 0h1v1h-1zm10 2h1v1h-1zm21 16h1v1h-1zm177 4h1v1h-1zm-44 1h1v1h-1zm1 1h1v1h-1zM91 27h1v1h-1zm-29 1h1v1h-1zm52 0h1v1h-1zm117 5h1v1h-1zM0 35h1v1H0zm95 5h1v1h-1zm-24 4h1v1h-1zm159 2h1v1h-1zM65 50h1v1h-1zm268 0h1v1h-1zM99 53h1v1h-1zm17 1h1v1h-1zm-38 8h1v1h-1zm156 1h1v1h-1zM49 66h1v1h-1zm-2 2h1v1h-1z" fill="#e1562c"/><path d="M33 1h1v1h-1zm-4 1h1v1h-1zm-5 2h1v1h-1zm-2 1h1v1h-1zm39 0h1v1h-1zm1 1h1v1h-1zM49 7h1v1h-1zm-24 3h1v1h-1zm43 0h1v1h-1zm3 3h1v1h-1zm2 2h1v1h-1zm2 2h1v1h-1zm-49 1h2v1h-2zm2 0h1v1h-1zm8 0h1v1h-1zm40 1h1v1h-1zm201 1h11v1h-11zm11 0h1v1h-1zm33 0h1v1h-1zm15 0h1v1h-1zm4 0h1v1h-1zM77 21h1v1h-1zm107 0h1v1h-1zm21 0h1v1h-1zm26 0h1v1h-1zm17 0h1v1h-1zm-41 1h1v1h-1zm47 1h1v1h-1zm34 1h1v1h-1zm-24 1h1v1h-1zM3 26h1v1H3zm112 0h1v1h-1zm12 1h1v1h-1zm189 2h1v1h-1zm-117 1h1v1h-1zm127 0h1v1h-1zm-188 1h1v1h-1zm62 0h1v1h-1zm-96 1h1v1h-1zm203 1h1v1h-1zm-77 1h1v1h-1zm-44 1h1v1h-1zm15 0h1v1h-1zm105 0h1v1h-1zm-169 1h1v1h-1zm169 0h1v1h-1zm53 0h1v2h-1zm-20 1h1v1h-1zm-193 1h1v1h-1zm213 0h1v1h-1zM95 39h1v1h-1zm35 0h1v1h-1zm216 0h1v1h-1zM83 41h1v1h-1zm53 0h1v1h-1zM6 42h1v1H6zm91 3h1v1h-1zm35 1h1v1h-1zm227 0h1v1h-1zm-141 1h1v1h-1zm-101 1h1v1h-1zm7 0h1v1h-1zm19 0h1v1h-1zm190 0h1v1h-1zM65 49h1v1h-1zm-1 1h1v1h-1zm284 0h1v1h-1zM63 51h1v1h-1zm-1 1h1v1h-1zm37 0h1v1h-1zM8 53h1v1H8zm53 0h1v1h-1zm-1 1h1v1h-1zm205 0h1v1h-1zm81 0h1v1h-1zm-81 1h1v1h-1zm72 0h1v1h-1zM9 56h1v1H9zm118 2h1v1h-1zm95 0h1v1h-1zm103 1h1v1h-1zm-82 1h1v1h-1zM78 61h1v1h-1zm148 0h1v1h-1zm-87 1h1v1h-1zm89 0h1v1h-1zm131 0h1v1h-1zm-76 1h1v1h-1zM38 67h1v1h-1zm22 5h1v1h-1zm-33 2h1v1h-1zm203 0h1v1h-1zm1 0h1v1h-1zm1 0h1v1h-1zm1 0h1v1h-1zm21 0h1v1h-1zM30 75h1v1h-1zm223 0h1v1h-1zM50 76h1v1h-1zm9 3h1v1h-1zm-4 2h1v1h-1zm188 1h1v1h-1zM42 83h1v1h-1zm1 0h1v1h-1z" fill="#e0552a"/><path d="M51 1h1v1h-1zM29 9h1v1h-1zm247 0h1v10h-1zM40 19h1v1h-1zm236 0h1v1h-1zm13 1h1v1h-1zM4 23h1v1H4zm-1 2h1v1H3zm62 0h1v1h-1zm85 2h1v1h-1zM2 28h1v1H2zm336 1h1v1h-1zm-62 1h1v16h-1zM82 31h1v1h-1zm11 2h1v1h-1zm214 1h1v1h-1zm33 3h1v1h-1zm-229 2h1v1h-1zm-4 6h1v1h-1zm-31 1h1v1h-1zm200 0h1v1h-1zM68 47h1v1h-1zm177 0h1v1h-1zM9 55h1v1H9zm117 1h1v1h-1zm0 1h1v1h-1zm-11 1h1v1h-1zm209 1h1v1h-1zm-210 2h1v1h-1zm170 2h1v1h-1zM28 74h1v1h-1zm24 1h1v1h-1zm10 3h1v1h-1zm187 2h1v1h-1z" fill="#df562b"/><path d="M53 1h1v1h-1zM41 7h1v1h-1zm2 14h1v1h-1zm142 1h1v1h-1zm138 3h1v1h-1zm-173 3h1v1h-1zm83 3h1v1h-1zm77 0h1v1h-1zm-179 8h1v1h-1zm-36 2h1v1h-1zm-19 1h1v1h-1zm42 6h1v1h-1zm160 4h1v1h-1zm-33 9h1v1h-1zM54 82h1v1h-1z" fill="#e15a2d"/><path d="M40 7h1v1h-1zm207 13h1v1h-1zm-16 14h1v1h-1zm100 3h1v1h-1zm-210 3h1v1h-1zm-45 3h1v1h-1zm268 11h1v1h-1zM65 67h1v1h-1zm-19 2h1v1h-1zm173 9h1v1h-1z" fill="#e6552b"/><path d="M39 0h1v1h-1zm7 0h1v1h-1zm4 1h1v1h-1zm7 2h1v1h-1zM30 8h1v1h-1zm21 0h1v1h-1zm2 0h1v1h-1zm218 0h1v1h-1zm2 0h1v1h-1zm3 0h1v1h-1zM55 9h1v1h-1zm209 0h1v1h-1zm4 0h1v1h-1zM15 10h1v1h-1zm11 0h1v1h-1zm43 1h1v1h-1zm-8 1h1v1h-1zm9 0h1v1h-1zm-59 1h1v1h-1zm51 0h1v1h-1zm-45 3h1v1h-1zm-9 1h1v1H8zm8 0h1v1h-1zm51 0h1v1h-1zm-34 1h2v1h-2zm2 0h1v1h-1zm33 0h1v1h-1zm-27 2h1v1h-1zm28 0h1v1h-1zm130 0h1v1h-1zm1 0h1v1h-1zm33 0h1v1h-1zm7 0h1v1h-1zm1 0h1v1h-1zm2 0h1v1h-1zm2 0h1v1h-1zm31 0h1v1h-1zm42 0h1v1h-1zm1 0h1v1h-1zm16 0h1v1h-1zM42 21h1v1h-1zm27 0h1v1h-1zm195 0h1v1h-1zm65 0h1v1h-1zm1 0h1v1h-1zm-190 1h1v1h-1zm49 0h1v1h-1zm63 0h1v1h-1zm57 0h1v1h-1zm18 0h1v1h-1zm24 0h1v1h-1zM67 23h1v1h-1zm23 0h1v1h-1zm12 0h1v1h-1zm124 0h1v1h-1zm81 0h1v1h-1zM4 24h1v1H4zm62 0h1v1h-1zm13 0h1v1h-1zm108 0h1v1h-1zm167 0h1v1h-1zM44 25h1v1h-1zm47 0h1v1h-1zm24 0h1v1h-1zm35 0h1v1h-1zm138 0h1v1h-1zm-161 1h1v1h-1zm84 0h1v1h-1zm145 0h1v1h-1zM80 27h1v1h-1zm141 0h1v1h-1zm43 0h1v1h-1zm24 0h1v1h-1zM81 28h1v1h-1zm22 0h1v1h-1zM2 29h1v1H2zm79 0h1v1h-1zm11 0h1v1h-1zm36 0h1v1h-1zm65 0h1v1h-1zm2 0h1v1h-1zm40 0h1v1h-1zm5 0h1v1h-1zm75 0h1v1h-1zm2 0h1v1h-1zm15 0h1v1h-1zm10 0h1v1h-1zm16 0h1v1h-1zM60 30h1v1h-1zm21 0h1v1h-1zm57 0h1v1h-1zm75 0h1v1h-1zm7 0h1v1h-1zm126 1h1v1h-1zM93 32h1v1h-1zm55 0h1v1h-1zm39 0h1v1h-1zm44 0h1v1h-1zm116 0h1v1h-1zM82 33h1v1h-1zm277 0h1v1h-1zM17 34h6v1h-6zm6 0h1v1h-1zm1 0h1v1h-1zm1 0h1v1h-1zm104 0h1v1h-1zm19 0h1v1h-1zm53 0h1v1h-1zm12 0h1v1h-1zm135 1h1v1h-1zm11 0h1v1h-1zM94 36h1v1h-1zm18 0h1v1h-1zm89 0h1v1h-1zm17 0h1v1h-1zM83 37h1v1h-1zm118 0h1v1h-1zm17 0h1v1h-1zm117 0h1v1h-1zm3 0h1v1h-1zM27 38h1v24h-1zm93 0h1v1h-1zm81 0h1v25h-1zm147 0h1v1h-1zm-212 1h1v1h-1zm10 0h1v1h-1zm40 0h1v24h-1zm173 0h1v1h-1zM6 40h1v1H6zm77 0h1v1h-1zm243 0h1v1h-1zm22 0h1v1h-1zM0 41h1v1H0zm122 0h1v1h-1zm-3 1h1v1h-1zm26 0h1v1h-1zM0 43h1v1H0zm135 0h1v1h-1zm-65 1h1v1h-1zm53 0h1v1h-1zM6 45h1v1H6zm39 0h1v1h-1zm24 0h1v1h-1zm41 0h1v1h-1zm8 0h1v1h-1zm5 0h1v1h-1zm9 0h1v1h-1zm3 0h1v1h-1zm9 0h1v1h-1zm74 0h1v1h-1zm127 0h1v1h-1zM0 46h1v1H0zm68 0h1v1h-1zm-1 1h1v1h-1zm16 0h1v1h-1zm24 0h1v1h-1zm123 0h1v1h-1zm129 0h1v1h-1zM66 48h1v1h-1zm1 0h1v1h-1zm42 0h1v1h-1zm24 0h1v1h-1zm1 0h1v1h-1zm96 0h1v1h-1zm34 0h1v1h-1zm84 0h1v1h-1zM7 49h1v1H7zm101 0h1v1h-1zm168 0h1v1h-1zM7 50h1v1H7zm101 0h1v1h-1zm168 0h1v1h-1zm83 0h1v1h-1zm-95 1h1v1h-1zm69 0h1v1h-1zm26 0h1v1h-1zm-243 1h1v1h-1zm103 0h1v1h-1zm13 0h1v1h-1zm11 0h1v1h-1zm34 0h1v1h-1zm-135 1h1v1h-1zm136 0h1v1h-1zm44 0h1v1h-1zm-42 1h1v1h-1zm3 0h1v1h-1zm6 0h1v1h-1zm33 0h1v1h-1zm13 0h1v1h-1zm4 1h1v1h-1zm1 0h1v1h-1zm-119 1h1v1h-1zm102 1h1v1h-1zM73 58h1v1h-1zm286 0h1v1h-1zm-136 1h1v1h-1zm21 0h1v1h-1zm23 0h1v1h-1zm92 0h1v1h-1zM79 60h1v1h-1zm189 0h1v1h-1zM71 61h1v1h-1zm256 0h1v1h-1zM13 62h1v1h-1zm14 0h1v1h-1zm212 0h1v1h-1zm18 0h1v1h-1zM6 63h1v1H6zm7 0h1v1h-1zm64 0h1v1h-1zm36 0h1v1h-1zm15 0h1v1h-1zm58 0h1v1h-1zm15 0h1v1h-1zm35 0h1v1h-1zm21 0h1v1h-1zm18 0h1v1h-1zm2 0h1v1h-1zm1 0h1v1h-1zm2 0h1v1h-1zm1 0h1v1h-1zm57 0h1v1h-1zm1 0h1v1h-1zM51 64h1v1h-1zm18 0h1v1h-1zM7 65h1v1H7zm8 0h1v1h-1zm53 0h1v1h-1zm189 0h1v1h-1zM8 66h1v1H8zm8 0h1v1h-1zm51 0h1v1h-1zm178 0h1v1h-1zm12 0h1v1h-1zM17 67h1v1h-1zm57 0h1v1h-1zm183 0h1v1h-1zM9 68h1v1H9zm9 0h1v1h-1zm22 0h1v1h-1zm25 0h1v1h-1zm-55 1h1v1h-1zm32 0h1v1h-1zm3 0h1v1h-1zm211 0h1v1h-1zM20 70h1v1h-1zm1 0h1v1h-1zm41 0h1v1h-1zm-1 1h1v1h-1zm10 0h1v1h-1zm-57 2h1v1h-1zm44 0h1v1h-1zm181 0h1v1h-1zm1 0h1v1h-1zM15 74h1v1h-1zm40 0h1v1h-1zm1 0h1v1h-1zm-39 1h1v1h-1zm49 0h1v1h-1zm-48 1h1v1h-1zm16 0h1v1h-1zm186 0h1v1h-1zM20 77h1v1h-1zm18 0h1v1h-1zm3 0h1v1h-1zm16 3h1v1h-1zm163 1h1v1h-1zm24 1h1v1h-1zM37 83h1v1h-1zm3 0h1v1h-1zm4 0h1v1h-1zm3 0h1v1h-1zm1 0h1v1h-1zm185 0h1v1h-1zm2 0h1v1h-1zm3 0h1v1h-1zm1 0h1v1h-1z" fill="#e0552b"/><path d="M311 20h1v1h-1zm-126 1h1v1h-1zm-95 4h1v1h-1zm132 0h1v1h-1zm-93 6h1v1h-1zm180 1h1v1h-1zM93 35h1v1h-1zm27 6h1v1h-1zm7 21h1v1h-1zm-49 1h1v1h-1zm194 0h1v1h-1zM28 64h1v1h-1zm43 8h1v1h-1zm182 5h1v1h-1z" fill="#f55"/><path d="M190 21h1v1h-1zm-39 3h1v1h-1zm169 6h1v1h-1zm-75 32h1v1h-1zm105 1h8v1h-8zm8 0h1v1h-1zM219 81h1v1h-1zm23 2h1v1h-1z" fill="#e3552d"/><path d="M48 0h1v1h-1zm298 32h1v1h-1zM27 63h1v1h-1zm303 0h1v1h-1z" fill="#e3582e"/><path d="M64 6h1v1h-1zm128 14h1v1h-1zM81 27h1v1h-1zm260 18h1v1h-1zM97 48h1v1h-1zm27 3h1v1h-1zm210 1h1v1h-1zM15 64h1v1h-1zm4 4h1v1h-1z" fill="#eb623b"/><path d="M42 7h1v1h-1zM5 20h1v1H5zm-4 9h1v1H1zm287 0h1v1h-1zm-176 5h1v1h-1zm-1 4h1v1h-1zm33 10h1v1h-1zm133 2h1v1h-1zM79 61h1v1h-1zm-13 5h1v1h-1zm174 6h1v1h-1zm-20 1h1v1h-1zM63 78h1v1h-1z" fill="#e85d2e"/><path d="M66 17h1v1h-1zM2 27h1v1H2zm128 9h1v1h-1z" fill="#e1562d"/><path d="M193 20h1v1h-1zM79 23h1v1h-1zm244 1h1v1h-1zm-195 4h1v1h-1zm209 1h1v1h-1zm-140 1h1v1h-1zm-10 4h1v1h-1zm43 5h1v1h-1zM75 40h1v1h-1zm58 7h1v1h-1zm-17 8h1v1h-1zm206 0h1v1h-1zm-222 2h1v1h-1zm259 6h1v1h-1zM31 65h1v1h-1zm44 2h1v1h-1zM64 77h1v1h-1z" fill="#e0572c"/><path d="M139 23h1v1h-1zm-48 5h1v1h-1zm217 5h1v1h-1zm-202 5h1v1h-1zm120 24h1v1h-1zm44 0h1v1h-1z" fill="#e53"/><path d="M41 0h1v1h-1zm1 0h1v1h-1zm11 2h1v1h-1zm5 2h1v1h-1zM35 7h1v1h-1zm13 0h1v1h-1zM31 8h1v1h-1zm243 0h1v1h-1zM27 9h1v1h-1zm1 0h1v1h-1zm238 0h1v1h-1zM13 11h1v1h-1zm3 7h1v1h-1zm13 0h3v1h-3zm3 0h1v1h-1zm7 1h1v1h-1zm156 1h1v1h-1zm7 0h1v1h-1zm40 0h1v1h-1zm22 0h1v1h-1zm52 0h1v1h-1zm22 0h1v1h-1zm5 0h1v1h-1zm3 0h1v1h-1zm-172 1h9v1h-9zm9 0h1v1h-1zm121 0h1v1h-1zm44 0h1v1h-1zm2 0h1v1h-1zM68 22h1v1h-1zm183 0h1v1h-1zm-111 1h1v1h-1zm11 0h1v1h-1zm202 0h1v1h-1zm-130 2h1v1h-1zM91 26h1v1h-1zm48 0h1v1h-1zm0 1h1v1h-1zm125 1h1v1h-1zM61 29h1v1h-1zm159 0h1v1h-1zm23 0h1v1h-1zm71 0h1v1h-1zm4 0h1v1h-1zm13 0h1v1h-1zm3 0h1v1h-1zm1 0h1v1h-1zm-231 1h1v1h-1zm129 0h1v1h-1zm111 0h1v1h-1zm1 0h1v1h-1zm-132 2h1v1h-1zM8 34h8v1H8zm8 0h1v1h-1zm78 1h1v1h-1zm136 0h1v1h-1zm104 2h1v1h-1zm14 0h1v1h-1zm-243 1h1v1h-1zm7 0h1v1h-1zM6 39h1v1H6zm342 0h1v1h-1zm-237 1h1v1h-1zm236 0h1v1h-1zM83 42h1v1h-1zm13 0h1v1h-1zm10 0h1v1h-1zm-23 1h1v1h-1zM6 44h1v1H6zm40 0h1v1h-1zm37 0h1v1h-1zm147 0h1v1h-1zM0 45h1v1H0zm322 1h1v1h-1zm12 0h1v1h-1zm-12 2h1v1h-1zM66 49h1v1h-1zm68 0h1v1h-1zm97 1h1v1h-1zm91 0h1v1h-1zM75 51h1v1h-1zM8 52h1v1H8zm325 0h1v1h-1zM59 55h1v1h-1zm15 0h1v1h-1zm267 0h1v1h-1zm3 0h1v1h-1zM58 56h1v1h-1zm16 0h1v1h-1zm-17 1h1v1h-1zM3 58h1v1H3zm53 0h1v1h-1zm84 0h1v1h-1zm127 0h1v1h-1zM55 59h1v1h-1zm24 0h1v1h-1zm35 0h1v1h-1zM4 60h1v1H4zm50 0h1v1h-1zm60 0h1v1h-1zm212 0h1v1h-1zm33 0h1v1h-1zM53 61h1v1h-1zm188 0h1v1h-1zm108 0h1v1h-1zm10 0h1v1h-1zm-16 1h1v1h-1zm-241 1h1v1h-1zm229 0h1v1h-1zM30 64h1v1h-1zm46 0h1v1h-1zm169 1h1v1h-1zM75 66h1v1h-1zm-36 2h1v1h-1zm5 1h1v1h-1zm-33 1h1v1h-1zm245 0h1v1h-1zM13 72h1v1h-1zm57 0h1v1h-1zm185 0h1v1h-1zM31 75h1v1h-1zm22 0h1v1h-1zm-20 1h1v1h-1zm6 1h1v1h-1zm-16 2h1v1h-1zm2 1h1v1h-1zm33 0h1v1h-1zm-20 3h1v1h-1zm190 0h1v1h-1zm4 0h1v1h-1zm4 0h1v1h-1z" fill="#e0542a"/><path d="M65 7h1v1h-1zm0 9h1v1h-1zm262 5h1v1h-1zm1 9h1v1h-1zm-129 1h1v1h-1zM0 49h1v1H0zm124 1h1v1h-1zm141 6h1v1h-1zM29 64h1v1h-1zm5 19h1v1h-1z" fill="#df562d"/><path d="M10 14h1v1h-1zm27 4h1v1h-1zm40 2h1v1h-1zm178 3h1v1h-1zm71 2h1v1h-1zm0 1h1v1h-1zm-4 2h1v1h-1zm-81 1h1v1h-1zm81 0h1v1h-1zm-173 1h1v1h-1zm51 2h1v1h-1zm159 0h1v1h-1zm-230 1h1v1h-1zM7 35h1v1H7zm211 0h1v1h-1zm-112 5h1v1h-1zm39 3h1v1h-1zm-10 1h1v1h-1zm209 1h1v1h-1zM0 47h1v1H0zm245 1h1v1h-1zM82 51h1v1h-1zm137 2h1v1h-1zm67 1h1v1h-1zM73 57h1v1h-1zm42 0h1v1h-1zM12 61h1v1h-1zm257 0h1v1h-1zM70 62h1v1h-1zm170 0h1v1h-1zm92 1h1v1h-1zM8 67h1v1H8zm14 4h1v1h-1zm-6 4h1v1h-1zm33 1h1v1h-1zm-13 7h1v1h-1z" fill="#e0562c"/><path d="M62 14h1v1h-1zm268 6h1v1h-1zm23 2h1v1h-1zm-64 2h1v1h-1zm-77 2h1v1h-1zm107 4h1v1h-1zM0 33h1v1H0zm80 26h1v1h-1zm34 4h1v1h-1zm-98 2h1v1h-1zm2 2h1v1h-1zm-9 2h1v1H9zm5 5h1v1h-1zm207 8h1v1h-1z" fill="#ff6d49"/><path d="M207 21h1v1h-1zm99 2h1v1h-1zm-155 2h1v1h-1zm-38 5h1v1h-1zM10 56h1v1h-1zm255 1h1v1h-1zm83 3h1v1h-1zM27 73h1v1h-1z" fill="#ff8040"/><path d="M31 1h1v1h-1zm-6 2h1v1h-1zm29 6h1v1h-1zm9 5h1v1h-1zm241 6h1v1h-1zm28 0h1v1h-1zm-82 1h1v1h-1zm38 7h1v1h-1zm-50 1h1v1h-1zm-48 1h1v1h-1zm8 0h1v1h-1zm113 0h1v1h-1zM94 37h1v1h-1zm42 1h1v1h-1zm-64 5h1v1h-1zm158 2h1v1h-1zm107 0h1v1h-1zm-213 4h1v1h-1zm-26 1h1v1h-1zm179 1h1v1h-1zm-42 2h1v1h-1zm54 3h1v1h-1zm-68 1h1v1h-1zm68 0h1v1h-1zM55 60h1v1h-1zm85 0h1v1h-1zm-90 5h1v1h-1zm-16 1h1v1h-1zm193 7h1v1h-1zm-7 2h1v1h-1zM48 76h1v1h-1z" fill="#e1542a"/><path d="M38 7h1v1h-1zm285 13h1v1h-1zm-115 2h1v1h-1zm-95 9h1v1h-1zm232 0h1v1h-1zM96 44h1v1h-1z" fill="#e0582c"/><path d="M272 8h1v1h-1zm-26 12h1v1h-1zm43 1h1v1h-1zm-186 4h1v1h-1zm34 9h1v1h-1zm81 0h1v1h-1zm124 3h1v1h-1zM52 38h1v1h-1zm79 2h1v1h-1zm99 0h1v2h-1zm0 2h1v1h-1zM47 43h1v1h-1zm183 0h1v1h-1zM7 48h1v1H7zm211 1h1v1h-1zm-75 1h1v1h-1zm-61 2h1v1h-1zm-23 4h1v1h-1zm-1 1h1v1h-1zm13 3h1v1h-1zm164 3h1v1h-1zM6 64h1v1H6zm239 0h1v1h-1zm-25 10h1v1h-1zM35 76h1v1h-1zm-16 1h1v1h-1zm37 4h1v1h-1zm166 1h1v1h-1z" fill="#e0552c"/><path d="M68 9h1v1h-1zm-51 8h1v1h-1zm172 14h1v1h-1zm-53 6h1v1h-1zm-29 6h1v1h-1zm235 20h1v1h-1z" fill="#e5582c"/><path d="M312 20h1v1h-1zM90 24h1v1h-1zm47 9h1v1h-1zm209 20h1v1h-1zM223 72h1v1h-1z" fill="#e2582e"/><path d="M226 22h1v1h-1zm102 16h1v1h-1z" fill="#e3552f"/><path d="M35 0h1v1h-1zM23 12h1v1h-1zm41 3h1v1h-1zm165 6h1v1h-1zM44 24h1v1h-1zm83 1h1v1h-1zm21 8h1v1h-1zm181 5h1v1h-1zm-208 1h1v1h-1zm-72 2h1v1h-1zm83 3h1v1h-1zM0 48h1v1H0zm218 2h1v1h-1zm14 1h1v1h-1zM1 53h1v1H1zm61 0h1v1h-1zm-52 4h1v1h-1zm315 3h1v1h-1zM4 61h1v1H4zm123 0h1v1h-1zm98 0h1v1h-1zm2 1h1v1h-1zm18 1h1v1h-1zM41 69h1v1h-1zm22 0h1v1h-1zm178 3h1v1h-1zM26 73h1v1h-1zm212 0h1v1h-1zm17 0h1v1h-1zM22 79h1v1h-1zm8 3h1v1h-1zm5 1h1v1h-1z" fill="#e1562b"/><path d="M15 9h1v1h-1zm24 9h1v1h-1zm100 6h1v1h-1zm-47 7h1v1h-1zm30 12h1v1h-1zm-3 1h1v1h-1zm26 0h1v1h-1zm98 7h1v1h-1zm-10 1h1v1h-1zM72 58h1v1h-1zm254 3h1v1h-1zm-97 12h1v1h-1zM47 76h1v1h-1z" fill="#e2572c"/><path d="M53 9h1v1h-1zm94 29h1v1h-1zm-71 3h1v1h-1zM2 57h1v1H2zm24 24h1v1h-1z" fill="#e45e36"/><path d="M60 12h1v1h-1zm-22 6h1v1h-1zm77 6h1v1h-1zm23 5h1v1h-1zM48 42h1v1h-1zm15 10h1v1h-1zm6 11h1v1h-1zm272 0h1v1h-1zM74 68h1v1h-1z" fill="#e1542b"/><path d="M357 26h1v1h-1zm-14 4h1v1h-1zm-8 16h1v1h-1zM3 59h1v1H3zm137 2h1v1h-1zM24 80h1v1h-1z" fill="#e0572e"/><path d="M39 7h1v1h-1zm292 13h1v1h-1zM108 48h1v1h-1zm228 6h1v1h-1zm-116 2h1v1h-1zM7 66h1v1H7zm47 8h1v1h-1zm-37 2h1v1h-1z" fill="#e2572e"/><path d="M62 5h1v1h-1zM44 7h1v1h-1zm310 16h1v1h-1zM105 34h1v1h-1zm134 19h1v1h-1z" fill="#e2582c"/><path d="M52 8h1v1h-1zm186 12h1v1h-1zm84 6h1v1h-1zm4 2h1v1h-1zm-94 3h1v1h-1zm-85 4h1v1h-1zM6 43h1v1H6zm341 3h1v1h-1zm-83 3h1v1h-1zm95 5h1v1h-1zm-30 8h1v1h-1zM46 68h1v1h-1zm190 6h1v1h-1zM40 77h1v1h-1zm212 0h1v1h-1zm-31 4h1v1h-1zm16 2h1v1h-1z" fill="#df552a"/><path d="M73 14h1v1h-1zm5 7h1v1h-1zm166 9h1v1h-1zm103 4h1v1h-1zM83 35h1v1h-1zm0 13h1v1h-1zm190 15h1v1h-1zM60 71h1v1h-1z" fill="#e1552d"/><path d="M19 15h1v1h-1zm116 27h1v1h-1zm110 3h1v1h-1zm-136 1h1v1h-1zm127 7h1v1h-1zM67 75h1v1h-1z" fill="#e2572b"/><path d="M74 15h1v1h-1zm182 8h1v1h-1zm-129 1h1v1h-1zm198 5h1v1h-1zM132 43h1v1h-1zm86 8h1v1h-1zm20 12h1v1h-1z" fill="#e45b2e"/><path d="M325 30h1v1h-1zM0 34h1v1H0zm120 6h1v1h-1z" fill="#df572e"/><path d="M32 1h1v1h-1zm-9 3h1v1h-1zm11 3h1v1h-1zm13 0h1v1h-1zm17 0h1v1h-1zM17 8h1v1h-1zm49 0h1v1h-1zm209 0h1v1h-1zM16 9h1v1h-1zm251 0h1v1h-1zM57 10h1v1h-1zm-33 1h1v1h-1zm-12 1h1v1h-1zm10 0h1v1h-1zm50 2h1v1h-1zm-54 1h1v1h-1zm47 0h1v1h-1zm129 5h1v1h-1zm40 0h1v1h-1zm5 0h1v1h-1zm5 0h1v1h-1zm76 0h1v1h-1zm19 0h1v1h-1zm3 0h1v1h-1zm2 0h1v1h-1zM5 21h1v1H5zm323 0h1v1h-1zM78 22h1v1h-1zm12 0h1v1h-1zm61 0h1v1h-1zm201 0h1v1h-1zm-29 1h1v1h-1zm-137 1h1v1h-1zm78 0h1v1h-1zm-54 1h1v1h-1zm95 0h1v1h-1zm50 0h1v1h-1zM44 26h1v1h-1zm106 0h1v1h-1zm72 0h1v1h-1zm-73 2h1v1h-1zm90 1h1v1h-1zm74 0h1v1h-1zm6 0h1v1h-1zm11 0h1v1h-1zm-85 1h1v1h-1zm65 0h1v1h-1zm17 0h1v1h-1zM1 31h1v1H1zm308 0h1v1h-1zM1 32h1v1H1zm57 0h1v1h-1zm24 0h1v1h-1zm56 0h1v1h-1zm81 0h1v1h-1zm0 1h1v1h-1zM7 34h1v1H7zm75 0h1v1h-1zm23 1h1v1h-1zm32 0h1v1h-1zM0 36h1v1H0zm230 0h1v1h-1zM0 37h1v1H0zm27 0h1v1h-1zm26 0h1v1h-1zm52 0h1v1h-1zm15 0h1v1h-1zm217 0h1v1h-1zm4 0h1v1h-1zM0 38h1v1H0zm121 0h1v1h-1zm9 0h1v1h-1zm56 0h1v1h-1zm120 0h1v1h-1zM75 39h1v1h-1zm253 0h1v1h-1zM74 40h1v1h-1zm62 0h1v1h-1zm82 0h1v1h-1zm141 0h1v1h-1zM73 41h1v1h-1zm286 0h1v1h-1zM72 42h1v1h-1zm50 0h1v1h-1zm-51 1h1v1h-1zm39 1h1v1h-1zm-66 2h1v1h-1zm100 0h1v1h-1zm74 0h1v1h-1zm46 1h1v1h-1zm95 1h1v1h-1zM76 49h1v1h-1zm272 0h1v1h-1zm11 0h1v1h-1zm-95 1h1v1h-1zm-33 1h1v1h-1zm91 0h1v1h-1zm-206 2h1v1h-1zm163 0h1v1h-1zM8 54h1v1H8zm73 0h1v1h-1zm60 1h1v1h-1zM2 56h1v1H2zm113 0h1v1h-1zm244 0h1v1h-1zm-218 1h1v1h-1zm218 0h1v1h-1zM57 58h1v1h-1zm83 1h1v1h-1zm-13 1h1v1h-1zm161 0h1v1h-1zm-46 1h1v1h-1zm46 0h1v1h-1zm-160 1h1v1h-1zm101 0h1v1h-1zm58 0h1v1h-1zm1 0h1v1h-1zM52 63h1v1h-1zm181 0h1v1h-1zm43 0h1v1h-1zm3 0h1v1h-1zm55 0h1v1h-1zm2 0h1v1h-1zm-79 1h1v1h-1zM32 65h1v1h-1zm34 2h1v1h-1zm-2 2h1v1h-1zm179 2h1v1h-1zm-18 2h1v1h-1zM29 75h1v1h-1zm36 1h1v1h-1zm-22 1h1v1h-1zm205 3h1v1h-1zM27 81h1v1h-1zm24 1h1v1h-1zm172 0h1v1h-1zM41 83h1v1h-1zm193 0h1v1h-1z" fill="#e0542b"/><path d="M270 8h1v1h-1zM76 45h1v1h-1zm270 1h1v1h-1zM99 54h1v1h-1zm131 9h1v1h-1zM77 64h1v1h-1z" fill="#e0552d"/><path d="M59 12h1v1h-1zm86 33h1v1h-1zM6 65h1v1H6zm12 12h1v1h-1zm39 4h1v1h-1zm191 0h1v1h-1zm-2 1h1v1h-1zm-21 1h1v1h-1z" fill="#ff552b"/><path d="M18 16h1v1h-1zm308 7h1v1h-1zm3 7h1v1h-1zM7 37h1v1H7zm336 0h1v1h-1zM98 51h1v1h-1zm139 2h1v1h-1zM5 63h1v1H5zm252 5h1v1h-1zM20 78h1v1h-1z" fill="#df5830"/><path d="M75 16h1v1h-1zm156 4h1v1h-1zm-3 1h1v1h-1zm-5 3h1v1h-1zm-5 9h1v1h-1zM83 49h1v1h-1zm17 9h1v1h-1zm152 20h1v1h-1z" fill="#ea552b"/><path d="M50 8h1v1h-1zm259 13h1v1h-1zM4 22h1v1H4zm184 0h1v1h-1zm-84 7h1v1h-1zm-22 1h1v1h-1zm47 2h1v1h-1zm195 9h1v1h-1zm14 4h1v1h-1zm4 0h1v1h-1zm-99 16h1v1h-1zM56 73h1v1h-1z" fill="#e3552b"/><path d="M60 4h1v1h-1zm-2 7h1v1h-1zm268 13h1v1h-1zM112 35h1v1h-1zM7 36h1v1H7z" fill="#e0562d"/><path d="M347 20h1v1h-1zm-1 41h1v1h-1zM242 71h1v1h-1zm12 4h1v1h-1z" fill="#df582c"/><path d="M116 23h9v1h-9zm9 0h1v1h-1zm198 20h1v1h-1zm-78 3h1v1h-1zm19 7h1v1h-1zm-27 10h1v1h-1z" fill="#e2562b"/><path d="M245 31h1v12h-1zm-57 1h1v1h-1zm57 11h1v1h-1zM82 53h1v1h-1zM1 54h1v1H1zm244 6h1v1h-1zM67 65h1v1h-1zm-29 3h1v1h-1zm-9 14h1v1h-1z" fill="#e0552e"/><path d="M47 0h1v1h-1zM28 2h1v1h-1zm237 7h1v1h-1zM21 13h1v1h-1zM7 18h1v1H7zm61 1h1v1h-1zm245 1h1v1h-1zm20 0h1v1h-1zm12 0h1v1h-1zM43 22h1v1h-1zm144 1h1v1h-1zm37 1h1v1h-1zm-13 1h1v1h-1zM80 26h1v1h-1zm-21 5h1v1h-1zm249 1h1v1h-1zm39 1h1v1h-1zM26 35h1v1h-1zm28 1h1v1h-1zm29 0h1v1h-1zm103 1h1v1h-1zm159 1h1v1h-1zM76 39h1v1h-1zm-2 2h1v1h-1zm57 0h1v1h-1zm-24 3h1v1h-1zm11 3h1v1h-1zm-42 1h1v1h-1zm257 1h1v1h-1zm-216 1h1v1h-1zM1 52h1v1H1zm333 1h1v1h-1zm-50 1h1v1h-1zm61 0h1v1h-1zM81 55h1v1h-1zm185 3h1v1h-1zM11 59h1v1h-1zm337 0h1v1h-1zm-247 1h1v1h-1zM24 72h1v1h-1zm35 0h1v1h-1zm163 0h1v1h-1zM68 74h1v1h-1zm-8 5h1v1h-1zm159 0h1v1h-1zM31 82h1v1h-1zm21 0h1v1h-1zm1 0h1v1h-1z" fill="#e0562b"/><g fill="#df542a"><path d="M34 1h14v5H34zm14 0h1v5h-1z"/><path d="M30 2h22v4H30zm22 0h1v5h-1zm2 0h1v1h-1zM26 3h1v1h-1z"/><path d="M27 3h28v3H27zm28 0h1v5h-1zm1 0h1v1h-1z"/><path d="M25 4h32v2H25zm32 0h1v5h-1zM21 5h1v1h-1z"/><path d="M23 5h37v1H23zm37 0h1v6h-1zM20 6h1v1h-1z"/><path d="M21 6h40v1H21zm40 0h1v5h-1zM20 7h13v1H20zm13 0h1v1h-1z"/><path d="M50 7h13v1H50zm13 0h1v6h-1zM18 8h11v1H18zm11 0h1v1h-1z"/><path d="M54 8h11v1H54zm11 0h1v6h-1zM17 9h9v1h-9zm9 0h1v1h-1z"/><path d="M56 9h10v1H56zm10 0h1v6h-1zm203 0h6v51h-6zm6 0h1v53h-1zM16 10h8v1h-8zm8 0h1v1h-1z"/><path d="M58 10h9v1h-9zm9 0h1v6h-1zm198 0h10v43h-10zM14 11h9v1h-9zm9 0h1v1h-1zm36 0h1v1h-1z"/><path d="M60 11h8v1h-8zm8 0h1v6h-1zm-55 1h8v1h-8zm8 0h1v1h-1z"/><path d="M62 12h7v1h-7zm7 0h1v7h-1zm-57 1h8v1h-8zm8 0h1v1h-1z"/><path d="M63 13h7v1h-7zm7 0h1v30h-1zm-59 1h7v1h-7zm7 0h1v1h-1zm1 0h1v1h-1zm1 0h1v1h-1z"/><path d="M64 14h7v1h-7zm7 0h1v28h-1zm-61 1h7v1h-7zm7 0h1v1h-1z"/><path d="M66 15h6v1h-6zm6 0h1v26h-1zm-62 1h6v17h-6zm6 0h1v1h-1zm50 0h1v1h-1z"/><path d="M67 16h6v1h-6zm6 0h1v24h-1zM9 17h6v16H9z"/><path d="M68 17h6v1h-6zm6 0h1v22h-1zM8 18h7v15H8zm67 0h1v20h-1z"/><path d="M7 19h31v14H7zm31 0h1v47h-1zm31 0h6v1h-6zm-30 1h1v47h-1zm1 0h1v47h-1zm36 0h1v18h-1zm159 0h1v1h-1zm80 0h1v1h-1zm2 0h1v1h-1zm24 0h1v1h-1z"/><path d="M6 21h35v12H6zm35 0h1v47h-1zm152 0h11v7h-11zm11 0h1v42h-1zm28 0h15v7h-15zm15 0h1v59h-1zm29 0h12v7h-12zm12 0h1v2h-1zm6 0h9v40h-9zm9 0h1v40h-1zm9 0h10v7h-10zm10 0h1v4h-1zm9 0h16v7h-16zm16 0h1v10h-1zM42 22h1v46h-1zm27 0h8v16h-8zm8 0h1v40h-1zm14 0h10v2H91zm10 0h1v35h-1zm40 0h9v5h-9zm9 0h1v2h-1zm6 0h11v41h-11zm11 0h1v41h-1zm7 0h10v41h-10zm10 0h1v41h-1z"/><path d="M190 22h16v6h-16zm16 0h1v41h-1zm22 0h1v1h-1zm1 0h21v6h-21zm21 0h1v56h-1zm54 0h1v39h-1zm6 0h12v6h-12zm18 0h22v6h-22zm22 0h1v40h-1zM5 23h37v10H5zm63 0h10v15H68zm10 0h1v37h-1zm110 0h1v1h-1z"/><path d="M189 23h18v5h-18zm18 0h1v40h-1zm20 0h26v5h-26zm26 0h1v51h-1zm11 0h1v1h-1zm24 0h1v1h-1zm20 0h14v5h-14zm19 0h25v5h-25zm25 0h1v39h-1zM43 24h1v44h-1zm24 0h11v14H67zm24 0h11v1H91zm11 0h1v37h-1zm14 0h10v12h-10zm10 0h1v30h-1zm14 0h10v3h-10zm10 0h1v1h-1z"/><path d="M188 24h21v4h-21zm21 0h1v39h-1zm16 0h30v4h-30zm30 0h1v47h-1zm51 0h1v1h-1zm1 0h15v4h-15zm46 0h1v38h-1zM4 25h39v8H4zm62 0h13v13H66zm13 0h1v33h-1zm13 0h10v2H92zm93 0h1v1h-1z"/><path d="M186 25h23v3h-23zm38 0h33v3h-33zm33 0h1v35h-1zm49 0h16v3h-16zm16 0h1v1h-1zm32 0h1v37h-1zM65 26h14v12H65z"/><path d="M185 26h25v2h-25zm25 0h1v37h-1zm13 0h34v2h-34zm82 0h16v2h-16zm50 0h1v36h-1zM3 27h40v6H3zm61 0h15v11H64zm28 0h10v1H92zm23 0h11v9h-11zm25 0h9v4h-9zm9 0h1v1h-1zm62 0h1v36h-1z"/><path d="M222 27h35v1h-35zm100 0h1v1h-1zm4 0h1v1h-1zm30 0h1v35h-1zm1 0h1v1h-1zM63 28h17v10H63zm17 0h1v28h-1zm13 0h9v3h-9zm34 0h1v29h-1zm12 0h9v6h-9zm46 0h26v1h-26zm27 0h1v1h-1zm9 0h1v1h-1zm1 0h35v1h-35zm54 0h11v1h-11zm11 0h1v1h-1zm18 0h16v1h-16zm16 0h1v1h-1z"/><path d="M327 28h30v1h-30zm30 0h1v34h-1zM62 29h18v9H62zm41 0h1v34h-1zm82 0h6v1h-6zm6 0h1v1h-1zm6 0h15v1h-15zm15 0h1v34h-1zm9 0h13v1h-13zm13 0h1v1h-1zm10 0h13v1h-13zm20 0h11v17h-11zm41 0h7v1h-7zm7 0h1v1h-1zm8 0h1v1h-1zm1 0h1v1h-1zm5 0h3v1h-3zm3 0h1v1h-1zm7 0h1v1h-1zm5 0h1v1h-1zm2 0h14v1h-14zM2 30h41v3H2z"/><path d="M61 30h19v8H61zm53 0h1v1h-1zm14 0h1v1h-1zm57 0h3v1h-3zm3 0h1v1h-1zm12 0h12v1h-12zm21 0h11v1h-11zm11 0h1v1h-1zm14 0h11v38h-11zm59 0h4v1h-4zm4 0h1v1h-1zm37 0h12v1h-12zm12 0h1v32h-1z"/><path d="M60 31h21v7H60zm21 0h1v22h-1zm12 0h10v1H93zm11 0h1v1h-1zm10 0h13v5h-13zm34 0h1v1h-1zm37 0h2v3h-2zm2 0h1v1h-1zm14 0h11v2h-11zm12 0h1v1h-1zm7 0h11v2h-11zm11 0h1v1h-1zm74 0h3v1h-3zm3 0h1v1h-1zm39 0h11v1h-11z"/><path d="M59 32h22v6H59zm35 0h9v2h-9zm34 0h1v29h-1zm177 0h2v2h-2zm2 0h1v1h-1zm41 0h10v2h-10zM2 33h41v1H2z"/><path d="M58 33h23v5H58zm46 0h1v1h-1zm9 0h1v1h-1zm25 0h9v4h-9zm63 0h11v1h-11zm19 0h10v21h-10zm10 0h1v1h-1zM1 34h5v16H1zm5 0h1v3H6zm20 0h17v1H26z"/><path d="M57 34h24v4H57zm37 0h10v1H94zm10 0h1v29h-1zm43 0h1v1h-1zm38 0h1v29h-1zm1 0h1v1h-1zm16 0h10v29h-10zm17 0h10v17h-10zm86 0h1v27h-1zm1 0h1v1h-1zm42 0h10v1h-10zM27 35h16v1H27z"/><path d="M56 35h26v3H56zm26 0h1v14h-1zm13 0h9v2h-9zm18 0h15v1h-15zm16 0h1v1h-1zm84 0h1v28h-1zm136 0h9v24h-9zM27 36h1v1h-1zm1 0h15v26H28z"/><path d="M55 36h27v2H55zm58 0h16v1h-16zm16 0h1v27h-1zm18 0h1v1h-1zM6 37h1v1H6z"/><path d="M54 37h28v1H54zm41 0h9v1h-9zm18 0h6v7h-6zm6 0h1v3h-1zm2 0h1v1h-1zm1 0h7v3h-7zm15 0h9v4h-9zm9 0h1v1h-1zm-93 1h29v1H53zm30 0h1v1h-1zm13 0h8v3h-8zm134 0h1v1h-1zm101 0h12v6h-12zm12 0h1v6h-1zM51 39h1v1h-1zm1 0h22v1H52zm22 0h1v1h-1zm31 0h1v24h-1z"/><path d="M112 39h7v5h-7zm194 0h1v1h-1zm23 0h16v5h-16zm16 0h1v5h-1zM50 40h1v1h-1zm1 0h22v1H51zm22 0h1v1h-1zm46 0h1v1h-1zm3 0h8v1h-8zm8 0h1v23h-1z"/><path d="M327 40h19v4h-19zm19 0h1v5h-1zM50 41h22v1H50zm22 0h1v1h-1zm24 0h9v1h-9zm10 0h1v1h-1zm17 0h7v2h-7zm14 0h8v3h-8zm8 0h1v1h-1zm73 0h11v2h-11z"/><path d="M326 41h32v3h-32zM49 42h22v1H49zm22 0h1v1h-1zm26 0h8v2h-8zm14 0h7v5h-7zm25 0h8v5h-8z"/><path d="M325 42h33v2h-33zM48 43h22v1H48zm22 0h1v1h-1zm36 0h1v20h-1zm17 0h8v1h-8zm8 0h1v20h-1zm87 0h11v1h-11z"/><path d="M324 43h34v1h-34zM47 44h22v1H47zm22 0h1v1h-1zm28 0h9v1h-9zm21 0h1v1h-1zm6 0h7v3h-7zm20 0h1v1h-1zm180 0h34v1h-34zm35 0h1v1h-1zM46 45h22v1H46zm22 0h1v1h-1zm30 0h8v2h-8zm225 0h12v1h-12zm12 0h1v1h-1zm11 0h12v1h-12zm13 0h1v1h-1zM6 46h1v16H6zm39 0h22v1H45zm22 0h1v1h-1zm43 0h7v5h-7zm25 0h8v5h-8zm129 0h11v1h-11zm59 0h10v9h-10zm10 0h1v1h-1zm15 0h10v1h-10zM44 47h22v1H44zm22 0h1v1h-1zm32 0h8v1h-8zm11 0h1v1h-1zm8 0h1v1h-1zm7 0h8v1h-8zm8 0h1v16h-1zm11 0h1v1h-1zm133 0h1v1h-1zm46 0h1v1h-1zm11 0h1v1h-1zm15 0h10v1h-10zM44 48h21v1H44zm21 0h1v1h-1zm34 0h8v3h-8zm8 0h1v15h-1zm18 0h7v2h-7zm93 0h1v1h-1zM44 49h20v1H44zm20 0h1v1h-1zm18 0h1v1h-1zm27 0h1v1h-1zm8 0h1v1h-1zm16 0h1v1h-1zm10 0h1v1h-1zm87 0h1v13h-1zM1 50h5v1H1zm43 0h19v1H44zm19 0h1v1h-1zm13 0h5v6h-5z"/><path d="M109 50h7v5h-7zm16 0h7v1h-7zm9 0h1v1h-1zm111 0h12v8h-12zM2 51h5v3H2zm5 0h1v13H7zm37 0h18v1H44zm18 0h1v1h-1z"/><path d="M99 51h17v1H99zm17 0h1v1h-1zm17 0h9v3h-9zm9 0h1v1h-1zm77 0h11v1h-11zm57 0h1v11h-1zM44 52h17v1H44zm17 0h1v1h-1zm39 0h15v2h-15zm131 0h1v10h-1zm13 0h13v6h-13zm20 0h1v1h-1zm58 0h1v1h-1zm26 0h10v6h-10zm11 0h1v1h-1zM44 53h16v1H44zm16 0h1v1h-1zm21 0h1v1h-1zm44 0h1v1h-1zm107 0h1v9h-1zm1 0h1v9h-1z"/><path d="M242 53h15v5h-15zm23 0h12v1h-12zm12 0h1v9h-1zm56 0h1v9h-1zm26 0h1v1h-1zM2 54h5v1H2zm42 0h15v1H44zm15 0h1v1h-1zm16 0h5v4h-5zm25 0h15v1h-15zm26 0h15v1h-15zm15 0h1v1h-1z"/><path d="M220 54h37v1h-37zm46 0h13v2h-13zm13 0h1v8h-1zm2 0h1v1h-1zm53 0h1v8h-1zm13 0h11v4h-11zM2 55h1v1H2zm1 0h5v1H3zm5 0h1v10H8zm36 0h14v1H44zm14 0h1v1h-1zm2 0h1v1h-1zm48 0h7v3h-7zm7 0h1v1h-1zm18 0h7v6h-7zm7 0h1v2h-1zm81 0h36v1h-36zm59 0h8v6h-8zm8 0h1v4h-1z"/><path d="M323 55h13v1h-13zm13 0h1v7h-1zm6 0h1v1h-1zm1 0h1v1h-1zm2 0h13v3h-13zM3 56h5v1H3zm41 0h13v1H44zm13 0h1v1h-1zm23 0h1v1h-1zm142 0h35v1h-35zm44 0h22v1h-22z"/><path d="M324 56h34v1h-34zM4 57h5v2H4zm5 0h1v10H9zm35 0h12v1H44zm12 0h1v1h-1zm18 0h5v3h-5zm6 0h1v1h-1zm21 0h13v1h-13zm26 0h13v1h-13zm13 0h1v1h-1zm82 0h35v1h-35zm44 0h1v1h-1zm1 0h21v1h-21zm57 0h34v1h-34zM44 58h11v1H44zm11 0h1v1h-1zm24 0h1v1h-1zm29 0h6v4h-6zm6 0h1v1h-1zm109 0h34v1h-34zm45 0h20v1h-20zm57 0h33v1h-33z"/><path d="M4 59h6v1H4zm6 0h1v9h-1zm34 0h10v1H44zm10 0h1v1h-1zm18 0h1v1h-1zm1 0h5v3h-5zm151 0h19v1h-19zm19 0h1v1h-1zm25 0h20v1h-20zm20 0h1v1h-1zm38 0h20v1h-20zm20 0h1v1h-1zm3 0h9v1h-9zM5 60h5v1H5zm39 0h9v2h-9zm9 0h1v1h-1z"/><path d="M72 60h6v2h-6zm6 0h1v1h-1zm147 0h17v1h-17zm17 0h1v1h-1zm15 0h1v1h-1zm12 0h18v1h-18zm58 0h18v1h-18zm18 0h1v1h-1zm4 0h1v1h-1zm2 0h7v2h-7zM5 61h6v1H5zm6 0h1v8h-1zm91 0h11v1h-11zm26 0h11v1h-11zm11 0h1v1h-1zm88 0h13v1h-13zm13 0h1v1h-1zm17 0h1v1h-1zm14 0h16v1h-16zm16 0h1v1h-1zm7 0h11v1h-11zm11 0h1v1h-1zm23 0h16v1h-16zm16 0h1v1h-1z"/><path d="M6 62h6v1H6zm6 0h1v8h-1zm16 0h24v1H28zm24 0h1v1h-1zm19 0h6v1h-6zm6 0h1v1h-1zm31 0h5v1h-5zm5 0h1v1h-1zm20 0h5v1h-5zm5 0h1v1h-1zm92 0h8v1h-8zm8 0h1v1h-1zm33 0h1v1h-1zm2 0h13v1h-13zm13 0h1v1h-1zm44 0h12v1h-12zm12 0h1v1h-1zm8 0h8v1h-8zm8 0h1v1h-1zM29 63h22v1H29zm22 0h1v1h-1zm19 0h6v2h-6zm6 0h1v1h-1zm27 0h9v1h-9zm9 0h1v1h-1zm17 0h9v1h-9zm9 0h1v1h-1zm18 0h11v1h-11zm11 0h1v1h-1zm7 0h11v1h-11zm11 0h1v1h-1zm17 0h11v1h-11zm11 0h1v1h-1zm69 0h1v1h-1zm53 0h1v1h-1z"/><path d="M7 64h6v1H7zm6 0h1v7h-1zm18 0h19v1H31zm19 0h1v1h-1z"/><path d="M8 65h6v1H8zm6 0h1v7h-1zm19 0h1v1h-1zm1 0h15v1H34zm15 0h1v1h-1zm20 0h6v1h-6zm6 0h1v1h-1zm-60 1h1v7h-1zm21 0h12v1H36zm12 0h1v1h-1zm20 0h6v2h-6zm6 0h1v1h-1z"/><path d="M9 67h7v1H9zm7 0h1v7h-1zm23 0h8v1h-8zm8 0h1v1h-1zm20 0h6v2h-6zm178 0h1v1h-1z"/><path d="M10 68h7v1h-7zm7 0h1v6h-1zm24 0h4v1h-4zm4 0h1v1h-1zm21 0h7v1h-7zm7 0h1v1h-1zm172 0h11v3h-11zm11 0h1v1h-1z"/><path d="M11 69h7v1h-7zm7 0h1v6h-1zm47 0h7v1h-7zm7 0h1v1h-1zm172 0h1v1h-1z"/><path d="M12 70h7v1h-7zm7 0h1v6h-1zm44 0h8v1h-8zm8 0h1v1h-1zm173 0h11v3h-11zM12 71h1v1h-1z"/><path d="M13 71h8v1h-8zm8 0h1v6h-1zm41 0h8v1h-8zm8 0h1v1h-1zm185 0h1v1h-1z"/><path d="M14 72h8v1h-8zm8 0h1v6h-1zm39 0h8v1h-8zm8 0h1v1h-1zm152 0h1v1h-1zm22 0h11v2h-11z"/><path d="M15 73h9v1h-9zm9 0h1v6h-1zm35 0h9v1h-9zm9 0h1v1h-1zm153 0h2v7h-2zm2 0h1v8h-1zm1 0h1v1h-1zm17 0h13v1h-13zm13 0h1v1h-1z"/><path d="M16 74h10v1H16zm10 0h1v5h-1zm31 0h9v1h-9zm9 0h1v1h-1zm158 0h5v7h-5zm5 0h1v8h-1zm8 0h16v2h-16zm16 0h1v1h-1z"/><path d="M18 75h10v1H18zm10 0h1v5h-1zm26 0h11v1H54zm11 0h1v1h-1zm165 0h22v2h-22z"/><path d="M19 76h13v1H19zm13 0h1v5h-1zm19 0h13v1H51zm13 0h1v1h-1zm188 0h1v1h-1z"/><path d="M21 77h16v1H21zm16 0h1v5h-1zm9 0h16v1H46zm16 0h1v1h-1zm168 0h21v1h-21zm21 0h1v1h-1z"/><path d="M22 78h38v1H22zm38 0h1v1h-1zm160 0h30v1h-30zm30 0h1v1h-1zM24 79h34v1H24zm34 0h1v1h-1zm162 0h29v1h-29zm29 0h1v1h-1zM27 80h29v1H27zm29 0h1v1h-1zm164 0h27v1h-27zm27 0h1v1h-1zM28 81h1v1h-1zm1 0h24v1H29zm24 0h1v1h-1zm169 0h23v1h-23zm23 0h1v1h-1zM33 82h17v1H33zm17 0h1v1h-1zm176 0h16v1h-16zm16 0h1v1h-1zm-15 1h1v1h-1z"/></g><path d="M27 2h1v1h-1zm0 8h1v1h-1zm15 10h1v1h-1zM0 50h1v1H0zm219 4h1v1h-1zM81 56h1v1h-1zm-67 7h1v1h-1zm6 6h1v1h-1zm13 14h1v1h-1z" fill="#e4572f"/><path d="M220 28h1v1h-1zm105 12h1v1h-1zm-61 14h1v1h-1zm-138 4h1v1h-1zm96 1h1v1h-1zm15 14h1v1h-1z" fill="#e65933"/><path d="M105 33h1v1h-1zm43 2h1v1h-1zm178 4h1v1h-1zm-191 2h1v1h-1zm-18 11h1v1h-1zM61 70h1v1h-1zm163 2h1v1h-1zm6 1h1v1h-1z" fill="#f63"/><path d="M36 0h1v1h-1zm-4 8h1v1h-1zm262 12h9v1h-9zm9 0h1v1h-1zm-97 1h1v1h-1zm149 3h1v1h-1zM147 37h1v1h-1zm-24 9h1v1h-1zm224 1h1v1h-1zM64 51h1v1h-1zM36 67h1v1h-1zm12 0h1v1h-1zm208 4h1v1h-1zM49 83h1v1h-1zm192 0h1v1h-1z" fill="#e1552c"/><path d="M18 7h1v1h-1zm7 4h1v1h-1zm46 1h1v1h-1zM9 15h1v1H9zm194 5h1v1h-1zm86 3h1v1h-1zm16 0h1v1h-1zM80 25h1v1h-1zm59 0h1v1h-1zm-76 2h1v1h-1zm51 0h1v1h-1zm225 2h1v1h-1zm1 0h1v1h-1zm-19 1h1v1h-1zm-208 2h1v1h-1zm74 1h1v1h-1zm-94 1h1v1h-1zm-38 1h1v1h-1zm75 2h1v1h-1zm-10 2h1v1h-1zm-47 3h1v1h-1zm23 1h1v1h-1zm-20 1h1v1h-1zm7 2h1v1h-1zM7 47h1v1H7zm90 0h1v1h-1zm-24 9h1v1h-1zm27 0h1v1h-1zm-20 2h1v1h-1zm-24 1h1v1h-1zm293 3h1v1h-1zm-117 1h1v1h-1zm108 0h1v1h-1zM69 73h1v1h-1zm-33 3h1v1h-1zm193 7h1v1h-1z" fill="#e1552b"/><path d="M55 10h1v1h-1zm-43 1h1v1h-1zm67 11h1v1h-1zM2 26h1v1H2zm211 2h1v1h-1zm100 2h1v1h-1zm34 5h1v1h-1zM96 45h1v1h-1zm13 0h1v1h-1zm-1 2h1v1h-1zm239 4h1v1h-1zM99 55h1v1h-1zm-88 3h1v1h-1zm256 2h1v1h-1zM17 66h1v1h-1zm55 5h1v1h-1zm-47 1h1v1h-1zm226 7h1v1h-1z" fill="#ff8080"/><path d="M8 16h1v1H8zm297 6h1v1h-1zm-74 27h1v1h-1zm-88 2h1v1h-1zM68 64h1v1h-1z" fill="#e4572b"/><path d="M251 21h1v1h-1zm-28 39h1v1h-1z" fill="#e25831"/><path d="M185 23h1v1h-1zm-43 31h1v1h-1z" fill="#e0572d"/><path d="M38 0h1v1h-1zm5 0h1v1h-1zm1 0h1v1h-1zm-7 7h1v1h-1zm-23 3h1v1h-1zm6 8h2v1h-2zm2 0h1v1h-1zm175 2h1v1h-1zm-6 1h1v1h-1zm120 0h1v1h-1zm-86 2h1v1h-1zm-40 1h1v1h-1zM64 26h1v1h-1zm224 0h1v1h-1zm-46 3h1v1h-1zM1 30h1v1H1zm91 0h1v1h-1zm13 6h1v1h-1zm7 1h1v1h-1zm118 0h1v1h-1zM83 39h1v1h-1zm240 5h1v1h-1zM69 46h1v1h-1zm28 0h1v1h-1zm179 2h1v1h-1zm72 3h1v1h-1zM75 52h1v1h-1zm159 1h1v1h-1zm7 0h1v1h-1zm4 6h1v1h-1zm27 3h1v1h-1zm72 0h1v1h-1zm-70 1h1v1h-1zm-40 11h1v1h-1zm-14 3h1v1h-1zm30 2h1v1h-1zm-31 1h1v1h-1zM45 83h1v1h-1zm185 0h1v1h-1zm10 0h1v1h-1z" fill="#df542b"/><path d="M19 6h1v1h-1zm213 26h1v1h-1zm-86 9h1v1h-1zM64 68h1v1h-1z" fill="#e1592f"/><path d="M69 10h1v1h-1zm144 19h1v1h-1zm99 1h1v1h-1zM125 54h1v1h-1zm101 29h1v1h-1z" fill="#e0582f"/><path d="M254 22h1v1h-1zM8 51h1v1H8zm1 3h1v1H9zm3 6h1v1h-1zm337 3h1v1h-1zM11 71h1v1h-1zm12 0h1v1h-1zm-11 1h1v1h-1zm17 2h1v1h-1zm3 1h1v1h-1z" fill="#e9592c"/><path d="M70 45h1v1h-1zm4 9h1v1h-1zm169 16h1v1h-1z" fill="#e2552c"/><path d="M58 72h1v1h-1zm8 4h1v1h-1z" fill="#df6030"/><path d="M52 1h1v1h-1zm18 10h1v1h-1zM6 19h1v1H6zm350 6h1v1h-1zm-24 12h1v1h-1zM134 47h1v1h-1zm110 13h1v1h-1z" fill="#e1572c"/><path d="M30 1h1v1h-1zm174 19h1v1h-1zm118 10h1v1h-1zm-77 14h1v1h-1zm-4 18h1v1h-1zM51 75h1v1h-1z" fill="#df592d"/><path d="M17 7h1v1h-1zm288 14h1v1h-1zM137 32h1v1h-1zm143 21h1v1h-1zM70 61h1v1h-1zm257 1h1v1h-1zM40 69h1v1h-1z" fill="#e66633"/><path d="M43 7h1v1h-1zM16 8h1v1h-1zm45 5h1v1h-1zm77 15h1v1h-1zm53 2h1v1h-1zm9 3h1v1h-1zm-90 9h1v1h-1z" fill="#e35a30"/><path d="M76 40h1v1h-1zm162 13h1v1h-1zm-137 8h1v1h-1zM46 76h1v1h-1zm15 3h1v1h-1z" fill="#e65a31"/><path d="M40 0h1v1h-1zm9 1h1v1h-1zm10 3h1v1h-1zm4 2h1v1h-1zM19 7h1v1h-1zm17 0h1v1h-1zm10 0h1v1h-1zm223 1h1v1h-1zM67 9h1v1h-1zm197 1h1v9h-1zM9 16h1v1H9zm65 0h1v1h-1zm-57 2h2v1h-2zm2 0h1v1h-1zm4 0h2v1h-2zm2 0h1v1h-1zm42 0h1v1h-1zm197 1h1v1h-1zM6 20h1v1H6zm190 0h1v1h-1zm2 0h1v1h-1zm3 0h1v1h-1zm35 0h1v1h-1zm1 0h1v1h-1zm77 0h1v1h-1zm8 0h1v1h-1zm12 0h1v1h-1zm3 0h1v1h-1zm-145 1h1v1h-1zm38 0h1v1h-1zm19 0h1v1h-1zm61 0h1v1h-1zm13 0h1v1h-1zm26 0h1v1h-1zM5 22h1v1H5zm97 0h1v1h-1zm125 0h1v1h-1zm37 0h1v1h-1zm59 0h1v1h-1zM43 23h1v1h-1zm1 0h1v1h-1zm164 0h1v1h-1zm48 1h1v1h-1zm49 0h1v1h-1zm-202 2h1v1h-1zm161 0h1v1h-1zM44 27h1v18h-1zm59 0h1v1h-1zm-11 1h1v1h-1zm22 1h1v1h-1zm35 0h1v1h-1zm43 0h1v1h-1zm2 0h1v1h-1zm2 0h1v1h-1zm40 0h1v1h-1zm40 0h1v1h-1zm-87 1h1v1h-1zm30 0h1v1h-1zm-91 1h1v1h-1zm60 0h1v1h-1zm171 0h1v1h-1zM1 33h1v1H1zm56 0h1v1h-1zm156 0h1v1h-1zm-100 1h1v1h-1zm246 0h1v1h-1zm-52 1h1v1h-1zm-121 1h1v1h-1zm162 0h1v1h-1zm-42 1h1v1h-1zm27 0h1v1h-1zm3 0h1v1h-1zM6 38h1v1H6zm89 0h1v1h-1zm123 0h1v1h-1zm112 0h1v1h-1zm14 0h1v1h-1zM0 39h1v1H0zm218 0h1v1h-1zm109 0h1v1h-1zM0 40h1v1H0zm146 0h1v1h-1zm160 0h1v21h-1zM6 41h1v1H6zm105 0h1v1h-1zm8 0h1v1h-1zm206 0h1v1h-1zM0 42h1v1H0zm131 0h1v1h-1zm193 0h1v1h-1zm35 0h1v1h-1zm0 1h1v1h-1zM0 44h1v1H0zm218 0h1v1h-1zM44 45h1v1h-1zm39 0h1v1h-1zm239 0h1v1h-1zm14 0h1v1h-1zm3 0h1v1h-1zm-232 1h1v1h-1zm37 1h1v1h-1zm-46 1h1v1h-1zm0 1h1v1h-1zm147 0h1v1h-1zm77 0h1v1h-1zM82 50h1v1h-1zm51 0h1v1h-1zM1 51h1v1H1zm124 0h1v1h-1zm119 0h1v1h-1zm-119 1h1v1h-1zm17 0h1v1h-1zm-67 1h1v1h-1zm272 0h1v1h-1zM61 54h1v1h-1zm221 0h1v1h-1zm3 0h1v1h-1zm2 0h1v1h-1zm1 0h1v1h-1zm-188 1h1v1h-1zm26 0h1v1h-1zm94 0h1v1h-1zm69 0h1v1h-1zm49 0h1v1h-1zm21 0h1v1h-1zm-218 1h1v1h-1zm182 0h1v1h-1zM3 57h1v1H3zm7 1h1v1h-1zm91 0h1v1h-1zm223 0h1v1h-1zm-223 1h1v1h-1zm26 0h1v1h-1zm220 0h1v1h-1zM11 60h1v1h-1zm213 0h1v1h-1zm122 0h1v1h-1zm-76 1h1v1h-1zm36 0h1v1h-1zm39 0h1v1h-1zM5 62h1v1H5zm97 0h1v1h-1zm226 0h1v1h-1zM28 63h1v1h-1zm111 0h1v1h-1zm146 0h1v1h-1zm1 0h1v1h-1zm47 0h1v1h-1zm4 0h1v1h-1zM14 64h1v1h-1zm21 2h1v1h-1zm2 1h1v1h-1zm-18 2h1v1h-1zm24 0h1v1h-1zm30 0h1v1h-1zm-50 3h1v1h-1zm219 0h1v1h-1zM25 73h1v1h-1zm42 1h1v1h-1zm168 0h1v1h-1zm18 2h1v1h-1zM42 77h1v1h-1zm2 0h1v1h-1zm1 0h1v1h-1zm18 0h1v1h-1zm-42 1h1v1h-1zm40 0h1v1h-1zm190 0h1v1h-1zM26 80h1v1h-1zm28 1h1v1h-1zm192 0h1v1h-1zM32 82h1v1h-1zm192 0h1v1h-1zm1 0h1v1h-1zm20 0h1v1h-1zM39 83h1v1h-1zm7 0h1v1h-1zm4 0h1v1h-1zm181 0h1v1h-1z" fill="#df552b"/><path d="M61 4h1v1h-1zM20 5h1v1h-1zm248 3h1v1h-1zm58 14h1v1h-1zm-3 4h1v1h-1zm-80 4h1v1h-1zm87 0h1v1h-1zM7 38h1v1H7zm118 17h1v1h-1zm15 7h1v1h-1zm205 0h1v1h-1zM35 67h1v1h-1zm209 0h1v1h-1zM45 76h1v1h-1zm198 7h1v1h-1z" fill="#fff"/><path d="M232 20h1v1h-1zm111 25h1v1h-1zm-226 6h1v1h-1zm125 1h1v1h-1z" fill="#e2562d"/><path d="M110 43h1v1h-1zm134 7h1v1h-1zm103 2h1v1h-1zM53 62h1v1h-1zm194 19h1v1h-1z" fill="#df552c"/><path d="M58 3h1v1h-1zm91 28h1v1h-1zm-26 16h1v1h-1z" fill="#e5552e"/><path d="M37 0h1v1h-1zm220 24h1v1h-1zm-45 3h1v1h-1zm25 2h1v1h-1zm96 0h1v1h-1zm-99 1h1v1h-1zm-15 1h1v1h-1zM56 34h1v1h-1zm63 9h1v1h-1zm-1 3h1v1h-1zm-42 1h1v1h-1zm164 6h1v1h-1zM54 61h1v1h-1zm22 4h1v1h-1zm-4 5h1v1h-1zm-15 3h1v1h-1zm169 0h1v1h-1z" fill="#df562c"/><path d="M49 0h1v1h-1zM24 3h1v1h-1zM7 17h1v1H7zm333 28h1v1h-1zM229 63h1v1h-1zM76 66h1v1h-1zm179 8h1v1h-1z" fill="#e35539"/><path d="M45 7h1v1h-1zm81 16h1v1h-1zm151 6h10v1h-10zm10 0h1v1h-1zM106 39h1v1h-1zm241 0h1v1h-1zm-58 19h1v1h-1zm-175 4h1v1h-1zm130 6h1v1h-1zm-16 5h1v1h-1z" fill="#e1582e"/><path d="M30 9h1v1h-1zm321 12h1v1h-1zm-116 9h1v1h-1zM83 34h1v1h-1zm47 1h1v1h-1zm-8 9h1v1h-1zm122 5h1v1h-1zM74 53h1v1h-1zm68 2h1v1h-1z" fill="#df6040"/><path d="M72 13h1v1h-1zm217 9h1v1h-1zm58 38h1v1h-1zm-116 3h1v1h-1z" fill="#e2572d"/><path d="M34 0h1v1h-1zm-1 8h1v1h-1zM3 24h1v1H3zm356 6h1v1h-1zM75 50h1v1h-1zm66 8h1v1h-1zm148 1h1v1h-1zM59 80h1v1h-1z" fill="#e05c33"/><path d="M56 10h1v1h-1zm252 12h1v1h-1zm50 6h1v1h-1zm-24 19h1v1h-1z" fill="#e2552b"/><path d="M41 19h1v1h-1zm62 5h1v1h-1zM7 46h1v1H7zm127 0h1v1h-1zm189 12h1v1h-1zm-208 1h1v1h-1zM37 76h1v1h-1z" fill="#e75531"/><path d="M56 2h1v1h-1zM22 4h1v1h-1zm45 4h1v1h-1zm-45 5h1v1h-1zm55 6h1v1h-1zm271 1h1v1h-1zm-233 3h1v1h-1zM94 38h1v1h-1zm252 0h1v1h-1zm-24 18h1v1h-1zm-101 2h1v1h-1zm66 5h1v1h-1zM33 66h1v1h-1zm-23 4h1v1h-1zm3 3h1v1h-1z" fill="#ed5b37"/></svg>