<svg xmlns="http://www.w3.org/2000/svg" role="img" viewBox="-6.22 -6.22 323.18 174.18"><title>Yuneec, Advanced Technology Labs AG logo</title><path d="M0 58h10v1H0zm10 0h1v26h-1zm28 0h10v16H38zm10 0h1v1h-1zm9 0h10v31H57zm10 0h1v41h-1zm28 0h9v45h-9zm9 0h1v45h-1zm10 0h34v8h-34zm34 0h1v14h-1zm12 0h52v1h-52zm52 0h1v1h-1zm13 0h38v1h-38zm38 0h1v1h-1zm13 0h32v2h-32zm32 0h1v1h-1zM1 59h9v15H1zm160 0h50v1h-50zm50 0h1v1h-1zm13 0h38v1h-38zm38 0h1v1h-1z"/><path d="M275 59h32v1h-32zm-126 1h1v13h-1zm13 0h48v1h-48zm48 0h1v1h-1zm13 0h38v1h-38zm38 0h1v1h-1zm13 0h33v1h-33zm33 0h1v1h-1zm-157 1h1v13h-1zm13 0h46v1h-46zm46 0h1v1h-1zm12 0h39v1h-39zm39 0h1v1h-1zm13 0h32v1h-32zm32 0h1v1h-1zm-154 1h1v41h-1zm13 0h44v1h-44zm44 0h1v1h-1zm13 0h38v1h-38zm38 0h1v1h-1zm13 0h33v1h-33zm33 0h1v1h-1zm-153 1h1v40h-1zm13 0h42v1h-42zm42 0h1v1h-1zm13 0h38v1h-38zm38 0h1v1h-1zm13 0h32v2h-32zm32 0h1v1h-1zm-150 1h1v39h-1zm13 0h40v1h-40zm40 0h1v1h-1zm13 0h38v1h-38zm38 0h1v1h-1z"/><path d="M270 64h33v1h-33zm33 0h1v1h-1zm-149 1h1v38h-1zm13 0h38v1h-38zm38 0h1v1h-1zm13 0h38v1h-38zm38 0h1v1h-1zm13 0h33v1h-33zm33 0h1v1h-1z"/><path d="M114 66h41v1h-41zm41 0h1v37h-1zm61 0h1v1h-1zm52 0h33v1h-33zm33 0h1v1h-1zm-187 1h9v36h-9zm9 0h1v36h-1z"/><path d="M143 67h13v1h-13zm13 0h1v36h-1zm111 0h13v1h-13zm13 0h1v1h-1z"/><path d="M144 68h13v1h-13zm13 0h1v35h-1zm109 0h13v1h-13zm13 0h1v1h-1z"/><path d="M145 69h13v1h-13zm13 0h1v34h-1zm107 0h13v1h-13zm13 0h1v1h-1z"/><path d="M146 70h13v1h-13zm13 0h1v33h-1zm105 0h13v1h-13zm13 0h1v1h-1z"/><path d="M147 71h13v1h-13zm13 0h1v32h-1zm103 0h13v1h-13zm13 0h1v1h-1zM11 72h1v13h-1zm26 0h10v3H37z"/><path d="M148 72h13v1h-13zm13 0h1v31h-1zm101 0h13v1h-13zm13 0h1v1h-1zM0 73h12v1H0zm12 0h1v12h-1zm24 0h12v1H36zm12 0h1v1h-1zm101 0h12v1h-12zm112 0h13v1h-13zm13 0h1v1h-1z"/><path d="M1 74h12v1H1zm12 0h1v13h-1zm22 0h12v1H35zm12 0h1v1h-1zm103 0h11v1h-11zm20 0h30v7h-30zm30 0h1v7h-1zm17 0h26v7h-26zm26 0h1v7h-1zm17 0h13v1h-13zm13 0h1v1h-1z"/><path d="M2 75h12v1H2zm12 0h1v12h-1zm20 0h12v1H34zm12 0h1v1h-1zm213 0h13v1h-13zm13 0h1v1h-1z"/><path d="M3 76h12v1H3zm12 0h1v13h-1zm18 0h12v1H33zm12 0h1v1h-1zm213 0h13v1h-13zm13 0h1v1h-1z"/><path d="M3 77h13v1H3zm13 0h1v13h-1zm16 0h12v1H32zm12 0h1v1h-1zm213 0h13v1h-13zm13 0h1v1h-1z"/><path d="M5 78h12v1H5zm12 0h1v12h-1zm14 0h12v1H31zm12 0h1v1h-1zm213 0h13v1h-13zm13 0h1v1h-1z"/><path d="M5 79h13v1H5zm13 0h1v13h-1zm12 0h12v1H30zm12 0h1v1h-1zm213 0h13v1h-13zm13 0h1v1h-1z"/><path d="M6 80h13v1H6zm13 0h1v23h-1zm10 0h12v2H29zm12 0h1v1h-1zm213 0h13v2h-13zm13 0h1v14h-1z"/><path d="M8 81h32v1H8zm162 0h30v1h-30zm30 0h1v1h-1zm17 0h26v1h-26zm26 0h1v1h-1zm10 0h13v1h-13zM8 82h32v1H8zm32 0h1v1h-1zm130 0h9v21h-9zm9 0h1v21h-1zm38 0h9v21h-9zm9 0h1v21h-1zm28 0h13v1h-13zM20 83h18v2H20zm18 0h1v1h-1zm217 0h14v1h-14zm14 0h1v13h-1z"/><path d="M10 84h27v1H10zm217 0h1v8h-1zm30 0h12v1h-12zM11 85h26v1H11zm26 0h1v1h-1zm220 0h13v1h-13zm13 0h1v12h-1zM20 86h15v1H20zm15 0h1v1h-1zm33 0h1v14h-1z"/><path d="M259 86h13v1h-13zm13 0h1v13h-1zM13 87h22v1H13zm22 0h1v1h-1zm34 0h1v14h-1zm191 0h12v1h-12zM20 88h13v2H20zm13 0h1v1h-1zm37 0h1v14h-1z"/><path d="M260 88h14v1h-14zm14 0h1v13h-1zM15 89h17v1H15zm42 0h14v1H57zm14 0h1v14h-1z"/><path d="M262 89h13v1h-13zm13 0h1v13h-1zM16 90h16v1H16zm16 0h1v1h-1zm26 0h13v1H58z"/><path d="M262 90h14v1h-14zm14 0h1v13h-1zM20 91h10v12H20zm10 0h1v1h-1zm29 0h14v1H59zm14 0h1v12h-1z"/><path d="M264 91h13v1h-13zm13 0h1v12h-1zM18 92h12v1H18zm12 0h1v1h-1zm30 0h14v1H60zm14 0h1v11h-1zm153 0h1v11h-1z"/><path d="M265 92h13v1h-13zm13 0h1v11h-1zM61 93h13v1H61z"/><path d="M265 93h14v1h-14zm14 0h1v10h-1zM62 94h14v1H62zm14 0h1v9h-1zm104 0h1v9h-1z"/><path d="M267 94h13v1h-13zm13 0h1v9h-1zM63 95h41v1H63zm118 0h26v8h-26zm26 0h1v8h-1zm21 0h26v8h-26zm26 0h1v8h-1z"/><path d="M268 95h33v1h-33zm33 0h1v8h-1zM64 96h40v1H64z"/><path d="M269 96h33v1h-33zm33 0h1v7h-1zM65 97h39v1H65z"/><path d="M270 97h33v1h-33zm33 0h1v6h-1zM66 98h38v1H66z"/><path d="M271 98h33v1h-33zm33 0h1v5h-1zM67 99h37v1H67z"/><path d="M272 99h33v1h-33zm33 0h1v4h-1zm-237 1h36v1H68z"/><path d="M273 100h33v1h-33zm33 0h1v3h-1zm-237 1h35v1H69z"/><path d="M274 101h33v1h-33zm33 0h1v2h-1zm-237 1h34v1H70z"/><path d="M275 102h33v1h-33zm33 0h1v1h-1zm-289 1h10v1H19zm10 0h1v1h-1zm42 0h33v1H71zm33 0h1v1h-1zm10 0h10v1h-10zm10 0h1v1h-1zm27 0h10v1h-10zm10 0h1v1h-1zm9 0h37v1h-37zm37 0h1v1h-1zm10 0h37v1h-37zm37 0h1v1h-1zm22 0h33v1h-33zm33 0h1v1h-1z"/><path d="M56 58h1v1h-1zm158 0h1v1h-1zm96 0h1v1h-1zm-89 2h1v1h-1zm87 0h1v1h-1zm-88 1h1v1h-1zm42 0h1v1h-1zm-52 1h1v1h-1zm-56 1h1v1h-1zm64 0h1v1h-1zm-62 2h1v1h-1zm51 0h1v1h-1zm50 1h1v1h-1zm-88 1h35v1h-35zm35 0h1v1h-1zm13 0h38v1h-38zm38 0h1v1h-1zm-113 1h1v1h-1zm4 4h1v1h-1zM34 73h1v1h-1zm-1 1h1v1h-1zm115 0h1v1h-1zM1 76h1v1H1zm28 2h1v1h-1zm-9 1h7v1h-7zm7 0h1v1h-1zm16 1h1v1h-1zm209 1h1v1h-1zm-51 1h1v1h-1zM39 84h1v1h-1zm54 9h1v1h-1zm-63 2h1v6h-1zm237 1h1v1h-1zm2 2h1v1h-1zm1 1h1v1h-1zm1 1h1v1h-1zm-241 1h1v1h-1zm243 1h1v1h-1z" fill="#d3d3d3"/><path d="M68 58h1v1h-1zm236 6h1v1h-1zM201 74h1v1h-1zm0 7h1v1h-1zm52 1h1v1h-1zM70 87h1v1h-1zm204 0h1v1h-1zM72 89h1v1h-1zm204 0h1v1h-1zM15 90h1v1h-1zm58 0h1v1h-1zm204 0h1v1h-1zM75 92h1v1h-1zm1 1h1v1h-1zm204 0h1v1h-1zm29 9h1v1h-1zm-291 1h1v1h-1zm292 0h1v1h-1z" fill="#a3a3a3"/><path d="M159 58h1v1h-1zm63 2h1v1h-1zm-70 2h1v1h-1zm55 2h1v1h-1zm11 0h1v1h-1zm-63 1h1v1h-1zm4 4h1v1h-1zm-13 2h1v1h-1zM35 73h1v1h-1zm-2 2h1v1h-1zm-3 3h1v1h-1zm236 16h1v1h-1z" fill="#373737"/><path d="M302 66h1v1h-1zm-1 1h1v1h-1zM183 82h16v1h-16zm16 0h1v1h-1zm107 17h1v1h-1zm-137 4h1v1h-1z" fill="#909090"/><g fill="#797979"><path d="M279 69h1v1h-1zM37 70h1v1h-1zm241 0h1v1h-1zm-1 1h1v1h-1zm-16 1h1v1h-1zm14 1h1v1h-1zm-17 2h1v1h-1zm-108 2h1v25h-1zm105 1h1v1h-1zm-11 3h1v1h-1zm-63 1h1v1h-1zm62 0h1v1h-1zm-35 12h1v1h-1zm-58 8h1v1h-1zm66 1h1v1h-1z"/></g><g fill="#7f7f7f"><path d="M11 58h1v1h-1zm94 0h1v1h-1zm175 10h1v1h-1zm-64 7h1v27h-1zm28 0h1v5h-1zm12 2h1v1h-1zm-2 2h1v1h-1zm-10 1h1v1h-1zm9 0h1v1h-1zm-25 2h1v1h-1zM18 93h1v1h-1zm283 1h1v1h-1zm3 3h1v1h-1zm1 1h1v1h-1zm-89 4h1v1h-1zm-111 1h1v1h-1z"/></g><g fill="#999"><path d="M303 65h1v1h-1zM11 70h1v1h-1zm158 5h1v27h-1zm13 7h1v1h-1zM69 86h1v1h-1zm2 2h1v1h-1zm3 3h1v1h-1zm204 0h1v1h-1zm1 1h1v1h-1zm-24 2h1v1h-1zm52 6h1v1h-1zm1 1h1v1h-1zm-139 1h1v1h-1z"/></g><g fill="#f4f4f4"><path d="M0 57h10v1H0zm10 0h1v1h-1zm28 0h10v1H38zm10 0h1v1h-1zm9 0h10v1H57zm10 0h1v1h-1zm27 0h10v1H94zm10 0h1v1h-1zm10 0h33v1h-33zm33 0h1v1h-1zm13 0h52v1h-52zm52 0h1v1h-1zm13 0h38v1h-38zm38 0h2v1h-2zm2 0h1v1h-1zm11 0h32v1h-32zm32 0h1v1h-1zM36 58h1v11h-1zm233 5h1v1h-1zm-2 2h1v1h-1zm-1 1h1v1h-1zm-1 1h1v1h-1zm-1 1h1v1h-1zM36 69h1v1h-1zm226 1h1v1h-1zm17 0h1v1h-1zm-19 2h1v1h-1zm17 0h1v1h-1zm-18 1h1v1h-1zm17 0h1v1h-1zm-18 1h1v1h-1zm15 2h1v1h-1zM18 77h1v1h-1zm252 2h1v1h-1zm-18 1h1v1h-1zM56 90h1v1h-1zm1 1h1v1h-1zm1 1h1v1h-1zm151 2h1v1h-1zm93 0h1v1h-1zm-46 9h1v1h-1zm-237 1h10v1H19zm10 0h1v1h-1zm42 0h33v1H71zm33 0h1v1h-1zm10 0h10v1h-10zm10 0h1v1h-1zm27 0h10v1h-10zm10 0h1v1h-1zm9 0h38v1h-38zm38 0h1v1h-1zm9 0h37v1h-37zm37 0h1v1h-1zm22 0h32v1h-32zm32 0h2v1h-2zm2 0h1v1h-1z"/></g><g fill="#656565"><path d="M37 58h1v1h-1zm104 9h1v1h-1zm141 0h1v1h-1zm-18 2h1v1h-1zm-94 4h1v1h-1zm73 0h1v1h-1zm31 1h1v1h-1zm-1 1h1v1h-1zm-5 5h1v1h-1zm-85 14h23v1h-23zm23 0h1v1h-1zm23 0h24v1h-24zm24 0h1v1h-1zm47 0h1v1h-1z"/></g><g fill="#0b0b0b"><path d="M94 58h1v1h-1zM0 59h1v1H0zm151 2h1v1h-1zm2 2h1v1h-1zm151 0h1v1h-1zm-148 3h1v1h-1zm-32 1h1v1h-1zm26 8h1v1h-1zm30 7h1v10h-1zm47 0h1v1h-1zm44 3h1v1h-1zm-12 2h1v1h-1zM14 88h1v1h-1zm58 2h1v1h-1zm108 2h1v1h-1zM75 93h1v1h-1zm19 1h1v1h-1zm173 1h1v1h-1z"/></g><g fill="#e0e0e0"><path d="M158 58h1v1h-1zm115 1h1v1h-1zm-113 1h1v1h-1zm49 3h1v1h-1zm-45 1h1v1h-1zm44 0h1v1h-1zm-2 2h1v1h-1zm9 0h1v1h-1zm-10 1h1v1h-1zm10 0h1v1h-1zm-90 1h1v35h-1zm36 2h1v1h-1zM35 72h1v1h-1zm-21 1h1v1h-1zm18 2h1v1h-1zm-15 1h1v1h-1zm30 0h1v1h-1zM30 94h1v1h-1zm34 4h1v1h-1zm5 5h1v1h-1zm56 0h1v1h-1zm149 0h1v1h-1z"/></g><g fill="#dbdbdb"><path d="M56 59h1v30h-1zm103 0h1v1h-1zm54 0h1v1h-1zm96 0h1v1h-1zm-97 1h1v1h-1zm-50 2h1v1h-1zm57 0h1v1h-1zm-2 2h1v1h-1zm-52 1h1v1h-1zm51 0h1v1h-1zm-59 1h1v1h-1zm1 1h1v1h-1zm98 0h1v1h-1zm-97 1h1v1h-1zm-16 1h1v1h-1zm17 0h1v1h-1zM12 71h1v1h-1zm133 0h1v1h-1zm-97 4h1v1h-1zm-18 2h1v1h-1zm16 0h1v1h-1zm-1 1h1v1h-1zm-1 1h1v1h-1zm-2 2h1v1h-1zm-1 1h1v1h-1zm15 7h1v1h-1zm216 12h1v1h-1z"/></g><g fill="#acacac"><path d="M68 59h1v24h-1zm148 14h1v1h-1zm-15 2h1v5h-1zm0 5h1v1h-1zM68 83h1v1h-1zm186 0h1v1h-1zM10 85h1v1h-1zm263 1h1v1h-1zM13 88h1v1h-1zm3 3h1v1h-1zm1 1h1v1h-1zm1 3h1v7h-1zm0 7h1v1h-1z"/></g><g fill="#494949"><path d="M162 61h1v1h-1zm46 2h1v1h-1zm-42 2h1v1h-1zm1 1h1v1h-1zm100 0h1v1h-1zm14 1h1v1h-1zM64 97h1v1h-1z"/></g><g fill="#727272"><path d="M276 72h1v1h-1zm-60 2h1v1h-1zm28 0h1v1h-1zm11 22h1v5h-1zm48 0h1v1h-1zm-48 5h1v1h-1zm-105 2h1v1h-1z"/></g><g fill="#161616"><path d="M264 58h1v1h-1zM48 59h1v1h-1zm46 0h1v1h-1zm74 7h1v1h-1zm36 0h1v1h-1zm13 0h1v1h-1zM42 80h1v1h-1zM9 83h1v1H9zm247 1h1v1h-1zm2 2h1v1h-1zm15 1h1v1h-1zm-93 6h1v1h-1zm-56 9h1v1h-1z"/></g><g fill="#6f6f6f"><path d="M113 60h1v41h-1zm150 10h1v1h-1zm-92 3h28v1h-28zm28 0h1v1h-1zm19 0h24v1h-24zm24 0h1v1h-1zm17 1h1v1h-1zm13 2h1v1h-1zM58 91h1v1h-1zm34 3h1v1h-1zm190 0h1v1h-1zm20 1h1v1h-1zm-189 6h1v1h-1zm142 1h1v1h-1z"/></g><g fill="#424242"><path d="M211 60h1v1h-1zm-1 1h1v1h-1zm62 0h1v1h-1zm-55 4h1v1h-1zm-12 1h1v1h-1zm-48 1h1v1h-1zm3 3h1v1h-1zM11 71h1v1h-1zm37 3h1v1h-1zm-2 2h1v1h-1zm162 20h1v6h-1zM65 98h1v1h-1zm4 4h1v1h-1zm139 0h1v1h-1zm66 0h1v1h-1z"/></g><g fill="#f9f9f9"><path d="M11 57h1v1h-1zm26 0h1v1h-1zm31 0h1v1h-1zm37 0h1v1h-1zm8 0h1v1h-1zm35 0h1v1h-1zm10 0h1v1h-1zm56 0h1v1h-1zm10 0h1v1h-1zm86 0h1v1h-1zm-8 10h1v1h-1zm-21 1h1v1h-1zM36 70h1v1h-1zm225 1h1v1h-1zm14 3h1v1h-1zm-18 1h1v1h-1zm-1 1h1v1h-1zm-107 1h1v26h-1zm106 0h1v1h-1zm-1 1h1v1h-1zm-1 1h1v1h-1zm-1 3h1v1h-1zm4 12h1v8h-1zm51 5h1v1h-1zm-51 3h1v1h-1zm-107 1h1v1h-1zm-44 1h1v1h-1zm8 0h1v1h-1zm37 0h1v1h-1zm66 0h1v1h-1zm39 0h1v1h-1z"/></g><g fill="#3c3c3c"><path d="M213 58h1v1h-1zm-1 1h1v1h-1zm-3 3h1v1h-1zm11 0h1v1h-1zm50 1h1v1h-1zm-64 2h1v1h-1zm-63 3h1v1h-1zM44 78h1v1h-1zm-3 3h1v1h-1zm21 14h1v1h-1zm146 0h1v1h-1zm63 4h1v1h-1zm2 2h1v1h-1zm-65 2h1v1h-1z"/></g><g fill="#8c8c8c"><path d="M11 59h1v10h-1zm94 0h1v43h-1zM11 69h1v1h-1zm158 5h1v1h-1zm-19 2h1v1h-1zm50 6h1v1h-1zm29 0h13v1h-13zm13 0h1v1h-1zM68 85h1v1h-1zm37 17h1v1h-1z"/></g><g fill="#1a1a1a"><path d="M48 60h1v12h-1zm46 0h1v32h-1zm167 1h1v1h-1zm-137 8h1v32h-1zm37 2h1v1h-1zM48 72h1v1h-1zM12 86h1v1h-1zm22 2h1v1h-1zm60 4h1v1h-1zm30 9h1v1h-1zm151 2h1v1h-1z"/></g><g fill="#afafaf"><path d="M305 63h1v1h-1zm-61 10h1v1h-1zm24 8h1v1h-1zm1 1h1v1h-1zM8 83h1v1H8zm247 1h1v1h-1zm16 0h1v1h-1zm-15 1h1v1h-1zm1 1h1v1h-1zM12 87h1v1h-1zm246 0h1v1h-1zm17 1h1v1h-1zM14 89h1v1h-1zm16 4h1v1h-1z"/></g><g fill="#c6c6c6"><path d="M93 58h1v1h-1zm172 0h1v1h-1zm-115 1h1v1h-1zm113 1h1v1h-1zm-4 4h1v1h-1zm-1 1h1v1h-1zm-42 2h1v1h-1zm-15 6h1v1h-1zm-52 2h1v1h-1zM3 78h1v1H3zm25 1h1v1h-1zM6 81h1v1H6zm175 2h1v10h-1zM38 85h1v1h-1zm-4 4h1v1h-1zm-2 2h1v1h-1zm230 0h1v1h-1zm1 1h1v1h-1zm-82 1h1v1h-1zm84 1h1v1h-1z"/></g><g fill="#606060"><path d="M113 58h1v1h-1zm13 9h14v1h-14zm14 0h1v1h-1zm143 0h16v1h-16zm16 0h1v1h-1zM18 78h1v1h-1zm1 1h1v1h-1zm42 15h1v1h-1zm146 0h1v1h-1zm21 0h1v1h-1zm53 0h1v1h-1zm-168 9h1v1h-1z"/></g><g fill="#ccc"><path d="M149 58h1v1h-1zm74 0h1v1h-1zM93 59h1v33h-1zm129 0h1v1h-1zm-71 1h1v1h-1zm1 1h1v1h-1zm155 0h1v1h-1zm-154 1h1v1h-1zm107 1h1v1h-1zm-105 1h1v1h-1zm13 3h1v1h-1zm-24 3h1v1h-1zM36 71h1v1h-1zm111 2h1v1h-1zM0 75h1v1H0zm31 1h1v1h-1zM2 77h1v1H2zm2 2h1v1H4zm36 4h1v1h-1zm-3 3h1v1h-1zm-1 1h1v1h-1zm57 5h1v1h-1zm171 1h1v1h-1zm2 2h1v1h-1zm2 2h1v1h-1zm-238 5h1v1h-1zm0 1h1v1h-1z"/></g><g fill="#111"><path d="M224 58h1v1h-1zM0 60h1v12H0zm0 12h1v1H0zm147 0h1v1h-1zm2 2h1v1h-1zM1 75h1v1H1zm226 8h1v1h-1zm43 1h1v1h-1zM17 91h1v1h-1zm253 7h1v1h-1z"/></g><g fill="#2f2f2f"><path d="M223 59h1v1h-1zm-69 5h1v1h-1zm-12 3h1v1h-1zm6 6h1v1h-1zM0 74h1v1H0zm34 0h1v1h-1zm13 1h1v1h-1zm-18 4h1v1h-1zm14 0h1v1h-1zm-23 1h1v1h-1zm7 0h1v1h-1zm9 6h1v1h-1zm232 10h1v1h-1zm1 1h1v1h-1zm-202 3h1v1h-1zm3 3h1v1h-1z"/></g><g fill="#222"><path d="M150 60h1v1h-1zm156 1h1v1h-1zm-46 1h1v1h-1zm-2 2h1v1h-1zm-1 1h1v1h-1zm-88 1h34v1h-34zm34 0h1v1h-1zm15 0h36v1h-36zm36 0h2v1h-2zm2 0h1v1h-1zm-98 2h1v1h-1zm-14 1h1v1h-1zm-99 8h1v1h-1zM4 78h1v1H4zm24 2h1v1h-1zM7 81h1v1H7zm31 3h1v1h-1zm-5 5h1v1h-1zm228 0h1v1h-1zm3 3h1v1h-1zM94 93h1v1h-1zm178 7h1v1h-1z"/></g><g fill="#e7e7e7"><path d="M211 61h1v1h-1zm60 0h1v1h-1zm-108 2h1v1h-1zm4 4h1v1h-1zM15 74h1v1h-1zm254 6h1v1h-1zm-41 3h1v10h-1zM59 93h1v1h-1zm169 0h1v1h-1zM61 95h1v1h-1zm148 0h1v1h-1zM62 96h1v1h-1zm1 1h1v1h-1zm2 2h1v1h-1zm1 1h1v1h-1zm1 1h1v1h-1zm1 1h1v1h-1zm141 1h1v1h-1z"/></g><g fill="#fff"><path d="M0 0h310v56H0zm310 0h1v56h-1zM0 56h310v1H0zm310 0h1v1h-1zM12 57h24v13H12zm24 0h1v1h-1zm13 0h7v104h-7zm7 0h1v1h-1zm13 0h24v28H69zm24 0h1v1h-1zm13 0h6v104h-6zm6 0h1v104h-1zm37 0h8v1h-8zm8 0h1v8h-1zm58 0h8v1h-8zm8 0h1v1h-1zm43 0h9v1h-9zm9 0h1v1h-1zm-125 1h7v1h-7zm65 0h7v1h-7zm7 0h1v1h-1zm44 0h7v1h-7zm7 0h1v1h-1z"/><path d="M151 59h7v1h-7zm7 0h1v7h-1zm56 0h7v1h-7zm7 0h1v1h-1zm44 0h7v1h-7zm7 0h1v1h-1zm38 0h1v43h-1z"/><path d="M152 60h7v1h-7zm7 0h1v7h-1zm54 0h7v1h-7zm7 0h1v1h-1zm44 0h7v1h-7zm7 0h1v1h-1zm38 0h1v41h-1z"/><path d="M153 61h7v1h-7zm7 0h1v7h-1zm52 0h7v1h-7zm7 0h1v1h-1zm44 0h7v1h-7zm7 0h1v1h-1zm38 0h2v39h-2z"/><path d="M154 62h7v1h-7zm7 0h1v7h-1zm50 0h7v1h-7zm7 0h1v1h-1zm44 0h7v1h-7zm7 0h1v1h-1zm38 0h3v36h-3z"/><path d="M155 63h7v1h-7zm7 0h1v98h-1zm48 0h7v1h-7zm7 0h1v1h-1zm44 0h7v1h-7zm7 0h1v1h-1zm38 0h4v35h-4z"/><path d="M156 64h7v1h-7zm7 0h1v97h-1zm46 0h7v1h-7zm7 0h1v1h-1zm44 0h7v1h-7zm7 0h1v1h-1zm38 0h5v33h-5z"/><path d="M157 65h7v1h-7zm7 0h1v96h-1zm44 0h7v28h-7zm7 0h1v1h-1zm44 0h7v1h-7zm7 0h1v1h-1zm38 0h6v31h-6z"/><path d="M158 66h7v1h-7zm7 0h1v95h-1zm42 0h7v27h-7zm51 0h7v1h-7zm7 0h1v1h-1zm38 0h7v29h-7z"/><path d="M159 67h7v1h-7zm7 0h1v94h-1zm40 0h8v26h-8zm51 0h7v1h-7zm7 0h1v1h-1zm-138 1h15v93h-15zm15 0h1v93h-1z"/><path d="M160 68h103v1H160zm103 0h1v1h-1zm19 0h28v25h-28zm-140 1h1v92h-1zm19 0h101v1H161zm101 0h1v1h-1z"/><path d="M280 69h30v23h-30zM12 70h23v1H12zm23 0h1v1h-1zm108 0h1v91h-1zm24 0h94v1h-94zm94 0h1v1h-1zM13 71h22v1H13zm22 0h1v1h-1zm109 0h1v90h-1zm23 0h93v1h-93zm93 0h1v1h-1z"/><path d="M278 71h32v19h-32zM14 72h20v1H14zm20 0h1v1h-1zm111 0h1v89h-1zm22 0h92v1h-92zm92 0h1v1h-1zM15 73h18v1H15zm18 0h1v1h-1zm113 0h1v88h-1zm21 0h1v88h-1zm1 0h1v88h-1zm34 0h13v20h-13zm13 0h1v88h-1zm30 0h13v1h-13zm13 0h1v1h-1z"/><path d="M277 73h33v16h-33zM16 74h16v1H16zm16 0h1v1h-1zm115 0h1v87h-1zm98 0h12v1h-12zm12 0h1v1h-1z"/><path d="M276 74h34v14h-34zM17 75h14v1H17zm14 0h1v1h-1zm117 0h1v86h-1zm97 0h11v1h-11zm11 0h1v1h-1z"/><path d="M275 75h35v12h-35zM0 76h1v85H0zm18 0h12v1H18zm12 0h1v1h-1zm18 0h7v85h-7zm101 0h1v1h-1zm96 0h10v1h-10zm10 0h1v1h-1z"/><path d="M274 76h36v10h-36zM1 77h1v84H1zm18 0h10v1H19zm10 0h1v1h-1zm18 0h8v84h-8zm198 0h9v1h-9zm9 0h1v1h-1z"/><path d="M273 77h37v8h-37zM2 78h1v83H2zm18 0h8v1h-8zm8 0h1v1h-1zm18 0h9v83h-9zm199 0h8v1h-8zm8 0h1v1h-1z"/><path d="M272 78h38v6h-38zM3 79h1v82H3zm42 0h10v82H45zm200 0h7v14h-7zm7 0h1v1h-1z"/><path d="M271 79h39v4h-39zM4 80h1v81H4zm40 0h11v81H44z"/><path d="M270 80h40v2h-40zM5 81h1v80H5zm38 0h12v80H43z"/><path d="M269 81h41v1h-41zM6 82h1v79H6zm36 0h13v79H42zm228 0h40v1h-40zM7 83h1v78H7z"/><path d="M41 83h14v78H41zm141 0h33v10h-33zm47 0h13v10h-13zm13 0h11v10h-11zm11 0h1v10h-1zm18 0h39v1h-39zM8 84h1v77H8z"/><path d="M40 84h15v77H40zm214 0h1v9h-1zm18 0h38v1h-38zM9 85h1v76H9z"/><path d="M39 85h16v76H39zm30 0h23v1H69zm23 0h1v8h-1zm163 0h1v8h-1zm18 0h37v1h-37zM10 86h1v75h-1z"/><path d="M38 86h17v75H38zm32 0h22v1H70zm186 0h1v7h-1zm18 0h36v1h-36zM11 87h1v74h-1z"/><path d="M37 87h18v74H37zm34 0h21v1H71zm186 0h1v74h-1zm18 0h35v1h-35zM12 88h1v73h-1z"/><path d="M36 88h19v73H36zm36 0h20v1H72zm186 0h1v73h-1zm18 0h34v1h-34zM13 89h1v72h-1z"/><path d="M35 89h20v72H35zm38 0h19v1H73zm186 0h1v72h-1zm18 0h33v1h-33zM14 90h1v71h-1z"/><path d="M34 90h21v71H34zm40 0h18v1H74zm186 0h1v71h-1zm18 0h32v1h-32zM15 91h1v70h-1z"/><path d="M33 91h23v70H33zm23 0h1v70h-1zm19 0h17v1H75zm186 0h1v70h-1zm18 0h31v1h-31zM16 92h1v69h-1z"/><path d="M32 92h25v69H32zm25 0h1v69h-1zm19 0h16v1H76zm186 0h1v69h-1zm18 0h30v1h-30zM17 93h1v68h-1z"/><path d="M31 93h27v68H31zm27 0h1v68h-1zm19 0h15v1H77zm15 0h1v1h-1zm90 0h33v1h-33zm47 0h34v1h-34zm34 0h1v68h-1zm18 0h29v1h-29zM59 94h1v67h-1zm151 0h5v67h-5zm54 0h1v67h-1zM60 95h1v66h-1zm205 0h1v66h-1zm38 0h7v1h-7zM61 96h1v65h-1zm205 0h1v65h-1zm38 0h6v1h-6zM62 97h1v64h-1zm205 0h1v64h-1zm38 0h5v1h-5zM63 98h1v63h-1zm205 0h1v63h-1zm38 0h4v1h-4zM64 99h1v62h-1zm205 0h1v62h-1zm-204 1h1v61h-1zm205 0h1v61h-1zm38 0h2v1h-2zm-242 1h1v60h-1zm205 0h1v60h-1zm38 0h1v1h-1zm-242 1h1v59h-1zm205 0h1v59h-1zm38 0h1v1h-1zm-242 1h1v58h-1zm205 0h1v58h-1zm-255 1h1v57h-1z"/><path d="M30 104h40v57H30zm40 0h1v57h-1zm55 0h24v57h-24zm24 0h1v57h-1zm20 0h1v57h-1zm40 0h6v57h-6zm47 0h19v57h-19zm19 0h1v57h-1z"/><path d="M19 105h291v56H19zm291 0h1v56h-1zM0 161h310v1H0zm310 0h1v1h-1z"/></g><g fill="#6a6a6a"><path d="M37 59h1v10h-1zm76 0h1v1h-1zm153 8h1v1h-1zM37 69h1v1h-1zm163 4h1v1h-1zm17 0h1v1h-1zm43 0h1v1h-1zm10 5h1v1h-1zM77 94h14v1H77zm14 0h1v1h-1zm91 0h1v1h-1zm101 0h16v1h-16zm16 0h1v1h-1zm-44 1h1v1h-1zm-142 7h1v1h-1zm142 1h1v1h-1z"/></g><g fill="silver"><path d="M264 59h1v1h-1zm-3 3h1v1h-1zm45 0h1v1h-1zM169 73h1v1h-1zM5 80h1v1H5zm2 2h1v1H7zm237 0h1v1h-1zm26 1h1v1h-1zM9 84h1v1H9zm59 0h1v1h-1zm204 1h1v1h-1zM11 86h1v1h-1zm24 2h1v1h-1zm224 0h1v1h-1zm1 1h1v1h-1zM33 90h1v1h-1zm228 0h1v1h-1zM31 92h1v1h-1zm-13 2h1v1h-1z"/></g><g fill="#555"><path d="M274 59h1v1h-1zm26 8h1v1h-1zm-35 1h1v1h-1zm-3 3h1v1h-1zM13 73h1v1h-1zm4 4h1v1h-1zm40 13h1v1h-1zm2 2h1v1h-1zm122 2h1v1h-1zM66 99h1v1h-1z"/></g><g fill="#5b5b5b"><path d="M271 62h1v1h-1zm-2 2h1v1h-1zm-1 1h1v1h-1zm-143 2h1v1h-1zM15 75h1v1h-1zm242 1h1v1h-1zm14 1h1v1h-1zm-2 2h1v1h-1zM60 93h1v1h-1zm33 1h1v1h-1zm161 0h1v1h-1zM63 96h1v1h-1z"/></g><g fill="#ededed"><path d="M159 57h1v1h-1zm54 0h1v1h-1zm96 0h1v1h-1zm-35 1h1v1h-1zm-2 2h1v1h-1zm-111 1h1v1h-1zm109 1h1v1h-1zm-2 2h1v1h-1zm-102 2h1v1h-1zm97 3h1v1h-1zM13 72h1v1h-1zm3 3h1v1h-1zm258 0h1v1h-1zm-2 2h1v1h-1zM19 78h1v1h-1zm252 0h1v1h-1zM60 94h1v1h-1zm149 2h1v6h-1zm0 6h1v1h-1z"/></g><g fill="#292929"><path d="M275 58h1v1h-1zm34 0h1v1h-1zm-160 1h1v1h-1zm114 0h1v1h-1zm45 0h1v1h-1zm-46 1h1v1h-1zm-43 3h1v1h-1zm40 0h1v1h-1zm-135 5h1v1h-1zm21 2h1v1h-1zM37 71h1v1h-1zm-1 1h1v1h-1zM2 76h1v1H2zm30 0h1v1h-1zm-1 1h1v1h-1zm-10 3h5v1h-5zm5 0h1v1h-1zm242 2h1v1h-1zM39 83h1v1h-1zm-8 8h1v1h-1zm232 0h1v1h-1z"/></g><g fill="#4d4d4d"><path d="M160 59h1v1h-1zm1 1h1v1h-1zm112 0h1v1h-1zm-110 2h1v1h-1zm1 1h1v1h-1zm1 1h1v1h-1zM12 72h1v1h-1zm2 2h1v1h-1zm2 2h1v1h-1zm52 25h1v1h-1z"/></g></svg>